%FSLAX45Y45*%
G04 Gerber Fmt 4.5, Leading zero omitted, Abs format (unit mm)*
G04 Created by KiCad (PCBNEW (6.0.0)) date 2022-03-16 00:11:59*
%MOMM*%
%LPD*%
G01*
G04 APERTURE LIST*
%TA.AperFunction,Profile*%
%ADD10C,0.100000*%
%TD*%
%ADD11C,0.200000*%
%ADD12C,0.220000*%
%ADD13C,0.320000*%
G04 APERTURE END LIST*
D10*
X18150000Y-10200000D02*
X13200000Y-10200000D01*
X13200000Y-10200000D02*
X13200000Y-2200000D01*
X13200000Y-2200000D02*
X18150000Y-2200000D01*
X18150000Y-2200000D02*
X18150000Y-10200000D01*
D11*
D12*
X13352000Y-6138400D02*
X13572000Y-6358400D01*
X13572000Y-6138400D02*
X13352000Y-6358400D01*
X14088600Y-6138400D02*
X14308600Y-6358400D01*
X14308600Y-6138400D02*
X14088600Y-6358400D01*
D13*
X13860000Y-2700000D02*
G75*
G03*
X13860000Y-2700000I-160000J0D01*
G01*
X13860000Y-9700000D02*
G75*
G03*
X13860000Y-9700000I-160000J0D01*
G01*
X17860000Y-2700000D02*
G75*
G03*
X17860000Y-2700000I-160000J0D01*
G01*
X17860000Y-9700000D02*
G75*
G03*
X17860000Y-9700000I-160000J0D01*
G01*
D11*
X13452619Y-10515476D02*
X13452619Y-10315476D01*
X13500238Y-10315476D01*
X13528809Y-10325000D01*
X13547857Y-10344048D01*
X13557381Y-10363095D01*
X13566905Y-10401190D01*
X13566905Y-10429762D01*
X13557381Y-10467857D01*
X13547857Y-10486905D01*
X13528809Y-10505952D01*
X13500238Y-10515476D01*
X13452619Y-10515476D01*
X13652619Y-10515476D02*
X13652619Y-10382143D01*
X13652619Y-10420238D02*
X13662143Y-10401190D01*
X13671667Y-10391667D01*
X13690714Y-10382143D01*
X13709762Y-10382143D01*
X13776428Y-10515476D02*
X13776428Y-10382143D01*
X13776428Y-10315476D02*
X13766905Y-10325000D01*
X13776428Y-10334524D01*
X13785952Y-10325000D01*
X13776428Y-10315476D01*
X13776428Y-10334524D01*
X13900238Y-10515476D02*
X13881190Y-10505952D01*
X13871667Y-10486905D01*
X13871667Y-10315476D01*
X14005000Y-10515476D02*
X13985952Y-10505952D01*
X13976428Y-10486905D01*
X13976428Y-10315476D01*
X14233571Y-10515476D02*
X14233571Y-10315476D01*
X14300238Y-10458333D01*
X14366905Y-10315476D01*
X14366905Y-10515476D01*
X14547857Y-10515476D02*
X14547857Y-10410714D01*
X14538333Y-10391667D01*
X14519286Y-10382143D01*
X14481190Y-10382143D01*
X14462143Y-10391667D01*
X14547857Y-10505952D02*
X14528809Y-10515476D01*
X14481190Y-10515476D01*
X14462143Y-10505952D01*
X14452619Y-10486905D01*
X14452619Y-10467857D01*
X14462143Y-10448810D01*
X14481190Y-10439286D01*
X14528809Y-10439286D01*
X14547857Y-10429762D01*
X14643095Y-10382143D02*
X14643095Y-10582143D01*
X14643095Y-10391667D02*
X14662143Y-10382143D01*
X14700238Y-10382143D01*
X14719286Y-10391667D01*
X14728809Y-10401190D01*
X14738333Y-10420238D01*
X14738333Y-10477381D01*
X14728809Y-10496429D01*
X14719286Y-10505952D01*
X14700238Y-10515476D01*
X14662143Y-10515476D01*
X14643095Y-10505952D01*
X14824048Y-10496429D02*
X14833571Y-10505952D01*
X14824048Y-10515476D01*
X14814524Y-10505952D01*
X14824048Y-10496429D01*
X14824048Y-10515476D01*
X14824048Y-10391667D02*
X14833571Y-10401190D01*
X14824048Y-10410714D01*
X14814524Y-10401190D01*
X14824048Y-10391667D01*
X14824048Y-10410714D01*
X12995000Y-10745000D02*
X13195000Y-10945000D01*
X13195000Y-10745000D02*
X12995000Y-10945000D01*
X13443095Y-10754524D02*
X13452619Y-10745000D01*
X13471667Y-10735476D01*
X13519286Y-10735476D01*
X13538333Y-10745000D01*
X13547857Y-10754524D01*
X13557381Y-10773571D01*
X13557381Y-10792619D01*
X13547857Y-10821190D01*
X13433571Y-10935476D01*
X13557381Y-10935476D01*
X13643095Y-10916429D02*
X13652619Y-10925952D01*
X13643095Y-10935476D01*
X13633571Y-10925952D01*
X13643095Y-10916429D01*
X13643095Y-10935476D01*
X13728809Y-10754524D02*
X13738333Y-10745000D01*
X13757381Y-10735476D01*
X13805000Y-10735476D01*
X13824048Y-10745000D01*
X13833571Y-10754524D01*
X13843095Y-10773571D01*
X13843095Y-10792619D01*
X13833571Y-10821190D01*
X13719286Y-10935476D01*
X13843095Y-10935476D01*
X13966905Y-10735476D02*
X13985952Y-10735476D01*
X14005000Y-10745000D01*
X14014524Y-10754524D01*
X14024048Y-10773571D01*
X14033571Y-10811667D01*
X14033571Y-10859286D01*
X14024048Y-10897381D01*
X14014524Y-10916429D01*
X14005000Y-10925952D01*
X13985952Y-10935476D01*
X13966905Y-10935476D01*
X13947857Y-10925952D01*
X13938333Y-10916429D01*
X13928809Y-10897381D01*
X13919286Y-10859286D01*
X13919286Y-10811667D01*
X13928809Y-10773571D01*
X13938333Y-10754524D01*
X13947857Y-10745000D01*
X13966905Y-10735476D01*
X14157381Y-10735476D02*
X14176428Y-10735476D01*
X14195476Y-10745000D01*
X14205000Y-10754524D01*
X14214524Y-10773571D01*
X14224048Y-10811667D01*
X14224048Y-10859286D01*
X14214524Y-10897381D01*
X14205000Y-10916429D01*
X14195476Y-10925952D01*
X14176428Y-10935476D01*
X14157381Y-10935476D01*
X14138333Y-10925952D01*
X14128809Y-10916429D01*
X14119286Y-10897381D01*
X14109762Y-10859286D01*
X14109762Y-10811667D01*
X14119286Y-10773571D01*
X14128809Y-10754524D01*
X14138333Y-10745000D01*
X14157381Y-10735476D01*
X14309762Y-10935476D02*
X14309762Y-10802143D01*
X14309762Y-10821190D02*
X14319286Y-10811667D01*
X14338333Y-10802143D01*
X14366905Y-10802143D01*
X14385952Y-10811667D01*
X14395476Y-10830714D01*
X14395476Y-10935476D01*
X14395476Y-10830714D02*
X14405000Y-10811667D01*
X14424048Y-10802143D01*
X14452619Y-10802143D01*
X14471667Y-10811667D01*
X14481190Y-10830714D01*
X14481190Y-10935476D01*
X14576428Y-10935476D02*
X14576428Y-10802143D01*
X14576428Y-10821190D02*
X14585952Y-10811667D01*
X14605000Y-10802143D01*
X14633571Y-10802143D01*
X14652619Y-10811667D01*
X14662143Y-10830714D01*
X14662143Y-10935476D01*
X14662143Y-10830714D02*
X14671667Y-10811667D01*
X14690714Y-10802143D01*
X14719286Y-10802143D01*
X14738333Y-10811667D01*
X14747857Y-10830714D01*
X14747857Y-10935476D01*
X15138333Y-10725952D02*
X14966905Y-10983095D01*
X15395476Y-10735476D02*
X15414524Y-10735476D01*
X15433571Y-10745000D01*
X15443095Y-10754524D01*
X15452619Y-10773571D01*
X15462143Y-10811667D01*
X15462143Y-10859286D01*
X15452619Y-10897381D01*
X15443095Y-10916429D01*
X15433571Y-10925952D01*
X15414524Y-10935476D01*
X15395476Y-10935476D01*
X15376428Y-10925952D01*
X15366905Y-10916429D01*
X15357381Y-10897381D01*
X15347857Y-10859286D01*
X15347857Y-10811667D01*
X15357381Y-10773571D01*
X15366905Y-10754524D01*
X15376428Y-10745000D01*
X15395476Y-10735476D01*
X15547857Y-10916429D02*
X15557381Y-10925952D01*
X15547857Y-10935476D01*
X15538333Y-10925952D01*
X15547857Y-10916429D01*
X15547857Y-10935476D01*
X15681190Y-10735476D02*
X15700238Y-10735476D01*
X15719286Y-10745000D01*
X15728809Y-10754524D01*
X15738333Y-10773571D01*
X15747857Y-10811667D01*
X15747857Y-10859286D01*
X15738333Y-10897381D01*
X15728809Y-10916429D01*
X15719286Y-10925952D01*
X15700238Y-10935476D01*
X15681190Y-10935476D01*
X15662143Y-10925952D01*
X15652619Y-10916429D01*
X15643095Y-10897381D01*
X15633571Y-10859286D01*
X15633571Y-10811667D01*
X15643095Y-10773571D01*
X15652619Y-10754524D01*
X15662143Y-10745000D01*
X15681190Y-10735476D01*
X15862143Y-10821190D02*
X15843095Y-10811667D01*
X15833571Y-10802143D01*
X15824048Y-10783095D01*
X15824048Y-10773571D01*
X15833571Y-10754524D01*
X15843095Y-10745000D01*
X15862143Y-10735476D01*
X15900238Y-10735476D01*
X15919286Y-10745000D01*
X15928809Y-10754524D01*
X15938333Y-10773571D01*
X15938333Y-10783095D01*
X15928809Y-10802143D01*
X15919286Y-10811667D01*
X15900238Y-10821190D01*
X15862143Y-10821190D01*
X15843095Y-10830714D01*
X15833571Y-10840238D01*
X15824048Y-10859286D01*
X15824048Y-10897381D01*
X15833571Y-10916429D01*
X15843095Y-10925952D01*
X15862143Y-10935476D01*
X15900238Y-10935476D01*
X15919286Y-10925952D01*
X15928809Y-10916429D01*
X15938333Y-10897381D01*
X15938333Y-10859286D01*
X15928809Y-10840238D01*
X15919286Y-10830714D01*
X15900238Y-10821190D01*
X16109762Y-10735476D02*
X16071667Y-10735476D01*
X16052619Y-10745000D01*
X16043095Y-10754524D01*
X16024048Y-10783095D01*
X16014524Y-10821190D01*
X16014524Y-10897381D01*
X16024048Y-10916429D01*
X16033571Y-10925952D01*
X16052619Y-10935476D01*
X16090714Y-10935476D01*
X16109762Y-10925952D01*
X16119286Y-10916429D01*
X16128809Y-10897381D01*
X16128809Y-10849762D01*
X16119286Y-10830714D01*
X16109762Y-10821190D01*
X16090714Y-10811667D01*
X16052619Y-10811667D01*
X16033571Y-10821190D01*
X16024048Y-10830714D01*
X16014524Y-10849762D01*
X16300238Y-10735476D02*
X16262143Y-10735476D01*
X16243095Y-10745000D01*
X16233571Y-10754524D01*
X16214524Y-10783095D01*
X16205000Y-10821190D01*
X16205000Y-10897381D01*
X16214524Y-10916429D01*
X16224048Y-10925952D01*
X16243095Y-10935476D01*
X16281190Y-10935476D01*
X16300238Y-10925952D01*
X16309762Y-10916429D01*
X16319286Y-10897381D01*
X16319286Y-10849762D01*
X16309762Y-10830714D01*
X16300238Y-10821190D01*
X16281190Y-10811667D01*
X16243095Y-10811667D01*
X16224048Y-10821190D01*
X16214524Y-10830714D01*
X16205000Y-10849762D01*
X16395476Y-10735476D02*
X16395476Y-10773571D01*
X16471667Y-10735476D02*
X16471667Y-10773571D01*
X16766905Y-11011667D02*
X16757381Y-11002143D01*
X16738333Y-10973571D01*
X16728809Y-10954524D01*
X16719286Y-10925952D01*
X16709762Y-10878333D01*
X16709762Y-10840238D01*
X16719286Y-10792619D01*
X16728809Y-10764048D01*
X16738333Y-10745000D01*
X16757381Y-10716429D01*
X16766905Y-10706905D01*
X16833571Y-10754524D02*
X16843095Y-10745000D01*
X16862143Y-10735476D01*
X16909762Y-10735476D01*
X16928810Y-10745000D01*
X16938333Y-10754524D01*
X16947857Y-10773571D01*
X16947857Y-10792619D01*
X16938333Y-10821190D01*
X16824048Y-10935476D01*
X16947857Y-10935476D01*
X17185952Y-10935476D02*
X17185952Y-10735476D01*
X17271667Y-10935476D02*
X17271667Y-10830714D01*
X17262143Y-10811667D01*
X17243095Y-10802143D01*
X17214524Y-10802143D01*
X17195476Y-10811667D01*
X17185952Y-10821190D01*
X17395476Y-10935476D02*
X17376429Y-10925952D01*
X17366905Y-10916429D01*
X17357381Y-10897381D01*
X17357381Y-10840238D01*
X17366905Y-10821190D01*
X17376429Y-10811667D01*
X17395476Y-10802143D01*
X17424048Y-10802143D01*
X17443095Y-10811667D01*
X17452619Y-10821190D01*
X17462143Y-10840238D01*
X17462143Y-10897381D01*
X17452619Y-10916429D01*
X17443095Y-10925952D01*
X17424048Y-10935476D01*
X17395476Y-10935476D01*
X17576429Y-10935476D02*
X17557381Y-10925952D01*
X17547857Y-10906905D01*
X17547857Y-10735476D01*
X17728810Y-10925952D02*
X17709762Y-10935476D01*
X17671667Y-10935476D01*
X17652619Y-10925952D01*
X17643095Y-10906905D01*
X17643095Y-10830714D01*
X17652619Y-10811667D01*
X17671667Y-10802143D01*
X17709762Y-10802143D01*
X17728810Y-10811667D01*
X17738333Y-10830714D01*
X17738333Y-10849762D01*
X17643095Y-10868810D01*
X17814524Y-10925952D02*
X17833571Y-10935476D01*
X17871667Y-10935476D01*
X17890714Y-10925952D01*
X17900238Y-10906905D01*
X17900238Y-10897381D01*
X17890714Y-10878333D01*
X17871667Y-10868810D01*
X17843095Y-10868810D01*
X17824048Y-10859286D01*
X17814524Y-10840238D01*
X17814524Y-10830714D01*
X17824048Y-10811667D01*
X17843095Y-10802143D01*
X17871667Y-10802143D01*
X17890714Y-10811667D01*
X17966905Y-11011667D02*
X17976429Y-11002143D01*
X17995476Y-10973571D01*
X18005000Y-10954524D01*
X18014524Y-10925952D01*
X18024048Y-10878333D01*
X18024048Y-10840238D01*
X18014524Y-10792619D01*
X18005000Y-10764048D01*
X17995476Y-10745000D01*
X17976429Y-10716429D01*
X17966905Y-10706905D01*
X18328810Y-11011667D02*
X18319286Y-11002143D01*
X18300238Y-10973571D01*
X18290714Y-10954524D01*
X18281190Y-10925952D01*
X18271667Y-10878333D01*
X18271667Y-10840238D01*
X18281190Y-10792619D01*
X18290714Y-10764048D01*
X18300238Y-10745000D01*
X18319286Y-10716429D01*
X18328810Y-10706905D01*
X18405000Y-10802143D02*
X18405000Y-10935476D01*
X18405000Y-10821190D02*
X18414524Y-10811667D01*
X18433571Y-10802143D01*
X18462143Y-10802143D01*
X18481190Y-10811667D01*
X18490714Y-10830714D01*
X18490714Y-10935476D01*
X18614524Y-10935476D02*
X18595476Y-10925952D01*
X18585952Y-10916429D01*
X18576429Y-10897381D01*
X18576429Y-10840238D01*
X18585952Y-10821190D01*
X18595476Y-10811667D01*
X18614524Y-10802143D01*
X18643095Y-10802143D01*
X18662143Y-10811667D01*
X18671667Y-10821190D01*
X18681190Y-10840238D01*
X18681190Y-10897381D01*
X18671667Y-10916429D01*
X18662143Y-10925952D01*
X18643095Y-10935476D01*
X18614524Y-10935476D01*
X18738333Y-10802143D02*
X18814524Y-10802143D01*
X18766905Y-10735476D02*
X18766905Y-10906905D01*
X18776429Y-10925952D01*
X18795476Y-10935476D01*
X18814524Y-10935476D01*
X19033571Y-10802143D02*
X19033571Y-11002143D01*
X19033571Y-10811667D02*
X19052619Y-10802143D01*
X19090714Y-10802143D01*
X19109762Y-10811667D01*
X19119286Y-10821190D01*
X19128810Y-10840238D01*
X19128810Y-10897381D01*
X19119286Y-10916429D01*
X19109762Y-10925952D01*
X19090714Y-10935476D01*
X19052619Y-10935476D01*
X19033571Y-10925952D01*
X19243095Y-10935476D02*
X19224048Y-10925952D01*
X19214524Y-10906905D01*
X19214524Y-10735476D01*
X19405000Y-10935476D02*
X19405000Y-10830714D01*
X19395476Y-10811667D01*
X19376429Y-10802143D01*
X19338333Y-10802143D01*
X19319286Y-10811667D01*
X19405000Y-10925952D02*
X19385952Y-10935476D01*
X19338333Y-10935476D01*
X19319286Y-10925952D01*
X19309762Y-10906905D01*
X19309762Y-10887857D01*
X19319286Y-10868810D01*
X19338333Y-10859286D01*
X19385952Y-10859286D01*
X19405000Y-10849762D01*
X19471667Y-10802143D02*
X19547857Y-10802143D01*
X19500238Y-10735476D02*
X19500238Y-10906905D01*
X19509762Y-10925952D01*
X19528810Y-10935476D01*
X19547857Y-10935476D01*
X19690714Y-10925952D02*
X19671667Y-10935476D01*
X19633571Y-10935476D01*
X19614524Y-10925952D01*
X19605000Y-10906905D01*
X19605000Y-10830714D01*
X19614524Y-10811667D01*
X19633571Y-10802143D01*
X19671667Y-10802143D01*
X19690714Y-10811667D01*
X19700238Y-10830714D01*
X19700238Y-10849762D01*
X19605000Y-10868810D01*
X19871667Y-10935476D02*
X19871667Y-10735476D01*
X19871667Y-10925952D02*
X19852619Y-10935476D01*
X19814524Y-10935476D01*
X19795476Y-10925952D01*
X19785952Y-10916429D01*
X19776429Y-10897381D01*
X19776429Y-10840238D01*
X19785952Y-10821190D01*
X19795476Y-10811667D01*
X19814524Y-10802143D01*
X19852619Y-10802143D01*
X19871667Y-10811667D01*
X19947857Y-11011667D02*
X19957381Y-11002143D01*
X19976429Y-10973571D01*
X19985952Y-10954524D01*
X19995476Y-10925952D01*
X20005000Y-10878333D01*
X20005000Y-10840238D01*
X19995476Y-10792619D01*
X19985952Y-10764048D01*
X19976429Y-10745000D01*
X19957381Y-10716429D01*
X19947857Y-10706905D01*
X13195000Y-11165000D02*
G75*
G03*
X13195000Y-11165000I-100000J0D01*
G01*
X13433571Y-11055476D02*
X13557381Y-11055476D01*
X13490714Y-11131667D01*
X13519286Y-11131667D01*
X13538333Y-11141190D01*
X13547857Y-11150714D01*
X13557381Y-11169762D01*
X13557381Y-11217381D01*
X13547857Y-11236428D01*
X13538333Y-11245952D01*
X13519286Y-11255476D01*
X13462143Y-11255476D01*
X13443095Y-11245952D01*
X13433571Y-11236428D01*
X13643095Y-11236428D02*
X13652619Y-11245952D01*
X13643095Y-11255476D01*
X13633571Y-11245952D01*
X13643095Y-11236428D01*
X13643095Y-11255476D01*
X13728809Y-11074524D02*
X13738333Y-11065000D01*
X13757381Y-11055476D01*
X13805000Y-11055476D01*
X13824048Y-11065000D01*
X13833571Y-11074524D01*
X13843095Y-11093571D01*
X13843095Y-11112619D01*
X13833571Y-11141190D01*
X13719286Y-11255476D01*
X13843095Y-11255476D01*
X13966905Y-11055476D02*
X13985952Y-11055476D01*
X14005000Y-11065000D01*
X14014524Y-11074524D01*
X14024048Y-11093571D01*
X14033571Y-11131667D01*
X14033571Y-11179286D01*
X14024048Y-11217381D01*
X14014524Y-11236428D01*
X14005000Y-11245952D01*
X13985952Y-11255476D01*
X13966905Y-11255476D01*
X13947857Y-11245952D01*
X13938333Y-11236428D01*
X13928809Y-11217381D01*
X13919286Y-11179286D01*
X13919286Y-11131667D01*
X13928809Y-11093571D01*
X13938333Y-11074524D01*
X13947857Y-11065000D01*
X13966905Y-11055476D01*
X14157381Y-11055476D02*
X14176428Y-11055476D01*
X14195476Y-11065000D01*
X14205000Y-11074524D01*
X14214524Y-11093571D01*
X14224048Y-11131667D01*
X14224048Y-11179286D01*
X14214524Y-11217381D01*
X14205000Y-11236428D01*
X14195476Y-11245952D01*
X14176428Y-11255476D01*
X14157381Y-11255476D01*
X14138333Y-11245952D01*
X14128809Y-11236428D01*
X14119286Y-11217381D01*
X14109762Y-11179286D01*
X14109762Y-11131667D01*
X14119286Y-11093571D01*
X14128809Y-11074524D01*
X14138333Y-11065000D01*
X14157381Y-11055476D01*
X14309762Y-11255476D02*
X14309762Y-11122143D01*
X14309762Y-11141190D02*
X14319286Y-11131667D01*
X14338333Y-11122143D01*
X14366905Y-11122143D01*
X14385952Y-11131667D01*
X14395476Y-11150714D01*
X14395476Y-11255476D01*
X14395476Y-11150714D02*
X14405000Y-11131667D01*
X14424048Y-11122143D01*
X14452619Y-11122143D01*
X14471667Y-11131667D01*
X14481190Y-11150714D01*
X14481190Y-11255476D01*
X14576428Y-11255476D02*
X14576428Y-11122143D01*
X14576428Y-11141190D02*
X14585952Y-11131667D01*
X14605000Y-11122143D01*
X14633571Y-11122143D01*
X14652619Y-11131667D01*
X14662143Y-11150714D01*
X14662143Y-11255476D01*
X14662143Y-11150714D02*
X14671667Y-11131667D01*
X14690714Y-11122143D01*
X14719286Y-11122143D01*
X14738333Y-11131667D01*
X14747857Y-11150714D01*
X14747857Y-11255476D01*
X15138333Y-11045952D02*
X14966905Y-11303095D01*
X15395476Y-11055476D02*
X15414524Y-11055476D01*
X15433571Y-11065000D01*
X15443095Y-11074524D01*
X15452619Y-11093571D01*
X15462143Y-11131667D01*
X15462143Y-11179286D01*
X15452619Y-11217381D01*
X15443095Y-11236428D01*
X15433571Y-11245952D01*
X15414524Y-11255476D01*
X15395476Y-11255476D01*
X15376428Y-11245952D01*
X15366905Y-11236428D01*
X15357381Y-11217381D01*
X15347857Y-11179286D01*
X15347857Y-11131667D01*
X15357381Y-11093571D01*
X15366905Y-11074524D01*
X15376428Y-11065000D01*
X15395476Y-11055476D01*
X15547857Y-11236428D02*
X15557381Y-11245952D01*
X15547857Y-11255476D01*
X15538333Y-11245952D01*
X15547857Y-11236428D01*
X15547857Y-11255476D01*
X15747857Y-11255476D02*
X15633571Y-11255476D01*
X15690714Y-11255476D02*
X15690714Y-11055476D01*
X15671667Y-11084048D01*
X15652619Y-11103095D01*
X15633571Y-11112619D01*
X15824048Y-11074524D02*
X15833571Y-11065000D01*
X15852619Y-11055476D01*
X15900238Y-11055476D01*
X15919286Y-11065000D01*
X15928809Y-11074524D01*
X15938333Y-11093571D01*
X15938333Y-11112619D01*
X15928809Y-11141190D01*
X15814524Y-11255476D01*
X15938333Y-11255476D01*
X16109762Y-11055476D02*
X16071667Y-11055476D01*
X16052619Y-11065000D01*
X16043095Y-11074524D01*
X16024048Y-11103095D01*
X16014524Y-11141190D01*
X16014524Y-11217381D01*
X16024048Y-11236428D01*
X16033571Y-11245952D01*
X16052619Y-11255476D01*
X16090714Y-11255476D01*
X16109762Y-11245952D01*
X16119286Y-11236428D01*
X16128809Y-11217381D01*
X16128809Y-11169762D01*
X16119286Y-11150714D01*
X16109762Y-11141190D01*
X16090714Y-11131667D01*
X16052619Y-11131667D01*
X16033571Y-11141190D01*
X16024048Y-11150714D01*
X16014524Y-11169762D01*
X16252619Y-11055476D02*
X16271667Y-11055476D01*
X16290714Y-11065000D01*
X16300238Y-11074524D01*
X16309762Y-11093571D01*
X16319286Y-11131667D01*
X16319286Y-11179286D01*
X16309762Y-11217381D01*
X16300238Y-11236428D01*
X16290714Y-11245952D01*
X16271667Y-11255476D01*
X16252619Y-11255476D01*
X16233571Y-11245952D01*
X16224048Y-11236428D01*
X16214524Y-11217381D01*
X16205000Y-11179286D01*
X16205000Y-11131667D01*
X16214524Y-11093571D01*
X16224048Y-11074524D01*
X16233571Y-11065000D01*
X16252619Y-11055476D01*
X16395476Y-11055476D02*
X16395476Y-11093571D01*
X16471667Y-11055476D02*
X16471667Y-11093571D01*
X16766905Y-11331667D02*
X16757381Y-11322143D01*
X16738333Y-11293571D01*
X16728809Y-11274524D01*
X16719286Y-11245952D01*
X16709762Y-11198333D01*
X16709762Y-11160238D01*
X16719286Y-11112619D01*
X16728809Y-11084048D01*
X16738333Y-11065000D01*
X16757381Y-11036429D01*
X16766905Y-11026905D01*
X16928810Y-11122143D02*
X16928810Y-11255476D01*
X16881190Y-11045952D02*
X16833571Y-11188809D01*
X16957381Y-11188809D01*
X17185952Y-11255476D02*
X17185952Y-11055476D01*
X17271667Y-11255476D02*
X17271667Y-11150714D01*
X17262143Y-11131667D01*
X17243095Y-11122143D01*
X17214524Y-11122143D01*
X17195476Y-11131667D01*
X17185952Y-11141190D01*
X17395476Y-11255476D02*
X17376429Y-11245952D01*
X17366905Y-11236428D01*
X17357381Y-11217381D01*
X17357381Y-11160238D01*
X17366905Y-11141190D01*
X17376429Y-11131667D01*
X17395476Y-11122143D01*
X17424048Y-11122143D01*
X17443095Y-11131667D01*
X17452619Y-11141190D01*
X17462143Y-11160238D01*
X17462143Y-11217381D01*
X17452619Y-11236428D01*
X17443095Y-11245952D01*
X17424048Y-11255476D01*
X17395476Y-11255476D01*
X17576429Y-11255476D02*
X17557381Y-11245952D01*
X17547857Y-11226905D01*
X17547857Y-11055476D01*
X17728810Y-11245952D02*
X17709762Y-11255476D01*
X17671667Y-11255476D01*
X17652619Y-11245952D01*
X17643095Y-11226905D01*
X17643095Y-11150714D01*
X17652619Y-11131667D01*
X17671667Y-11122143D01*
X17709762Y-11122143D01*
X17728810Y-11131667D01*
X17738333Y-11150714D01*
X17738333Y-11169762D01*
X17643095Y-11188809D01*
X17814524Y-11245952D02*
X17833571Y-11255476D01*
X17871667Y-11255476D01*
X17890714Y-11245952D01*
X17900238Y-11226905D01*
X17900238Y-11217381D01*
X17890714Y-11198333D01*
X17871667Y-11188809D01*
X17843095Y-11188809D01*
X17824048Y-11179286D01*
X17814524Y-11160238D01*
X17814524Y-11150714D01*
X17824048Y-11131667D01*
X17843095Y-11122143D01*
X17871667Y-11122143D01*
X17890714Y-11131667D01*
X17966905Y-11331667D02*
X17976429Y-11322143D01*
X17995476Y-11293571D01*
X18005000Y-11274524D01*
X18014524Y-11245952D01*
X18024048Y-11198333D01*
X18024048Y-11160238D01*
X18014524Y-11112619D01*
X18005000Y-11084048D01*
X17995476Y-11065000D01*
X17976429Y-11036429D01*
X17966905Y-11026905D01*
X18328810Y-11331667D02*
X18319286Y-11322143D01*
X18300238Y-11293571D01*
X18290714Y-11274524D01*
X18281190Y-11245952D01*
X18271667Y-11198333D01*
X18271667Y-11160238D01*
X18281190Y-11112619D01*
X18290714Y-11084048D01*
X18300238Y-11065000D01*
X18319286Y-11036429D01*
X18328810Y-11026905D01*
X18405000Y-11122143D02*
X18405000Y-11255476D01*
X18405000Y-11141190D02*
X18414524Y-11131667D01*
X18433571Y-11122143D01*
X18462143Y-11122143D01*
X18481190Y-11131667D01*
X18490714Y-11150714D01*
X18490714Y-11255476D01*
X18614524Y-11255476D02*
X18595476Y-11245952D01*
X18585952Y-11236428D01*
X18576429Y-11217381D01*
X18576429Y-11160238D01*
X18585952Y-11141190D01*
X18595476Y-11131667D01*
X18614524Y-11122143D01*
X18643095Y-11122143D01*
X18662143Y-11131667D01*
X18671667Y-11141190D01*
X18681190Y-11160238D01*
X18681190Y-11217381D01*
X18671667Y-11236428D01*
X18662143Y-11245952D01*
X18643095Y-11255476D01*
X18614524Y-11255476D01*
X18738333Y-11122143D02*
X18814524Y-11122143D01*
X18766905Y-11055476D02*
X18766905Y-11226905D01*
X18776429Y-11245952D01*
X18795476Y-11255476D01*
X18814524Y-11255476D01*
X19033571Y-11122143D02*
X19033571Y-11322143D01*
X19033571Y-11131667D02*
X19052619Y-11122143D01*
X19090714Y-11122143D01*
X19109762Y-11131667D01*
X19119286Y-11141190D01*
X19128810Y-11160238D01*
X19128810Y-11217381D01*
X19119286Y-11236428D01*
X19109762Y-11245952D01*
X19090714Y-11255476D01*
X19052619Y-11255476D01*
X19033571Y-11245952D01*
X19243095Y-11255476D02*
X19224048Y-11245952D01*
X19214524Y-11226905D01*
X19214524Y-11055476D01*
X19405000Y-11255476D02*
X19405000Y-11150714D01*
X19395476Y-11131667D01*
X19376429Y-11122143D01*
X19338333Y-11122143D01*
X19319286Y-11131667D01*
X19405000Y-11245952D02*
X19385952Y-11255476D01*
X19338333Y-11255476D01*
X19319286Y-11245952D01*
X19309762Y-11226905D01*
X19309762Y-11207857D01*
X19319286Y-11188809D01*
X19338333Y-11179286D01*
X19385952Y-11179286D01*
X19405000Y-11169762D01*
X19471667Y-11122143D02*
X19547857Y-11122143D01*
X19500238Y-11055476D02*
X19500238Y-11226905D01*
X19509762Y-11245952D01*
X19528810Y-11255476D01*
X19547857Y-11255476D01*
X19690714Y-11245952D02*
X19671667Y-11255476D01*
X19633571Y-11255476D01*
X19614524Y-11245952D01*
X19605000Y-11226905D01*
X19605000Y-11150714D01*
X19614524Y-11131667D01*
X19633571Y-11122143D01*
X19671667Y-11122143D01*
X19690714Y-11131667D01*
X19700238Y-11150714D01*
X19700238Y-11169762D01*
X19605000Y-11188809D01*
X19871667Y-11255476D02*
X19871667Y-11055476D01*
X19871667Y-11245952D02*
X19852619Y-11255476D01*
X19814524Y-11255476D01*
X19795476Y-11245952D01*
X19785952Y-11236428D01*
X19776429Y-11217381D01*
X19776429Y-11160238D01*
X19785952Y-11141190D01*
X19795476Y-11131667D01*
X19814524Y-11122143D01*
X19852619Y-11122143D01*
X19871667Y-11131667D01*
X19947857Y-11331667D02*
X19957381Y-11322143D01*
X19976429Y-11293571D01*
X19985952Y-11274524D01*
X19995476Y-11245952D01*
X20005000Y-11198333D01*
X20005000Y-11160238D01*
X19995476Y-11112619D01*
X19985952Y-11084048D01*
X19976429Y-11065000D01*
X19957381Y-11036429D01*
X19947857Y-11026905D01*
M02*
