%TF.GenerationSoftware,KiCad,Pcbnew,(6.0.0)*%
%TF.CreationDate,2022-03-16T00:12:02-04:00*%
%TF.ProjectId,OBD2PowerBreakOut_rev1,4f424432-506f-4776-9572-427265616b4f,rev?*%
%TF.SameCoordinates,Original*%
%TF.FileFunction,Copper,L4,Bot*%
%TF.FilePolarity,Positive*%
%FSLAX46Y46*%
G04 Gerber Fmt 4.6, Leading zero omitted, Abs format (unit mm)*
G04 Created by KiCad (PCBNEW (6.0.0)) date 2022-03-16 00:12:02*
%MOMM*%
%LPD*%
G01*
G04 APERTURE LIST*
%TA.AperFunction,ComponentPad*%
%ADD10R,1.700000X1.700000*%
%TD*%
%TA.AperFunction,ComponentPad*%
%ADD11O,1.700000X1.700000*%
%TD*%
%TA.AperFunction,ComponentPad*%
%ADD12C,1.400000*%
%TD*%
%TA.AperFunction,ComponentPad*%
%ADD13R,3.500000X3.500000*%
%TD*%
%TA.AperFunction,ComponentPad*%
%ADD14C,3.500000*%
%TD*%
%TA.AperFunction,ComponentPad*%
%ADD15C,2.650000*%
%TD*%
%TA.AperFunction,Conductor*%
%ADD16C,0.300000*%
%TD*%
G04 APERTURE END LIST*
D10*
%TO.P,J5,1,Pin_1*%
%TO.N,/1_vendor*%
X137922000Y-72405000D03*
D11*
%TO.P,J5,2,Pin_2*%
%TO.N,/2_SAEJ1850_Bus+*%
X140462000Y-72405000D03*
%TO.P,J5,3,Pin_3*%
%TO.N,/3_vendor*%
X137922000Y-74945000D03*
%TO.P,J5,4,Pin_4*%
%TO.N,Earth*%
X140462000Y-74945000D03*
%TO.P,J5,5,Pin_5*%
%TO.N,GND*%
X137922000Y-77485000D03*
%TO.P,J5,6,Pin_6*%
%TO.N,/6_ISO15765-4_CAN_HIGH*%
X140462000Y-77485000D03*
%TO.P,J5,7,Pin_7*%
%TO.N,/7_ISO9141_K-Line*%
X137922000Y-80025000D03*
%TO.P,J5,8,Pin_8*%
%TO.N,/8_vendor*%
X140462000Y-80025000D03*
%TO.P,J5,9,Pin_9*%
%TO.N,/9_vendor*%
X137922000Y-82565000D03*
%TO.P,J5,10,Pin_10*%
%TO.N,/10_SAEJ1850_Bus-*%
X140462000Y-82565000D03*
%TO.P,J5,11,Pin_11*%
%TO.N,/11_vendor*%
X137922000Y-85105000D03*
%TO.P,J5,12,Pin_12*%
%TO.N,/12_vendor*%
X140462000Y-85105000D03*
%TO.P,J5,13,Pin_13*%
%TO.N,/13_vendor*%
X137922000Y-87645000D03*
%TO.P,J5,14,Pin_14*%
%TO.N,/14_ISO15765-4_CAN_LOW*%
X140462000Y-87645000D03*
%TO.P,J5,15,Pin_15*%
%TO.N,/15_ISO9141_L-Line*%
X137922000Y-90185000D03*
%TO.P,J5,16,Pin_16*%
%TO.N,/16_12V*%
X140462000Y-90185000D03*
%TD*%
D12*
%TO.P,J1,*%
%TO.N,*%
X177800000Y-44300000D03*
X177800000Y-33300000D03*
D13*
%TO.P,J1,1,Pin_1*%
%TO.N,Earth*%
X167800000Y-41300000D03*
D14*
%TO.P,J1,2,Pin_2*%
%TO.N,Net-(F1-Pad1)*%
X167800000Y-36300000D03*
%TD*%
D12*
%TO.P,J3,*%
%TO.N,*%
X177800000Y-75200000D03*
X177800000Y-64200000D03*
D13*
%TO.P,J3,1,Pin_1*%
%TO.N,Earth*%
X167800000Y-72200000D03*
D14*
%TO.P,J3,2,Pin_2*%
%TO.N,Net-(F3-Pad1)*%
X167800000Y-67200000D03*
%TD*%
D12*
%TO.P,J2,*%
%TO.N,*%
X177800000Y-59800000D03*
X177800000Y-48800000D03*
D13*
%TO.P,J2,1,Pin_1*%
%TO.N,Earth*%
X167800000Y-56800000D03*
D14*
%TO.P,J2,2,Pin_2*%
%TO.N,Net-(F2-Pad1)*%
X167800000Y-51800000D03*
%TD*%
D12*
%TO.P,J4,*%
%TO.N,*%
X177800000Y-90800000D03*
X177800000Y-79800000D03*
D13*
%TO.P,J4,1,Pin_1*%
%TO.N,Earth*%
X167800000Y-87800000D03*
D14*
%TO.P,J4,2,Pin_2*%
%TO.N,Net-(F4-Pad1)*%
X167800000Y-82800000D03*
%TD*%
D11*
%TO.P,J6,14,Pin_14*%
%TO.N,/ACC*%
X140965000Y-49779000D03*
%TO.P,J6,13,Pin_13*%
%TO.N,/13_vendor*%
X138425000Y-49779000D03*
%TO.P,J6,12,Pin_12*%
%TO.N,/ACC*%
X140965000Y-47239000D03*
%TO.P,J6,11,Pin_11*%
%TO.N,/12_vendor*%
X138425000Y-47239000D03*
%TO.P,J6,10,Pin_10*%
%TO.N,/ACC*%
X140965000Y-44699000D03*
%TO.P,J6,9,Pin_9*%
%TO.N,/11_vendor*%
X138425000Y-44699000D03*
%TO.P,J6,8,Pin_8*%
%TO.N,/ACC*%
X140965000Y-42159000D03*
%TO.P,J6,7,Pin_7*%
%TO.N,/9_vendor*%
X138425000Y-42159000D03*
%TO.P,J6,6,Pin_6*%
%TO.N,/ACC*%
X140965000Y-39619000D03*
%TO.P,J6,5,Pin_5*%
%TO.N,/8_vendor*%
X138425000Y-39619000D03*
%TO.P,J6,4,Pin_4*%
%TO.N,/ACC*%
X140965000Y-37079000D03*
%TO.P,J6,3,Pin_3*%
%TO.N,/3_vendor*%
X138425000Y-37079000D03*
%TO.P,J6,2,Pin_2*%
%TO.N,/ACC*%
X140965000Y-34539000D03*
D10*
%TO.P,J6,1,Pin_1*%
%TO.N,/1_vendor*%
X138425000Y-34539000D03*
%TD*%
D15*
%TO.P,F1,1*%
%TO.N,Net-(F1-Pad1)*%
X161435000Y-37400000D03*
X161435000Y-34000000D03*
%TO.P,F1,2*%
%TO.N,Net-(F1-Pad2)*%
X147965000Y-34000000D03*
X147965000Y-37400000D03*
%TD*%
%TO.P,F4,1*%
%TO.N,Net-(F4-Pad1)*%
X161421000Y-83900000D03*
X161421000Y-80500000D03*
%TO.P,F4,2*%
%TO.N,Net-(F4-Pad2)*%
X147951000Y-80500000D03*
X147951000Y-83900000D03*
%TD*%
%TO.P,F3,1*%
%TO.N,Net-(F3-Pad1)*%
X161435000Y-68300000D03*
X161435000Y-64900000D03*
%TO.P,F3,2*%
%TO.N,Net-(F3-Pad2)*%
X147965000Y-64900000D03*
X147965000Y-68300000D03*
%TD*%
%TO.P,F2,1*%
%TO.N,Net-(F2-Pad1)*%
X161435000Y-52900000D03*
X161435000Y-49500000D03*
%TO.P,F2,2*%
%TO.N,Net-(F2-Pad2)*%
X147965000Y-49500000D03*
X147965000Y-52900000D03*
%TD*%
D10*
%TO.P,JP2,1,A*%
%TO.N,/16_12V*%
X148400000Y-59100000D03*
D11*
%TO.P,JP2,2,C*%
%TO.N,Net-(F2-Pad2)*%
X150940000Y-59100000D03*
%TO.P,JP2,3,B*%
%TO.N,/ACC*%
X153480000Y-59100000D03*
%TD*%
D10*
%TO.P,JP1,1,A*%
%TO.N,/16_12V*%
X148400000Y-43600000D03*
D11*
%TO.P,JP1,2,C*%
%TO.N,Net-(F1-Pad2)*%
X150940000Y-43600000D03*
%TO.P,JP1,3,B*%
%TO.N,/ACC*%
X153480000Y-43600000D03*
%TD*%
D10*
%TO.P,JP3,1,A*%
%TO.N,/16_12V*%
X148400000Y-74500000D03*
D11*
%TO.P,JP3,2,C*%
%TO.N,Net-(F3-Pad2)*%
X150940000Y-74500000D03*
%TO.P,JP3,3,B*%
%TO.N,/ACC*%
X153480000Y-74500000D03*
%TD*%
D10*
%TO.P,JP4,1,A*%
%TO.N,/16_12V*%
X148400000Y-90100000D03*
D11*
%TO.P,JP4,2,C*%
%TO.N,Net-(F4-Pad2)*%
X150940000Y-90100000D03*
%TO.P,JP4,3,B*%
%TO.N,/ACC*%
X153480000Y-90100000D03*
%TD*%
D16*
%TO.N,/13_vendor*%
X136398000Y-71120000D02*
X136398000Y-85938000D01*
X136398000Y-85938000D02*
X138100000Y-87640000D01*
X138400000Y-69118000D02*
X136398000Y-71120000D01*
X138400000Y-49740000D02*
X138400000Y-69118000D01*
%TO.N,/8_vendor*%
X135382000Y-42598000D02*
X138400000Y-39580000D01*
X135382000Y-58420000D02*
X135382000Y-42598000D01*
X133002479Y-87282479D02*
X133002479Y-60799521D01*
X133002479Y-60799521D02*
X135382000Y-58420000D01*
X137160000Y-91440000D02*
X133002479Y-87282479D01*
X141839511Y-90676855D02*
X141076366Y-91440000D01*
X141839511Y-81219511D02*
X141839511Y-90676855D01*
X140640000Y-80020000D02*
X141839511Y-81219511D01*
X141076366Y-91440000D02*
X137160000Y-91440000D01*
%TO.N,/12_vendor*%
X134620000Y-86360000D02*
X134620000Y-67680240D01*
X137160000Y-88900000D02*
X134620000Y-86360000D01*
X137200489Y-48399511D02*
X138400000Y-47200000D01*
X138536366Y-88900000D02*
X137160000Y-88900000D01*
X137200489Y-65099751D02*
X137200489Y-48399511D01*
X139262489Y-88173877D02*
X138536366Y-88900000D01*
X134620000Y-67680240D02*
X137200489Y-65099751D01*
X139262489Y-86477511D02*
X139262489Y-88173877D01*
X140640000Y-85100000D02*
X139262489Y-86477511D01*
%TO.N,/11_vendor*%
X139262489Y-50983511D02*
X139700000Y-50546000D01*
X139700000Y-50546000D02*
X139700000Y-45960000D01*
X139262489Y-83061855D02*
X139262489Y-50983511D01*
X139440489Y-83239855D02*
X139262489Y-83061855D01*
X139700000Y-45960000D02*
X138400000Y-44660000D01*
X138100000Y-85100000D02*
X139440489Y-83759511D01*
X139440489Y-83759511D02*
X139440489Y-83239855D01*
%TD*%
%TA.AperFunction,Conductor*%
%TO.N,Earth*%
G36*
X180282121Y-23134002D02*
G01*
X180328614Y-23187658D01*
X180340000Y-23240000D01*
X180340000Y-100966000D01*
X180319998Y-101034121D01*
X180266342Y-101080614D01*
X180214001Y-101092000D01*
X156719889Y-101091971D01*
X133227453Y-101091942D01*
X133159332Y-101071940D01*
X133112839Y-101018284D01*
X133101453Y-100965951D01*
X133101318Y-99030425D01*
X133101185Y-97132703D01*
X134890743Y-97132703D01*
X134928268Y-97417734D01*
X135004129Y-97695036D01*
X135116923Y-97959476D01*
X135264561Y-98206161D01*
X135444313Y-98430528D01*
X135652851Y-98628423D01*
X135886317Y-98796186D01*
X135890112Y-98798195D01*
X135890113Y-98798196D01*
X135911869Y-98809715D01*
X136140392Y-98930712D01*
X136410373Y-99029511D01*
X136691264Y-99090755D01*
X136719841Y-99093004D01*
X136914282Y-99108307D01*
X136914291Y-99108307D01*
X136916739Y-99108500D01*
X137072271Y-99108500D01*
X137074407Y-99108354D01*
X137074418Y-99108354D01*
X137282548Y-99094165D01*
X137282554Y-99094164D01*
X137286825Y-99093873D01*
X137291020Y-99093004D01*
X137291022Y-99093004D01*
X137427583Y-99064724D01*
X137568342Y-99035574D01*
X137839343Y-98939607D01*
X138094812Y-98807750D01*
X138098313Y-98805289D01*
X138098317Y-98805287D01*
X138212417Y-98725096D01*
X138330023Y-98642441D01*
X138540622Y-98446740D01*
X138722713Y-98224268D01*
X138872927Y-97979142D01*
X138988483Y-97715898D01*
X139067244Y-97439406D01*
X139107751Y-97154784D01*
X139107845Y-97136951D01*
X139107867Y-97132703D01*
X174890743Y-97132703D01*
X174928268Y-97417734D01*
X175004129Y-97695036D01*
X175116923Y-97959476D01*
X175264561Y-98206161D01*
X175444313Y-98430528D01*
X175652851Y-98628423D01*
X175886317Y-98796186D01*
X175890112Y-98798195D01*
X175890113Y-98798196D01*
X175911869Y-98809715D01*
X176140392Y-98930712D01*
X176410373Y-99029511D01*
X176691264Y-99090755D01*
X176719841Y-99093004D01*
X176914282Y-99108307D01*
X176914291Y-99108307D01*
X176916739Y-99108500D01*
X177072271Y-99108500D01*
X177074407Y-99108354D01*
X177074418Y-99108354D01*
X177282548Y-99094165D01*
X177282554Y-99094164D01*
X177286825Y-99093873D01*
X177291020Y-99093004D01*
X177291022Y-99093004D01*
X177427583Y-99064724D01*
X177568342Y-99035574D01*
X177839343Y-98939607D01*
X178094812Y-98807750D01*
X178098313Y-98805289D01*
X178098317Y-98805287D01*
X178212417Y-98725096D01*
X178330023Y-98642441D01*
X178540622Y-98446740D01*
X178722713Y-98224268D01*
X178872927Y-97979142D01*
X178988483Y-97715898D01*
X179067244Y-97439406D01*
X179107751Y-97154784D01*
X179107845Y-97136951D01*
X179109235Y-96871583D01*
X179109235Y-96871576D01*
X179109257Y-96867297D01*
X179071732Y-96582266D01*
X178995871Y-96304964D01*
X178883077Y-96040524D01*
X178735439Y-95793839D01*
X178555687Y-95569472D01*
X178347149Y-95371577D01*
X178113683Y-95203814D01*
X178091843Y-95192250D01*
X178068654Y-95179972D01*
X177859608Y-95069288D01*
X177589627Y-94970489D01*
X177308736Y-94909245D01*
X177277685Y-94906801D01*
X177085718Y-94891693D01*
X177085709Y-94891693D01*
X177083261Y-94891500D01*
X176927729Y-94891500D01*
X176925593Y-94891646D01*
X176925582Y-94891646D01*
X176717452Y-94905835D01*
X176717446Y-94905836D01*
X176713175Y-94906127D01*
X176708980Y-94906996D01*
X176708978Y-94906996D01*
X176572416Y-94935277D01*
X176431658Y-94964426D01*
X176160657Y-95060393D01*
X175905188Y-95192250D01*
X175901687Y-95194711D01*
X175901683Y-95194713D01*
X175891594Y-95201804D01*
X175669977Y-95357559D01*
X175459378Y-95553260D01*
X175277287Y-95775732D01*
X175127073Y-96020858D01*
X175011517Y-96284102D01*
X174932756Y-96560594D01*
X174892249Y-96845216D01*
X174892227Y-96849505D01*
X174892226Y-96849512D01*
X174890765Y-97128417D01*
X174890743Y-97132703D01*
X139107867Y-97132703D01*
X139109235Y-96871583D01*
X139109235Y-96871576D01*
X139109257Y-96867297D01*
X139071732Y-96582266D01*
X138995871Y-96304964D01*
X138883077Y-96040524D01*
X138735439Y-95793839D01*
X138555687Y-95569472D01*
X138347149Y-95371577D01*
X138113683Y-95203814D01*
X138091843Y-95192250D01*
X138068654Y-95179972D01*
X137859608Y-95069288D01*
X137589627Y-94970489D01*
X137308736Y-94909245D01*
X137277685Y-94906801D01*
X137085718Y-94891693D01*
X137085709Y-94891693D01*
X137083261Y-94891500D01*
X136927729Y-94891500D01*
X136925593Y-94891646D01*
X136925582Y-94891646D01*
X136717452Y-94905835D01*
X136717446Y-94905836D01*
X136713175Y-94906127D01*
X136708980Y-94906996D01*
X136708978Y-94906996D01*
X136572416Y-94935277D01*
X136431658Y-94964426D01*
X136160657Y-95060393D01*
X135905188Y-95192250D01*
X135901687Y-95194711D01*
X135901683Y-95194713D01*
X135891594Y-95201804D01*
X135669977Y-95357559D01*
X135459378Y-95553260D01*
X135277287Y-95775732D01*
X135127073Y-96020858D01*
X135011517Y-96284102D01*
X134932756Y-96560594D01*
X134892249Y-96845216D01*
X134892227Y-96849505D01*
X134892226Y-96849512D01*
X134890765Y-97128417D01*
X134890743Y-97132703D01*
X133101185Y-97132703D01*
X133100588Y-88616047D01*
X133120585Y-88547925D01*
X133174238Y-88501428D01*
X133244511Y-88491319D01*
X133309094Y-88520808D01*
X133315683Y-88526943D01*
X136636345Y-91847605D01*
X136644335Y-91856385D01*
X136648584Y-91863080D01*
X136654362Y-91868506D01*
X136654363Y-91868507D01*
X136700257Y-91911604D01*
X136703099Y-91914359D01*
X136723667Y-91934927D01*
X136727170Y-91937644D01*
X136736195Y-91945352D01*
X136769867Y-91976972D01*
X136776818Y-91980793D01*
X136776819Y-91980794D01*
X136788658Y-91987303D01*
X136805182Y-91998157D01*
X136815271Y-92005982D01*
X136822132Y-92011304D01*
X136829404Y-92014451D01*
X136829406Y-92014452D01*
X136864535Y-92029654D01*
X136875195Y-92034876D01*
X136905168Y-92051354D01*
X136915663Y-92057124D01*
X136936441Y-92062459D01*
X136955131Y-92068858D01*
X136974824Y-92077380D01*
X137009563Y-92082882D01*
X137020448Y-92084606D01*
X137032071Y-92087013D01*
X137056754Y-92093350D01*
X137076812Y-92098500D01*
X137098259Y-92098500D01*
X137117969Y-92100051D01*
X137139152Y-92103406D01*
X137185141Y-92099059D01*
X137196996Y-92098500D01*
X140994310Y-92098500D01*
X141006166Y-92099059D01*
X141006169Y-92099059D01*
X141013903Y-92100788D01*
X141084735Y-92098562D01*
X141088693Y-92098500D01*
X141117798Y-92098500D01*
X141122198Y-92097944D01*
X141134030Y-92097012D01*
X141180197Y-92095562D01*
X141200787Y-92089580D01*
X141220148Y-92085570D01*
X141227782Y-92084606D01*
X141233570Y-92083875D01*
X141233571Y-92083875D01*
X141241430Y-92082882D01*
X141248795Y-92079966D01*
X141248799Y-92079965D01*
X141284387Y-92065874D01*
X141295597Y-92062035D01*
X141339966Y-92049145D01*
X141358431Y-92038225D01*
X141376171Y-92029534D01*
X141396122Y-92021635D01*
X141433495Y-91994482D01*
X141443414Y-91987967D01*
X141476343Y-91968493D01*
X141476347Y-91968490D01*
X141483173Y-91964453D01*
X141498337Y-91949289D01*
X141513371Y-91936448D01*
X141530723Y-91923841D01*
X141560169Y-91888247D01*
X141568158Y-91879468D01*
X142247116Y-91200510D01*
X142255896Y-91192520D01*
X142255898Y-91192518D01*
X142262591Y-91188271D01*
X142311116Y-91136597D01*
X142313870Y-91133756D01*
X142334438Y-91113188D01*
X142337158Y-91109681D01*
X142344864Y-91100659D01*
X142366856Y-91077240D01*
X142376483Y-91066988D01*
X142384470Y-91052460D01*
X142386814Y-91048197D01*
X142397668Y-91031673D01*
X142405956Y-91020987D01*
X142410815Y-91014723D01*
X142417994Y-90998134D01*
X147041500Y-90998134D01*
X147048255Y-91060316D01*
X147099385Y-91196705D01*
X147186739Y-91313261D01*
X147303295Y-91400615D01*
X147439684Y-91451745D01*
X147501866Y-91458500D01*
X149298134Y-91458500D01*
X149360316Y-91451745D01*
X149496705Y-91400615D01*
X149613261Y-91313261D01*
X149700615Y-91196705D01*
X149723148Y-91136598D01*
X149744598Y-91079382D01*
X149787240Y-91022618D01*
X149853802Y-90997918D01*
X149923150Y-91013126D01*
X149957817Y-91041114D01*
X149986250Y-91073938D01*
X150158126Y-91216632D01*
X150351000Y-91329338D01*
X150559692Y-91409030D01*
X150564760Y-91410061D01*
X150564763Y-91410062D01*
X150672017Y-91431883D01*
X150778597Y-91453567D01*
X150783772Y-91453757D01*
X150783774Y-91453757D01*
X150996673Y-91461564D01*
X150996677Y-91461564D01*
X151001837Y-91461753D01*
X151006957Y-91461097D01*
X151006959Y-91461097D01*
X151218288Y-91434025D01*
X151218289Y-91434025D01*
X151223416Y-91433368D01*
X151297762Y-91411063D01*
X151432429Y-91370661D01*
X151432434Y-91370659D01*
X151437384Y-91369174D01*
X151637994Y-91270896D01*
X151819860Y-91141173D01*
X151888505Y-91072768D01*
X151963616Y-90997918D01*
X151978096Y-90983489D01*
X152044687Y-90890818D01*
X152108453Y-90802077D01*
X152109776Y-90803028D01*
X152156645Y-90759857D01*
X152226580Y-90747625D01*
X152292026Y-90775144D01*
X152319875Y-90806994D01*
X152379987Y-90905088D01*
X152526250Y-91073938D01*
X152698126Y-91216632D01*
X152891000Y-91329338D01*
X153099692Y-91409030D01*
X153104760Y-91410061D01*
X153104763Y-91410062D01*
X153212017Y-91431883D01*
X153318597Y-91453567D01*
X153323772Y-91453757D01*
X153323774Y-91453757D01*
X153536673Y-91461564D01*
X153536677Y-91461564D01*
X153541837Y-91461753D01*
X153546957Y-91461097D01*
X153546959Y-91461097D01*
X153758288Y-91434025D01*
X153758289Y-91434025D01*
X153763416Y-91433368D01*
X153837762Y-91411063D01*
X153972429Y-91370661D01*
X153972434Y-91370659D01*
X153977384Y-91369174D01*
X154177994Y-91270896D01*
X154359860Y-91141173D01*
X154428505Y-91072768D01*
X154503616Y-90997918D01*
X154518096Y-90983489D01*
X154584687Y-90890818D01*
X154645435Y-90806277D01*
X154648453Y-90802077D01*
X154649480Y-90800000D01*
X176586884Y-90800000D01*
X176605314Y-91010655D01*
X176606738Y-91015968D01*
X176606738Y-91015970D01*
X176656186Y-91200510D01*
X176660044Y-91214910D01*
X176662366Y-91219891D01*
X176662367Y-91219892D01*
X176746640Y-91400615D01*
X176749411Y-91406558D01*
X176870699Y-91579776D01*
X177020224Y-91729301D01*
X177193442Y-91850589D01*
X177198420Y-91852910D01*
X177198423Y-91852912D01*
X177374305Y-91934927D01*
X177385090Y-91939956D01*
X177390398Y-91941378D01*
X177390400Y-91941379D01*
X177584030Y-91993262D01*
X177584032Y-91993262D01*
X177589345Y-91994686D01*
X177800000Y-92013116D01*
X178010655Y-91994686D01*
X178015968Y-91993262D01*
X178015970Y-91993262D01*
X178209600Y-91941379D01*
X178209602Y-91941378D01*
X178214910Y-91939956D01*
X178225695Y-91934927D01*
X178401577Y-91852912D01*
X178401580Y-91852910D01*
X178406558Y-91850589D01*
X178579776Y-91729301D01*
X178729301Y-91579776D01*
X178850589Y-91406558D01*
X178853361Y-91400615D01*
X178937633Y-91219892D01*
X178937634Y-91219891D01*
X178939956Y-91214910D01*
X178943815Y-91200510D01*
X178993262Y-91015970D01*
X178993262Y-91015968D01*
X178994686Y-91010655D01*
X179013116Y-90800000D01*
X178994686Y-90589345D01*
X178939956Y-90385090D01*
X178850589Y-90193442D01*
X178729301Y-90020224D01*
X178579776Y-89870699D01*
X178406558Y-89749411D01*
X178401580Y-89747090D01*
X178401577Y-89747088D01*
X178219892Y-89662367D01*
X178219891Y-89662366D01*
X178214910Y-89660044D01*
X178209602Y-89658622D01*
X178209600Y-89658621D01*
X178015970Y-89606738D01*
X178015968Y-89606738D01*
X178010655Y-89605314D01*
X177800000Y-89586884D01*
X177589345Y-89605314D01*
X177584032Y-89606738D01*
X177584030Y-89606738D01*
X177390400Y-89658621D01*
X177390398Y-89658622D01*
X177385090Y-89660044D01*
X177380109Y-89662366D01*
X177380108Y-89662367D01*
X177198423Y-89747088D01*
X177198420Y-89747090D01*
X177193442Y-89749411D01*
X177020224Y-89870699D01*
X176870699Y-90020224D01*
X176749411Y-90193442D01*
X176660044Y-90385090D01*
X176605314Y-90589345D01*
X176586884Y-90800000D01*
X154649480Y-90800000D01*
X154652186Y-90794525D01*
X154745136Y-90606453D01*
X154745137Y-90606451D01*
X154747430Y-90601811D01*
X154812370Y-90388069D01*
X154841529Y-90166590D01*
X154843156Y-90100000D01*
X154824852Y-89877361D01*
X154770431Y-89660702D01*
X154741719Y-89594669D01*
X165542001Y-89594669D01*
X165542371Y-89601490D01*
X165547895Y-89652352D01*
X165551521Y-89667604D01*
X165596676Y-89788054D01*
X165605214Y-89803649D01*
X165681715Y-89905724D01*
X165694276Y-89918285D01*
X165796351Y-89994786D01*
X165811946Y-90003324D01*
X165932394Y-90048478D01*
X165947649Y-90052105D01*
X165998514Y-90057631D01*
X166005328Y-90058000D01*
X167527885Y-90058000D01*
X167543124Y-90053525D01*
X167544329Y-90052135D01*
X167546000Y-90044452D01*
X167546000Y-90039884D01*
X168054000Y-90039884D01*
X168058475Y-90055123D01*
X168059865Y-90056328D01*
X168067548Y-90057999D01*
X169594669Y-90057999D01*
X169601490Y-90057629D01*
X169652352Y-90052105D01*
X169667604Y-90048479D01*
X169788054Y-90003324D01*
X169803649Y-89994786D01*
X169905724Y-89918285D01*
X169918285Y-89905724D01*
X169994786Y-89803649D01*
X170003324Y-89788054D01*
X170048478Y-89667606D01*
X170052105Y-89652351D01*
X170057631Y-89601486D01*
X170058000Y-89594672D01*
X170058000Y-88072115D01*
X170053525Y-88056876D01*
X170052135Y-88055671D01*
X170044452Y-88054000D01*
X168072115Y-88054000D01*
X168056876Y-88058475D01*
X168055671Y-88059865D01*
X168054000Y-88067548D01*
X168054000Y-90039884D01*
X167546000Y-90039884D01*
X167546000Y-88072115D01*
X167541525Y-88056876D01*
X167540135Y-88055671D01*
X167532452Y-88054000D01*
X165560116Y-88054000D01*
X165544877Y-88058475D01*
X165543672Y-88059865D01*
X165542001Y-88067548D01*
X165542001Y-89594669D01*
X154741719Y-89594669D01*
X154681354Y-89455840D01*
X154598093Y-89327138D01*
X154562822Y-89272617D01*
X154562820Y-89272614D01*
X154560014Y-89268277D01*
X154409670Y-89103051D01*
X154405619Y-89099852D01*
X154405615Y-89099848D01*
X154238414Y-88967800D01*
X154238410Y-88967798D01*
X154234359Y-88964598D01*
X154038789Y-88856638D01*
X154033920Y-88854914D01*
X154033916Y-88854912D01*
X153833087Y-88783795D01*
X153833083Y-88783794D01*
X153828212Y-88782069D01*
X153823119Y-88781162D01*
X153823116Y-88781161D01*
X153613373Y-88743800D01*
X153613367Y-88743799D01*
X153608284Y-88742894D01*
X153534452Y-88741992D01*
X153390081Y-88740228D01*
X153390079Y-88740228D01*
X153384911Y-88740165D01*
X153164091Y-88773955D01*
X152951756Y-88843357D01*
X152753607Y-88946507D01*
X152749474Y-88949610D01*
X152749471Y-88949612D01*
X152579100Y-89077530D01*
X152574965Y-89080635D01*
X152571393Y-89084373D01*
X152463729Y-89197037D01*
X152420629Y-89242138D01*
X152313201Y-89399621D01*
X152258293Y-89444621D01*
X152187768Y-89452792D01*
X152124021Y-89421538D01*
X152103324Y-89397054D01*
X152022822Y-89272617D01*
X152022820Y-89272614D01*
X152020014Y-89268277D01*
X151869670Y-89103051D01*
X151865619Y-89099852D01*
X151865615Y-89099848D01*
X151698414Y-88967800D01*
X151698410Y-88967798D01*
X151694359Y-88964598D01*
X151498789Y-88856638D01*
X151493920Y-88854914D01*
X151493916Y-88854912D01*
X151293087Y-88783795D01*
X151293083Y-88783794D01*
X151288212Y-88782069D01*
X151283119Y-88781162D01*
X151283116Y-88781161D01*
X151073373Y-88743800D01*
X151073367Y-88743799D01*
X151068284Y-88742894D01*
X150994452Y-88741992D01*
X150850081Y-88740228D01*
X150850079Y-88740228D01*
X150844911Y-88740165D01*
X150624091Y-88773955D01*
X150411756Y-88843357D01*
X150213607Y-88946507D01*
X150209474Y-88949610D01*
X150209471Y-88949612D01*
X150039100Y-89077530D01*
X150034965Y-89080635D01*
X149978537Y-89139684D01*
X149954283Y-89165064D01*
X149892759Y-89200494D01*
X149821846Y-89197037D01*
X149764060Y-89155791D01*
X149745207Y-89122243D01*
X149703767Y-89011703D01*
X149700615Y-89003295D01*
X149613261Y-88886739D01*
X149496705Y-88799385D01*
X149360316Y-88748255D01*
X149298134Y-88741500D01*
X147501866Y-88741500D01*
X147439684Y-88748255D01*
X147303295Y-88799385D01*
X147186739Y-88886739D01*
X147099385Y-89003295D01*
X147048255Y-89139684D01*
X147041500Y-89201866D01*
X147041500Y-90998134D01*
X142417994Y-90998134D01*
X142429165Y-90972320D01*
X142434387Y-90961660D01*
X142452816Y-90928139D01*
X142452817Y-90928137D01*
X142456635Y-90921192D01*
X142461970Y-90900414D01*
X142468369Y-90881724D01*
X142476891Y-90862031D01*
X142484117Y-90816407D01*
X142486524Y-90804784D01*
X142496039Y-90767723D01*
X142498011Y-90760043D01*
X142498011Y-90738596D01*
X142499562Y-90718886D01*
X142501677Y-90705532D01*
X142502917Y-90697703D01*
X142498570Y-90651714D01*
X142498011Y-90639859D01*
X142498011Y-87527885D01*
X165542000Y-87527885D01*
X165546475Y-87543124D01*
X165547865Y-87544329D01*
X165555548Y-87546000D01*
X167527885Y-87546000D01*
X167543124Y-87541525D01*
X167544329Y-87540135D01*
X167546000Y-87532452D01*
X167546000Y-87527885D01*
X168054000Y-87527885D01*
X168058475Y-87543124D01*
X168059865Y-87544329D01*
X168067548Y-87546000D01*
X170039884Y-87546000D01*
X170055123Y-87541525D01*
X170056328Y-87540135D01*
X170057999Y-87532452D01*
X170057999Y-86005331D01*
X170057629Y-85998510D01*
X170052105Y-85947648D01*
X170048479Y-85932396D01*
X170003324Y-85811946D01*
X169994786Y-85796351D01*
X169918285Y-85694276D01*
X169905724Y-85681715D01*
X169803649Y-85605214D01*
X169788054Y-85596676D01*
X169667606Y-85551522D01*
X169652351Y-85547895D01*
X169601486Y-85542369D01*
X169594672Y-85542000D01*
X168072115Y-85542000D01*
X168056876Y-85546475D01*
X168055671Y-85547865D01*
X168054000Y-85555548D01*
X168054000Y-87527885D01*
X167546000Y-87527885D01*
X167546000Y-85560116D01*
X167541525Y-85544877D01*
X167540135Y-85543672D01*
X167532452Y-85542001D01*
X166005331Y-85542001D01*
X165998510Y-85542371D01*
X165947648Y-85547895D01*
X165932396Y-85551521D01*
X165811946Y-85596676D01*
X165796351Y-85605214D01*
X165694276Y-85681715D01*
X165681715Y-85694276D01*
X165605214Y-85796351D01*
X165596676Y-85811946D01*
X165551522Y-85932394D01*
X165547895Y-85947649D01*
X165542369Y-85998514D01*
X165542000Y-86005328D01*
X165542000Y-87527885D01*
X142498011Y-87527885D01*
X142498011Y-83842261D01*
X146113724Y-83842261D01*
X146113899Y-83846713D01*
X146120653Y-84018602D01*
X146123918Y-84101712D01*
X146170567Y-84357138D01*
X146252740Y-84603442D01*
X146254730Y-84607425D01*
X146254731Y-84607427D01*
X146331039Y-84760141D01*
X146368799Y-84835711D01*
X146371326Y-84839367D01*
X146371327Y-84839369D01*
X146407052Y-84891059D01*
X146516426Y-85049310D01*
X146692677Y-85239978D01*
X146696131Y-85242790D01*
X146890578Y-85401095D01*
X146890582Y-85401098D01*
X146894035Y-85403909D01*
X147116482Y-85537833D01*
X147120577Y-85539567D01*
X147120579Y-85539568D01*
X147351480Y-85637342D01*
X147351487Y-85637344D01*
X147355581Y-85639078D01*
X147606559Y-85705624D01*
X147610983Y-85706148D01*
X147610985Y-85706148D01*
X147714416Y-85718389D01*
X147864410Y-85736142D01*
X148123988Y-85730025D01*
X148128384Y-85729293D01*
X148128387Y-85729293D01*
X148375713Y-85688127D01*
X148375717Y-85688126D01*
X148380115Y-85687394D01*
X148627680Y-85609099D01*
X148861744Y-85496704D01*
X148997178Y-85406210D01*
X149073927Y-85354928D01*
X149073931Y-85354925D01*
X149077635Y-85352450D01*
X149080952Y-85349479D01*
X149080956Y-85349476D01*
X149267730Y-85182187D01*
X149267731Y-85182186D01*
X149271048Y-85179215D01*
X149438121Y-84980457D01*
X149575523Y-84760141D01*
X149680511Y-84522662D01*
X149750991Y-84272760D01*
X149763741Y-84177838D01*
X149785129Y-84018602D01*
X149785130Y-84018594D01*
X149785556Y-84015420D01*
X149785657Y-84012209D01*
X149789082Y-83903222D01*
X149789082Y-83903217D01*
X149789183Y-83900000D01*
X149785095Y-83842261D01*
X159583724Y-83842261D01*
X159583899Y-83846713D01*
X159590653Y-84018602D01*
X159593918Y-84101712D01*
X159640567Y-84357138D01*
X159722740Y-84603442D01*
X159724730Y-84607425D01*
X159724731Y-84607427D01*
X159801039Y-84760141D01*
X159838799Y-84835711D01*
X159841326Y-84839367D01*
X159841327Y-84839369D01*
X159877052Y-84891059D01*
X159986426Y-85049310D01*
X160162677Y-85239978D01*
X160166131Y-85242790D01*
X160360578Y-85401095D01*
X160360582Y-85401098D01*
X160364035Y-85403909D01*
X160586482Y-85537833D01*
X160590577Y-85539567D01*
X160590579Y-85539568D01*
X160821480Y-85637342D01*
X160821487Y-85637344D01*
X160825581Y-85639078D01*
X161076559Y-85705624D01*
X161080983Y-85706148D01*
X161080985Y-85706148D01*
X161184416Y-85718389D01*
X161334410Y-85736142D01*
X161593988Y-85730025D01*
X161598384Y-85729293D01*
X161598387Y-85729293D01*
X161845713Y-85688127D01*
X161845717Y-85688126D01*
X161850115Y-85687394D01*
X162097680Y-85609099D01*
X162331744Y-85496704D01*
X162467178Y-85406210D01*
X162543927Y-85354928D01*
X162543931Y-85354925D01*
X162547635Y-85352450D01*
X162550952Y-85349479D01*
X162550956Y-85349476D01*
X162737730Y-85182187D01*
X162737731Y-85182186D01*
X162741048Y-85179215D01*
X162908121Y-84980457D01*
X163045523Y-84760141D01*
X163150511Y-84522662D01*
X163220991Y-84272760D01*
X163233741Y-84177838D01*
X163255129Y-84018602D01*
X163255130Y-84018594D01*
X163255556Y-84015420D01*
X163255657Y-84012209D01*
X163259082Y-83903222D01*
X163259082Y-83903217D01*
X163259183Y-83900000D01*
X163240845Y-83640998D01*
X163229521Y-83588397D01*
X163187132Y-83391510D01*
X163187132Y-83391508D01*
X163186196Y-83387163D01*
X163096326Y-83143561D01*
X162973029Y-82915052D01*
X162888050Y-82800000D01*
X165536654Y-82800000D01*
X165536924Y-82804119D01*
X165555495Y-83087457D01*
X165556017Y-83095426D01*
X165556819Y-83099459D01*
X165556820Y-83099465D01*
X165602247Y-83327838D01*
X165613776Y-83385797D01*
X165615103Y-83389706D01*
X165615104Y-83389710D01*
X165698925Y-83636640D01*
X165708941Y-83666145D01*
X165770852Y-83791687D01*
X165825855Y-83903222D01*
X165839885Y-83931673D01*
X165853138Y-83951507D01*
X165950529Y-84097263D01*
X166004367Y-84177838D01*
X166007081Y-84180932D01*
X166007085Y-84180938D01*
X166157768Y-84352758D01*
X166199573Y-84400427D01*
X166202662Y-84403136D01*
X166419062Y-84592915D01*
X166419068Y-84592919D01*
X166422162Y-84595633D01*
X166425588Y-84597922D01*
X166425593Y-84597926D01*
X166609405Y-84720744D01*
X166668327Y-84760115D01*
X166672026Y-84761939D01*
X166672031Y-84761942D01*
X166808313Y-84829148D01*
X166933855Y-84891059D01*
X166937760Y-84892384D01*
X166937761Y-84892385D01*
X167210290Y-84984896D01*
X167210294Y-84984897D01*
X167214203Y-84986224D01*
X167218247Y-84987028D01*
X167218253Y-84987030D01*
X167500535Y-85043180D01*
X167500541Y-85043181D01*
X167504574Y-85043983D01*
X167508679Y-85044252D01*
X167508686Y-85044253D01*
X167795881Y-85063076D01*
X167800000Y-85063346D01*
X167804119Y-85063076D01*
X168091314Y-85044253D01*
X168091321Y-85044252D01*
X168095426Y-85043983D01*
X168099459Y-85043181D01*
X168099465Y-85043180D01*
X168381747Y-84987030D01*
X168381753Y-84987028D01*
X168385797Y-84986224D01*
X168389706Y-84984897D01*
X168389710Y-84984896D01*
X168662239Y-84892385D01*
X168662240Y-84892384D01*
X168666145Y-84891059D01*
X168791687Y-84829148D01*
X168927969Y-84761942D01*
X168927974Y-84761939D01*
X168931673Y-84760115D01*
X168990595Y-84720744D01*
X169174407Y-84597926D01*
X169174412Y-84597922D01*
X169177838Y-84595633D01*
X169180932Y-84592919D01*
X169180938Y-84592915D01*
X169397338Y-84403136D01*
X169400427Y-84400427D01*
X169442232Y-84352758D01*
X169592915Y-84180938D01*
X169592919Y-84180932D01*
X169595633Y-84177838D01*
X169649472Y-84097263D01*
X169746862Y-83951507D01*
X169760115Y-83931673D01*
X169774146Y-83903222D01*
X169829148Y-83791687D01*
X169891059Y-83666145D01*
X169901075Y-83636640D01*
X169984896Y-83389710D01*
X169984897Y-83389706D01*
X169986224Y-83385797D01*
X169997753Y-83327838D01*
X170043180Y-83099465D01*
X170043181Y-83099459D01*
X170043983Y-83095426D01*
X170044506Y-83087457D01*
X170063076Y-82804119D01*
X170063346Y-82800000D01*
X170054359Y-82662880D01*
X170044253Y-82508686D01*
X170044252Y-82508679D01*
X170043983Y-82504574D01*
X170040434Y-82486728D01*
X169987030Y-82218253D01*
X169987028Y-82218247D01*
X169986224Y-82214203D01*
X169981985Y-82201713D01*
X169892385Y-81937761D01*
X169892384Y-81937760D01*
X169891059Y-81933855D01*
X169760115Y-81668327D01*
X169658301Y-81515951D01*
X169597926Y-81425593D01*
X169597922Y-81425588D01*
X169595633Y-81422162D01*
X169592919Y-81419068D01*
X169592915Y-81419062D01*
X169403136Y-81202662D01*
X169400427Y-81199573D01*
X169375918Y-81178079D01*
X169180938Y-81007085D01*
X169180932Y-81007081D01*
X169177838Y-81004367D01*
X169174412Y-81002078D01*
X169174407Y-81002074D01*
X168935106Y-80842179D01*
X168931673Y-80839885D01*
X168927974Y-80838061D01*
X168927969Y-80838058D01*
X168720425Y-80735709D01*
X168666145Y-80708941D01*
X168631743Y-80697263D01*
X168389710Y-80615104D01*
X168389706Y-80615103D01*
X168385797Y-80613776D01*
X168381753Y-80612972D01*
X168381747Y-80612970D01*
X168099465Y-80556820D01*
X168099459Y-80556819D01*
X168095426Y-80556017D01*
X168091321Y-80555748D01*
X168091314Y-80555747D01*
X167804119Y-80536924D01*
X167800000Y-80536654D01*
X167795881Y-80536924D01*
X167508686Y-80555747D01*
X167508679Y-80555748D01*
X167504574Y-80556017D01*
X167500541Y-80556819D01*
X167500535Y-80556820D01*
X167218253Y-80612970D01*
X167218247Y-80612972D01*
X167214203Y-80613776D01*
X167210294Y-80615103D01*
X167210290Y-80615104D01*
X166968257Y-80697263D01*
X166933855Y-80708941D01*
X166879575Y-80735709D01*
X166672031Y-80838058D01*
X166672026Y-80838061D01*
X166668327Y-80839885D01*
X166664894Y-80842179D01*
X166425593Y-81002074D01*
X166425588Y-81002078D01*
X166422162Y-81004367D01*
X166419068Y-81007081D01*
X166419062Y-81007085D01*
X166224082Y-81178079D01*
X166199573Y-81199573D01*
X166196864Y-81202662D01*
X166007085Y-81419062D01*
X166007081Y-81419068D01*
X166004367Y-81422162D01*
X166002078Y-81425588D01*
X166002074Y-81425593D01*
X165941699Y-81515951D01*
X165839885Y-81668327D01*
X165708941Y-81933855D01*
X165707616Y-81937760D01*
X165707615Y-81937761D01*
X165618016Y-82201713D01*
X165613776Y-82214203D01*
X165612972Y-82218247D01*
X165612970Y-82218253D01*
X165559567Y-82486728D01*
X165556017Y-82504574D01*
X165555748Y-82508679D01*
X165555747Y-82508686D01*
X165545641Y-82662880D01*
X165536654Y-82800000D01*
X162888050Y-82800000D01*
X162818765Y-82706196D01*
X162636612Y-82521159D01*
X162633073Y-82518458D01*
X162633066Y-82518452D01*
X162433744Y-82366335D01*
X162430204Y-82363633D01*
X162338573Y-82312317D01*
X162288913Y-82261581D01*
X162274566Y-82192049D01*
X162300087Y-82125799D01*
X162332357Y-82097621D01*
X162331744Y-82096704D01*
X162543927Y-81954928D01*
X162543931Y-81954925D01*
X162547635Y-81952450D01*
X162550952Y-81949479D01*
X162550956Y-81949476D01*
X162737730Y-81782187D01*
X162737731Y-81782186D01*
X162741048Y-81779215D01*
X162908121Y-81580457D01*
X163045523Y-81360141D01*
X163065069Y-81315930D01*
X163148713Y-81126729D01*
X163150511Y-81122662D01*
X163220991Y-80872760D01*
X163239836Y-80732460D01*
X163255129Y-80618602D01*
X163255130Y-80618594D01*
X163255556Y-80615420D01*
X163256818Y-80575264D01*
X163259082Y-80503222D01*
X163259082Y-80503217D01*
X163259183Y-80500000D01*
X163240845Y-80240998D01*
X163235229Y-80214910D01*
X163187132Y-79991510D01*
X163187132Y-79991508D01*
X163186196Y-79987163D01*
X163117148Y-79800000D01*
X176586884Y-79800000D01*
X176605314Y-80010655D01*
X176606738Y-80015968D01*
X176606738Y-80015970D01*
X176653275Y-80189646D01*
X176660044Y-80214910D01*
X176749411Y-80406558D01*
X176870699Y-80579776D01*
X177020224Y-80729301D01*
X177193442Y-80850589D01*
X177198420Y-80852910D01*
X177198423Y-80852912D01*
X177341638Y-80919694D01*
X177385090Y-80939956D01*
X177390398Y-80941378D01*
X177390400Y-80941379D01*
X177584030Y-80993262D01*
X177584032Y-80993262D01*
X177589345Y-80994686D01*
X177800000Y-81013116D01*
X178010655Y-80994686D01*
X178015968Y-80993262D01*
X178015970Y-80993262D01*
X178209600Y-80941379D01*
X178209602Y-80941378D01*
X178214910Y-80939956D01*
X178258362Y-80919694D01*
X178401577Y-80852912D01*
X178401580Y-80852910D01*
X178406558Y-80850589D01*
X178579776Y-80729301D01*
X178729301Y-80579776D01*
X178850589Y-80406558D01*
X178939956Y-80214910D01*
X178946726Y-80189646D01*
X178993262Y-80015970D01*
X178993262Y-80015968D01*
X178994686Y-80010655D01*
X179013116Y-79800000D01*
X178994686Y-79589345D01*
X178974779Y-79515052D01*
X178941379Y-79390400D01*
X178941378Y-79390398D01*
X178939956Y-79385090D01*
X178903167Y-79306196D01*
X178852912Y-79198423D01*
X178852910Y-79198420D01*
X178850589Y-79193442D01*
X178729301Y-79020224D01*
X178579776Y-78870699D01*
X178406558Y-78749411D01*
X178401580Y-78747090D01*
X178401577Y-78747088D01*
X178219892Y-78662367D01*
X178219891Y-78662366D01*
X178214910Y-78660044D01*
X178209602Y-78658622D01*
X178209600Y-78658621D01*
X178015970Y-78606738D01*
X178015968Y-78606738D01*
X178010655Y-78605314D01*
X177800000Y-78586884D01*
X177589345Y-78605314D01*
X177584032Y-78606738D01*
X177584030Y-78606738D01*
X177390400Y-78658621D01*
X177390398Y-78658622D01*
X177385090Y-78660044D01*
X177380109Y-78662366D01*
X177380108Y-78662367D01*
X177198423Y-78747088D01*
X177198420Y-78747090D01*
X177193442Y-78749411D01*
X177020224Y-78870699D01*
X176870699Y-79020224D01*
X176749411Y-79193442D01*
X176747090Y-79198420D01*
X176747088Y-79198423D01*
X176696833Y-79306196D01*
X176660044Y-79385090D01*
X176658622Y-79390398D01*
X176658621Y-79390400D01*
X176625221Y-79515052D01*
X176605314Y-79589345D01*
X176586884Y-79800000D01*
X163117148Y-79800000D01*
X163096326Y-79743561D01*
X162973029Y-79515052D01*
X162818765Y-79306196D01*
X162636612Y-79121159D01*
X162633073Y-79118458D01*
X162633066Y-79118452D01*
X162433744Y-78966335D01*
X162430204Y-78963633D01*
X162303723Y-78892800D01*
X162207546Y-78838938D01*
X162207543Y-78838937D01*
X162203660Y-78836762D01*
X162199521Y-78835161D01*
X162199513Y-78835157D01*
X162021243Y-78766190D01*
X161961500Y-78743078D01*
X161957175Y-78742075D01*
X161957170Y-78742074D01*
X161837508Y-78714338D01*
X161708555Y-78684448D01*
X161449873Y-78662044D01*
X161445438Y-78662288D01*
X161445434Y-78662288D01*
X161195058Y-78676067D01*
X161195051Y-78676068D01*
X161190615Y-78676312D01*
X161064218Y-78701454D01*
X160940325Y-78726097D01*
X160940320Y-78726098D01*
X160935953Y-78726967D01*
X160931750Y-78728443D01*
X160695177Y-78811521D01*
X160695174Y-78811522D01*
X160690969Y-78812999D01*
X160687016Y-78815052D01*
X160687010Y-78815055D01*
X160556816Y-78882686D01*
X160460552Y-78932691D01*
X160456937Y-78935274D01*
X160456931Y-78935278D01*
X160338062Y-79020224D01*
X160249298Y-79083656D01*
X160061423Y-79262880D01*
X159900675Y-79466788D01*
X159898443Y-79470630D01*
X159898440Y-79470635D01*
X159772499Y-79687457D01*
X159772496Y-79687464D01*
X159770261Y-79691311D01*
X159768587Y-79695445D01*
X159674457Y-79927838D01*
X159674454Y-79927846D01*
X159672784Y-79931970D01*
X159610189Y-80183963D01*
X159583724Y-80442261D01*
X159583899Y-80446713D01*
X159590653Y-80618602D01*
X159593918Y-80701712D01*
X159594718Y-80706092D01*
X159633729Y-80919694D01*
X159640567Y-80957138D01*
X159722740Y-81203442D01*
X159724730Y-81207425D01*
X159724731Y-81207427D01*
X159801039Y-81360141D01*
X159838799Y-81435711D01*
X159986426Y-81649310D01*
X160162677Y-81839978D01*
X160166131Y-81842790D01*
X160360578Y-82001095D01*
X160360582Y-82001098D01*
X160364035Y-82003909D01*
X160509153Y-82091277D01*
X160557192Y-82143545D01*
X160569349Y-82213493D01*
X160541759Y-82278910D01*
X160502243Y-82311034D01*
X160486612Y-82319154D01*
X160460552Y-82332691D01*
X160456937Y-82335274D01*
X160456931Y-82335278D01*
X160324183Y-82430142D01*
X160249298Y-82483656D01*
X160061423Y-82662880D01*
X159900675Y-82866788D01*
X159898443Y-82870630D01*
X159898440Y-82870635D01*
X159772499Y-83087457D01*
X159772496Y-83087464D01*
X159770261Y-83091311D01*
X159750685Y-83139643D01*
X159674457Y-83327838D01*
X159674454Y-83327846D01*
X159672784Y-83331970D01*
X159610189Y-83583963D01*
X159583724Y-83842261D01*
X149785095Y-83842261D01*
X149770845Y-83640998D01*
X149759521Y-83588397D01*
X149717132Y-83391510D01*
X149717132Y-83391508D01*
X149716196Y-83387163D01*
X149626326Y-83143561D01*
X149503029Y-82915052D01*
X149348765Y-82706196D01*
X149166612Y-82521159D01*
X149163073Y-82518458D01*
X149163066Y-82518452D01*
X148963744Y-82366335D01*
X148960204Y-82363633D01*
X148868573Y-82312317D01*
X148818913Y-82261581D01*
X148804566Y-82192049D01*
X148830087Y-82125799D01*
X148862357Y-82097621D01*
X148861744Y-82096704D01*
X149073927Y-81954928D01*
X149073931Y-81954925D01*
X149077635Y-81952450D01*
X149080952Y-81949479D01*
X149080956Y-81949476D01*
X149267730Y-81782187D01*
X149267731Y-81782186D01*
X149271048Y-81779215D01*
X149438121Y-81580457D01*
X149575523Y-81360141D01*
X149595069Y-81315930D01*
X149678713Y-81126729D01*
X149680511Y-81122662D01*
X149750991Y-80872760D01*
X149769836Y-80732460D01*
X149785129Y-80618602D01*
X149785130Y-80618594D01*
X149785556Y-80615420D01*
X149786818Y-80575264D01*
X149789082Y-80503222D01*
X149789082Y-80503217D01*
X149789183Y-80500000D01*
X149770845Y-80240998D01*
X149765229Y-80214910D01*
X149717132Y-79991510D01*
X149717132Y-79991508D01*
X149716196Y-79987163D01*
X149626326Y-79743561D01*
X149503029Y-79515052D01*
X149348765Y-79306196D01*
X149166612Y-79121159D01*
X149163073Y-79118458D01*
X149163066Y-79118452D01*
X148963744Y-78966335D01*
X148960204Y-78963633D01*
X148833723Y-78892800D01*
X148737546Y-78838938D01*
X148737543Y-78838937D01*
X148733660Y-78836762D01*
X148729521Y-78835161D01*
X148729513Y-78835157D01*
X148551243Y-78766190D01*
X148491500Y-78743078D01*
X148487175Y-78742075D01*
X148487170Y-78742074D01*
X148367508Y-78714338D01*
X148238555Y-78684448D01*
X147979873Y-78662044D01*
X147975438Y-78662288D01*
X147975434Y-78662288D01*
X147725058Y-78676067D01*
X147725051Y-78676068D01*
X147720615Y-78676312D01*
X147594218Y-78701454D01*
X147470325Y-78726097D01*
X147470320Y-78726098D01*
X147465953Y-78726967D01*
X147461750Y-78728443D01*
X147225177Y-78811521D01*
X147225174Y-78811522D01*
X147220969Y-78812999D01*
X147217016Y-78815052D01*
X147217010Y-78815055D01*
X147086816Y-78882686D01*
X146990552Y-78932691D01*
X146986937Y-78935274D01*
X146986931Y-78935278D01*
X146868062Y-79020224D01*
X146779298Y-79083656D01*
X146591423Y-79262880D01*
X146430675Y-79466788D01*
X146428443Y-79470630D01*
X146428440Y-79470635D01*
X146302499Y-79687457D01*
X146302496Y-79687464D01*
X146300261Y-79691311D01*
X146298587Y-79695445D01*
X146204457Y-79927838D01*
X146204454Y-79927846D01*
X146202784Y-79931970D01*
X146140189Y-80183963D01*
X146113724Y-80442261D01*
X146113899Y-80446713D01*
X146120653Y-80618602D01*
X146123918Y-80701712D01*
X146124718Y-80706092D01*
X146163729Y-80919694D01*
X146170567Y-80957138D01*
X146252740Y-81203442D01*
X146254730Y-81207425D01*
X146254731Y-81207427D01*
X146331039Y-81360141D01*
X146368799Y-81435711D01*
X146516426Y-81649310D01*
X146692677Y-81839978D01*
X146696131Y-81842790D01*
X146890578Y-82001095D01*
X146890582Y-82001098D01*
X146894035Y-82003909D01*
X147039153Y-82091277D01*
X147087192Y-82143545D01*
X147099349Y-82213493D01*
X147071759Y-82278910D01*
X147032243Y-82311034D01*
X147016612Y-82319154D01*
X146990552Y-82332691D01*
X146986937Y-82335274D01*
X146986931Y-82335278D01*
X146854183Y-82430142D01*
X146779298Y-82483656D01*
X146591423Y-82662880D01*
X146430675Y-82866788D01*
X146428443Y-82870630D01*
X146428440Y-82870635D01*
X146302499Y-83087457D01*
X146302496Y-83087464D01*
X146300261Y-83091311D01*
X146280685Y-83139643D01*
X146204457Y-83327838D01*
X146204454Y-83327846D01*
X146202784Y-83331970D01*
X146140189Y-83583963D01*
X146113724Y-83842261D01*
X142498011Y-83842261D01*
X142498011Y-81301570D01*
X142498570Y-81289714D01*
X142500300Y-81281974D01*
X142498073Y-81211122D01*
X142498011Y-81207164D01*
X142498011Y-81178079D01*
X142497457Y-81173690D01*
X142496524Y-81161848D01*
X142495322Y-81123605D01*
X142495073Y-81115680D01*
X142489091Y-81095090D01*
X142485081Y-81075727D01*
X142483386Y-81062307D01*
X142483386Y-81062306D01*
X142482393Y-81054447D01*
X142479477Y-81047082D01*
X142479476Y-81047078D01*
X142465385Y-81011490D01*
X142461546Y-81000280D01*
X142448656Y-80955911D01*
X142437736Y-80937446D01*
X142429045Y-80919706D01*
X142421146Y-80899755D01*
X142393993Y-80862382D01*
X142387478Y-80852463D01*
X142368004Y-80819534D01*
X142368001Y-80819530D01*
X142363964Y-80812704D01*
X142348800Y-80797540D01*
X142335959Y-80782506D01*
X142328012Y-80771568D01*
X142323352Y-80765154D01*
X142287758Y-80735708D01*
X142278979Y-80727719D01*
X141846447Y-80295187D01*
X141812421Y-80232875D01*
X141810620Y-80189646D01*
X141823092Y-80094911D01*
X141823092Y-80094907D01*
X141823529Y-80091590D01*
X141825156Y-80025000D01*
X141823527Y-80005175D01*
X141807276Y-79807522D01*
X141806852Y-79802361D01*
X141752431Y-79585702D01*
X141663354Y-79380840D01*
X141542014Y-79193277D01*
X141391670Y-79028051D01*
X141387619Y-79024852D01*
X141387615Y-79024848D01*
X141220414Y-78892800D01*
X141220410Y-78892798D01*
X141216359Y-78889598D01*
X141175053Y-78866796D01*
X141125084Y-78816364D01*
X141110312Y-78746921D01*
X141135428Y-78680516D01*
X141162780Y-78653909D01*
X141256074Y-78587363D01*
X141341860Y-78526173D01*
X141500096Y-78368489D01*
X141630453Y-78187077D01*
X141729430Y-77986811D01*
X141794370Y-77773069D01*
X141823529Y-77551590D01*
X141825156Y-77485000D01*
X141806852Y-77262361D01*
X141752431Y-77045702D01*
X141663354Y-76840840D01*
X141542014Y-76653277D01*
X141391670Y-76488051D01*
X141387619Y-76484852D01*
X141387615Y-76484848D01*
X141220414Y-76352800D01*
X141220410Y-76352798D01*
X141216359Y-76349598D01*
X141198893Y-76339956D01*
X141174569Y-76326529D01*
X141124598Y-76276097D01*
X141109826Y-76206654D01*
X141134942Y-76140248D01*
X141162294Y-76113641D01*
X141337328Y-75988792D01*
X141345200Y-75982139D01*
X141496052Y-75831812D01*
X141502730Y-75823965D01*
X141627003Y-75651020D01*
X141632313Y-75642183D01*
X141726670Y-75451267D01*
X141730469Y-75441672D01*
X141743697Y-75398134D01*
X147041500Y-75398134D01*
X147048255Y-75460316D01*
X147099385Y-75596705D01*
X147186739Y-75713261D01*
X147303295Y-75800615D01*
X147439684Y-75851745D01*
X147501866Y-75858500D01*
X149298134Y-75858500D01*
X149360316Y-75851745D01*
X149496705Y-75800615D01*
X149613261Y-75713261D01*
X149700615Y-75596705D01*
X149722799Y-75537529D01*
X149744598Y-75479382D01*
X149787240Y-75422618D01*
X149853802Y-75397918D01*
X149923150Y-75413126D01*
X149957817Y-75441114D01*
X149986250Y-75473938D01*
X150158126Y-75616632D01*
X150351000Y-75729338D01*
X150559692Y-75809030D01*
X150564760Y-75810061D01*
X150564763Y-75810062D01*
X150633099Y-75823965D01*
X150778597Y-75853567D01*
X150783772Y-75853757D01*
X150783774Y-75853757D01*
X150996673Y-75861564D01*
X150996677Y-75861564D01*
X151001837Y-75861753D01*
X151006957Y-75861097D01*
X151006959Y-75861097D01*
X151218288Y-75834025D01*
X151218289Y-75834025D01*
X151223416Y-75833368D01*
X151228366Y-75831883D01*
X151432429Y-75770661D01*
X151432434Y-75770659D01*
X151437384Y-75769174D01*
X151637994Y-75670896D01*
X151819860Y-75541173D01*
X151978096Y-75383489D01*
X152108453Y-75202077D01*
X152109776Y-75203028D01*
X152156645Y-75159857D01*
X152226580Y-75147625D01*
X152292026Y-75175144D01*
X152319875Y-75206994D01*
X152379987Y-75305088D01*
X152526250Y-75473938D01*
X152698126Y-75616632D01*
X152891000Y-75729338D01*
X153099692Y-75809030D01*
X153104760Y-75810061D01*
X153104763Y-75810062D01*
X153173099Y-75823965D01*
X153318597Y-75853567D01*
X153323772Y-75853757D01*
X153323774Y-75853757D01*
X153536673Y-75861564D01*
X153536677Y-75861564D01*
X153541837Y-75861753D01*
X153546957Y-75861097D01*
X153546959Y-75861097D01*
X153758288Y-75834025D01*
X153758289Y-75834025D01*
X153763416Y-75833368D01*
X153768366Y-75831883D01*
X153972429Y-75770661D01*
X153972434Y-75770659D01*
X153977384Y-75769174D01*
X154177994Y-75670896D01*
X154359860Y-75541173D01*
X154518096Y-75383489D01*
X154648453Y-75202077D01*
X154649480Y-75200000D01*
X176586884Y-75200000D01*
X176605314Y-75410655D01*
X176606738Y-75415968D01*
X176606738Y-75415970D01*
X176641090Y-75544171D01*
X176660044Y-75614910D01*
X176662366Y-75619891D01*
X176662367Y-75619892D01*
X176746640Y-75800615D01*
X176749411Y-75806558D01*
X176870699Y-75979776D01*
X177020224Y-76129301D01*
X177193442Y-76250589D01*
X177198420Y-76252910D01*
X177198423Y-76252912D01*
X177366971Y-76331507D01*
X177385090Y-76339956D01*
X177390398Y-76341378D01*
X177390400Y-76341379D01*
X177584030Y-76393262D01*
X177584032Y-76393262D01*
X177589345Y-76394686D01*
X177800000Y-76413116D01*
X178010655Y-76394686D01*
X178015968Y-76393262D01*
X178015970Y-76393262D01*
X178209600Y-76341379D01*
X178209602Y-76341378D01*
X178214910Y-76339956D01*
X178233029Y-76331507D01*
X178401577Y-76252912D01*
X178401580Y-76252910D01*
X178406558Y-76250589D01*
X178579776Y-76129301D01*
X178729301Y-75979776D01*
X178850589Y-75806558D01*
X178853361Y-75800615D01*
X178937633Y-75619892D01*
X178937634Y-75619891D01*
X178939956Y-75614910D01*
X178958911Y-75544171D01*
X178993262Y-75415970D01*
X178993262Y-75415968D01*
X178994686Y-75410655D01*
X179013116Y-75200000D01*
X178994686Y-74989345D01*
X178939956Y-74785090D01*
X178923071Y-74748879D01*
X178852912Y-74598423D01*
X178852910Y-74598420D01*
X178850589Y-74593442D01*
X178729301Y-74420224D01*
X178579776Y-74270699D01*
X178406558Y-74149411D01*
X178401580Y-74147090D01*
X178401577Y-74147088D01*
X178219892Y-74062367D01*
X178219891Y-74062366D01*
X178214910Y-74060044D01*
X178209602Y-74058622D01*
X178209600Y-74058621D01*
X178015970Y-74006738D01*
X178015968Y-74006738D01*
X178010655Y-74005314D01*
X177800000Y-73986884D01*
X177589345Y-74005314D01*
X177584032Y-74006738D01*
X177584030Y-74006738D01*
X177390400Y-74058621D01*
X177390398Y-74058622D01*
X177385090Y-74060044D01*
X177380109Y-74062366D01*
X177380108Y-74062367D01*
X177198423Y-74147088D01*
X177198420Y-74147090D01*
X177193442Y-74149411D01*
X177020224Y-74270699D01*
X176870699Y-74420224D01*
X176749411Y-74593442D01*
X176747090Y-74598420D01*
X176747088Y-74598423D01*
X176676929Y-74748879D01*
X176660044Y-74785090D01*
X176605314Y-74989345D01*
X176586884Y-75200000D01*
X154649480Y-75200000D01*
X154652186Y-75194525D01*
X154745136Y-75006453D01*
X154745137Y-75006451D01*
X154747430Y-75001811D01*
X154812370Y-74788069D01*
X154841529Y-74566590D01*
X154843156Y-74500000D01*
X154824852Y-74277361D01*
X154770431Y-74060702D01*
X154741719Y-73994669D01*
X165542001Y-73994669D01*
X165542371Y-74001490D01*
X165547895Y-74052352D01*
X165551521Y-74067604D01*
X165596676Y-74188054D01*
X165605214Y-74203649D01*
X165681715Y-74305724D01*
X165694276Y-74318285D01*
X165796351Y-74394786D01*
X165811946Y-74403324D01*
X165932394Y-74448478D01*
X165947649Y-74452105D01*
X165998514Y-74457631D01*
X166005328Y-74458000D01*
X167527885Y-74458000D01*
X167543124Y-74453525D01*
X167544329Y-74452135D01*
X167546000Y-74444452D01*
X167546000Y-74439884D01*
X168054000Y-74439884D01*
X168058475Y-74455123D01*
X168059865Y-74456328D01*
X168067548Y-74457999D01*
X169594669Y-74457999D01*
X169601490Y-74457629D01*
X169652352Y-74452105D01*
X169667604Y-74448479D01*
X169788054Y-74403324D01*
X169803649Y-74394786D01*
X169905724Y-74318285D01*
X169918285Y-74305724D01*
X169994786Y-74203649D01*
X170003324Y-74188054D01*
X170048478Y-74067606D01*
X170052105Y-74052351D01*
X170057631Y-74001486D01*
X170058000Y-73994672D01*
X170058000Y-72472115D01*
X170053525Y-72456876D01*
X170052135Y-72455671D01*
X170044452Y-72454000D01*
X168072115Y-72454000D01*
X168056876Y-72458475D01*
X168055671Y-72459865D01*
X168054000Y-72467548D01*
X168054000Y-74439884D01*
X167546000Y-74439884D01*
X167546000Y-72472115D01*
X167541525Y-72456876D01*
X167540135Y-72455671D01*
X167532452Y-72454000D01*
X165560116Y-72454000D01*
X165544877Y-72458475D01*
X165543672Y-72459865D01*
X165542001Y-72467548D01*
X165542001Y-73994669D01*
X154741719Y-73994669D01*
X154681354Y-73855840D01*
X154605358Y-73738368D01*
X154562822Y-73672617D01*
X154562820Y-73672614D01*
X154560014Y-73668277D01*
X154409670Y-73503051D01*
X154405619Y-73499852D01*
X154405615Y-73499848D01*
X154238414Y-73367800D01*
X154238410Y-73367798D01*
X154234359Y-73364598D01*
X154038789Y-73256638D01*
X154033920Y-73254914D01*
X154033916Y-73254912D01*
X153833087Y-73183795D01*
X153833083Y-73183794D01*
X153828212Y-73182069D01*
X153823119Y-73181162D01*
X153823116Y-73181161D01*
X153613373Y-73143800D01*
X153613367Y-73143799D01*
X153608284Y-73142894D01*
X153534452Y-73141992D01*
X153390081Y-73140228D01*
X153390079Y-73140228D01*
X153384911Y-73140165D01*
X153164091Y-73173955D01*
X152951756Y-73243357D01*
X152753607Y-73346507D01*
X152749474Y-73349610D01*
X152749471Y-73349612D01*
X152620864Y-73446173D01*
X152574965Y-73480635D01*
X152571393Y-73484373D01*
X152463729Y-73597037D01*
X152420629Y-73642138D01*
X152313201Y-73799621D01*
X152258293Y-73844621D01*
X152187768Y-73852792D01*
X152124021Y-73821538D01*
X152103324Y-73797054D01*
X152022822Y-73672617D01*
X152022820Y-73672614D01*
X152020014Y-73668277D01*
X151869670Y-73503051D01*
X151865619Y-73499852D01*
X151865615Y-73499848D01*
X151698414Y-73367800D01*
X151698410Y-73367798D01*
X151694359Y-73364598D01*
X151498789Y-73256638D01*
X151493920Y-73254914D01*
X151493916Y-73254912D01*
X151293087Y-73183795D01*
X151293083Y-73183794D01*
X151288212Y-73182069D01*
X151283119Y-73181162D01*
X151283116Y-73181161D01*
X151073373Y-73143800D01*
X151073367Y-73143799D01*
X151068284Y-73142894D01*
X150994452Y-73141992D01*
X150850081Y-73140228D01*
X150850079Y-73140228D01*
X150844911Y-73140165D01*
X150624091Y-73173955D01*
X150411756Y-73243357D01*
X150213607Y-73346507D01*
X150209474Y-73349610D01*
X150209471Y-73349612D01*
X150080864Y-73446173D01*
X150034965Y-73480635D01*
X149978537Y-73539684D01*
X149954283Y-73565064D01*
X149892759Y-73600494D01*
X149821846Y-73597037D01*
X149764060Y-73555791D01*
X149745207Y-73522243D01*
X149703767Y-73411703D01*
X149700615Y-73403295D01*
X149613261Y-73286739D01*
X149496705Y-73199385D01*
X149360316Y-73148255D01*
X149298134Y-73141500D01*
X147501866Y-73141500D01*
X147439684Y-73148255D01*
X147303295Y-73199385D01*
X147186739Y-73286739D01*
X147099385Y-73403295D01*
X147048255Y-73539684D01*
X147041500Y-73601866D01*
X147041500Y-75398134D01*
X141743697Y-75398134D01*
X141792377Y-75237910D01*
X141794555Y-75227837D01*
X141795986Y-75216962D01*
X141793775Y-75202778D01*
X141780617Y-75199000D01*
X140334000Y-75199000D01*
X140265879Y-75178998D01*
X140219386Y-75125342D01*
X140208000Y-75073000D01*
X140208000Y-74817000D01*
X140228002Y-74748879D01*
X140281658Y-74702386D01*
X140334000Y-74691000D01*
X141780344Y-74691000D01*
X141793875Y-74687027D01*
X141795180Y-74677947D01*
X141753214Y-74510875D01*
X141749894Y-74501124D01*
X141664972Y-74305814D01*
X141660105Y-74296739D01*
X141544426Y-74117926D01*
X141538136Y-74109757D01*
X141394806Y-73952240D01*
X141387273Y-73945215D01*
X141220139Y-73813222D01*
X141211556Y-73807520D01*
X141174602Y-73787120D01*
X141124631Y-73736687D01*
X141109859Y-73667245D01*
X141134975Y-73600839D01*
X141162327Y-73574232D01*
X141199748Y-73547540D01*
X141341860Y-73446173D01*
X141500096Y-73288489D01*
X141521188Y-73259137D01*
X141627435Y-73111277D01*
X141630453Y-73107077D01*
X141729430Y-72906811D01*
X141794370Y-72693069D01*
X141823529Y-72471590D01*
X141823628Y-72467548D01*
X141825074Y-72408365D01*
X141825074Y-72408361D01*
X141825156Y-72405000D01*
X141806852Y-72182361D01*
X141752431Y-71965702D01*
X141735988Y-71927885D01*
X165542000Y-71927885D01*
X165546475Y-71943124D01*
X165547865Y-71944329D01*
X165555548Y-71946000D01*
X167527885Y-71946000D01*
X167543124Y-71941525D01*
X167544329Y-71940135D01*
X167546000Y-71932452D01*
X167546000Y-71927885D01*
X168054000Y-71927885D01*
X168058475Y-71943124D01*
X168059865Y-71944329D01*
X168067548Y-71946000D01*
X170039884Y-71946000D01*
X170055123Y-71941525D01*
X170056328Y-71940135D01*
X170057999Y-71932452D01*
X170057999Y-70405331D01*
X170057629Y-70398510D01*
X170052105Y-70347648D01*
X170048479Y-70332396D01*
X170003324Y-70211946D01*
X169994786Y-70196351D01*
X169918285Y-70094276D01*
X169905724Y-70081715D01*
X169803649Y-70005214D01*
X169788054Y-69996676D01*
X169667606Y-69951522D01*
X169652351Y-69947895D01*
X169601486Y-69942369D01*
X169594672Y-69942000D01*
X168072115Y-69942000D01*
X168056876Y-69946475D01*
X168055671Y-69947865D01*
X168054000Y-69955548D01*
X168054000Y-71927885D01*
X167546000Y-71927885D01*
X167546000Y-69960116D01*
X167541525Y-69944877D01*
X167540135Y-69943672D01*
X167532452Y-69942001D01*
X166005331Y-69942001D01*
X165998510Y-69942371D01*
X165947648Y-69947895D01*
X165932396Y-69951521D01*
X165811946Y-69996676D01*
X165796351Y-70005214D01*
X165694276Y-70081715D01*
X165681715Y-70094276D01*
X165605214Y-70196351D01*
X165596676Y-70211946D01*
X165551522Y-70332394D01*
X165547895Y-70347649D01*
X165542369Y-70398514D01*
X165542000Y-70405328D01*
X165542000Y-71927885D01*
X141735988Y-71927885D01*
X141663354Y-71760840D01*
X141542014Y-71573277D01*
X141391670Y-71408051D01*
X141387619Y-71404852D01*
X141387615Y-71404848D01*
X141220414Y-71272800D01*
X141220410Y-71272798D01*
X141216359Y-71269598D01*
X141020789Y-71161638D01*
X141015920Y-71159914D01*
X141015916Y-71159912D01*
X140815087Y-71088795D01*
X140815083Y-71088794D01*
X140810212Y-71087069D01*
X140805119Y-71086162D01*
X140805116Y-71086161D01*
X140595373Y-71048800D01*
X140595367Y-71048799D01*
X140590284Y-71047894D01*
X140516452Y-71046992D01*
X140372081Y-71045228D01*
X140372079Y-71045228D01*
X140366911Y-71045165D01*
X140146091Y-71078955D01*
X140089262Y-71097530D01*
X140086134Y-71098552D01*
X140015170Y-71100703D01*
X139954308Y-71064147D01*
X139922872Y-71000490D01*
X139920989Y-70978787D01*
X139920989Y-68242261D01*
X146127724Y-68242261D01*
X146127899Y-68246713D01*
X146134653Y-68418602D01*
X146137918Y-68501712D01*
X146184567Y-68757138D01*
X146266740Y-69003442D01*
X146268730Y-69007425D01*
X146268731Y-69007427D01*
X146345039Y-69160141D01*
X146382799Y-69235711D01*
X146385326Y-69239367D01*
X146385327Y-69239369D01*
X146421052Y-69291059D01*
X146530426Y-69449310D01*
X146706677Y-69639978D01*
X146710131Y-69642790D01*
X146904578Y-69801095D01*
X146904582Y-69801098D01*
X146908035Y-69803909D01*
X147130482Y-69937833D01*
X147134577Y-69939567D01*
X147134579Y-69939568D01*
X147365480Y-70037342D01*
X147365487Y-70037344D01*
X147369581Y-70039078D01*
X147620559Y-70105624D01*
X147624983Y-70106148D01*
X147624985Y-70106148D01*
X147728416Y-70118389D01*
X147878410Y-70136142D01*
X148137988Y-70130025D01*
X148142384Y-70129293D01*
X148142387Y-70129293D01*
X148389713Y-70088127D01*
X148389717Y-70088126D01*
X148394115Y-70087394D01*
X148641680Y-70009099D01*
X148875744Y-69896704D01*
X149011178Y-69806210D01*
X149087927Y-69754928D01*
X149087931Y-69754925D01*
X149091635Y-69752450D01*
X149094952Y-69749479D01*
X149094956Y-69749476D01*
X149281730Y-69582187D01*
X149281731Y-69582186D01*
X149285048Y-69579215D01*
X149452121Y-69380457D01*
X149589523Y-69160141D01*
X149694511Y-68922662D01*
X149764991Y-68672760D01*
X149777741Y-68577838D01*
X149799129Y-68418602D01*
X149799130Y-68418594D01*
X149799556Y-68415420D01*
X149803183Y-68300000D01*
X149799095Y-68242261D01*
X159597724Y-68242261D01*
X159597899Y-68246713D01*
X159604653Y-68418602D01*
X159607918Y-68501712D01*
X159654567Y-68757138D01*
X159736740Y-69003442D01*
X159738730Y-69007425D01*
X159738731Y-69007427D01*
X159815039Y-69160141D01*
X159852799Y-69235711D01*
X159855326Y-69239367D01*
X159855327Y-69239369D01*
X159891052Y-69291059D01*
X160000426Y-69449310D01*
X160176677Y-69639978D01*
X160180131Y-69642790D01*
X160374578Y-69801095D01*
X160374582Y-69801098D01*
X160378035Y-69803909D01*
X160600482Y-69937833D01*
X160604577Y-69939567D01*
X160604579Y-69939568D01*
X160835480Y-70037342D01*
X160835487Y-70037344D01*
X160839581Y-70039078D01*
X161090559Y-70105624D01*
X161094983Y-70106148D01*
X161094985Y-70106148D01*
X161198416Y-70118389D01*
X161348410Y-70136142D01*
X161607988Y-70130025D01*
X161612384Y-70129293D01*
X161612387Y-70129293D01*
X161859713Y-70088127D01*
X161859717Y-70088126D01*
X161864115Y-70087394D01*
X162111680Y-70009099D01*
X162345744Y-69896704D01*
X162481178Y-69806210D01*
X162557927Y-69754928D01*
X162557931Y-69754925D01*
X162561635Y-69752450D01*
X162564952Y-69749479D01*
X162564956Y-69749476D01*
X162751730Y-69582187D01*
X162751731Y-69582186D01*
X162755048Y-69579215D01*
X162922121Y-69380457D01*
X163059523Y-69160141D01*
X163164511Y-68922662D01*
X163234991Y-68672760D01*
X163247741Y-68577838D01*
X163269129Y-68418602D01*
X163269130Y-68418594D01*
X163269556Y-68415420D01*
X163273183Y-68300000D01*
X163254845Y-68040998D01*
X163243521Y-67988397D01*
X163201132Y-67791510D01*
X163201132Y-67791508D01*
X163200196Y-67787163D01*
X163110326Y-67543561D01*
X163080233Y-67487788D01*
X162989142Y-67318968D01*
X162987029Y-67315052D01*
X162902050Y-67200000D01*
X165536654Y-67200000D01*
X165536924Y-67204119D01*
X165555495Y-67487457D01*
X165556017Y-67495426D01*
X165556819Y-67499459D01*
X165556820Y-67499465D01*
X165597779Y-67705378D01*
X165613776Y-67785797D01*
X165615103Y-67789706D01*
X165615104Y-67789710D01*
X165679575Y-67979636D01*
X165708941Y-68066145D01*
X165710765Y-68069843D01*
X165825855Y-68303222D01*
X165839885Y-68331673D01*
X165842179Y-68335106D01*
X165950529Y-68497263D01*
X166004367Y-68577838D01*
X166007081Y-68580932D01*
X166007085Y-68580938D01*
X166196864Y-68797338D01*
X166199573Y-68800427D01*
X166202662Y-68803136D01*
X166419062Y-68992915D01*
X166419068Y-68992919D01*
X166422162Y-68995633D01*
X166425588Y-68997922D01*
X166425593Y-68997926D01*
X166609405Y-69120744D01*
X166668327Y-69160115D01*
X166672026Y-69161939D01*
X166672031Y-69161942D01*
X166808313Y-69229148D01*
X166933855Y-69291059D01*
X166937760Y-69292384D01*
X166937761Y-69292385D01*
X167210290Y-69384896D01*
X167210294Y-69384897D01*
X167214203Y-69386224D01*
X167218247Y-69387028D01*
X167218253Y-69387030D01*
X167500535Y-69443180D01*
X167500541Y-69443181D01*
X167504574Y-69443983D01*
X167508679Y-69444252D01*
X167508686Y-69444253D01*
X167795881Y-69463076D01*
X167800000Y-69463346D01*
X167804119Y-69463076D01*
X168091314Y-69444253D01*
X168091321Y-69444252D01*
X168095426Y-69443983D01*
X168099459Y-69443181D01*
X168099465Y-69443180D01*
X168381747Y-69387030D01*
X168381753Y-69387028D01*
X168385797Y-69386224D01*
X168389706Y-69384897D01*
X168389710Y-69384896D01*
X168662239Y-69292385D01*
X168662240Y-69292384D01*
X168666145Y-69291059D01*
X168791687Y-69229148D01*
X168927969Y-69161942D01*
X168927974Y-69161939D01*
X168931673Y-69160115D01*
X168990595Y-69120744D01*
X169174407Y-68997926D01*
X169174412Y-68997922D01*
X169177838Y-68995633D01*
X169180932Y-68992919D01*
X169180938Y-68992915D01*
X169397338Y-68803136D01*
X169400427Y-68800427D01*
X169403136Y-68797338D01*
X169592915Y-68580938D01*
X169592919Y-68580932D01*
X169595633Y-68577838D01*
X169649472Y-68497263D01*
X169757821Y-68335106D01*
X169760115Y-68331673D01*
X169774146Y-68303222D01*
X169889235Y-68069843D01*
X169891059Y-68066145D01*
X169920425Y-67979636D01*
X169984896Y-67789710D01*
X169984897Y-67789706D01*
X169986224Y-67785797D01*
X170002221Y-67705378D01*
X170043180Y-67499465D01*
X170043181Y-67499459D01*
X170043983Y-67495426D01*
X170044506Y-67487457D01*
X170063076Y-67204119D01*
X170063346Y-67200000D01*
X170060934Y-67163204D01*
X170044253Y-66908686D01*
X170044252Y-66908679D01*
X170043983Y-66904574D01*
X170040434Y-66886728D01*
X169987030Y-66618253D01*
X169987028Y-66618247D01*
X169986224Y-66614203D01*
X169981985Y-66601713D01*
X169892385Y-66337761D01*
X169892384Y-66337760D01*
X169891059Y-66333855D01*
X169760115Y-66068327D01*
X169698879Y-65976680D01*
X169597926Y-65825593D01*
X169597922Y-65825588D01*
X169595633Y-65822162D01*
X169592919Y-65819068D01*
X169592915Y-65819062D01*
X169403136Y-65602662D01*
X169400427Y-65599573D01*
X169312727Y-65522662D01*
X169180938Y-65407085D01*
X169180932Y-65407081D01*
X169177838Y-65404367D01*
X169174412Y-65402078D01*
X169174407Y-65402074D01*
X168935106Y-65242179D01*
X168931673Y-65239885D01*
X168927974Y-65238061D01*
X168927969Y-65238058D01*
X168791687Y-65170852D01*
X168666145Y-65108941D01*
X168631743Y-65097263D01*
X168389710Y-65015104D01*
X168389706Y-65015103D01*
X168385797Y-65013776D01*
X168381753Y-65012972D01*
X168381747Y-65012970D01*
X168099465Y-64956820D01*
X168099459Y-64956819D01*
X168095426Y-64956017D01*
X168091321Y-64955748D01*
X168091314Y-64955747D01*
X167804119Y-64936924D01*
X167800000Y-64936654D01*
X167795881Y-64936924D01*
X167508686Y-64955747D01*
X167508679Y-64955748D01*
X167504574Y-64956017D01*
X167500541Y-64956819D01*
X167500535Y-64956820D01*
X167218253Y-65012970D01*
X167218247Y-65012972D01*
X167214203Y-65013776D01*
X167210294Y-65015103D01*
X167210290Y-65015104D01*
X166968257Y-65097263D01*
X166933855Y-65108941D01*
X166808313Y-65170852D01*
X166672031Y-65238058D01*
X166672026Y-65238061D01*
X166668327Y-65239885D01*
X166664894Y-65242179D01*
X166425593Y-65402074D01*
X166425588Y-65402078D01*
X166422162Y-65404367D01*
X166419068Y-65407081D01*
X166419062Y-65407085D01*
X166287273Y-65522662D01*
X166199573Y-65599573D01*
X166196864Y-65602662D01*
X166007085Y-65819062D01*
X166007081Y-65819068D01*
X166004367Y-65822162D01*
X166002078Y-65825588D01*
X166002074Y-65825593D01*
X165901121Y-65976680D01*
X165839885Y-66068327D01*
X165708941Y-66333855D01*
X165707616Y-66337760D01*
X165707615Y-66337761D01*
X165618016Y-66601713D01*
X165613776Y-66614203D01*
X165612972Y-66618247D01*
X165612970Y-66618253D01*
X165559567Y-66886728D01*
X165556017Y-66904574D01*
X165555748Y-66908679D01*
X165555747Y-66908686D01*
X165539066Y-67163204D01*
X165536654Y-67200000D01*
X162902050Y-67200000D01*
X162832765Y-67106196D01*
X162650612Y-66921159D01*
X162647073Y-66918458D01*
X162647066Y-66918452D01*
X162447744Y-66766335D01*
X162444204Y-66763633D01*
X162352573Y-66712317D01*
X162302913Y-66661581D01*
X162288566Y-66592049D01*
X162314087Y-66525799D01*
X162346357Y-66497621D01*
X162345744Y-66496704D01*
X162557927Y-66354928D01*
X162557931Y-66354925D01*
X162561635Y-66352450D01*
X162564952Y-66349479D01*
X162564956Y-66349476D01*
X162751730Y-66182187D01*
X162751731Y-66182186D01*
X162755048Y-66179215D01*
X162922121Y-65980457D01*
X163059523Y-65760141D01*
X163077853Y-65718681D01*
X163162713Y-65526729D01*
X163164511Y-65522662D01*
X163234991Y-65272760D01*
X163269556Y-65015420D01*
X163270818Y-64975264D01*
X163273082Y-64903222D01*
X163273082Y-64903217D01*
X163273183Y-64900000D01*
X163254845Y-64640998D01*
X163249229Y-64614910D01*
X163201132Y-64391510D01*
X163201132Y-64391508D01*
X163200196Y-64387163D01*
X163131148Y-64200000D01*
X176586884Y-64200000D01*
X176605314Y-64410655D01*
X176660044Y-64614910D01*
X176749411Y-64806558D01*
X176870699Y-64979776D01*
X177020224Y-65129301D01*
X177193442Y-65250589D01*
X177198420Y-65252910D01*
X177198423Y-65252912D01*
X177380108Y-65337633D01*
X177385090Y-65339956D01*
X177390398Y-65341378D01*
X177390400Y-65341379D01*
X177584030Y-65393262D01*
X177584032Y-65393262D01*
X177589345Y-65394686D01*
X177800000Y-65413116D01*
X178010655Y-65394686D01*
X178015968Y-65393262D01*
X178015970Y-65393262D01*
X178209600Y-65341379D01*
X178209602Y-65341378D01*
X178214910Y-65339956D01*
X178219892Y-65337633D01*
X178401577Y-65252912D01*
X178401580Y-65252910D01*
X178406558Y-65250589D01*
X178579776Y-65129301D01*
X178729301Y-64979776D01*
X178850589Y-64806558D01*
X178939956Y-64614910D01*
X178994686Y-64410655D01*
X179013116Y-64200000D01*
X178994686Y-63989345D01*
X178974779Y-63915052D01*
X178941379Y-63790400D01*
X178941378Y-63790398D01*
X178939956Y-63785090D01*
X178903167Y-63706196D01*
X178852912Y-63598423D01*
X178852910Y-63598420D01*
X178850589Y-63593442D01*
X178729301Y-63420224D01*
X178579776Y-63270699D01*
X178406558Y-63149411D01*
X178401580Y-63147090D01*
X178401577Y-63147088D01*
X178219892Y-63062367D01*
X178219891Y-63062366D01*
X178214910Y-63060044D01*
X178209602Y-63058622D01*
X178209600Y-63058621D01*
X178015970Y-63006738D01*
X178015968Y-63006738D01*
X178010655Y-63005314D01*
X177800000Y-62986884D01*
X177589345Y-63005314D01*
X177584032Y-63006738D01*
X177584030Y-63006738D01*
X177390400Y-63058621D01*
X177390398Y-63058622D01*
X177385090Y-63060044D01*
X177380109Y-63062366D01*
X177380108Y-63062367D01*
X177198423Y-63147088D01*
X177198420Y-63147090D01*
X177193442Y-63149411D01*
X177020224Y-63270699D01*
X176870699Y-63420224D01*
X176749411Y-63593442D01*
X176747090Y-63598420D01*
X176747088Y-63598423D01*
X176696833Y-63706196D01*
X176660044Y-63785090D01*
X176658622Y-63790398D01*
X176658621Y-63790400D01*
X176625221Y-63915052D01*
X176605314Y-63989345D01*
X176586884Y-64200000D01*
X163131148Y-64200000D01*
X163110326Y-64143561D01*
X162987029Y-63915052D01*
X162832765Y-63706196D01*
X162650612Y-63521159D01*
X162647073Y-63518458D01*
X162647066Y-63518452D01*
X162447744Y-63366335D01*
X162444204Y-63363633D01*
X162217660Y-63236762D01*
X162213521Y-63235161D01*
X162213513Y-63235157D01*
X161985865Y-63147088D01*
X161975500Y-63143078D01*
X161971175Y-63142075D01*
X161971170Y-63142074D01*
X161870004Y-63118625D01*
X161722555Y-63084448D01*
X161463873Y-63062044D01*
X161459438Y-63062288D01*
X161459434Y-63062288D01*
X161209058Y-63076067D01*
X161209051Y-63076068D01*
X161204615Y-63076312D01*
X161078218Y-63101454D01*
X160954325Y-63126097D01*
X160954320Y-63126098D01*
X160949953Y-63126967D01*
X160945750Y-63128443D01*
X160709177Y-63211521D01*
X160709174Y-63211522D01*
X160704969Y-63212999D01*
X160701016Y-63215052D01*
X160701010Y-63215055D01*
X160570816Y-63282686D01*
X160474552Y-63332691D01*
X160470937Y-63335274D01*
X160470931Y-63335278D01*
X160352062Y-63420224D01*
X160263298Y-63483656D01*
X160223985Y-63521159D01*
X160111876Y-63628106D01*
X160075423Y-63662880D01*
X159914675Y-63866788D01*
X159912443Y-63870630D01*
X159912440Y-63870635D01*
X159786499Y-64087457D01*
X159786496Y-64087464D01*
X159784261Y-64091311D01*
X159782587Y-64095445D01*
X159688457Y-64327838D01*
X159688454Y-64327846D01*
X159686784Y-64331970D01*
X159624189Y-64583963D01*
X159597724Y-64842261D01*
X159597899Y-64846713D01*
X159604653Y-65018602D01*
X159607918Y-65101712D01*
X159654567Y-65357138D01*
X159736740Y-65603442D01*
X159738730Y-65607425D01*
X159738731Y-65607427D01*
X159815039Y-65760141D01*
X159852799Y-65835711D01*
X160000426Y-66049310D01*
X160176677Y-66239978D01*
X160180131Y-66242790D01*
X160374578Y-66401095D01*
X160374582Y-66401098D01*
X160378035Y-66403909D01*
X160523153Y-66491277D01*
X160571192Y-66543545D01*
X160583349Y-66613493D01*
X160555759Y-66678910D01*
X160516243Y-66711034D01*
X160500612Y-66719154D01*
X160474552Y-66732691D01*
X160470937Y-66735274D01*
X160470931Y-66735278D01*
X160338183Y-66830142D01*
X160263298Y-66883656D01*
X160075423Y-67062880D01*
X160038444Y-67109788D01*
X159934927Y-67241099D01*
X159914675Y-67266788D01*
X159912443Y-67270630D01*
X159912440Y-67270635D01*
X159786499Y-67487457D01*
X159786496Y-67487464D01*
X159784261Y-67491311D01*
X159744542Y-67589372D01*
X159688457Y-67727838D01*
X159688454Y-67727846D01*
X159686784Y-67731970D01*
X159624189Y-67983963D01*
X159597724Y-68242261D01*
X149799095Y-68242261D01*
X149784845Y-68040998D01*
X149773521Y-67988397D01*
X149731132Y-67791510D01*
X149731132Y-67791508D01*
X149730196Y-67787163D01*
X149640326Y-67543561D01*
X149610233Y-67487788D01*
X149519142Y-67318968D01*
X149517029Y-67315052D01*
X149362765Y-67106196D01*
X149180612Y-66921159D01*
X149177073Y-66918458D01*
X149177066Y-66918452D01*
X148977744Y-66766335D01*
X148974204Y-66763633D01*
X148882573Y-66712317D01*
X148832913Y-66661581D01*
X148818566Y-66592049D01*
X148844087Y-66525799D01*
X148876357Y-66497621D01*
X148875744Y-66496704D01*
X149087927Y-66354928D01*
X149087931Y-66354925D01*
X149091635Y-66352450D01*
X149094952Y-66349479D01*
X149094956Y-66349476D01*
X149281730Y-66182187D01*
X149281731Y-66182186D01*
X149285048Y-66179215D01*
X149452121Y-65980457D01*
X149589523Y-65760141D01*
X149607853Y-65718681D01*
X149692713Y-65526729D01*
X149694511Y-65522662D01*
X149764991Y-65272760D01*
X149799556Y-65015420D01*
X149800818Y-64975264D01*
X149803082Y-64903222D01*
X149803082Y-64903217D01*
X149803183Y-64900000D01*
X149784845Y-64640998D01*
X149779229Y-64614910D01*
X149731132Y-64391510D01*
X149731132Y-64391508D01*
X149730196Y-64387163D01*
X149640326Y-64143561D01*
X149517029Y-63915052D01*
X149362765Y-63706196D01*
X149180612Y-63521159D01*
X149177073Y-63518458D01*
X149177066Y-63518452D01*
X148977744Y-63366335D01*
X148974204Y-63363633D01*
X148747660Y-63236762D01*
X148743521Y-63235161D01*
X148743513Y-63235157D01*
X148515865Y-63147088D01*
X148505500Y-63143078D01*
X148501175Y-63142075D01*
X148501170Y-63142074D01*
X148400004Y-63118625D01*
X148252555Y-63084448D01*
X147993873Y-63062044D01*
X147989438Y-63062288D01*
X147989434Y-63062288D01*
X147739058Y-63076067D01*
X147739051Y-63076068D01*
X147734615Y-63076312D01*
X147608218Y-63101454D01*
X147484325Y-63126097D01*
X147484320Y-63126098D01*
X147479953Y-63126967D01*
X147475750Y-63128443D01*
X147239177Y-63211521D01*
X147239174Y-63211522D01*
X147234969Y-63212999D01*
X147231016Y-63215052D01*
X147231010Y-63215055D01*
X147100816Y-63282686D01*
X147004552Y-63332691D01*
X147000937Y-63335274D01*
X147000931Y-63335278D01*
X146882062Y-63420224D01*
X146793298Y-63483656D01*
X146753985Y-63521159D01*
X146641876Y-63628106D01*
X146605423Y-63662880D01*
X146444675Y-63866788D01*
X146442443Y-63870630D01*
X146442440Y-63870635D01*
X146316499Y-64087457D01*
X146316496Y-64087464D01*
X146314261Y-64091311D01*
X146312587Y-64095445D01*
X146218457Y-64327838D01*
X146218454Y-64327846D01*
X146216784Y-64331970D01*
X146154189Y-64583963D01*
X146127724Y-64842261D01*
X146127899Y-64846713D01*
X146134653Y-65018602D01*
X146137918Y-65101712D01*
X146184567Y-65357138D01*
X146266740Y-65603442D01*
X146268730Y-65607425D01*
X146268731Y-65607427D01*
X146345039Y-65760141D01*
X146382799Y-65835711D01*
X146530426Y-66049310D01*
X146706677Y-66239978D01*
X146710131Y-66242790D01*
X146904578Y-66401095D01*
X146904582Y-66401098D01*
X146908035Y-66403909D01*
X147053153Y-66491277D01*
X147101192Y-66543545D01*
X147113349Y-66613493D01*
X147085759Y-66678910D01*
X147046243Y-66711034D01*
X147030612Y-66719154D01*
X147004552Y-66732691D01*
X147000937Y-66735274D01*
X147000931Y-66735278D01*
X146868183Y-66830142D01*
X146793298Y-66883656D01*
X146605423Y-67062880D01*
X146568444Y-67109788D01*
X146464927Y-67241099D01*
X146444675Y-67266788D01*
X146442443Y-67270630D01*
X146442440Y-67270635D01*
X146316499Y-67487457D01*
X146316496Y-67487464D01*
X146314261Y-67491311D01*
X146274542Y-67589372D01*
X146218457Y-67727838D01*
X146218454Y-67727846D01*
X146216784Y-67731970D01*
X146154189Y-67983963D01*
X146127724Y-68242261D01*
X139920989Y-68242261D01*
X139920989Y-62484000D01*
X140372526Y-62484000D01*
X140392391Y-62736403D01*
X140451495Y-62982591D01*
X140453388Y-62987162D01*
X140453389Y-62987164D01*
X140546321Y-63211521D01*
X140548384Y-63216502D01*
X140680672Y-63432376D01*
X140845102Y-63624898D01*
X141037624Y-63789328D01*
X141253498Y-63921616D01*
X141258068Y-63923509D01*
X141258072Y-63923511D01*
X141482836Y-64016611D01*
X141487409Y-64018505D01*
X141572032Y-64038821D01*
X141728784Y-64076454D01*
X141728790Y-64076455D01*
X141733597Y-64077609D01*
X141833416Y-64085465D01*
X141920345Y-64092307D01*
X141920352Y-64092307D01*
X141922801Y-64092500D01*
X142049199Y-64092500D01*
X142051648Y-64092307D01*
X142051655Y-64092307D01*
X142138584Y-64085465D01*
X142238403Y-64077609D01*
X142243210Y-64076455D01*
X142243216Y-64076454D01*
X142399968Y-64038821D01*
X142484591Y-64018505D01*
X142489164Y-64016611D01*
X142713928Y-63923511D01*
X142713932Y-63923509D01*
X142718502Y-63921616D01*
X142934376Y-63789328D01*
X143126898Y-63624898D01*
X143291328Y-63432376D01*
X143423616Y-63216502D01*
X143425680Y-63211521D01*
X143518611Y-62987164D01*
X143518612Y-62987162D01*
X143520505Y-62982591D01*
X143579609Y-62736403D01*
X143599474Y-62484000D01*
X143579609Y-62231597D01*
X143520505Y-61985409D01*
X143423616Y-61751498D01*
X143291328Y-61535624D01*
X143126898Y-61343102D01*
X142934376Y-61178672D01*
X142718502Y-61046384D01*
X142713932Y-61044491D01*
X142713928Y-61044489D01*
X142489164Y-60951389D01*
X142489162Y-60951388D01*
X142484591Y-60949495D01*
X142399968Y-60929179D01*
X142243216Y-60891546D01*
X142243210Y-60891545D01*
X142238403Y-60890391D01*
X142138584Y-60882535D01*
X142051655Y-60875693D01*
X142051648Y-60875693D01*
X142049199Y-60875500D01*
X141922801Y-60875500D01*
X141920352Y-60875693D01*
X141920345Y-60875693D01*
X141833416Y-60882535D01*
X141733597Y-60890391D01*
X141728790Y-60891545D01*
X141728784Y-60891546D01*
X141572032Y-60929179D01*
X141487409Y-60949495D01*
X141482838Y-60951388D01*
X141482836Y-60951389D01*
X141258072Y-61044489D01*
X141258068Y-61044491D01*
X141253498Y-61046384D01*
X141037624Y-61178672D01*
X140845102Y-61343102D01*
X140680672Y-61535624D01*
X140548384Y-61751498D01*
X140451495Y-61985409D01*
X140392391Y-62231597D01*
X140372526Y-62484000D01*
X139920989Y-62484000D01*
X139920989Y-59998134D01*
X147041500Y-59998134D01*
X147048255Y-60060316D01*
X147099385Y-60196705D01*
X147186739Y-60313261D01*
X147303295Y-60400615D01*
X147439684Y-60451745D01*
X147501866Y-60458500D01*
X149298134Y-60458500D01*
X149360316Y-60451745D01*
X149496705Y-60400615D01*
X149613261Y-60313261D01*
X149700615Y-60196705D01*
X149722799Y-60137529D01*
X149744598Y-60079382D01*
X149787240Y-60022618D01*
X149853802Y-59997918D01*
X149923150Y-60013126D01*
X149957817Y-60041114D01*
X149986250Y-60073938D01*
X150158126Y-60216632D01*
X150351000Y-60329338D01*
X150559692Y-60409030D01*
X150564760Y-60410061D01*
X150564763Y-60410062D01*
X150672017Y-60431883D01*
X150778597Y-60453567D01*
X150783772Y-60453757D01*
X150783774Y-60453757D01*
X150996673Y-60461564D01*
X150996677Y-60461564D01*
X151001837Y-60461753D01*
X151006957Y-60461097D01*
X151006959Y-60461097D01*
X151218288Y-60434025D01*
X151218289Y-60434025D01*
X151223416Y-60433368D01*
X151297762Y-60411063D01*
X151432429Y-60370661D01*
X151432434Y-60370659D01*
X151437384Y-60369174D01*
X151637994Y-60270896D01*
X151819860Y-60141173D01*
X151978096Y-59983489D01*
X152108453Y-59802077D01*
X152109776Y-59803028D01*
X152156645Y-59759857D01*
X152226580Y-59747625D01*
X152292026Y-59775144D01*
X152319875Y-59806994D01*
X152379987Y-59905088D01*
X152526250Y-60073938D01*
X152698126Y-60216632D01*
X152891000Y-60329338D01*
X153099692Y-60409030D01*
X153104760Y-60410061D01*
X153104763Y-60410062D01*
X153212017Y-60431883D01*
X153318597Y-60453567D01*
X153323772Y-60453757D01*
X153323774Y-60453757D01*
X153536673Y-60461564D01*
X153536677Y-60461564D01*
X153541837Y-60461753D01*
X153546957Y-60461097D01*
X153546959Y-60461097D01*
X153758288Y-60434025D01*
X153758289Y-60434025D01*
X153763416Y-60433368D01*
X153837762Y-60411063D01*
X153972429Y-60370661D01*
X153972434Y-60370659D01*
X153977384Y-60369174D01*
X154177994Y-60270896D01*
X154359860Y-60141173D01*
X154518096Y-59983489D01*
X154648453Y-59802077D01*
X154649480Y-59800000D01*
X176586884Y-59800000D01*
X176605314Y-60010655D01*
X176606738Y-60015968D01*
X176606738Y-60015970D01*
X176641090Y-60144171D01*
X176660044Y-60214910D01*
X176662366Y-60219891D01*
X176662367Y-60219892D01*
X176746640Y-60400615D01*
X176749411Y-60406558D01*
X176870699Y-60579776D01*
X177020224Y-60729301D01*
X177193442Y-60850589D01*
X177198420Y-60852910D01*
X177198423Y-60852912D01*
X177380108Y-60937633D01*
X177385090Y-60939956D01*
X177390398Y-60941378D01*
X177390400Y-60941379D01*
X177584030Y-60993262D01*
X177584032Y-60993262D01*
X177589345Y-60994686D01*
X177800000Y-61013116D01*
X178010655Y-60994686D01*
X178015968Y-60993262D01*
X178015970Y-60993262D01*
X178209600Y-60941379D01*
X178209602Y-60941378D01*
X178214910Y-60939956D01*
X178219892Y-60937633D01*
X178401577Y-60852912D01*
X178401580Y-60852910D01*
X178406558Y-60850589D01*
X178579776Y-60729301D01*
X178729301Y-60579776D01*
X178850589Y-60406558D01*
X178853361Y-60400615D01*
X178937633Y-60219892D01*
X178937634Y-60219891D01*
X178939956Y-60214910D01*
X178958911Y-60144171D01*
X178993262Y-60015970D01*
X178993262Y-60015968D01*
X178994686Y-60010655D01*
X179013116Y-59800000D01*
X178994686Y-59589345D01*
X178993262Y-59584030D01*
X178941379Y-59390400D01*
X178941378Y-59390398D01*
X178939956Y-59385090D01*
X178850589Y-59193442D01*
X178729301Y-59020224D01*
X178579776Y-58870699D01*
X178406558Y-58749411D01*
X178401580Y-58747090D01*
X178401577Y-58747088D01*
X178219892Y-58662367D01*
X178219891Y-58662366D01*
X178214910Y-58660044D01*
X178209602Y-58658622D01*
X178209600Y-58658621D01*
X178015970Y-58606738D01*
X178015968Y-58606738D01*
X178010655Y-58605314D01*
X177800000Y-58586884D01*
X177589345Y-58605314D01*
X177584032Y-58606738D01*
X177584030Y-58606738D01*
X177390400Y-58658621D01*
X177390398Y-58658622D01*
X177385090Y-58660044D01*
X177380109Y-58662366D01*
X177380108Y-58662367D01*
X177198423Y-58747088D01*
X177198420Y-58747090D01*
X177193442Y-58749411D01*
X177020224Y-58870699D01*
X176870699Y-59020224D01*
X176749411Y-59193442D01*
X176660044Y-59385090D01*
X176658622Y-59390398D01*
X176658621Y-59390400D01*
X176606738Y-59584030D01*
X176605314Y-59589345D01*
X176586884Y-59800000D01*
X154649480Y-59800000D01*
X154652186Y-59794525D01*
X154745136Y-59606453D01*
X154745137Y-59606451D01*
X154747430Y-59601811D01*
X154812370Y-59388069D01*
X154841529Y-59166590D01*
X154843156Y-59100000D01*
X154824852Y-58877361D01*
X154770431Y-58660702D01*
X154741719Y-58594669D01*
X165542001Y-58594669D01*
X165542371Y-58601490D01*
X165547895Y-58652352D01*
X165551521Y-58667604D01*
X165596676Y-58788054D01*
X165605214Y-58803649D01*
X165681715Y-58905724D01*
X165694276Y-58918285D01*
X165796351Y-58994786D01*
X165811946Y-59003324D01*
X165932394Y-59048478D01*
X165947649Y-59052105D01*
X165998514Y-59057631D01*
X166005328Y-59058000D01*
X167527885Y-59058000D01*
X167543124Y-59053525D01*
X167544329Y-59052135D01*
X167546000Y-59044452D01*
X167546000Y-59039884D01*
X168054000Y-59039884D01*
X168058475Y-59055123D01*
X168059865Y-59056328D01*
X168067548Y-59057999D01*
X169594669Y-59057999D01*
X169601490Y-59057629D01*
X169652352Y-59052105D01*
X169667604Y-59048479D01*
X169788054Y-59003324D01*
X169803649Y-58994786D01*
X169905724Y-58918285D01*
X169918285Y-58905724D01*
X169994786Y-58803649D01*
X170003324Y-58788054D01*
X170048478Y-58667606D01*
X170052105Y-58652351D01*
X170057631Y-58601486D01*
X170058000Y-58594672D01*
X170058000Y-57072115D01*
X170053525Y-57056876D01*
X170052135Y-57055671D01*
X170044452Y-57054000D01*
X168072115Y-57054000D01*
X168056876Y-57058475D01*
X168055671Y-57059865D01*
X168054000Y-57067548D01*
X168054000Y-59039884D01*
X167546000Y-59039884D01*
X167546000Y-57072115D01*
X167541525Y-57056876D01*
X167540135Y-57055671D01*
X167532452Y-57054000D01*
X165560116Y-57054000D01*
X165544877Y-57058475D01*
X165543672Y-57059865D01*
X165542001Y-57067548D01*
X165542001Y-58594669D01*
X154741719Y-58594669D01*
X154681354Y-58455840D01*
X154560014Y-58268277D01*
X154409670Y-58103051D01*
X154405619Y-58099852D01*
X154405615Y-58099848D01*
X154238414Y-57967800D01*
X154238410Y-57967798D01*
X154234359Y-57964598D01*
X154038789Y-57856638D01*
X154033920Y-57854914D01*
X154033916Y-57854912D01*
X153833087Y-57783795D01*
X153833083Y-57783794D01*
X153828212Y-57782069D01*
X153823119Y-57781162D01*
X153823116Y-57781161D01*
X153613373Y-57743800D01*
X153613367Y-57743799D01*
X153608284Y-57742894D01*
X153534452Y-57741992D01*
X153390081Y-57740228D01*
X153390079Y-57740228D01*
X153384911Y-57740165D01*
X153164091Y-57773955D01*
X152951756Y-57843357D01*
X152753607Y-57946507D01*
X152749474Y-57949610D01*
X152749471Y-57949612D01*
X152579100Y-58077530D01*
X152574965Y-58080635D01*
X152571393Y-58084373D01*
X152463729Y-58197037D01*
X152420629Y-58242138D01*
X152313201Y-58399621D01*
X152258293Y-58444621D01*
X152187768Y-58452792D01*
X152124021Y-58421538D01*
X152103324Y-58397054D01*
X152022822Y-58272617D01*
X152022820Y-58272614D01*
X152020014Y-58268277D01*
X151869670Y-58103051D01*
X151865619Y-58099852D01*
X151865615Y-58099848D01*
X151698414Y-57967800D01*
X151698410Y-57967798D01*
X151694359Y-57964598D01*
X151498789Y-57856638D01*
X151493920Y-57854914D01*
X151493916Y-57854912D01*
X151293087Y-57783795D01*
X151293083Y-57783794D01*
X151288212Y-57782069D01*
X151283119Y-57781162D01*
X151283116Y-57781161D01*
X151073373Y-57743800D01*
X151073367Y-57743799D01*
X151068284Y-57742894D01*
X150994452Y-57741992D01*
X150850081Y-57740228D01*
X150850079Y-57740228D01*
X150844911Y-57740165D01*
X150624091Y-57773955D01*
X150411756Y-57843357D01*
X150213607Y-57946507D01*
X150209474Y-57949610D01*
X150209471Y-57949612D01*
X150039100Y-58077530D01*
X150034965Y-58080635D01*
X149978537Y-58139684D01*
X149954283Y-58165064D01*
X149892759Y-58200494D01*
X149821846Y-58197037D01*
X149764060Y-58155791D01*
X149745207Y-58122243D01*
X149703767Y-58011703D01*
X149700615Y-58003295D01*
X149613261Y-57886739D01*
X149496705Y-57799385D01*
X149360316Y-57748255D01*
X149298134Y-57741500D01*
X147501866Y-57741500D01*
X147439684Y-57748255D01*
X147303295Y-57799385D01*
X147186739Y-57886739D01*
X147099385Y-58003295D01*
X147048255Y-58139684D01*
X147041500Y-58201866D01*
X147041500Y-59998134D01*
X139920989Y-59998134D01*
X139920989Y-56527885D01*
X165542000Y-56527885D01*
X165546475Y-56543124D01*
X165547865Y-56544329D01*
X165555548Y-56546000D01*
X167527885Y-56546000D01*
X167543124Y-56541525D01*
X167544329Y-56540135D01*
X167546000Y-56532452D01*
X167546000Y-56527885D01*
X168054000Y-56527885D01*
X168058475Y-56543124D01*
X168059865Y-56544329D01*
X168067548Y-56546000D01*
X170039884Y-56546000D01*
X170055123Y-56541525D01*
X170056328Y-56540135D01*
X170057999Y-56532452D01*
X170057999Y-55005331D01*
X170057629Y-54998510D01*
X170052105Y-54947648D01*
X170048479Y-54932396D01*
X170003324Y-54811946D01*
X169994786Y-54796351D01*
X169918285Y-54694276D01*
X169905724Y-54681715D01*
X169803649Y-54605214D01*
X169788054Y-54596676D01*
X169667606Y-54551522D01*
X169652351Y-54547895D01*
X169601486Y-54542369D01*
X169594672Y-54542000D01*
X168072115Y-54542000D01*
X168056876Y-54546475D01*
X168055671Y-54547865D01*
X168054000Y-54555548D01*
X168054000Y-56527885D01*
X167546000Y-56527885D01*
X167546000Y-54560116D01*
X167541525Y-54544877D01*
X167540135Y-54543672D01*
X167532452Y-54542001D01*
X166005331Y-54542001D01*
X165998510Y-54542371D01*
X165947648Y-54547895D01*
X165932396Y-54551521D01*
X165811946Y-54596676D01*
X165796351Y-54605214D01*
X165694276Y-54681715D01*
X165681715Y-54694276D01*
X165605214Y-54796351D01*
X165596676Y-54811946D01*
X165551522Y-54932394D01*
X165547895Y-54947649D01*
X165542369Y-54998514D01*
X165542000Y-55005328D01*
X165542000Y-56527885D01*
X139920989Y-56527885D01*
X139920989Y-52842261D01*
X146127724Y-52842261D01*
X146127899Y-52846713D01*
X146134653Y-53018602D01*
X146137918Y-53101712D01*
X146184567Y-53357138D01*
X146266740Y-53603442D01*
X146268730Y-53607425D01*
X146268731Y-53607427D01*
X146345039Y-53760141D01*
X146382799Y-53835711D01*
X146385326Y-53839367D01*
X146385327Y-53839369D01*
X146421052Y-53891059D01*
X146530426Y-54049310D01*
X146706677Y-54239978D01*
X146710131Y-54242790D01*
X146904578Y-54401095D01*
X146904582Y-54401098D01*
X146908035Y-54403909D01*
X147130482Y-54537833D01*
X147134577Y-54539567D01*
X147134579Y-54539568D01*
X147365480Y-54637342D01*
X147365487Y-54637344D01*
X147369581Y-54639078D01*
X147620559Y-54705624D01*
X147624983Y-54706148D01*
X147624985Y-54706148D01*
X147728416Y-54718389D01*
X147878410Y-54736142D01*
X148137988Y-54730025D01*
X148142384Y-54729293D01*
X148142387Y-54729293D01*
X148389713Y-54688127D01*
X148389717Y-54688126D01*
X148394115Y-54687394D01*
X148641680Y-54609099D01*
X148875744Y-54496704D01*
X149011178Y-54406210D01*
X149087927Y-54354928D01*
X149087931Y-54354925D01*
X149091635Y-54352450D01*
X149094952Y-54349479D01*
X149094956Y-54349476D01*
X149281730Y-54182187D01*
X149281731Y-54182186D01*
X149285048Y-54179215D01*
X149452121Y-53980457D01*
X149589523Y-53760141D01*
X149694511Y-53522662D01*
X149764991Y-53272760D01*
X149777741Y-53177838D01*
X149799129Y-53018602D01*
X149799130Y-53018594D01*
X149799556Y-53015420D01*
X149803183Y-52900000D01*
X149799095Y-52842261D01*
X159597724Y-52842261D01*
X159597899Y-52846713D01*
X159604653Y-53018602D01*
X159607918Y-53101712D01*
X159654567Y-53357138D01*
X159736740Y-53603442D01*
X159738730Y-53607425D01*
X159738731Y-53607427D01*
X159815039Y-53760141D01*
X159852799Y-53835711D01*
X159855326Y-53839367D01*
X159855327Y-53839369D01*
X159891052Y-53891059D01*
X160000426Y-54049310D01*
X160176677Y-54239978D01*
X160180131Y-54242790D01*
X160374578Y-54401095D01*
X160374582Y-54401098D01*
X160378035Y-54403909D01*
X160600482Y-54537833D01*
X160604577Y-54539567D01*
X160604579Y-54539568D01*
X160835480Y-54637342D01*
X160835487Y-54637344D01*
X160839581Y-54639078D01*
X161090559Y-54705624D01*
X161094983Y-54706148D01*
X161094985Y-54706148D01*
X161198416Y-54718389D01*
X161348410Y-54736142D01*
X161607988Y-54730025D01*
X161612384Y-54729293D01*
X161612387Y-54729293D01*
X161859713Y-54688127D01*
X161859717Y-54688126D01*
X161864115Y-54687394D01*
X162111680Y-54609099D01*
X162345744Y-54496704D01*
X162481178Y-54406210D01*
X162557927Y-54354928D01*
X162557931Y-54354925D01*
X162561635Y-54352450D01*
X162564952Y-54349479D01*
X162564956Y-54349476D01*
X162751730Y-54182187D01*
X162751731Y-54182186D01*
X162755048Y-54179215D01*
X162922121Y-53980457D01*
X163059523Y-53760141D01*
X163164511Y-53522662D01*
X163234991Y-53272760D01*
X163247741Y-53177838D01*
X163269129Y-53018602D01*
X163269130Y-53018594D01*
X163269556Y-53015420D01*
X163273183Y-52900000D01*
X163254845Y-52640998D01*
X163243521Y-52588397D01*
X163201132Y-52391510D01*
X163201132Y-52391508D01*
X163200196Y-52387163D01*
X163110326Y-52143561D01*
X162987029Y-51915052D01*
X162902050Y-51800000D01*
X165536654Y-51800000D01*
X165536924Y-51804119D01*
X165555495Y-52087457D01*
X165556017Y-52095426D01*
X165556819Y-52099459D01*
X165556820Y-52099465D01*
X165602247Y-52327838D01*
X165613776Y-52385797D01*
X165708941Y-52666145D01*
X165710765Y-52669843D01*
X165825855Y-52903222D01*
X165839885Y-52931673D01*
X165842179Y-52935106D01*
X165950529Y-53097263D01*
X166004367Y-53177838D01*
X166007081Y-53180932D01*
X166007085Y-53180938D01*
X166157768Y-53352758D01*
X166199573Y-53400427D01*
X166202662Y-53403136D01*
X166419062Y-53592915D01*
X166419068Y-53592919D01*
X166422162Y-53595633D01*
X166425588Y-53597922D01*
X166425593Y-53597926D01*
X166609405Y-53720744D01*
X166668327Y-53760115D01*
X166672026Y-53761939D01*
X166672031Y-53761942D01*
X166808313Y-53829148D01*
X166933855Y-53891059D01*
X166937760Y-53892384D01*
X166937761Y-53892385D01*
X167210290Y-53984896D01*
X167210294Y-53984897D01*
X167214203Y-53986224D01*
X167218247Y-53987028D01*
X167218253Y-53987030D01*
X167500535Y-54043180D01*
X167500541Y-54043181D01*
X167504574Y-54043983D01*
X167508679Y-54044252D01*
X167508686Y-54044253D01*
X167795881Y-54063076D01*
X167800000Y-54063346D01*
X167804119Y-54063076D01*
X168091314Y-54044253D01*
X168091321Y-54044252D01*
X168095426Y-54043983D01*
X168099459Y-54043181D01*
X168099465Y-54043180D01*
X168381747Y-53987030D01*
X168381753Y-53987028D01*
X168385797Y-53986224D01*
X168389706Y-53984897D01*
X168389710Y-53984896D01*
X168662239Y-53892385D01*
X168662240Y-53892384D01*
X168666145Y-53891059D01*
X168791687Y-53829148D01*
X168927969Y-53761942D01*
X168927974Y-53761939D01*
X168931673Y-53760115D01*
X168990595Y-53720744D01*
X169174407Y-53597926D01*
X169174412Y-53597922D01*
X169177838Y-53595633D01*
X169180932Y-53592919D01*
X169180938Y-53592915D01*
X169397338Y-53403136D01*
X169400427Y-53400427D01*
X169442232Y-53352758D01*
X169592915Y-53180938D01*
X169592919Y-53180932D01*
X169595633Y-53177838D01*
X169649472Y-53097263D01*
X169757821Y-52935106D01*
X169760115Y-52931673D01*
X169774146Y-52903222D01*
X169889235Y-52669843D01*
X169891059Y-52666145D01*
X169986224Y-52385797D01*
X169997753Y-52327838D01*
X170043180Y-52099465D01*
X170043181Y-52099459D01*
X170043983Y-52095426D01*
X170044506Y-52087457D01*
X170063076Y-51804119D01*
X170063346Y-51800000D01*
X170054359Y-51662880D01*
X170044253Y-51508686D01*
X170044252Y-51508679D01*
X170043983Y-51504574D01*
X170040434Y-51486728D01*
X169987030Y-51218253D01*
X169987028Y-51218247D01*
X169986224Y-51214203D01*
X169981985Y-51201713D01*
X169892385Y-50937761D01*
X169892384Y-50937760D01*
X169891059Y-50933855D01*
X169760115Y-50668327D01*
X169631899Y-50476438D01*
X169597926Y-50425593D01*
X169597922Y-50425588D01*
X169595633Y-50422162D01*
X169592919Y-50419068D01*
X169592915Y-50419062D01*
X169403136Y-50202662D01*
X169400427Y-50199573D01*
X169312727Y-50122662D01*
X169180938Y-50007085D01*
X169180932Y-50007081D01*
X169177838Y-50004367D01*
X169174412Y-50002078D01*
X169174407Y-50002074D01*
X168940211Y-49845590D01*
X168931673Y-49839885D01*
X168927974Y-49838061D01*
X168927969Y-49838058D01*
X168791687Y-49770852D01*
X168666145Y-49708941D01*
X168631743Y-49697263D01*
X168389710Y-49615104D01*
X168389706Y-49615103D01*
X168385797Y-49613776D01*
X168381753Y-49612972D01*
X168381747Y-49612970D01*
X168099465Y-49556820D01*
X168099459Y-49556819D01*
X168095426Y-49556017D01*
X168091321Y-49555748D01*
X168091314Y-49555747D01*
X167804119Y-49536924D01*
X167800000Y-49536654D01*
X167795881Y-49536924D01*
X167508686Y-49555747D01*
X167508679Y-49555748D01*
X167504574Y-49556017D01*
X167500541Y-49556819D01*
X167500535Y-49556820D01*
X167218253Y-49612970D01*
X167218247Y-49612972D01*
X167214203Y-49613776D01*
X167210294Y-49615103D01*
X167210290Y-49615104D01*
X166968257Y-49697263D01*
X166933855Y-49708941D01*
X166808313Y-49770852D01*
X166672031Y-49838058D01*
X166672026Y-49838061D01*
X166668327Y-49839885D01*
X166659789Y-49845590D01*
X166425593Y-50002074D01*
X166425588Y-50002078D01*
X166422162Y-50004367D01*
X166419068Y-50007081D01*
X166419062Y-50007085D01*
X166287273Y-50122662D01*
X166199573Y-50199573D01*
X166196864Y-50202662D01*
X166007085Y-50419062D01*
X166007081Y-50419068D01*
X166004367Y-50422162D01*
X166002078Y-50425588D01*
X166002074Y-50425593D01*
X165968101Y-50476438D01*
X165839885Y-50668327D01*
X165708941Y-50933855D01*
X165707616Y-50937760D01*
X165707615Y-50937761D01*
X165618016Y-51201713D01*
X165613776Y-51214203D01*
X165612972Y-51218247D01*
X165612970Y-51218253D01*
X165559567Y-51486728D01*
X165556017Y-51504574D01*
X165555748Y-51508679D01*
X165555747Y-51508686D01*
X165545641Y-51662880D01*
X165536654Y-51800000D01*
X162902050Y-51800000D01*
X162832765Y-51706196D01*
X162650612Y-51521159D01*
X162647073Y-51518458D01*
X162647066Y-51518452D01*
X162447744Y-51366335D01*
X162444204Y-51363633D01*
X162352573Y-51312317D01*
X162302913Y-51261581D01*
X162288566Y-51192049D01*
X162314087Y-51125799D01*
X162346357Y-51097621D01*
X162345744Y-51096704D01*
X162557927Y-50954928D01*
X162557931Y-50954925D01*
X162561635Y-50952450D01*
X162564952Y-50949479D01*
X162564956Y-50949476D01*
X162751730Y-50782187D01*
X162751731Y-50782186D01*
X162755048Y-50779215D01*
X162922121Y-50580457D01*
X163059523Y-50360141D01*
X163094595Y-50280811D01*
X163162713Y-50126729D01*
X163164511Y-50122662D01*
X163234991Y-49872760D01*
X163269556Y-49615420D01*
X163271250Y-49561522D01*
X163273082Y-49503222D01*
X163273082Y-49503217D01*
X163273183Y-49500000D01*
X163254845Y-49240998D01*
X163249229Y-49214910D01*
X163201132Y-48991510D01*
X163201132Y-48991508D01*
X163200196Y-48987163D01*
X163131148Y-48800000D01*
X176586884Y-48800000D01*
X176605314Y-49010655D01*
X176660044Y-49214910D01*
X176662366Y-49219891D01*
X176662367Y-49219892D01*
X176718236Y-49339702D01*
X176749411Y-49406558D01*
X176870699Y-49579776D01*
X177020224Y-49729301D01*
X177193442Y-49850589D01*
X177198420Y-49852910D01*
X177198423Y-49852912D01*
X177380108Y-49937633D01*
X177385090Y-49939956D01*
X177390398Y-49941378D01*
X177390400Y-49941379D01*
X177584030Y-49993262D01*
X177584032Y-49993262D01*
X177589345Y-49994686D01*
X177800000Y-50013116D01*
X178010655Y-49994686D01*
X178015968Y-49993262D01*
X178015970Y-49993262D01*
X178209600Y-49941379D01*
X178209602Y-49941378D01*
X178214910Y-49939956D01*
X178219892Y-49937633D01*
X178401577Y-49852912D01*
X178401580Y-49852910D01*
X178406558Y-49850589D01*
X178579776Y-49729301D01*
X178729301Y-49579776D01*
X178850589Y-49406558D01*
X178881765Y-49339702D01*
X178937633Y-49219892D01*
X178937634Y-49219891D01*
X178939956Y-49214910D01*
X178994686Y-49010655D01*
X179013116Y-48800000D01*
X178994686Y-48589345D01*
X178974779Y-48515052D01*
X178941379Y-48390400D01*
X178941378Y-48390398D01*
X178939956Y-48385090D01*
X178911587Y-48324252D01*
X178852912Y-48198423D01*
X178852910Y-48198420D01*
X178850589Y-48193442D01*
X178729301Y-48020224D01*
X178579776Y-47870699D01*
X178406558Y-47749411D01*
X178401580Y-47747090D01*
X178401577Y-47747088D01*
X178219892Y-47662367D01*
X178219891Y-47662366D01*
X178214910Y-47660044D01*
X178209602Y-47658622D01*
X178209600Y-47658621D01*
X178015970Y-47606738D01*
X178015968Y-47606738D01*
X178010655Y-47605314D01*
X177800000Y-47586884D01*
X177589345Y-47605314D01*
X177584032Y-47606738D01*
X177584030Y-47606738D01*
X177390400Y-47658621D01*
X177390398Y-47658622D01*
X177385090Y-47660044D01*
X177380109Y-47662366D01*
X177380108Y-47662367D01*
X177198423Y-47747088D01*
X177198420Y-47747090D01*
X177193442Y-47749411D01*
X177020224Y-47870699D01*
X176870699Y-48020224D01*
X176749411Y-48193442D01*
X176747090Y-48198420D01*
X176747088Y-48198423D01*
X176688413Y-48324252D01*
X176660044Y-48385090D01*
X176658622Y-48390398D01*
X176658621Y-48390400D01*
X176625221Y-48515052D01*
X176605314Y-48589345D01*
X176586884Y-48800000D01*
X163131148Y-48800000D01*
X163110326Y-48743561D01*
X163058117Y-48646800D01*
X162989142Y-48518968D01*
X162987029Y-48515052D01*
X162832765Y-48306196D01*
X162803561Y-48276529D01*
X162726672Y-48198423D01*
X162650612Y-48121159D01*
X162647073Y-48118458D01*
X162647066Y-48118452D01*
X162504144Y-48009378D01*
X162444204Y-47963633D01*
X162404140Y-47941196D01*
X162221546Y-47838938D01*
X162221543Y-47838937D01*
X162217660Y-47836762D01*
X162213521Y-47835161D01*
X162213513Y-47835157D01*
X161981639Y-47745453D01*
X161975500Y-47743078D01*
X161971175Y-47742075D01*
X161971170Y-47742074D01*
X161870004Y-47718625D01*
X161722555Y-47684448D01*
X161463873Y-47662044D01*
X161459438Y-47662288D01*
X161459434Y-47662288D01*
X161209058Y-47676067D01*
X161209051Y-47676068D01*
X161204615Y-47676312D01*
X161078218Y-47701454D01*
X160954325Y-47726097D01*
X160954320Y-47726098D01*
X160949953Y-47726967D01*
X160945750Y-47728443D01*
X160709177Y-47811521D01*
X160709174Y-47811522D01*
X160704969Y-47812999D01*
X160701016Y-47815052D01*
X160701010Y-47815055D01*
X160583964Y-47875856D01*
X160474552Y-47932691D01*
X160470937Y-47935274D01*
X160470931Y-47935278D01*
X160357511Y-48016330D01*
X160263298Y-48083656D01*
X160075423Y-48262880D01*
X159961091Y-48407909D01*
X159921515Y-48458112D01*
X159914675Y-48466788D01*
X159912443Y-48470630D01*
X159912440Y-48470635D01*
X159786499Y-48687457D01*
X159786496Y-48687464D01*
X159784261Y-48691311D01*
X159745961Y-48785870D01*
X159688457Y-48927838D01*
X159688454Y-48927846D01*
X159686784Y-48931970D01*
X159624189Y-49183963D01*
X159597724Y-49442261D01*
X159597899Y-49446713D01*
X159604653Y-49618602D01*
X159607918Y-49701712D01*
X159654567Y-49957138D01*
X159736740Y-50203442D01*
X159738730Y-50207425D01*
X159738731Y-50207427D01*
X159815039Y-50360141D01*
X159852799Y-50435711D01*
X160000426Y-50649310D01*
X160014832Y-50664894D01*
X160158370Y-50820173D01*
X160176677Y-50839978D01*
X160180131Y-50842790D01*
X160374578Y-51001095D01*
X160374582Y-51001098D01*
X160378035Y-51003909D01*
X160523153Y-51091277D01*
X160571192Y-51143545D01*
X160583349Y-51213493D01*
X160555759Y-51278910D01*
X160516243Y-51311034D01*
X160500612Y-51319154D01*
X160474552Y-51332691D01*
X160470937Y-51335274D01*
X160470931Y-51335278D01*
X160338183Y-51430142D01*
X160263298Y-51483656D01*
X160075423Y-51662880D01*
X159914675Y-51866788D01*
X159912443Y-51870630D01*
X159912440Y-51870635D01*
X159786499Y-52087457D01*
X159786496Y-52087464D01*
X159784261Y-52091311D01*
X159764685Y-52139643D01*
X159688457Y-52327838D01*
X159688454Y-52327846D01*
X159686784Y-52331970D01*
X159624189Y-52583963D01*
X159597724Y-52842261D01*
X149799095Y-52842261D01*
X149784845Y-52640998D01*
X149773521Y-52588397D01*
X149731132Y-52391510D01*
X149731132Y-52391508D01*
X149730196Y-52387163D01*
X149640326Y-52143561D01*
X149517029Y-51915052D01*
X149362765Y-51706196D01*
X149180612Y-51521159D01*
X149177073Y-51518458D01*
X149177066Y-51518452D01*
X148977744Y-51366335D01*
X148974204Y-51363633D01*
X148882573Y-51312317D01*
X148832913Y-51261581D01*
X148818566Y-51192049D01*
X148844087Y-51125799D01*
X148876357Y-51097621D01*
X148875744Y-51096704D01*
X149087927Y-50954928D01*
X149087931Y-50954925D01*
X149091635Y-50952450D01*
X149094952Y-50949479D01*
X149094956Y-50949476D01*
X149281730Y-50782187D01*
X149281731Y-50782186D01*
X149285048Y-50779215D01*
X149452121Y-50580457D01*
X149589523Y-50360141D01*
X149624595Y-50280811D01*
X149692713Y-50126729D01*
X149694511Y-50122662D01*
X149764991Y-49872760D01*
X149799556Y-49615420D01*
X149801250Y-49561522D01*
X149803082Y-49503222D01*
X149803082Y-49503217D01*
X149803183Y-49500000D01*
X149784845Y-49240998D01*
X149779229Y-49214910D01*
X149731132Y-48991510D01*
X149731132Y-48991508D01*
X149730196Y-48987163D01*
X149640326Y-48743561D01*
X149588117Y-48646800D01*
X149519142Y-48518968D01*
X149517029Y-48515052D01*
X149362765Y-48306196D01*
X149333561Y-48276529D01*
X149256672Y-48198423D01*
X149180612Y-48121159D01*
X149177073Y-48118458D01*
X149177066Y-48118452D01*
X149034144Y-48009378D01*
X148974204Y-47963633D01*
X148934140Y-47941196D01*
X148751546Y-47838938D01*
X148751543Y-47838937D01*
X148747660Y-47836762D01*
X148743521Y-47835161D01*
X148743513Y-47835157D01*
X148511639Y-47745453D01*
X148505500Y-47743078D01*
X148501175Y-47742075D01*
X148501170Y-47742074D01*
X148400004Y-47718625D01*
X148252555Y-47684448D01*
X147993873Y-47662044D01*
X147989438Y-47662288D01*
X147989434Y-47662288D01*
X147739058Y-47676067D01*
X147739051Y-47676068D01*
X147734615Y-47676312D01*
X147608218Y-47701454D01*
X147484325Y-47726097D01*
X147484320Y-47726098D01*
X147479953Y-47726967D01*
X147475750Y-47728443D01*
X147239177Y-47811521D01*
X147239174Y-47811522D01*
X147234969Y-47812999D01*
X147231016Y-47815052D01*
X147231010Y-47815055D01*
X147113964Y-47875856D01*
X147004552Y-47932691D01*
X147000937Y-47935274D01*
X147000931Y-47935278D01*
X146887511Y-48016330D01*
X146793298Y-48083656D01*
X146605423Y-48262880D01*
X146491091Y-48407909D01*
X146451515Y-48458112D01*
X146444675Y-48466788D01*
X146442443Y-48470630D01*
X146442440Y-48470635D01*
X146316499Y-48687457D01*
X146316496Y-48687464D01*
X146314261Y-48691311D01*
X146275961Y-48785870D01*
X146218457Y-48927838D01*
X146218454Y-48927846D01*
X146216784Y-48931970D01*
X146154189Y-49183963D01*
X146127724Y-49442261D01*
X146127899Y-49446713D01*
X146134653Y-49618602D01*
X146137918Y-49701712D01*
X146184567Y-49957138D01*
X146266740Y-50203442D01*
X146268730Y-50207425D01*
X146268731Y-50207427D01*
X146345039Y-50360141D01*
X146382799Y-50435711D01*
X146530426Y-50649310D01*
X146544832Y-50664894D01*
X146688370Y-50820173D01*
X146706677Y-50839978D01*
X146710131Y-50842790D01*
X146904578Y-51001095D01*
X146904582Y-51001098D01*
X146908035Y-51003909D01*
X147053153Y-51091277D01*
X147101192Y-51143545D01*
X147113349Y-51213493D01*
X147085759Y-51278910D01*
X147046243Y-51311034D01*
X147030612Y-51319154D01*
X147004552Y-51332691D01*
X147000937Y-51335274D01*
X147000931Y-51335278D01*
X146868183Y-51430142D01*
X146793298Y-51483656D01*
X146605423Y-51662880D01*
X146444675Y-51866788D01*
X146442443Y-51870630D01*
X146442440Y-51870635D01*
X146316499Y-52087457D01*
X146316496Y-52087464D01*
X146314261Y-52091311D01*
X146294685Y-52139643D01*
X146218457Y-52327838D01*
X146218454Y-52327846D01*
X146216784Y-52331970D01*
X146154189Y-52583963D01*
X146127724Y-52842261D01*
X139920989Y-52842261D01*
X139920989Y-51308461D01*
X139940991Y-51240340D01*
X139957894Y-51219366D01*
X140107605Y-51069655D01*
X140116385Y-51061665D01*
X140116387Y-51061663D01*
X140123080Y-51057416D01*
X140130363Y-51049661D01*
X140171604Y-51005743D01*
X140174359Y-51002901D01*
X140176561Y-51000699D01*
X140238873Y-50966673D01*
X140309688Y-50971738D01*
X140329226Y-50981006D01*
X140371538Y-51005731D01*
X140371542Y-51005733D01*
X140376000Y-51008338D01*
X140584692Y-51088030D01*
X140589760Y-51089061D01*
X140589763Y-51089062D01*
X140697017Y-51110883D01*
X140803597Y-51132567D01*
X140808772Y-51132757D01*
X140808774Y-51132757D01*
X141021673Y-51140564D01*
X141021677Y-51140564D01*
X141026837Y-51140753D01*
X141031957Y-51140097D01*
X141031959Y-51140097D01*
X141243288Y-51113025D01*
X141243289Y-51113025D01*
X141248416Y-51112368D01*
X141297570Y-51097621D01*
X141457429Y-51049661D01*
X141457434Y-51049659D01*
X141462384Y-51048174D01*
X141662994Y-50949896D01*
X141844860Y-50820173D01*
X141885962Y-50779215D01*
X141926209Y-50739107D01*
X142003096Y-50662489D01*
X142015198Y-50645648D01*
X142130435Y-50485277D01*
X142133453Y-50481077D01*
X142154067Y-50439369D01*
X142230136Y-50285453D01*
X142230137Y-50285451D01*
X142232430Y-50280811D01*
X142279244Y-50126729D01*
X142295865Y-50072023D01*
X142295865Y-50072021D01*
X142297370Y-50067069D01*
X142326529Y-49845590D01*
X142326612Y-49842179D01*
X142328074Y-49782365D01*
X142328074Y-49782361D01*
X142328156Y-49779000D01*
X142309852Y-49556361D01*
X142255431Y-49339702D01*
X142166354Y-49134840D01*
X142073630Y-48991510D01*
X142047822Y-48951617D01*
X142047820Y-48951614D01*
X142045014Y-48947277D01*
X141894670Y-48782051D01*
X141890619Y-48778852D01*
X141890615Y-48778848D01*
X141723414Y-48646800D01*
X141723410Y-48646798D01*
X141719359Y-48643598D01*
X141678053Y-48620796D01*
X141628084Y-48570364D01*
X141613312Y-48500921D01*
X141638428Y-48434516D01*
X141665780Y-48407909D01*
X141750208Y-48347687D01*
X141844860Y-48280173D01*
X141858705Y-48266377D01*
X141962593Y-48162851D01*
X142003096Y-48122489D01*
X142076581Y-48020224D01*
X142130435Y-47945277D01*
X142133453Y-47941077D01*
X142185009Y-47836762D01*
X142230136Y-47745453D01*
X142230137Y-47745451D01*
X142232430Y-47740811D01*
X142297370Y-47527069D01*
X142326529Y-47305590D01*
X142328156Y-47239000D01*
X142309852Y-47016361D01*
X142255431Y-46799702D01*
X142166354Y-46594840D01*
X142045014Y-46407277D01*
X141894670Y-46242051D01*
X141890619Y-46238852D01*
X141890615Y-46238848D01*
X141723414Y-46106800D01*
X141723410Y-46106798D01*
X141719359Y-46103598D01*
X141678053Y-46080796D01*
X141628084Y-46030364D01*
X141613312Y-45960921D01*
X141638428Y-45894516D01*
X141665780Y-45867909D01*
X141709603Y-45836650D01*
X141844860Y-45740173D01*
X142003096Y-45582489D01*
X142053290Y-45512637D01*
X142130435Y-45405277D01*
X142133453Y-45401077D01*
X142157258Y-45352912D01*
X142230136Y-45205453D01*
X142230137Y-45205451D01*
X142232430Y-45200811D01*
X142297370Y-44987069D01*
X142326529Y-44765590D01*
X142327646Y-44719892D01*
X142328074Y-44702365D01*
X142328074Y-44702361D01*
X142328156Y-44699000D01*
X142311642Y-44498134D01*
X147041500Y-44498134D01*
X147048255Y-44560316D01*
X147099385Y-44696705D01*
X147186739Y-44813261D01*
X147303295Y-44900615D01*
X147439684Y-44951745D01*
X147501866Y-44958500D01*
X149298134Y-44958500D01*
X149360316Y-44951745D01*
X149496705Y-44900615D01*
X149613261Y-44813261D01*
X149700615Y-44696705D01*
X149712240Y-44665695D01*
X149744598Y-44579382D01*
X149787240Y-44522618D01*
X149853802Y-44497918D01*
X149923150Y-44513126D01*
X149957817Y-44541114D01*
X149986250Y-44573938D01*
X150158126Y-44716632D01*
X150351000Y-44829338D01*
X150559692Y-44909030D01*
X150564760Y-44910061D01*
X150564763Y-44910062D01*
X150672017Y-44931883D01*
X150778597Y-44953567D01*
X150783772Y-44953757D01*
X150783774Y-44953757D01*
X150996673Y-44961564D01*
X150996677Y-44961564D01*
X151001837Y-44961753D01*
X151006957Y-44961097D01*
X151006959Y-44961097D01*
X151218288Y-44934025D01*
X151218289Y-44934025D01*
X151223416Y-44933368D01*
X151297762Y-44911063D01*
X151432429Y-44870661D01*
X151432434Y-44870659D01*
X151437384Y-44869174D01*
X151637994Y-44770896D01*
X151819860Y-44641173D01*
X151978096Y-44483489D01*
X151986825Y-44471342D01*
X152108453Y-44302077D01*
X152109776Y-44303028D01*
X152156645Y-44259857D01*
X152226580Y-44247625D01*
X152292026Y-44275144D01*
X152319875Y-44306994D01*
X152379987Y-44405088D01*
X152526250Y-44573938D01*
X152698126Y-44716632D01*
X152891000Y-44829338D01*
X153099692Y-44909030D01*
X153104760Y-44910061D01*
X153104763Y-44910062D01*
X153212017Y-44931883D01*
X153318597Y-44953567D01*
X153323772Y-44953757D01*
X153323774Y-44953757D01*
X153536673Y-44961564D01*
X153536677Y-44961564D01*
X153541837Y-44961753D01*
X153546957Y-44961097D01*
X153546959Y-44961097D01*
X153758288Y-44934025D01*
X153758289Y-44934025D01*
X153763416Y-44933368D01*
X153837762Y-44911063D01*
X153972429Y-44870661D01*
X153972434Y-44870659D01*
X153977384Y-44869174D01*
X154177994Y-44770896D01*
X154359860Y-44641173D01*
X154518096Y-44483489D01*
X154526825Y-44471342D01*
X154645435Y-44306277D01*
X154648453Y-44302077D01*
X154649480Y-44300000D01*
X176586884Y-44300000D01*
X176605314Y-44510655D01*
X176606738Y-44515968D01*
X176606738Y-44515970D01*
X176656683Y-44702365D01*
X176660044Y-44714910D01*
X176662366Y-44719891D01*
X176662367Y-44719892D01*
X176746640Y-44900615D01*
X176749411Y-44906558D01*
X176870699Y-45079776D01*
X177020224Y-45229301D01*
X177193442Y-45350589D01*
X177198420Y-45352910D01*
X177198423Y-45352912D01*
X177380108Y-45437633D01*
X177385090Y-45439956D01*
X177390398Y-45441378D01*
X177390400Y-45441379D01*
X177584030Y-45493262D01*
X177584032Y-45493262D01*
X177589345Y-45494686D01*
X177800000Y-45513116D01*
X178010655Y-45494686D01*
X178015968Y-45493262D01*
X178015970Y-45493262D01*
X178209600Y-45441379D01*
X178209602Y-45441378D01*
X178214910Y-45439956D01*
X178219892Y-45437633D01*
X178401577Y-45352912D01*
X178401580Y-45352910D01*
X178406558Y-45350589D01*
X178579776Y-45229301D01*
X178729301Y-45079776D01*
X178850589Y-44906558D01*
X178853361Y-44900615D01*
X178937633Y-44719892D01*
X178937634Y-44719891D01*
X178939956Y-44714910D01*
X178943318Y-44702365D01*
X178993262Y-44515970D01*
X178993262Y-44515968D01*
X178994686Y-44510655D01*
X179013116Y-44300000D01*
X178994686Y-44089345D01*
X178986713Y-44059590D01*
X178941379Y-43890400D01*
X178941378Y-43890398D01*
X178939956Y-43885090D01*
X178937633Y-43880108D01*
X178852912Y-43698423D01*
X178852910Y-43698420D01*
X178850589Y-43693442D01*
X178729301Y-43520224D01*
X178579776Y-43370699D01*
X178406558Y-43249411D01*
X178401580Y-43247090D01*
X178401577Y-43247088D01*
X178219892Y-43162367D01*
X178219891Y-43162366D01*
X178214910Y-43160044D01*
X178209602Y-43158622D01*
X178209600Y-43158621D01*
X178015970Y-43106738D01*
X178015968Y-43106738D01*
X178010655Y-43105314D01*
X177800000Y-43086884D01*
X177589345Y-43105314D01*
X177584032Y-43106738D01*
X177584030Y-43106738D01*
X177390400Y-43158621D01*
X177390398Y-43158622D01*
X177385090Y-43160044D01*
X177380109Y-43162366D01*
X177380108Y-43162367D01*
X177198423Y-43247088D01*
X177198420Y-43247090D01*
X177193442Y-43249411D01*
X177020224Y-43370699D01*
X176870699Y-43520224D01*
X176749411Y-43693442D01*
X176747090Y-43698420D01*
X176747088Y-43698423D01*
X176662367Y-43880108D01*
X176660044Y-43885090D01*
X176658622Y-43890398D01*
X176658621Y-43890400D01*
X176613287Y-44059590D01*
X176605314Y-44089345D01*
X176586884Y-44300000D01*
X154649480Y-44300000D01*
X154652186Y-44294525D01*
X154745136Y-44106453D01*
X154745137Y-44106451D01*
X154747430Y-44101811D01*
X154812370Y-43888069D01*
X154841529Y-43666590D01*
X154843156Y-43600000D01*
X154824852Y-43377361D01*
X154770431Y-43160702D01*
X154741719Y-43094669D01*
X165542001Y-43094669D01*
X165542371Y-43101490D01*
X165547895Y-43152352D01*
X165551521Y-43167604D01*
X165596676Y-43288054D01*
X165605214Y-43303649D01*
X165681715Y-43405724D01*
X165694276Y-43418285D01*
X165796351Y-43494786D01*
X165811946Y-43503324D01*
X165932394Y-43548478D01*
X165947649Y-43552105D01*
X165998514Y-43557631D01*
X166005328Y-43558000D01*
X167527885Y-43558000D01*
X167543124Y-43553525D01*
X167544329Y-43552135D01*
X167546000Y-43544452D01*
X167546000Y-43539884D01*
X168054000Y-43539884D01*
X168058475Y-43555123D01*
X168059865Y-43556328D01*
X168067548Y-43557999D01*
X169594669Y-43557999D01*
X169601490Y-43557629D01*
X169652352Y-43552105D01*
X169667604Y-43548479D01*
X169788054Y-43503324D01*
X169803649Y-43494786D01*
X169905724Y-43418285D01*
X169918285Y-43405724D01*
X169994786Y-43303649D01*
X170003324Y-43288054D01*
X170048478Y-43167606D01*
X170052105Y-43152351D01*
X170057631Y-43101486D01*
X170058000Y-43094672D01*
X170058000Y-41572115D01*
X170053525Y-41556876D01*
X170052135Y-41555671D01*
X170044452Y-41554000D01*
X168072115Y-41554000D01*
X168056876Y-41558475D01*
X168055671Y-41559865D01*
X168054000Y-41567548D01*
X168054000Y-43539884D01*
X167546000Y-43539884D01*
X167546000Y-41572115D01*
X167541525Y-41556876D01*
X167540135Y-41555671D01*
X167532452Y-41554000D01*
X165560116Y-41554000D01*
X165544877Y-41558475D01*
X165543672Y-41559865D01*
X165542001Y-41567548D01*
X165542001Y-43094669D01*
X154741719Y-43094669D01*
X154681354Y-42955840D01*
X154592736Y-42818857D01*
X154562822Y-42772617D01*
X154562820Y-42772614D01*
X154560014Y-42768277D01*
X154409670Y-42603051D01*
X154405619Y-42599852D01*
X154405615Y-42599848D01*
X154238414Y-42467800D01*
X154238410Y-42467798D01*
X154234359Y-42464598D01*
X154223219Y-42458448D01*
X154140570Y-42412824D01*
X154038789Y-42356638D01*
X154033920Y-42354914D01*
X154033916Y-42354912D01*
X153833087Y-42283795D01*
X153833083Y-42283794D01*
X153828212Y-42282069D01*
X153823119Y-42281162D01*
X153823116Y-42281161D01*
X153613373Y-42243800D01*
X153613367Y-42243799D01*
X153608284Y-42242894D01*
X153534452Y-42241992D01*
X153390081Y-42240228D01*
X153390079Y-42240228D01*
X153384911Y-42240165D01*
X153164091Y-42273955D01*
X152951756Y-42343357D01*
X152753607Y-42446507D01*
X152749474Y-42449610D01*
X152749471Y-42449612D01*
X152579100Y-42577530D01*
X152574965Y-42580635D01*
X152571393Y-42584373D01*
X152463729Y-42697037D01*
X152420629Y-42742138D01*
X152313201Y-42899621D01*
X152258293Y-42944621D01*
X152187768Y-42952792D01*
X152124021Y-42921538D01*
X152103324Y-42897054D01*
X152022822Y-42772617D01*
X152022820Y-42772614D01*
X152020014Y-42768277D01*
X151869670Y-42603051D01*
X151865619Y-42599852D01*
X151865615Y-42599848D01*
X151698414Y-42467800D01*
X151698410Y-42467798D01*
X151694359Y-42464598D01*
X151683219Y-42458448D01*
X151600570Y-42412824D01*
X151498789Y-42356638D01*
X151493920Y-42354914D01*
X151493916Y-42354912D01*
X151293087Y-42283795D01*
X151293083Y-42283794D01*
X151288212Y-42282069D01*
X151283119Y-42281162D01*
X151283116Y-42281161D01*
X151073373Y-42243800D01*
X151073367Y-42243799D01*
X151068284Y-42242894D01*
X150994452Y-42241992D01*
X150850081Y-42240228D01*
X150850079Y-42240228D01*
X150844911Y-42240165D01*
X150624091Y-42273955D01*
X150411756Y-42343357D01*
X150213607Y-42446507D01*
X150209474Y-42449610D01*
X150209471Y-42449612D01*
X150039100Y-42577530D01*
X150034965Y-42580635D01*
X149978537Y-42639684D01*
X149954283Y-42665064D01*
X149892759Y-42700494D01*
X149821846Y-42697037D01*
X149764060Y-42655791D01*
X149745207Y-42622243D01*
X149703767Y-42511703D01*
X149700615Y-42503295D01*
X149613261Y-42386739D01*
X149496705Y-42299385D01*
X149360316Y-42248255D01*
X149298134Y-42241500D01*
X147501866Y-42241500D01*
X147439684Y-42248255D01*
X147303295Y-42299385D01*
X147186739Y-42386739D01*
X147099385Y-42503295D01*
X147048255Y-42639684D01*
X147041500Y-42701866D01*
X147041500Y-44498134D01*
X142311642Y-44498134D01*
X142309852Y-44476361D01*
X142255431Y-44259702D01*
X142166354Y-44054840D01*
X142056538Y-43885090D01*
X142047822Y-43871617D01*
X142047820Y-43871614D01*
X142045014Y-43867277D01*
X141894670Y-43702051D01*
X141890619Y-43698852D01*
X141890615Y-43698848D01*
X141723414Y-43566800D01*
X141723410Y-43566798D01*
X141719359Y-43563598D01*
X141678053Y-43540796D01*
X141628084Y-43490364D01*
X141613312Y-43420921D01*
X141638428Y-43354516D01*
X141665780Y-43327909D01*
X141721655Y-43288054D01*
X141844860Y-43200173D01*
X141885130Y-43160044D01*
X141958065Y-43087363D01*
X142003096Y-43042489D01*
X142062594Y-42959689D01*
X142130435Y-42865277D01*
X142133453Y-42861077D01*
X142154320Y-42818857D01*
X142230136Y-42665453D01*
X142230137Y-42665451D01*
X142232430Y-42660811D01*
X142280287Y-42503295D01*
X142295865Y-42452023D01*
X142295865Y-42452021D01*
X142297370Y-42447069D01*
X142326529Y-42225590D01*
X142328005Y-42165170D01*
X142328074Y-42162365D01*
X142328074Y-42162361D01*
X142328156Y-42159000D01*
X142309852Y-41936361D01*
X142255431Y-41719702D01*
X142166354Y-41514840D01*
X142045014Y-41327277D01*
X141894670Y-41162051D01*
X141890619Y-41158852D01*
X141890615Y-41158848D01*
X141724788Y-41027885D01*
X165542000Y-41027885D01*
X165546475Y-41043124D01*
X165547865Y-41044329D01*
X165555548Y-41046000D01*
X167527885Y-41046000D01*
X167543124Y-41041525D01*
X167544329Y-41040135D01*
X167546000Y-41032452D01*
X167546000Y-41027885D01*
X168054000Y-41027885D01*
X168058475Y-41043124D01*
X168059865Y-41044329D01*
X168067548Y-41046000D01*
X170039884Y-41046000D01*
X170055123Y-41041525D01*
X170056328Y-41040135D01*
X170057999Y-41032452D01*
X170057999Y-39505331D01*
X170057629Y-39498510D01*
X170052105Y-39447648D01*
X170048479Y-39432396D01*
X170003324Y-39311946D01*
X169994786Y-39296351D01*
X169918285Y-39194276D01*
X169905724Y-39181715D01*
X169803649Y-39105214D01*
X169788054Y-39096676D01*
X169667606Y-39051522D01*
X169652351Y-39047895D01*
X169601486Y-39042369D01*
X169594672Y-39042000D01*
X168072115Y-39042000D01*
X168056876Y-39046475D01*
X168055671Y-39047865D01*
X168054000Y-39055548D01*
X168054000Y-41027885D01*
X167546000Y-41027885D01*
X167546000Y-39060116D01*
X167541525Y-39044877D01*
X167540135Y-39043672D01*
X167532452Y-39042001D01*
X166005331Y-39042001D01*
X165998510Y-39042371D01*
X165947648Y-39047895D01*
X165932396Y-39051521D01*
X165811946Y-39096676D01*
X165796351Y-39105214D01*
X165694276Y-39181715D01*
X165681715Y-39194276D01*
X165605214Y-39296351D01*
X165596676Y-39311946D01*
X165551522Y-39432394D01*
X165547895Y-39447649D01*
X165542369Y-39498514D01*
X165542000Y-39505328D01*
X165542000Y-41027885D01*
X141724788Y-41027885D01*
X141723414Y-41026800D01*
X141723410Y-41026798D01*
X141719359Y-41023598D01*
X141678053Y-41000796D01*
X141628084Y-40950364D01*
X141613312Y-40880921D01*
X141638428Y-40814516D01*
X141665780Y-40787909D01*
X141709603Y-40756650D01*
X141844860Y-40660173D01*
X142003096Y-40502489D01*
X142133453Y-40321077D01*
X142154320Y-40278857D01*
X142230136Y-40125453D01*
X142230137Y-40125451D01*
X142232430Y-40120811D01*
X142297370Y-39907069D01*
X142326529Y-39685590D01*
X142328156Y-39619000D01*
X142309852Y-39396361D01*
X142255431Y-39179702D01*
X142166354Y-38974840D01*
X142118646Y-38901095D01*
X142047822Y-38791617D01*
X142047820Y-38791614D01*
X142045014Y-38787277D01*
X141894670Y-38622051D01*
X141890619Y-38618852D01*
X141890615Y-38618848D01*
X141723414Y-38486800D01*
X141723410Y-38486798D01*
X141719359Y-38483598D01*
X141678053Y-38460796D01*
X141628084Y-38410364D01*
X141613312Y-38340921D01*
X141638428Y-38274516D01*
X141665780Y-38247909D01*
X141709603Y-38216650D01*
X141844860Y-38120173D01*
X141865886Y-38099221D01*
X141999435Y-37966137D01*
X142003096Y-37962489D01*
X142049912Y-37897338D01*
X142130435Y-37785277D01*
X142133453Y-37781077D01*
X142137564Y-37772760D01*
X142230136Y-37585453D01*
X142230137Y-37585451D01*
X142232430Y-37580811D01*
X142297370Y-37367069D01*
X142300636Y-37342261D01*
X146127724Y-37342261D01*
X146127899Y-37346713D01*
X146136542Y-37566680D01*
X146137918Y-37601712D01*
X146184567Y-37857138D01*
X146266740Y-38103442D01*
X146268730Y-38107425D01*
X146268731Y-38107427D01*
X146345039Y-38260141D01*
X146382799Y-38335711D01*
X146385326Y-38339367D01*
X146385327Y-38339369D01*
X146421052Y-38391059D01*
X146530426Y-38549310D01*
X146706677Y-38739978D01*
X146710131Y-38742790D01*
X146904578Y-38901095D01*
X146904582Y-38901098D01*
X146908035Y-38903909D01*
X147130482Y-39037833D01*
X147134577Y-39039567D01*
X147134579Y-39039568D01*
X147365480Y-39137342D01*
X147365487Y-39137344D01*
X147369581Y-39139078D01*
X147620559Y-39205624D01*
X147624983Y-39206148D01*
X147624985Y-39206148D01*
X147728416Y-39218389D01*
X147878410Y-39236142D01*
X148137988Y-39230025D01*
X148142384Y-39229293D01*
X148142387Y-39229293D01*
X148389713Y-39188127D01*
X148389717Y-39188126D01*
X148394115Y-39187394D01*
X148641680Y-39109099D01*
X148875744Y-38996704D01*
X149011178Y-38906210D01*
X149087927Y-38854928D01*
X149087931Y-38854925D01*
X149091635Y-38852450D01*
X149094952Y-38849479D01*
X149094956Y-38849476D01*
X149281730Y-38682187D01*
X149281731Y-38682186D01*
X149285048Y-38679215D01*
X149452121Y-38480457D01*
X149589523Y-38260141D01*
X149594053Y-38249896D01*
X149692713Y-38026729D01*
X149694511Y-38022662D01*
X149764991Y-37772760D01*
X149777741Y-37677838D01*
X149799129Y-37518602D01*
X149799130Y-37518594D01*
X149799556Y-37515420D01*
X149800310Y-37491425D01*
X149803082Y-37403222D01*
X149803082Y-37403217D01*
X149803183Y-37400000D01*
X149799095Y-37342261D01*
X159597724Y-37342261D01*
X159597899Y-37346713D01*
X159606542Y-37566680D01*
X159607918Y-37601712D01*
X159654567Y-37857138D01*
X159736740Y-38103442D01*
X159738730Y-38107425D01*
X159738731Y-38107427D01*
X159815039Y-38260141D01*
X159852799Y-38335711D01*
X159855326Y-38339367D01*
X159855327Y-38339369D01*
X159891052Y-38391059D01*
X160000426Y-38549310D01*
X160176677Y-38739978D01*
X160180131Y-38742790D01*
X160374578Y-38901095D01*
X160374582Y-38901098D01*
X160378035Y-38903909D01*
X160600482Y-39037833D01*
X160604577Y-39039567D01*
X160604579Y-39039568D01*
X160835480Y-39137342D01*
X160835487Y-39137344D01*
X160839581Y-39139078D01*
X161090559Y-39205624D01*
X161094983Y-39206148D01*
X161094985Y-39206148D01*
X161198416Y-39218389D01*
X161348410Y-39236142D01*
X161607988Y-39230025D01*
X161612384Y-39229293D01*
X161612387Y-39229293D01*
X161859713Y-39188127D01*
X161859717Y-39188126D01*
X161864115Y-39187394D01*
X162111680Y-39109099D01*
X162345744Y-38996704D01*
X162481178Y-38906210D01*
X162557927Y-38854928D01*
X162557931Y-38854925D01*
X162561635Y-38852450D01*
X162564952Y-38849479D01*
X162564956Y-38849476D01*
X162751730Y-38682187D01*
X162751731Y-38682186D01*
X162755048Y-38679215D01*
X162922121Y-38480457D01*
X163059523Y-38260141D01*
X163064053Y-38249896D01*
X163162713Y-38026729D01*
X163164511Y-38022662D01*
X163234991Y-37772760D01*
X163247741Y-37677838D01*
X163269129Y-37518602D01*
X163269130Y-37518594D01*
X163269556Y-37515420D01*
X163270310Y-37491425D01*
X163273082Y-37403222D01*
X163273082Y-37403217D01*
X163273183Y-37400000D01*
X163254845Y-37140998D01*
X163243521Y-37088397D01*
X163201132Y-36891510D01*
X163201132Y-36891508D01*
X163200196Y-36887163D01*
X163110326Y-36643561D01*
X162987029Y-36415052D01*
X162902050Y-36300000D01*
X165536654Y-36300000D01*
X165536924Y-36304119D01*
X165555495Y-36587457D01*
X165556017Y-36595426D01*
X165556819Y-36599459D01*
X165556820Y-36599465D01*
X165608947Y-36861522D01*
X165613776Y-36885797D01*
X165615103Y-36889706D01*
X165615104Y-36889710D01*
X165703090Y-37148908D01*
X165708941Y-37166145D01*
X165710765Y-37169843D01*
X165825855Y-37403222D01*
X165839885Y-37431673D01*
X165842179Y-37435106D01*
X165950529Y-37597263D01*
X166004367Y-37677838D01*
X166007081Y-37680932D01*
X166007085Y-37680938D01*
X166157768Y-37852758D01*
X166199573Y-37900427D01*
X166202662Y-37903136D01*
X166419062Y-38092915D01*
X166419068Y-38092919D01*
X166422162Y-38095633D01*
X166425588Y-38097922D01*
X166425593Y-38097926D01*
X166566875Y-38192327D01*
X166668327Y-38260115D01*
X166672026Y-38261939D01*
X166672031Y-38261942D01*
X166808313Y-38329148D01*
X166933855Y-38391059D01*
X166937760Y-38392384D01*
X166937761Y-38392385D01*
X167210290Y-38484896D01*
X167210294Y-38484897D01*
X167214203Y-38486224D01*
X167218247Y-38487028D01*
X167218253Y-38487030D01*
X167500535Y-38543180D01*
X167500541Y-38543181D01*
X167504574Y-38543983D01*
X167508679Y-38544252D01*
X167508686Y-38544253D01*
X167795881Y-38563076D01*
X167800000Y-38563346D01*
X167804119Y-38563076D01*
X168091314Y-38544253D01*
X168091321Y-38544252D01*
X168095426Y-38543983D01*
X168099459Y-38543181D01*
X168099465Y-38543180D01*
X168381747Y-38487030D01*
X168381753Y-38487028D01*
X168385797Y-38486224D01*
X168389706Y-38484897D01*
X168389710Y-38484896D01*
X168662239Y-38392385D01*
X168662240Y-38392384D01*
X168666145Y-38391059D01*
X168791687Y-38329148D01*
X168927969Y-38261942D01*
X168927974Y-38261939D01*
X168931673Y-38260115D01*
X169033125Y-38192327D01*
X169174407Y-38097926D01*
X169174412Y-38097922D01*
X169177838Y-38095633D01*
X169180932Y-38092919D01*
X169180938Y-38092915D01*
X169397338Y-37903136D01*
X169400427Y-37900427D01*
X169442232Y-37852758D01*
X169592915Y-37680938D01*
X169592919Y-37680932D01*
X169595633Y-37677838D01*
X169649472Y-37597263D01*
X169757821Y-37435106D01*
X169760115Y-37431673D01*
X169774146Y-37403222D01*
X169889235Y-37169843D01*
X169891059Y-37166145D01*
X169896910Y-37148908D01*
X169984896Y-36889710D01*
X169984897Y-36889706D01*
X169986224Y-36885797D01*
X169991053Y-36861522D01*
X170043180Y-36599465D01*
X170043181Y-36599459D01*
X170043983Y-36595426D01*
X170044506Y-36587457D01*
X170063076Y-36304119D01*
X170063346Y-36300000D01*
X170054359Y-36162880D01*
X170044253Y-36008686D01*
X170044252Y-36008679D01*
X170043983Y-36004574D01*
X170040434Y-35986728D01*
X169987030Y-35718253D01*
X169987028Y-35718247D01*
X169986224Y-35714203D01*
X169984088Y-35707909D01*
X169892385Y-35437761D01*
X169892384Y-35437760D01*
X169891059Y-35433855D01*
X169798063Y-35245277D01*
X169761942Y-35172031D01*
X169761939Y-35172026D01*
X169760115Y-35168327D01*
X169674912Y-35040811D01*
X169597926Y-34925593D01*
X169597922Y-34925588D01*
X169595633Y-34922162D01*
X169592919Y-34919068D01*
X169592915Y-34919062D01*
X169403136Y-34702662D01*
X169400427Y-34699573D01*
X169312727Y-34622662D01*
X169180938Y-34507085D01*
X169180932Y-34507081D01*
X169177838Y-34504367D01*
X169174412Y-34502078D01*
X169174407Y-34502074D01*
X168935106Y-34342179D01*
X168931673Y-34339885D01*
X168927974Y-34338061D01*
X168927969Y-34338058D01*
X168791687Y-34270852D01*
X168666145Y-34208941D01*
X168631743Y-34197263D01*
X168389710Y-34115104D01*
X168389706Y-34115103D01*
X168385797Y-34113776D01*
X168381753Y-34112972D01*
X168381747Y-34112970D01*
X168099465Y-34056820D01*
X168099459Y-34056819D01*
X168095426Y-34056017D01*
X168091321Y-34055748D01*
X168091314Y-34055747D01*
X167804119Y-34036924D01*
X167800000Y-34036654D01*
X167795881Y-34036924D01*
X167508686Y-34055747D01*
X167508679Y-34055748D01*
X167504574Y-34056017D01*
X167500541Y-34056819D01*
X167500535Y-34056820D01*
X167218253Y-34112970D01*
X167218247Y-34112972D01*
X167214203Y-34113776D01*
X167210294Y-34115103D01*
X167210290Y-34115104D01*
X166968257Y-34197263D01*
X166933855Y-34208941D01*
X166808313Y-34270852D01*
X166672031Y-34338058D01*
X166672026Y-34338061D01*
X166668327Y-34339885D01*
X166664894Y-34342179D01*
X166425593Y-34502074D01*
X166425588Y-34502078D01*
X166422162Y-34504367D01*
X166419068Y-34507081D01*
X166419062Y-34507085D01*
X166287273Y-34622662D01*
X166199573Y-34699573D01*
X166196864Y-34702662D01*
X166007085Y-34919062D01*
X166007081Y-34919068D01*
X166004367Y-34922162D01*
X166002078Y-34925588D01*
X166002074Y-34925593D01*
X165925088Y-35040811D01*
X165839885Y-35168327D01*
X165838061Y-35172026D01*
X165838058Y-35172031D01*
X165801937Y-35245277D01*
X165708941Y-35433855D01*
X165707616Y-35437760D01*
X165707615Y-35437761D01*
X165615913Y-35707909D01*
X165613776Y-35714203D01*
X165612972Y-35718247D01*
X165612970Y-35718253D01*
X165559567Y-35986728D01*
X165556017Y-36004574D01*
X165555748Y-36008679D01*
X165555747Y-36008686D01*
X165545641Y-36162880D01*
X165536654Y-36300000D01*
X162902050Y-36300000D01*
X162832765Y-36206196D01*
X162650612Y-36021159D01*
X162647073Y-36018458D01*
X162647066Y-36018452D01*
X162470282Y-35883535D01*
X162444204Y-35863633D01*
X162352573Y-35812317D01*
X162302913Y-35761581D01*
X162288566Y-35692049D01*
X162314087Y-35625799D01*
X162346357Y-35597621D01*
X162345744Y-35596704D01*
X162557927Y-35454928D01*
X162557931Y-35454925D01*
X162561635Y-35452450D01*
X162564952Y-35449479D01*
X162564956Y-35449476D01*
X162751730Y-35282187D01*
X162751731Y-35282186D01*
X162755048Y-35279215D01*
X162922121Y-35080457D01*
X163059523Y-34860141D01*
X163129144Y-34702662D01*
X163162713Y-34626729D01*
X163164511Y-34622662D01*
X163234991Y-34372760D01*
X163269556Y-34115420D01*
X163270818Y-34075264D01*
X163273082Y-34003222D01*
X163273082Y-34003217D01*
X163273183Y-34000000D01*
X163254845Y-33740998D01*
X163249229Y-33714910D01*
X163201132Y-33491510D01*
X163201132Y-33491508D01*
X163200196Y-33487163D01*
X163131148Y-33300000D01*
X176586884Y-33300000D01*
X176605314Y-33510655D01*
X176606738Y-33515968D01*
X176606738Y-33515970D01*
X176641120Y-33644283D01*
X176660044Y-33714910D01*
X176662366Y-33719891D01*
X176662367Y-33719892D01*
X176746162Y-33899590D01*
X176749411Y-33906558D01*
X176870699Y-34079776D01*
X177020224Y-34229301D01*
X177193442Y-34350589D01*
X177198420Y-34352910D01*
X177198423Y-34352912D01*
X177380108Y-34437633D01*
X177385090Y-34439956D01*
X177390398Y-34441378D01*
X177390400Y-34441379D01*
X177584030Y-34493262D01*
X177584032Y-34493262D01*
X177589345Y-34494686D01*
X177800000Y-34513116D01*
X178010655Y-34494686D01*
X178015968Y-34493262D01*
X178015970Y-34493262D01*
X178209600Y-34441379D01*
X178209602Y-34441378D01*
X178214910Y-34439956D01*
X178219892Y-34437633D01*
X178401577Y-34352912D01*
X178401580Y-34352910D01*
X178406558Y-34350589D01*
X178579776Y-34229301D01*
X178729301Y-34079776D01*
X178850589Y-33906558D01*
X178853839Y-33899590D01*
X178937633Y-33719892D01*
X178937634Y-33719891D01*
X178939956Y-33714910D01*
X178958881Y-33644283D01*
X178993262Y-33515970D01*
X178993262Y-33515968D01*
X178994686Y-33510655D01*
X179013116Y-33300000D01*
X178994686Y-33089345D01*
X178974779Y-33015052D01*
X178941379Y-32890400D01*
X178941378Y-32890398D01*
X178939956Y-32885090D01*
X178903167Y-32806196D01*
X178852912Y-32698423D01*
X178852910Y-32698420D01*
X178850589Y-32693442D01*
X178729301Y-32520224D01*
X178579776Y-32370699D01*
X178406558Y-32249411D01*
X178401580Y-32247090D01*
X178401577Y-32247088D01*
X178219892Y-32162367D01*
X178219891Y-32162366D01*
X178214910Y-32160044D01*
X178209602Y-32158622D01*
X178209600Y-32158621D01*
X178015970Y-32106738D01*
X178015968Y-32106738D01*
X178010655Y-32105314D01*
X177800000Y-32086884D01*
X177589345Y-32105314D01*
X177584032Y-32106738D01*
X177584030Y-32106738D01*
X177390400Y-32158621D01*
X177390398Y-32158622D01*
X177385090Y-32160044D01*
X177380109Y-32162366D01*
X177380108Y-32162367D01*
X177198423Y-32247088D01*
X177198420Y-32247090D01*
X177193442Y-32249411D01*
X177020224Y-32370699D01*
X176870699Y-32520224D01*
X176749411Y-32693442D01*
X176747090Y-32698420D01*
X176747088Y-32698423D01*
X176696833Y-32806196D01*
X176660044Y-32885090D01*
X176658622Y-32890398D01*
X176658621Y-32890400D01*
X176625221Y-33015052D01*
X176605314Y-33089345D01*
X176586884Y-33300000D01*
X163131148Y-33300000D01*
X163110326Y-33243561D01*
X162987029Y-33015052D01*
X162832765Y-32806196D01*
X162650612Y-32621159D01*
X162647073Y-32618458D01*
X162647066Y-32618452D01*
X162447744Y-32466335D01*
X162444204Y-32463633D01*
X162217660Y-32336762D01*
X162213521Y-32335161D01*
X162213513Y-32335157D01*
X161985865Y-32247088D01*
X161975500Y-32243078D01*
X161971175Y-32242075D01*
X161971170Y-32242074D01*
X161870004Y-32218625D01*
X161722555Y-32184448D01*
X161463873Y-32162044D01*
X161459438Y-32162288D01*
X161459434Y-32162288D01*
X161209058Y-32176067D01*
X161209051Y-32176068D01*
X161204615Y-32176312D01*
X161078218Y-32201454D01*
X160954325Y-32226097D01*
X160954320Y-32226098D01*
X160949953Y-32226967D01*
X160945750Y-32228443D01*
X160709177Y-32311521D01*
X160709174Y-32311522D01*
X160704969Y-32312999D01*
X160701016Y-32315052D01*
X160701010Y-32315055D01*
X160570816Y-32382686D01*
X160474552Y-32432691D01*
X160470937Y-32435274D01*
X160470931Y-32435278D01*
X160352062Y-32520224D01*
X160263298Y-32583656D01*
X160075423Y-32762880D01*
X159914675Y-32966788D01*
X159912443Y-32970630D01*
X159912440Y-32970635D01*
X159786499Y-33187457D01*
X159786496Y-33187464D01*
X159784261Y-33191311D01*
X159743821Y-33291153D01*
X159688457Y-33427838D01*
X159688454Y-33427846D01*
X159686784Y-33431970D01*
X159624189Y-33683963D01*
X159597724Y-33942261D01*
X159597899Y-33946713D01*
X159604653Y-34118602D01*
X159607918Y-34201712D01*
X159654567Y-34457138D01*
X159736740Y-34703442D01*
X159738730Y-34707425D01*
X159738731Y-34707427D01*
X159815039Y-34860141D01*
X159852799Y-34935711D01*
X160000426Y-35149310D01*
X160176677Y-35339978D01*
X160180131Y-35342790D01*
X160374578Y-35501095D01*
X160374582Y-35501098D01*
X160378035Y-35503909D01*
X160523153Y-35591277D01*
X160571192Y-35643545D01*
X160583349Y-35713493D01*
X160555759Y-35778910D01*
X160516243Y-35811034D01*
X160500612Y-35819154D01*
X160474552Y-35832691D01*
X160470937Y-35835274D01*
X160470931Y-35835278D01*
X160385435Y-35896375D01*
X160263298Y-35983656D01*
X160075423Y-36162880D01*
X159914675Y-36366788D01*
X159912443Y-36370630D01*
X159912440Y-36370635D01*
X159786499Y-36587457D01*
X159786496Y-36587464D01*
X159784261Y-36591311D01*
X159777378Y-36608305D01*
X159688457Y-36827838D01*
X159688454Y-36827846D01*
X159686784Y-36831970D01*
X159624189Y-37083963D01*
X159597724Y-37342261D01*
X149799095Y-37342261D01*
X149784845Y-37140998D01*
X149773521Y-37088397D01*
X149731132Y-36891510D01*
X149731132Y-36891508D01*
X149730196Y-36887163D01*
X149640326Y-36643561D01*
X149517029Y-36415052D01*
X149362765Y-36206196D01*
X149180612Y-36021159D01*
X149177073Y-36018458D01*
X149177066Y-36018452D01*
X149000282Y-35883535D01*
X148974204Y-35863633D01*
X148882573Y-35812317D01*
X148832913Y-35761581D01*
X148818566Y-35692049D01*
X148844087Y-35625799D01*
X148876357Y-35597621D01*
X148875744Y-35596704D01*
X149087927Y-35454928D01*
X149087931Y-35454925D01*
X149091635Y-35452450D01*
X149094952Y-35449479D01*
X149094956Y-35449476D01*
X149281730Y-35282187D01*
X149281731Y-35282186D01*
X149285048Y-35279215D01*
X149452121Y-35080457D01*
X149589523Y-34860141D01*
X149659144Y-34702662D01*
X149692713Y-34626729D01*
X149694511Y-34622662D01*
X149764991Y-34372760D01*
X149799556Y-34115420D01*
X149800818Y-34075264D01*
X149803082Y-34003222D01*
X149803082Y-34003217D01*
X149803183Y-34000000D01*
X149784845Y-33740998D01*
X149779229Y-33714910D01*
X149731132Y-33491510D01*
X149731132Y-33491508D01*
X149730196Y-33487163D01*
X149640326Y-33243561D01*
X149517029Y-33015052D01*
X149362765Y-32806196D01*
X149180612Y-32621159D01*
X149177073Y-32618458D01*
X149177066Y-32618452D01*
X148977744Y-32466335D01*
X148974204Y-32463633D01*
X148747660Y-32336762D01*
X148743521Y-32335161D01*
X148743513Y-32335157D01*
X148515865Y-32247088D01*
X148505500Y-32243078D01*
X148501175Y-32242075D01*
X148501170Y-32242074D01*
X148400004Y-32218625D01*
X148252555Y-32184448D01*
X147993873Y-32162044D01*
X147989438Y-32162288D01*
X147989434Y-32162288D01*
X147739058Y-32176067D01*
X147739051Y-32176068D01*
X147734615Y-32176312D01*
X147608218Y-32201454D01*
X147484325Y-32226097D01*
X147484320Y-32226098D01*
X147479953Y-32226967D01*
X147475750Y-32228443D01*
X147239177Y-32311521D01*
X147239174Y-32311522D01*
X147234969Y-32312999D01*
X147231016Y-32315052D01*
X147231010Y-32315055D01*
X147100816Y-32382686D01*
X147004552Y-32432691D01*
X147000937Y-32435274D01*
X147000931Y-32435278D01*
X146882062Y-32520224D01*
X146793298Y-32583656D01*
X146605423Y-32762880D01*
X146444675Y-32966788D01*
X146442443Y-32970630D01*
X146442440Y-32970635D01*
X146316499Y-33187457D01*
X146316496Y-33187464D01*
X146314261Y-33191311D01*
X146273821Y-33291153D01*
X146218457Y-33427838D01*
X146218454Y-33427846D01*
X146216784Y-33431970D01*
X146154189Y-33683963D01*
X146127724Y-33942261D01*
X146127899Y-33946713D01*
X146134653Y-34118602D01*
X146137918Y-34201712D01*
X146184567Y-34457138D01*
X146266740Y-34703442D01*
X146268730Y-34707425D01*
X146268731Y-34707427D01*
X146345039Y-34860141D01*
X146382799Y-34935711D01*
X146530426Y-35149310D01*
X146706677Y-35339978D01*
X146710131Y-35342790D01*
X146904578Y-35501095D01*
X146904582Y-35501098D01*
X146908035Y-35503909D01*
X147053153Y-35591277D01*
X147101192Y-35643545D01*
X147113349Y-35713493D01*
X147085759Y-35778910D01*
X147046243Y-35811034D01*
X147030612Y-35819154D01*
X147004552Y-35832691D01*
X147000937Y-35835274D01*
X147000931Y-35835278D01*
X146915435Y-35896375D01*
X146793298Y-35983656D01*
X146605423Y-36162880D01*
X146444675Y-36366788D01*
X146442443Y-36370630D01*
X146442440Y-36370635D01*
X146316499Y-36587457D01*
X146316496Y-36587464D01*
X146314261Y-36591311D01*
X146307378Y-36608305D01*
X146218457Y-36827838D01*
X146218454Y-36827846D01*
X146216784Y-36831970D01*
X146154189Y-37083963D01*
X146127724Y-37342261D01*
X142300636Y-37342261D01*
X142326529Y-37145590D01*
X142326748Y-37136640D01*
X142328074Y-37082365D01*
X142328074Y-37082361D01*
X142328156Y-37079000D01*
X142309852Y-36856361D01*
X142255431Y-36639702D01*
X142166354Y-36434840D01*
X142079122Y-36300000D01*
X142047822Y-36251617D01*
X142047820Y-36251614D01*
X142045014Y-36247277D01*
X141894670Y-36082051D01*
X141890619Y-36078852D01*
X141890615Y-36078848D01*
X141723414Y-35946800D01*
X141723410Y-35946798D01*
X141719359Y-35943598D01*
X141678053Y-35920796D01*
X141628084Y-35870364D01*
X141613312Y-35800921D01*
X141638428Y-35734516D01*
X141665780Y-35707909D01*
X141709603Y-35676650D01*
X141844860Y-35580173D01*
X142003096Y-35422489D01*
X142133453Y-35241077D01*
X142167578Y-35172031D01*
X142230136Y-35045453D01*
X142230137Y-35045451D01*
X142232430Y-35040811D01*
X142297370Y-34827069D01*
X142326529Y-34605590D01*
X142328156Y-34539000D01*
X142309852Y-34316361D01*
X142255431Y-34099702D01*
X142166354Y-33894840D01*
X142045014Y-33707277D01*
X141894670Y-33542051D01*
X141890619Y-33538852D01*
X141890615Y-33538848D01*
X141723414Y-33406800D01*
X141723410Y-33406798D01*
X141719359Y-33403598D01*
X141523789Y-33295638D01*
X141518920Y-33293914D01*
X141518916Y-33293912D01*
X141318087Y-33222795D01*
X141318083Y-33222794D01*
X141313212Y-33221069D01*
X141308119Y-33220162D01*
X141308116Y-33220161D01*
X141098373Y-33182800D01*
X141098367Y-33182799D01*
X141093284Y-33181894D01*
X141019452Y-33180992D01*
X140875081Y-33179228D01*
X140875079Y-33179228D01*
X140869911Y-33179165D01*
X140649091Y-33212955D01*
X140436756Y-33282357D01*
X140238607Y-33385507D01*
X140234474Y-33388610D01*
X140234471Y-33388612D01*
X140071925Y-33510655D01*
X140059965Y-33519635D01*
X140003537Y-33578684D01*
X139979283Y-33604064D01*
X139917759Y-33639494D01*
X139846846Y-33636037D01*
X139789060Y-33594791D01*
X139770207Y-33561243D01*
X139728767Y-33450703D01*
X139725615Y-33442295D01*
X139638261Y-33325739D01*
X139521705Y-33238385D01*
X139385316Y-33187255D01*
X139323134Y-33180500D01*
X137526866Y-33180500D01*
X137464684Y-33187255D01*
X137328295Y-33238385D01*
X137211739Y-33325739D01*
X137124385Y-33442295D01*
X137073255Y-33578684D01*
X137066500Y-33640866D01*
X137066500Y-35437134D01*
X137073255Y-35499316D01*
X137124385Y-35635705D01*
X137211739Y-35752261D01*
X137328295Y-35839615D01*
X137336704Y-35842767D01*
X137336705Y-35842768D01*
X137445451Y-35883535D01*
X137502216Y-35926176D01*
X137526916Y-35992738D01*
X137511709Y-36062087D01*
X137492316Y-36088568D01*
X137365629Y-36221138D01*
X137239743Y-36405680D01*
X137145688Y-36608305D01*
X137085989Y-36823570D01*
X137062251Y-37045695D01*
X137062548Y-37050848D01*
X137062548Y-37050851D01*
X137068003Y-37145450D01*
X137075110Y-37268715D01*
X137076247Y-37273761D01*
X137076248Y-37273767D01*
X137092688Y-37346713D01*
X137124222Y-37486639D01*
X137208266Y-37693616D01*
X137254064Y-37768352D01*
X137322291Y-37879688D01*
X137324987Y-37884088D01*
X137471250Y-38052938D01*
X137643126Y-38195632D01*
X137713595Y-38236811D01*
X137716445Y-38238476D01*
X137765169Y-38290114D01*
X137778240Y-38359897D01*
X137751509Y-38425669D01*
X137711055Y-38459027D01*
X137698607Y-38465507D01*
X137694474Y-38468610D01*
X137694471Y-38468612D01*
X137568657Y-38563076D01*
X137519965Y-38599635D01*
X137516393Y-38603373D01*
X137443917Y-38679215D01*
X137365629Y-38761138D01*
X137239743Y-38945680D01*
X137216059Y-38996704D01*
X137164782Y-39107171D01*
X137145688Y-39148305D01*
X137085989Y-39363570D01*
X137062251Y-39585695D01*
X137062548Y-39590848D01*
X137062548Y-39590851D01*
X137068011Y-39685590D01*
X137075110Y-39808715D01*
X137076247Y-39813761D01*
X137076248Y-39813767D01*
X137090180Y-39875586D01*
X137085644Y-39946438D01*
X137056358Y-39992382D01*
X134974395Y-42074345D01*
X134965615Y-42082335D01*
X134965613Y-42082337D01*
X134958920Y-42086584D01*
X134953494Y-42092362D01*
X134953493Y-42092363D01*
X134910396Y-42138257D01*
X134907641Y-42141099D01*
X134887073Y-42161667D01*
X134884356Y-42165170D01*
X134876648Y-42174195D01*
X134845028Y-42207867D01*
X134841207Y-42214818D01*
X134841206Y-42214819D01*
X134834697Y-42226658D01*
X134823843Y-42243182D01*
X134817757Y-42251029D01*
X134810696Y-42260132D01*
X134807549Y-42267404D01*
X134807548Y-42267406D01*
X134792346Y-42302535D01*
X134787124Y-42313195D01*
X134764876Y-42353663D01*
X134759541Y-42374441D01*
X134753142Y-42393131D01*
X134744620Y-42412824D01*
X134738412Y-42452023D01*
X134737394Y-42458448D01*
X134734987Y-42470071D01*
X134723500Y-42514812D01*
X134723500Y-42536259D01*
X134721949Y-42555969D01*
X134718594Y-42577152D01*
X134719340Y-42585043D01*
X134722941Y-42623138D01*
X134723500Y-42634996D01*
X134723500Y-58095050D01*
X134703498Y-58163171D01*
X134686595Y-58184145D01*
X133313642Y-59557098D01*
X133251330Y-59591124D01*
X133180515Y-59586059D01*
X133123679Y-59543512D01*
X133098868Y-59476992D01*
X133098547Y-59468012D01*
X133096282Y-27132703D01*
X134890743Y-27132703D01*
X134928268Y-27417734D01*
X135004129Y-27695036D01*
X135116923Y-27959476D01*
X135264561Y-28206161D01*
X135444313Y-28430528D01*
X135652851Y-28628423D01*
X135886317Y-28796186D01*
X135890112Y-28798195D01*
X135890113Y-28798196D01*
X135911869Y-28809715D01*
X136140392Y-28930712D01*
X136410373Y-29029511D01*
X136691264Y-29090755D01*
X136719841Y-29093004D01*
X136914282Y-29108307D01*
X136914291Y-29108307D01*
X136916739Y-29108500D01*
X137072271Y-29108500D01*
X137074407Y-29108354D01*
X137074418Y-29108354D01*
X137282548Y-29094165D01*
X137282554Y-29094164D01*
X137286825Y-29093873D01*
X137291020Y-29093004D01*
X137291022Y-29093004D01*
X137427584Y-29064723D01*
X137568342Y-29035574D01*
X137839343Y-28939607D01*
X138094812Y-28807750D01*
X138098313Y-28805289D01*
X138098317Y-28805287D01*
X138212418Y-28725095D01*
X138330023Y-28642441D01*
X138540622Y-28446740D01*
X138722713Y-28224268D01*
X138872927Y-27979142D01*
X138988483Y-27715898D01*
X139067244Y-27439406D01*
X139107751Y-27154784D01*
X139107845Y-27136951D01*
X139107867Y-27132703D01*
X174890743Y-27132703D01*
X174928268Y-27417734D01*
X175004129Y-27695036D01*
X175116923Y-27959476D01*
X175264561Y-28206161D01*
X175444313Y-28430528D01*
X175652851Y-28628423D01*
X175886317Y-28796186D01*
X175890112Y-28798195D01*
X175890113Y-28798196D01*
X175911869Y-28809715D01*
X176140392Y-28930712D01*
X176410373Y-29029511D01*
X176691264Y-29090755D01*
X176719841Y-29093004D01*
X176914282Y-29108307D01*
X176914291Y-29108307D01*
X176916739Y-29108500D01*
X177072271Y-29108500D01*
X177074407Y-29108354D01*
X177074418Y-29108354D01*
X177282548Y-29094165D01*
X177282554Y-29094164D01*
X177286825Y-29093873D01*
X177291020Y-29093004D01*
X177291022Y-29093004D01*
X177427584Y-29064723D01*
X177568342Y-29035574D01*
X177839343Y-28939607D01*
X178094812Y-28807750D01*
X178098313Y-28805289D01*
X178098317Y-28805287D01*
X178212418Y-28725095D01*
X178330023Y-28642441D01*
X178540622Y-28446740D01*
X178722713Y-28224268D01*
X178872927Y-27979142D01*
X178988483Y-27715898D01*
X179067244Y-27439406D01*
X179107751Y-27154784D01*
X179107845Y-27136951D01*
X179109235Y-26871583D01*
X179109235Y-26871576D01*
X179109257Y-26867297D01*
X179071732Y-26582266D01*
X178995871Y-26304964D01*
X178883077Y-26040524D01*
X178735439Y-25793839D01*
X178555687Y-25569472D01*
X178347149Y-25371577D01*
X178113683Y-25203814D01*
X178091843Y-25192250D01*
X178068654Y-25179972D01*
X177859608Y-25069288D01*
X177589627Y-24970489D01*
X177308736Y-24909245D01*
X177277685Y-24906801D01*
X177085718Y-24891693D01*
X177085709Y-24891693D01*
X177083261Y-24891500D01*
X176927729Y-24891500D01*
X176925593Y-24891646D01*
X176925582Y-24891646D01*
X176717452Y-24905835D01*
X176717446Y-24905836D01*
X176713175Y-24906127D01*
X176708980Y-24906996D01*
X176708978Y-24906996D01*
X176572417Y-24935276D01*
X176431658Y-24964426D01*
X176160657Y-25060393D01*
X175905188Y-25192250D01*
X175901687Y-25194711D01*
X175901683Y-25194713D01*
X175891594Y-25201804D01*
X175669977Y-25357559D01*
X175459378Y-25553260D01*
X175277287Y-25775732D01*
X175127073Y-26020858D01*
X175011517Y-26284102D01*
X174932756Y-26560594D01*
X174892249Y-26845216D01*
X174892227Y-26849505D01*
X174892226Y-26849512D01*
X174890765Y-27128417D01*
X174890743Y-27132703D01*
X139107867Y-27132703D01*
X139109235Y-26871583D01*
X139109235Y-26871576D01*
X139109257Y-26867297D01*
X139071732Y-26582266D01*
X138995871Y-26304964D01*
X138883077Y-26040524D01*
X138735439Y-25793839D01*
X138555687Y-25569472D01*
X138347149Y-25371577D01*
X138113683Y-25203814D01*
X138091843Y-25192250D01*
X138068654Y-25179972D01*
X137859608Y-25069288D01*
X137589627Y-24970489D01*
X137308736Y-24909245D01*
X137277685Y-24906801D01*
X137085718Y-24891693D01*
X137085709Y-24891693D01*
X137083261Y-24891500D01*
X136927729Y-24891500D01*
X136925593Y-24891646D01*
X136925582Y-24891646D01*
X136717452Y-24905835D01*
X136717446Y-24905836D01*
X136713175Y-24906127D01*
X136708980Y-24906996D01*
X136708978Y-24906996D01*
X136572416Y-24935277D01*
X136431658Y-24964426D01*
X136160657Y-25060393D01*
X135905188Y-25192250D01*
X135901687Y-25194711D01*
X135901683Y-25194713D01*
X135891594Y-25201804D01*
X135669977Y-25357559D01*
X135459378Y-25553260D01*
X135277287Y-25775732D01*
X135127073Y-26020858D01*
X135011517Y-26284102D01*
X134932756Y-26560594D01*
X134892249Y-26845216D01*
X134892227Y-26849505D01*
X134892226Y-26849512D01*
X134890765Y-27128417D01*
X134890743Y-27132703D01*
X133096282Y-27132703D01*
X133096009Y-23240009D01*
X133116006Y-23171887D01*
X133169659Y-23125390D01*
X133222009Y-23114000D01*
X180214000Y-23114000D01*
X180282121Y-23134002D01*
G37*
%TD.AperFunction*%
%TA.AperFunction,Conductor*%
G36*
X137659532Y-65676134D02*
G01*
X137716368Y-65718681D01*
X137741179Y-65785201D01*
X137741500Y-65794190D01*
X137741500Y-68793050D01*
X137721498Y-68861171D01*
X137704595Y-68882145D01*
X135990395Y-70596345D01*
X135981615Y-70604335D01*
X135981613Y-70604337D01*
X135974920Y-70608584D01*
X135969494Y-70614362D01*
X135969493Y-70614363D01*
X135926396Y-70660257D01*
X135923641Y-70663099D01*
X135903073Y-70683667D01*
X135900356Y-70687170D01*
X135892648Y-70696195D01*
X135861028Y-70729867D01*
X135857207Y-70736818D01*
X135857206Y-70736819D01*
X135850697Y-70748658D01*
X135839843Y-70765182D01*
X135832018Y-70775271D01*
X135826696Y-70782132D01*
X135823549Y-70789404D01*
X135823548Y-70789406D01*
X135808346Y-70824535D01*
X135803124Y-70835195D01*
X135801589Y-70837988D01*
X135780876Y-70875663D01*
X135775541Y-70896441D01*
X135769142Y-70915131D01*
X135760620Y-70934824D01*
X135759380Y-70942655D01*
X135753394Y-70980448D01*
X135750987Y-70992071D01*
X135739500Y-71036812D01*
X135739500Y-71058259D01*
X135737949Y-71077969D01*
X135734594Y-71099152D01*
X135735340Y-71107043D01*
X135738941Y-71145138D01*
X135739500Y-71156996D01*
X135739500Y-85855944D01*
X135738941Y-85867800D01*
X135737212Y-85875537D01*
X135737461Y-85883459D01*
X135739438Y-85946369D01*
X135739500Y-85950327D01*
X135739500Y-85979432D01*
X135740056Y-85983832D01*
X135740988Y-85995664D01*
X135742438Y-86041831D01*
X135748250Y-86061833D01*
X135748419Y-86062416D01*
X135752430Y-86081782D01*
X135755118Y-86103064D01*
X135758034Y-86110429D01*
X135758035Y-86110433D01*
X135772126Y-86146021D01*
X135775965Y-86157231D01*
X135788855Y-86201600D01*
X135799775Y-86220065D01*
X135808466Y-86237805D01*
X135816365Y-86257756D01*
X135841488Y-86292335D01*
X135843516Y-86295126D01*
X135850032Y-86305046D01*
X135854292Y-86312249D01*
X135871753Y-86381065D01*
X135849237Y-86448397D01*
X135793894Y-86492867D01*
X135723293Y-86500356D01*
X135656745Y-86465485D01*
X135315405Y-86124145D01*
X135281379Y-86061833D01*
X135278500Y-86035050D01*
X135278500Y-68005190D01*
X135298502Y-67937069D01*
X135315405Y-67916095D01*
X137526405Y-65705095D01*
X137588717Y-65671069D01*
X137659532Y-65676134D01*
G37*
%TD.AperFunction*%
%TD*%
%TA.AperFunction,NonConductor*%
G36*
X136981585Y-42033841D02*
G01*
X137038421Y-42076388D01*
X137063343Y-42144643D01*
X137075110Y-42348715D01*
X137076247Y-42353761D01*
X137076248Y-42353767D01*
X137096119Y-42441939D01*
X137124222Y-42566639D01*
X137208266Y-42773616D01*
X137258033Y-42854829D01*
X137322291Y-42959688D01*
X137324987Y-42964088D01*
X137471250Y-43132938D01*
X137643126Y-43275632D01*
X137664384Y-43288054D01*
X137716445Y-43318476D01*
X137765169Y-43370114D01*
X137778240Y-43439897D01*
X137751509Y-43505669D01*
X137711055Y-43539027D01*
X137698607Y-43545507D01*
X137694474Y-43548610D01*
X137694471Y-43548612D01*
X137670247Y-43566800D01*
X137519965Y-43679635D01*
X137365629Y-43841138D01*
X137239743Y-44025680D01*
X137145688Y-44228305D01*
X137085989Y-44443570D01*
X137062251Y-44665695D01*
X137062548Y-44670848D01*
X137062548Y-44670851D01*
X137068202Y-44768908D01*
X137075110Y-44888715D01*
X137076247Y-44893761D01*
X137076248Y-44893767D01*
X137089492Y-44952534D01*
X137124222Y-45106639D01*
X137208266Y-45313616D01*
X137324987Y-45504088D01*
X137471250Y-45672938D01*
X137643126Y-45815632D01*
X137713595Y-45856811D01*
X137716445Y-45858476D01*
X137765169Y-45910114D01*
X137778240Y-45979897D01*
X137751509Y-46045669D01*
X137711055Y-46079027D01*
X137698607Y-46085507D01*
X137694474Y-46088610D01*
X137694471Y-46088612D01*
X137670247Y-46106800D01*
X137519965Y-46219635D01*
X137365629Y-46381138D01*
X137239743Y-46565680D01*
X137145688Y-46768305D01*
X137085989Y-46983570D01*
X137062251Y-47205695D01*
X137062548Y-47210848D01*
X137062548Y-47210851D01*
X137068011Y-47305590D01*
X137075110Y-47428715D01*
X137076247Y-47433761D01*
X137076248Y-47433767D01*
X137090180Y-47495586D01*
X137085644Y-47566438D01*
X137056358Y-47612382D01*
X136792884Y-47875856D01*
X136784104Y-47883846D01*
X136784102Y-47883848D01*
X136777409Y-47888095D01*
X136771983Y-47893873D01*
X136771982Y-47893874D01*
X136728885Y-47939768D01*
X136726130Y-47942610D01*
X136705562Y-47963178D01*
X136702845Y-47966681D01*
X136695137Y-47975706D01*
X136663517Y-48009378D01*
X136659696Y-48016329D01*
X136659695Y-48016330D01*
X136653186Y-48028169D01*
X136642332Y-48044693D01*
X136634507Y-48054782D01*
X136629185Y-48061643D01*
X136626038Y-48068915D01*
X136626037Y-48068917D01*
X136610835Y-48104046D01*
X136605613Y-48114706D01*
X136600317Y-48124340D01*
X136583365Y-48155174D01*
X136578030Y-48175952D01*
X136571631Y-48194642D01*
X136563109Y-48214335D01*
X136561869Y-48222166D01*
X136555883Y-48259959D01*
X136553476Y-48271582D01*
X136550501Y-48283171D01*
X136541989Y-48316323D01*
X136541989Y-48337770D01*
X136540438Y-48357480D01*
X136537083Y-48378663D01*
X136538193Y-48390400D01*
X136541430Y-48424649D01*
X136541989Y-48436507D01*
X136541989Y-64774801D01*
X136521987Y-64842922D01*
X136505084Y-64863896D01*
X134212395Y-67156585D01*
X134203615Y-67164575D01*
X134203613Y-67164577D01*
X134196920Y-67168824D01*
X134191494Y-67174602D01*
X134191493Y-67174603D01*
X134148396Y-67220497D01*
X134145641Y-67223339D01*
X134125073Y-67243907D01*
X134122356Y-67247410D01*
X134114648Y-67256435D01*
X134083028Y-67290107D01*
X134079207Y-67297058D01*
X134079206Y-67297059D01*
X134072697Y-67308898D01*
X134061843Y-67325422D01*
X134054018Y-67335511D01*
X134048696Y-67342372D01*
X134045549Y-67349644D01*
X134045548Y-67349646D01*
X134030346Y-67384775D01*
X134025124Y-67395435D01*
X134002876Y-67435903D01*
X133997541Y-67456681D01*
X133991142Y-67475371D01*
X133982620Y-67495064D01*
X133981380Y-67502895D01*
X133975394Y-67540688D01*
X133972987Y-67552311D01*
X133961500Y-67597052D01*
X133961500Y-67618499D01*
X133959949Y-67638209D01*
X133956594Y-67659392D01*
X133957340Y-67667283D01*
X133960941Y-67705378D01*
X133961500Y-67717236D01*
X133961500Y-86277944D01*
X133960941Y-86289800D01*
X133959212Y-86297537D01*
X133959461Y-86305459D01*
X133961438Y-86368369D01*
X133961500Y-86372327D01*
X133961500Y-86401432D01*
X133962056Y-86405832D01*
X133962988Y-86417664D01*
X133964438Y-86463831D01*
X133966650Y-86471444D01*
X133966650Y-86471445D01*
X133970419Y-86484416D01*
X133974430Y-86503782D01*
X133977118Y-86525064D01*
X133980034Y-86532429D01*
X133980035Y-86532433D01*
X133994126Y-86568021D01*
X133997965Y-86579231D01*
X134010855Y-86623600D01*
X134021775Y-86642065D01*
X134030466Y-86659805D01*
X134038365Y-86679756D01*
X134065516Y-86717126D01*
X134072033Y-86727048D01*
X134091507Y-86759977D01*
X134091510Y-86759981D01*
X134095547Y-86766807D01*
X134110711Y-86781971D01*
X134123551Y-86797004D01*
X134136159Y-86814357D01*
X134171752Y-86843802D01*
X134180532Y-86851792D01*
X136636341Y-89307600D01*
X136644331Y-89316381D01*
X136644339Y-89316390D01*
X136648584Y-89323080D01*
X136654359Y-89328503D01*
X136700274Y-89371620D01*
X136703116Y-89374375D01*
X136707342Y-89378601D01*
X136741368Y-89440913D01*
X136736303Y-89511728D01*
X136732538Y-89520740D01*
X136701835Y-89586884D01*
X136667570Y-89660702D01*
X136642688Y-89714305D01*
X136640258Y-89723065D01*
X136602781Y-89783361D01*
X136538653Y-89813825D01*
X136468234Y-89804782D01*
X136429747Y-89778487D01*
X133697884Y-87046624D01*
X133663858Y-86984312D01*
X133660979Y-86957529D01*
X133660979Y-64007795D01*
X133680981Y-63939674D01*
X133734637Y-63893181D01*
X133804911Y-63883077D01*
X133852813Y-63900362D01*
X133883271Y-63919027D01*
X133883284Y-63919033D01*
X133887498Y-63921616D01*
X133892068Y-63923509D01*
X133892072Y-63923511D01*
X134116836Y-64016611D01*
X134121409Y-64018505D01*
X134206032Y-64038821D01*
X134362784Y-64076454D01*
X134362790Y-64076455D01*
X134367597Y-64077609D01*
X134467416Y-64085465D01*
X134554345Y-64092307D01*
X134554352Y-64092307D01*
X134556801Y-64092500D01*
X134683199Y-64092500D01*
X134685648Y-64092307D01*
X134685655Y-64092307D01*
X134772584Y-64085465D01*
X134872403Y-64077609D01*
X134877210Y-64076455D01*
X134877216Y-64076454D01*
X135033968Y-64038821D01*
X135118591Y-64018505D01*
X135123164Y-64016611D01*
X135347928Y-63923511D01*
X135347932Y-63923509D01*
X135352502Y-63921616D01*
X135568376Y-63789328D01*
X135760898Y-63624898D01*
X135925328Y-63432376D01*
X136057616Y-63216502D01*
X136059680Y-63211521D01*
X136152611Y-62987164D01*
X136152612Y-62987162D01*
X136154505Y-62982591D01*
X136213609Y-62736403D01*
X136233474Y-62484000D01*
X136213609Y-62231597D01*
X136154505Y-61985409D01*
X136057616Y-61751498D01*
X135925328Y-61535624D01*
X135760898Y-61343102D01*
X135568376Y-61178672D01*
X135352502Y-61046384D01*
X135347932Y-61044491D01*
X135347928Y-61044489D01*
X135123164Y-60951389D01*
X135123162Y-60951388D01*
X135118591Y-60949495D01*
X135033968Y-60929179D01*
X134877216Y-60891546D01*
X134877210Y-60891545D01*
X134872403Y-60890391D01*
X134772584Y-60882535D01*
X134685655Y-60875693D01*
X134685648Y-60875693D01*
X134683199Y-60875500D01*
X134556801Y-60875500D01*
X134554352Y-60875693D01*
X134554345Y-60875693D01*
X134467416Y-60882535D01*
X134367597Y-60890391D01*
X134362790Y-60891545D01*
X134362784Y-60891546D01*
X134206032Y-60929179D01*
X134121409Y-60949495D01*
X134119107Y-60950449D01*
X134048823Y-60952457D01*
X133988025Y-60915795D01*
X133956700Y-60852082D01*
X133964792Y-60781549D01*
X133991759Y-60741501D01*
X135789605Y-58943655D01*
X135798385Y-58935665D01*
X135798387Y-58935663D01*
X135805080Y-58931416D01*
X135853605Y-58879742D01*
X135856359Y-58876901D01*
X135876927Y-58856333D01*
X135879647Y-58852826D01*
X135887353Y-58843804D01*
X135913544Y-58815913D01*
X135918972Y-58810133D01*
X135922794Y-58803181D01*
X135929303Y-58791342D01*
X135940157Y-58774818D01*
X135948445Y-58764132D01*
X135953304Y-58757868D01*
X135957969Y-58747088D01*
X135971654Y-58715465D01*
X135976876Y-58704805D01*
X135995305Y-58671284D01*
X135995306Y-58671282D01*
X135999124Y-58664337D01*
X136004459Y-58643559D01*
X136010858Y-58624869D01*
X136019380Y-58605176D01*
X136026606Y-58559552D01*
X136029013Y-58547929D01*
X136038528Y-58510868D01*
X136040500Y-58503188D01*
X136040500Y-58481741D01*
X136042051Y-58462031D01*
X136044166Y-58448677D01*
X136045406Y-58440848D01*
X136041059Y-58394859D01*
X136040500Y-58383004D01*
X136040500Y-42922950D01*
X136060502Y-42854829D01*
X136077405Y-42833855D01*
X136848458Y-42062802D01*
X136910770Y-42028776D01*
X136981585Y-42033841D01*
G37*
%TD.AperFunction*%
M02*
