M48
; DRILL file {KiCad (6.0.0)} date Wed Mar 16 00:11:58 2022
; FORMAT={-:-/ absolute / metric / decimal}
; #@! TF.CreationDate,2022-03-16T00:11:58-04:00
; #@! TF.GenerationSoftware,Kicad,Pcbnew,(6.0.0)
; #@! TF.FileFunction,Plated,1,4,PTH
FMAT,2
METRIC
; #@! TA.AperFunction,Plated,PTH,ComponentDrill
T1C1.000
; #@! TA.AperFunction,Plated,PTH,ComponentDrill
T2C1.650
; #@! TA.AperFunction,Plated,PTH,ComponentDrill
T3C1.900
%
G90
G05
T1
X137.922Y-72.405
X137.922Y-74.945
X137.922Y-77.485
X137.922Y-80.025
X137.922Y-82.565
X137.922Y-85.105
X137.922Y-87.645
X137.922Y-90.185
X138.425Y-34.539
X138.425Y-37.079
X138.425Y-39.619
X138.425Y-42.159
X138.425Y-44.699
X138.425Y-47.239
X138.425Y-49.779
X140.462Y-72.405
X140.462Y-74.945
X140.462Y-77.485
X140.462Y-80.025
X140.462Y-82.565
X140.462Y-85.105
X140.462Y-87.645
X140.462Y-90.185
X140.965Y-34.539
X140.965Y-37.079
X140.965Y-39.619
X140.965Y-42.159
X140.965Y-44.699
X140.965Y-47.239
X140.965Y-49.779
X148.4Y-43.6
X148.4Y-59.1
X148.4Y-74.5
X148.4Y-90.1
X150.94Y-43.6
X150.94Y-59.1
X150.94Y-74.5
X150.94Y-90.1
X153.48Y-43.6
X153.48Y-59.1
X153.48Y-74.5
X153.48Y-90.1
X177.8Y-33.3
X177.8Y-44.3
X177.8Y-48.8
X177.8Y-59.8
X177.8Y-64.2
X177.8Y-75.2
X177.8Y-79.8
X177.8Y-90.8
T2
X147.951Y-80.5
X147.951Y-83.9
X147.965Y-34.0
X147.965Y-37.4
X147.965Y-49.5
X147.965Y-52.9
X147.965Y-64.9
X147.965Y-68.3
X161.421Y-80.5
X161.421Y-83.9
X161.435Y-34.0
X161.435Y-37.4
X161.435Y-49.5
X161.435Y-52.9
X161.435Y-64.9
X161.435Y-68.3
T3
X167.8Y-36.3
X167.8Y-41.3
X167.8Y-51.8
X167.8Y-56.8
X167.8Y-67.2
X167.8Y-72.2
X167.8Y-82.8
X167.8Y-87.8
T0
M30
