%FSLAX45Y45*%
G04 Gerber Fmt 4.5, Leading zero omitted, Abs format (unit mm)*
G04 Created by KiCad (PCBNEW (6.0.0)) date 2022-03-16 00:11:59*
%MOMM*%
%LPD*%
G01*
G04 APERTURE LIST*
%TA.AperFunction,Profile*%
%ADD10C,0.100000*%
%TD*%
%ADD11C,0.200000*%
%ADD12C,0.100000*%
%ADD13C,0.165000*%
%ADD14C,0.190000*%
G04 APERTURE END LIST*
D10*
X18150000Y-10200000D02*
X13200000Y-10200000D01*
X13200000Y-10200000D02*
X13200000Y-2200000D01*
X13200000Y-2200000D02*
X18150000Y-2200000D01*
X18150000Y-2200000D02*
X18150000Y-10200000D01*
D11*
D12*
X13742200Y-7190500D02*
X13842200Y-7290500D01*
X13842200Y-7190500D02*
X13742200Y-7290500D01*
X13742200Y-7444500D02*
X13842200Y-7544500D01*
X13842200Y-7444500D02*
X13742200Y-7544500D01*
X13742200Y-7698500D02*
X13842200Y-7798500D01*
X13842200Y-7698500D02*
X13742200Y-7798500D01*
X13742200Y-7952500D02*
X13842200Y-8052500D01*
X13842200Y-7952500D02*
X13742200Y-8052500D01*
X13742200Y-8206500D02*
X13842200Y-8306500D01*
X13842200Y-8206500D02*
X13742200Y-8306500D01*
X13742200Y-8460500D02*
X13842200Y-8560500D01*
X13842200Y-8460500D02*
X13742200Y-8560500D01*
X13742200Y-8714500D02*
X13842200Y-8814500D01*
X13842200Y-8714500D02*
X13742200Y-8814500D01*
X13742200Y-8968500D02*
X13842200Y-9068500D01*
X13842200Y-8968500D02*
X13742200Y-9068500D01*
X13792500Y-3403900D02*
X13892500Y-3503900D01*
X13892500Y-3403900D02*
X13792500Y-3503900D01*
X13792500Y-3657900D02*
X13892500Y-3757900D01*
X13892500Y-3657900D02*
X13792500Y-3757900D01*
X13792500Y-3911900D02*
X13892500Y-4011900D01*
X13892500Y-3911900D02*
X13792500Y-4011900D01*
X13792500Y-4165900D02*
X13892500Y-4265900D01*
X13892500Y-4165900D02*
X13792500Y-4265900D01*
X13792500Y-4419900D02*
X13892500Y-4519900D01*
X13892500Y-4419900D02*
X13792500Y-4519900D01*
X13792500Y-4673900D02*
X13892500Y-4773900D01*
X13892500Y-4673900D02*
X13792500Y-4773900D01*
X13792500Y-4927900D02*
X13892500Y-5027900D01*
X13892500Y-4927900D02*
X13792500Y-5027900D01*
X13996200Y-7190500D02*
X14096200Y-7290500D01*
X14096200Y-7190500D02*
X13996200Y-7290500D01*
X13996200Y-7444500D02*
X14096200Y-7544500D01*
X14096200Y-7444500D02*
X13996200Y-7544500D01*
X13996200Y-7698500D02*
X14096200Y-7798500D01*
X14096200Y-7698500D02*
X13996200Y-7798500D01*
X13996200Y-7952500D02*
X14096200Y-8052500D01*
X14096200Y-7952500D02*
X13996200Y-8052500D01*
X13996200Y-8206500D02*
X14096200Y-8306500D01*
X14096200Y-8206500D02*
X13996200Y-8306500D01*
X13996200Y-8460500D02*
X14096200Y-8560500D01*
X14096200Y-8460500D02*
X13996200Y-8560500D01*
X13996200Y-8714500D02*
X14096200Y-8814500D01*
X14096200Y-8714500D02*
X13996200Y-8814500D01*
X13996200Y-8968500D02*
X14096200Y-9068500D01*
X14096200Y-8968500D02*
X13996200Y-9068500D01*
X14046500Y-3403900D02*
X14146500Y-3503900D01*
X14146500Y-3403900D02*
X14046500Y-3503900D01*
X14046500Y-3657900D02*
X14146500Y-3757900D01*
X14146500Y-3657900D02*
X14046500Y-3757900D01*
X14046500Y-3911900D02*
X14146500Y-4011900D01*
X14146500Y-3911900D02*
X14046500Y-4011900D01*
X14046500Y-4165900D02*
X14146500Y-4265900D01*
X14146500Y-4165900D02*
X14046500Y-4265900D01*
X14046500Y-4419900D02*
X14146500Y-4519900D01*
X14146500Y-4419900D02*
X14046500Y-4519900D01*
X14046500Y-4673900D02*
X14146500Y-4773900D01*
X14146500Y-4673900D02*
X14046500Y-4773900D01*
X14046500Y-4927900D02*
X14146500Y-5027900D01*
X14146500Y-4927900D02*
X14046500Y-5027900D01*
X14790000Y-4310000D02*
X14890000Y-4410000D01*
X14890000Y-4310000D02*
X14790000Y-4410000D01*
X14790000Y-5860000D02*
X14890000Y-5960000D01*
X14890000Y-5860000D02*
X14790000Y-5960000D01*
X14790000Y-7400000D02*
X14890000Y-7500000D01*
X14890000Y-7400000D02*
X14790000Y-7500000D01*
X14790000Y-8960000D02*
X14890000Y-9060000D01*
X14890000Y-8960000D02*
X14790000Y-9060000D01*
X15044000Y-4310000D02*
X15144000Y-4410000D01*
X15144000Y-4310000D02*
X15044000Y-4410000D01*
X15044000Y-5860000D02*
X15144000Y-5960000D01*
X15144000Y-5860000D02*
X15044000Y-5960000D01*
X15044000Y-7400000D02*
X15144000Y-7500000D01*
X15144000Y-7400000D02*
X15044000Y-7500000D01*
X15044000Y-8960000D02*
X15144000Y-9060000D01*
X15144000Y-8960000D02*
X15044000Y-9060000D01*
X15298000Y-4310000D02*
X15398000Y-4410000D01*
X15398000Y-4310000D02*
X15298000Y-4410000D01*
X15298000Y-5860000D02*
X15398000Y-5960000D01*
X15398000Y-5860000D02*
X15298000Y-5960000D01*
X15298000Y-7400000D02*
X15398000Y-7500000D01*
X15398000Y-7400000D02*
X15298000Y-7500000D01*
X15298000Y-8960000D02*
X15398000Y-9060000D01*
X15398000Y-8960000D02*
X15298000Y-9060000D01*
X17730000Y-3280000D02*
X17830000Y-3380000D01*
X17830000Y-3280000D02*
X17730000Y-3380000D01*
X17730000Y-4380000D02*
X17830000Y-4480000D01*
X17830000Y-4380000D02*
X17730000Y-4480000D01*
X17730000Y-4830000D02*
X17830000Y-4930000D01*
X17830000Y-4830000D02*
X17730000Y-4930000D01*
X17730000Y-5930000D02*
X17830000Y-6030000D01*
X17830000Y-5930000D02*
X17730000Y-6030000D01*
X17730000Y-6370000D02*
X17830000Y-6470000D01*
X17830000Y-6370000D02*
X17730000Y-6470000D01*
X17730000Y-7470000D02*
X17830000Y-7570000D01*
X17830000Y-7470000D02*
X17730000Y-7570000D01*
X17730000Y-7930000D02*
X17830000Y-8030000D01*
X17830000Y-7930000D02*
X17730000Y-8030000D01*
X17730000Y-9030000D02*
X17830000Y-9130000D01*
X17830000Y-9030000D02*
X17730000Y-9130000D01*
D13*
X14877600Y-8050000D02*
G75*
G03*
X14877600Y-8050000I-82500J0D01*
G01*
X14877600Y-8390000D02*
G75*
G03*
X14877600Y-8390000I-82500J0D01*
G01*
X14879000Y-3400000D02*
G75*
G03*
X14879000Y-3400000I-82500J0D01*
G01*
X14879000Y-3740000D02*
G75*
G03*
X14879000Y-3740000I-82500J0D01*
G01*
X14879000Y-4950000D02*
G75*
G03*
X14879000Y-4950000I-82500J0D01*
G01*
X14879000Y-5290000D02*
G75*
G03*
X14879000Y-5290000I-82500J0D01*
G01*
X14879000Y-6490000D02*
G75*
G03*
X14879000Y-6490000I-82500J0D01*
G01*
X14879000Y-6830000D02*
G75*
G03*
X14879000Y-6830000I-82500J0D01*
G01*
X16224600Y-8050000D02*
G75*
G03*
X16224600Y-8050000I-82500J0D01*
G01*
X16224600Y-8390000D02*
G75*
G03*
X16224600Y-8390000I-82500J0D01*
G01*
X16226000Y-3400000D02*
G75*
G03*
X16226000Y-3400000I-82500J0D01*
G01*
X16226000Y-3740000D02*
G75*
G03*
X16226000Y-3740000I-82500J0D01*
G01*
X16226000Y-4950000D02*
G75*
G03*
X16226000Y-4950000I-82500J0D01*
G01*
X16226000Y-5290000D02*
G75*
G03*
X16226000Y-5290000I-82500J0D01*
G01*
X16226000Y-6490000D02*
G75*
G03*
X16226000Y-6490000I-82500J0D01*
G01*
X16226000Y-6830000D02*
G75*
G03*
X16226000Y-6830000I-82500J0D01*
G01*
D14*
X16780000Y-3535000D02*
X16780000Y-3725000D01*
X16685000Y-3630000D02*
X16875000Y-3630000D01*
X16780000Y-4035000D02*
X16780000Y-4225000D01*
X16685000Y-4130000D02*
X16875000Y-4130000D01*
X16780000Y-5085000D02*
X16780000Y-5275000D01*
X16685000Y-5180000D02*
X16875000Y-5180000D01*
X16780000Y-5585000D02*
X16780000Y-5775000D01*
X16685000Y-5680000D02*
X16875000Y-5680000D01*
X16780000Y-6625000D02*
X16780000Y-6815000D01*
X16685000Y-6720000D02*
X16875000Y-6720000D01*
X16780000Y-7125000D02*
X16780000Y-7315000D01*
X16685000Y-7220000D02*
X16875000Y-7220000D01*
X16780000Y-8185000D02*
X16780000Y-8375000D01*
X16685000Y-8280000D02*
X16875000Y-8280000D01*
X16780000Y-8685000D02*
X16780000Y-8875000D01*
X16685000Y-8780000D02*
X16875000Y-8780000D01*
D11*
X13452619Y-10515476D02*
X13452619Y-10315476D01*
X13500238Y-10315476D01*
X13528809Y-10325000D01*
X13547857Y-10344048D01*
X13557381Y-10363095D01*
X13566905Y-10401190D01*
X13566905Y-10429762D01*
X13557381Y-10467857D01*
X13547857Y-10486905D01*
X13528809Y-10505952D01*
X13500238Y-10515476D01*
X13452619Y-10515476D01*
X13652619Y-10515476D02*
X13652619Y-10382143D01*
X13652619Y-10420238D02*
X13662143Y-10401190D01*
X13671667Y-10391667D01*
X13690714Y-10382143D01*
X13709762Y-10382143D01*
X13776428Y-10515476D02*
X13776428Y-10382143D01*
X13776428Y-10315476D02*
X13766905Y-10325000D01*
X13776428Y-10334524D01*
X13785952Y-10325000D01*
X13776428Y-10315476D01*
X13776428Y-10334524D01*
X13900238Y-10515476D02*
X13881190Y-10505952D01*
X13871667Y-10486905D01*
X13871667Y-10315476D01*
X14005000Y-10515476D02*
X13985952Y-10505952D01*
X13976428Y-10486905D01*
X13976428Y-10315476D01*
X14233571Y-10515476D02*
X14233571Y-10315476D01*
X14300238Y-10458333D01*
X14366905Y-10315476D01*
X14366905Y-10515476D01*
X14547857Y-10515476D02*
X14547857Y-10410714D01*
X14538333Y-10391667D01*
X14519286Y-10382143D01*
X14481190Y-10382143D01*
X14462143Y-10391667D01*
X14547857Y-10505952D02*
X14528809Y-10515476D01*
X14481190Y-10515476D01*
X14462143Y-10505952D01*
X14452619Y-10486905D01*
X14452619Y-10467857D01*
X14462143Y-10448810D01*
X14481190Y-10439286D01*
X14528809Y-10439286D01*
X14547857Y-10429762D01*
X14643095Y-10382143D02*
X14643095Y-10582143D01*
X14643095Y-10391667D02*
X14662143Y-10382143D01*
X14700238Y-10382143D01*
X14719286Y-10391667D01*
X14728809Y-10401190D01*
X14738333Y-10420238D01*
X14738333Y-10477381D01*
X14728809Y-10496429D01*
X14719286Y-10505952D01*
X14700238Y-10515476D01*
X14662143Y-10515476D01*
X14643095Y-10505952D01*
X14824048Y-10496429D02*
X14833571Y-10505952D01*
X14824048Y-10515476D01*
X14814524Y-10505952D01*
X14824048Y-10496429D01*
X14824048Y-10515476D01*
X14824048Y-10391667D02*
X14833571Y-10401190D01*
X14824048Y-10410714D01*
X14814524Y-10401190D01*
X14824048Y-10391667D01*
X14824048Y-10410714D01*
D12*
X13095000Y-10795000D02*
X13195000Y-10895000D01*
X13195000Y-10795000D02*
X13095000Y-10895000D01*
D11*
X13557381Y-10935476D02*
X13443095Y-10935476D01*
X13500238Y-10935476D02*
X13500238Y-10735476D01*
X13481190Y-10764048D01*
X13462143Y-10783095D01*
X13443095Y-10792619D01*
X13643095Y-10916429D02*
X13652619Y-10925952D01*
X13643095Y-10935476D01*
X13633571Y-10925952D01*
X13643095Y-10916429D01*
X13643095Y-10935476D01*
X13776428Y-10735476D02*
X13795476Y-10735476D01*
X13814524Y-10745000D01*
X13824048Y-10754524D01*
X13833571Y-10773571D01*
X13843095Y-10811667D01*
X13843095Y-10859286D01*
X13833571Y-10897381D01*
X13824048Y-10916429D01*
X13814524Y-10925952D01*
X13795476Y-10935476D01*
X13776428Y-10935476D01*
X13757381Y-10925952D01*
X13747857Y-10916429D01*
X13738333Y-10897381D01*
X13728809Y-10859286D01*
X13728809Y-10811667D01*
X13738333Y-10773571D01*
X13747857Y-10754524D01*
X13757381Y-10745000D01*
X13776428Y-10735476D01*
X13966905Y-10735476D02*
X13985952Y-10735476D01*
X14005000Y-10745000D01*
X14014524Y-10754524D01*
X14024048Y-10773571D01*
X14033571Y-10811667D01*
X14033571Y-10859286D01*
X14024048Y-10897381D01*
X14014524Y-10916429D01*
X14005000Y-10925952D01*
X13985952Y-10935476D01*
X13966905Y-10935476D01*
X13947857Y-10925952D01*
X13938333Y-10916429D01*
X13928809Y-10897381D01*
X13919286Y-10859286D01*
X13919286Y-10811667D01*
X13928809Y-10773571D01*
X13938333Y-10754524D01*
X13947857Y-10745000D01*
X13966905Y-10735476D01*
X14157381Y-10735476D02*
X14176428Y-10735476D01*
X14195476Y-10745000D01*
X14205000Y-10754524D01*
X14214524Y-10773571D01*
X14224048Y-10811667D01*
X14224048Y-10859286D01*
X14214524Y-10897381D01*
X14205000Y-10916429D01*
X14195476Y-10925952D01*
X14176428Y-10935476D01*
X14157381Y-10935476D01*
X14138333Y-10925952D01*
X14128809Y-10916429D01*
X14119286Y-10897381D01*
X14109762Y-10859286D01*
X14109762Y-10811667D01*
X14119286Y-10773571D01*
X14128809Y-10754524D01*
X14138333Y-10745000D01*
X14157381Y-10735476D01*
X14309762Y-10935476D02*
X14309762Y-10802143D01*
X14309762Y-10821190D02*
X14319286Y-10811667D01*
X14338333Y-10802143D01*
X14366905Y-10802143D01*
X14385952Y-10811667D01*
X14395476Y-10830714D01*
X14395476Y-10935476D01*
X14395476Y-10830714D02*
X14405000Y-10811667D01*
X14424048Y-10802143D01*
X14452619Y-10802143D01*
X14471667Y-10811667D01*
X14481190Y-10830714D01*
X14481190Y-10935476D01*
X14576428Y-10935476D02*
X14576428Y-10802143D01*
X14576428Y-10821190D02*
X14585952Y-10811667D01*
X14605000Y-10802143D01*
X14633571Y-10802143D01*
X14652619Y-10811667D01*
X14662143Y-10830714D01*
X14662143Y-10935476D01*
X14662143Y-10830714D02*
X14671667Y-10811667D01*
X14690714Y-10802143D01*
X14719286Y-10802143D01*
X14738333Y-10811667D01*
X14747857Y-10830714D01*
X14747857Y-10935476D01*
X15138333Y-10725952D02*
X14966905Y-10983095D01*
X15395476Y-10735476D02*
X15414524Y-10735476D01*
X15433571Y-10745000D01*
X15443095Y-10754524D01*
X15452619Y-10773571D01*
X15462143Y-10811667D01*
X15462143Y-10859286D01*
X15452619Y-10897381D01*
X15443095Y-10916429D01*
X15433571Y-10925952D01*
X15414524Y-10935476D01*
X15395476Y-10935476D01*
X15376428Y-10925952D01*
X15366905Y-10916429D01*
X15357381Y-10897381D01*
X15347857Y-10859286D01*
X15347857Y-10811667D01*
X15357381Y-10773571D01*
X15366905Y-10754524D01*
X15376428Y-10745000D01*
X15395476Y-10735476D01*
X15547857Y-10916429D02*
X15557381Y-10925952D01*
X15547857Y-10935476D01*
X15538333Y-10925952D01*
X15547857Y-10916429D01*
X15547857Y-10935476D01*
X15681190Y-10735476D02*
X15700238Y-10735476D01*
X15719286Y-10745000D01*
X15728809Y-10754524D01*
X15738333Y-10773571D01*
X15747857Y-10811667D01*
X15747857Y-10859286D01*
X15738333Y-10897381D01*
X15728809Y-10916429D01*
X15719286Y-10925952D01*
X15700238Y-10935476D01*
X15681190Y-10935476D01*
X15662143Y-10925952D01*
X15652619Y-10916429D01*
X15643095Y-10897381D01*
X15633571Y-10859286D01*
X15633571Y-10811667D01*
X15643095Y-10773571D01*
X15652619Y-10754524D01*
X15662143Y-10745000D01*
X15681190Y-10735476D01*
X15814524Y-10735476D02*
X15938333Y-10735476D01*
X15871667Y-10811667D01*
X15900238Y-10811667D01*
X15919286Y-10821190D01*
X15928809Y-10830714D01*
X15938333Y-10849762D01*
X15938333Y-10897381D01*
X15928809Y-10916429D01*
X15919286Y-10925952D01*
X15900238Y-10935476D01*
X15843095Y-10935476D01*
X15824048Y-10925952D01*
X15814524Y-10916429D01*
X16033571Y-10935476D02*
X16071667Y-10935476D01*
X16090714Y-10925952D01*
X16100238Y-10916429D01*
X16119286Y-10887857D01*
X16128809Y-10849762D01*
X16128809Y-10773571D01*
X16119286Y-10754524D01*
X16109762Y-10745000D01*
X16090714Y-10735476D01*
X16052619Y-10735476D01*
X16033571Y-10745000D01*
X16024048Y-10754524D01*
X16014524Y-10773571D01*
X16014524Y-10821190D01*
X16024048Y-10840238D01*
X16033571Y-10849762D01*
X16052619Y-10859286D01*
X16090714Y-10859286D01*
X16109762Y-10849762D01*
X16119286Y-10840238D01*
X16128809Y-10821190D01*
X16300238Y-10802143D02*
X16300238Y-10935476D01*
X16252619Y-10725952D02*
X16205000Y-10868810D01*
X16328809Y-10868810D01*
X16395476Y-10735476D02*
X16395476Y-10773571D01*
X16471667Y-10735476D02*
X16471667Y-10773571D01*
X16766905Y-11011667D02*
X16757381Y-11002143D01*
X16738333Y-10973571D01*
X16728809Y-10954524D01*
X16719286Y-10925952D01*
X16709762Y-10878333D01*
X16709762Y-10840238D01*
X16719286Y-10792619D01*
X16728809Y-10764048D01*
X16738333Y-10745000D01*
X16757381Y-10716429D01*
X16766905Y-10706905D01*
X16938333Y-10735476D02*
X16843095Y-10735476D01*
X16833571Y-10830714D01*
X16843095Y-10821190D01*
X16862143Y-10811667D01*
X16909762Y-10811667D01*
X16928810Y-10821190D01*
X16938333Y-10830714D01*
X16947857Y-10849762D01*
X16947857Y-10897381D01*
X16938333Y-10916429D01*
X16928810Y-10925952D01*
X16909762Y-10935476D01*
X16862143Y-10935476D01*
X16843095Y-10925952D01*
X16833571Y-10916429D01*
X17071667Y-10735476D02*
X17090714Y-10735476D01*
X17109762Y-10745000D01*
X17119286Y-10754524D01*
X17128810Y-10773571D01*
X17138333Y-10811667D01*
X17138333Y-10859286D01*
X17128810Y-10897381D01*
X17119286Y-10916429D01*
X17109762Y-10925952D01*
X17090714Y-10935476D01*
X17071667Y-10935476D01*
X17052619Y-10925952D01*
X17043095Y-10916429D01*
X17033571Y-10897381D01*
X17024048Y-10859286D01*
X17024048Y-10811667D01*
X17033571Y-10773571D01*
X17043095Y-10754524D01*
X17052619Y-10745000D01*
X17071667Y-10735476D01*
X17376429Y-10935476D02*
X17376429Y-10735476D01*
X17462143Y-10935476D02*
X17462143Y-10830714D01*
X17452619Y-10811667D01*
X17433571Y-10802143D01*
X17405000Y-10802143D01*
X17385952Y-10811667D01*
X17376429Y-10821190D01*
X17585952Y-10935476D02*
X17566905Y-10925952D01*
X17557381Y-10916429D01*
X17547857Y-10897381D01*
X17547857Y-10840238D01*
X17557381Y-10821190D01*
X17566905Y-10811667D01*
X17585952Y-10802143D01*
X17614524Y-10802143D01*
X17633571Y-10811667D01*
X17643095Y-10821190D01*
X17652619Y-10840238D01*
X17652619Y-10897381D01*
X17643095Y-10916429D01*
X17633571Y-10925952D01*
X17614524Y-10935476D01*
X17585952Y-10935476D01*
X17766905Y-10935476D02*
X17747857Y-10925952D01*
X17738333Y-10906905D01*
X17738333Y-10735476D01*
X17919286Y-10925952D02*
X17900238Y-10935476D01*
X17862143Y-10935476D01*
X17843095Y-10925952D01*
X17833571Y-10906905D01*
X17833571Y-10830714D01*
X17843095Y-10811667D01*
X17862143Y-10802143D01*
X17900238Y-10802143D01*
X17919286Y-10811667D01*
X17928810Y-10830714D01*
X17928810Y-10849762D01*
X17833571Y-10868810D01*
X18005000Y-10925952D02*
X18024048Y-10935476D01*
X18062143Y-10935476D01*
X18081190Y-10925952D01*
X18090714Y-10906905D01*
X18090714Y-10897381D01*
X18081190Y-10878333D01*
X18062143Y-10868810D01*
X18033571Y-10868810D01*
X18014524Y-10859286D01*
X18005000Y-10840238D01*
X18005000Y-10830714D01*
X18014524Y-10811667D01*
X18033571Y-10802143D01*
X18062143Y-10802143D01*
X18081190Y-10811667D01*
X18157381Y-11011667D02*
X18166905Y-11002143D01*
X18185952Y-10973571D01*
X18195476Y-10954524D01*
X18205000Y-10925952D01*
X18214524Y-10878333D01*
X18214524Y-10840238D01*
X18205000Y-10792619D01*
X18195476Y-10764048D01*
X18185952Y-10745000D01*
X18166905Y-10716429D01*
X18157381Y-10706905D01*
D13*
X13195000Y-11109000D02*
G75*
G03*
X13195000Y-11109000I-82500J0D01*
G01*
D11*
X13557381Y-11199476D02*
X13443095Y-11199476D01*
X13500238Y-11199476D02*
X13500238Y-10999476D01*
X13481190Y-11028048D01*
X13462143Y-11047095D01*
X13443095Y-11056619D01*
X13643095Y-11180429D02*
X13652619Y-11189952D01*
X13643095Y-11199476D01*
X13633571Y-11189952D01*
X13643095Y-11180429D01*
X13643095Y-11199476D01*
X13824048Y-10999476D02*
X13785952Y-10999476D01*
X13766905Y-11009000D01*
X13757381Y-11018524D01*
X13738333Y-11047095D01*
X13728809Y-11085190D01*
X13728809Y-11161381D01*
X13738333Y-11180429D01*
X13747857Y-11189952D01*
X13766905Y-11199476D01*
X13805000Y-11199476D01*
X13824048Y-11189952D01*
X13833571Y-11180429D01*
X13843095Y-11161381D01*
X13843095Y-11113762D01*
X13833571Y-11094714D01*
X13824048Y-11085190D01*
X13805000Y-11075667D01*
X13766905Y-11075667D01*
X13747857Y-11085190D01*
X13738333Y-11094714D01*
X13728809Y-11113762D01*
X14024048Y-10999476D02*
X13928809Y-10999476D01*
X13919286Y-11094714D01*
X13928809Y-11085190D01*
X13947857Y-11075667D01*
X13995476Y-11075667D01*
X14014524Y-11085190D01*
X14024048Y-11094714D01*
X14033571Y-11113762D01*
X14033571Y-11161381D01*
X14024048Y-11180429D01*
X14014524Y-11189952D01*
X13995476Y-11199476D01*
X13947857Y-11199476D01*
X13928809Y-11189952D01*
X13919286Y-11180429D01*
X14157381Y-10999476D02*
X14176428Y-10999476D01*
X14195476Y-11009000D01*
X14205000Y-11018524D01*
X14214524Y-11037571D01*
X14224048Y-11075667D01*
X14224048Y-11123286D01*
X14214524Y-11161381D01*
X14205000Y-11180429D01*
X14195476Y-11189952D01*
X14176428Y-11199476D01*
X14157381Y-11199476D01*
X14138333Y-11189952D01*
X14128809Y-11180429D01*
X14119286Y-11161381D01*
X14109762Y-11123286D01*
X14109762Y-11075667D01*
X14119286Y-11037571D01*
X14128809Y-11018524D01*
X14138333Y-11009000D01*
X14157381Y-10999476D01*
X14309762Y-11199476D02*
X14309762Y-11066143D01*
X14309762Y-11085190D02*
X14319286Y-11075667D01*
X14338333Y-11066143D01*
X14366905Y-11066143D01*
X14385952Y-11075667D01*
X14395476Y-11094714D01*
X14395476Y-11199476D01*
X14395476Y-11094714D02*
X14405000Y-11075667D01*
X14424048Y-11066143D01*
X14452619Y-11066143D01*
X14471667Y-11075667D01*
X14481190Y-11094714D01*
X14481190Y-11199476D01*
X14576428Y-11199476D02*
X14576428Y-11066143D01*
X14576428Y-11085190D02*
X14585952Y-11075667D01*
X14605000Y-11066143D01*
X14633571Y-11066143D01*
X14652619Y-11075667D01*
X14662143Y-11094714D01*
X14662143Y-11199476D01*
X14662143Y-11094714D02*
X14671667Y-11075667D01*
X14690714Y-11066143D01*
X14719286Y-11066143D01*
X14738333Y-11075667D01*
X14747857Y-11094714D01*
X14747857Y-11199476D01*
X15138333Y-10989952D02*
X14966905Y-11247095D01*
X15395476Y-10999476D02*
X15414524Y-10999476D01*
X15433571Y-11009000D01*
X15443095Y-11018524D01*
X15452619Y-11037571D01*
X15462143Y-11075667D01*
X15462143Y-11123286D01*
X15452619Y-11161381D01*
X15443095Y-11180429D01*
X15433571Y-11189952D01*
X15414524Y-11199476D01*
X15395476Y-11199476D01*
X15376428Y-11189952D01*
X15366905Y-11180429D01*
X15357381Y-11161381D01*
X15347857Y-11123286D01*
X15347857Y-11075667D01*
X15357381Y-11037571D01*
X15366905Y-11018524D01*
X15376428Y-11009000D01*
X15395476Y-10999476D01*
X15547857Y-11180429D02*
X15557381Y-11189952D01*
X15547857Y-11199476D01*
X15538333Y-11189952D01*
X15547857Y-11180429D01*
X15547857Y-11199476D01*
X15681190Y-10999476D02*
X15700238Y-10999476D01*
X15719286Y-11009000D01*
X15728809Y-11018524D01*
X15738333Y-11037571D01*
X15747857Y-11075667D01*
X15747857Y-11123286D01*
X15738333Y-11161381D01*
X15728809Y-11180429D01*
X15719286Y-11189952D01*
X15700238Y-11199476D01*
X15681190Y-11199476D01*
X15662143Y-11189952D01*
X15652619Y-11180429D01*
X15643095Y-11161381D01*
X15633571Y-11123286D01*
X15633571Y-11075667D01*
X15643095Y-11037571D01*
X15652619Y-11018524D01*
X15662143Y-11009000D01*
X15681190Y-10999476D01*
X15919286Y-10999476D02*
X15881190Y-10999476D01*
X15862143Y-11009000D01*
X15852619Y-11018524D01*
X15833571Y-11047095D01*
X15824048Y-11085190D01*
X15824048Y-11161381D01*
X15833571Y-11180429D01*
X15843095Y-11189952D01*
X15862143Y-11199476D01*
X15900238Y-11199476D01*
X15919286Y-11189952D01*
X15928809Y-11180429D01*
X15938333Y-11161381D01*
X15938333Y-11113762D01*
X15928809Y-11094714D01*
X15919286Y-11085190D01*
X15900238Y-11075667D01*
X15862143Y-11075667D01*
X15843095Y-11085190D01*
X15833571Y-11094714D01*
X15824048Y-11113762D01*
X16119286Y-10999476D02*
X16024048Y-10999476D01*
X16014524Y-11094714D01*
X16024048Y-11085190D01*
X16043095Y-11075667D01*
X16090714Y-11075667D01*
X16109762Y-11085190D01*
X16119286Y-11094714D01*
X16128809Y-11113762D01*
X16128809Y-11161381D01*
X16119286Y-11180429D01*
X16109762Y-11189952D01*
X16090714Y-11199476D01*
X16043095Y-11199476D01*
X16024048Y-11189952D01*
X16014524Y-11180429D01*
X16252619Y-10999476D02*
X16271667Y-10999476D01*
X16290714Y-11009000D01*
X16300238Y-11018524D01*
X16309762Y-11037571D01*
X16319286Y-11075667D01*
X16319286Y-11123286D01*
X16309762Y-11161381D01*
X16300238Y-11180429D01*
X16290714Y-11189952D01*
X16271667Y-11199476D01*
X16252619Y-11199476D01*
X16233571Y-11189952D01*
X16224048Y-11180429D01*
X16214524Y-11161381D01*
X16205000Y-11123286D01*
X16205000Y-11075667D01*
X16214524Y-11037571D01*
X16224048Y-11018524D01*
X16233571Y-11009000D01*
X16252619Y-10999476D01*
X16395476Y-10999476D02*
X16395476Y-11037571D01*
X16471667Y-10999476D02*
X16471667Y-11037571D01*
X16766905Y-11275667D02*
X16757381Y-11266143D01*
X16738333Y-11237571D01*
X16728809Y-11218524D01*
X16719286Y-11189952D01*
X16709762Y-11142333D01*
X16709762Y-11104238D01*
X16719286Y-11056619D01*
X16728809Y-11028048D01*
X16738333Y-11009000D01*
X16757381Y-10980429D01*
X16766905Y-10970905D01*
X16947857Y-11199476D02*
X16833571Y-11199476D01*
X16890714Y-11199476D02*
X16890714Y-10999476D01*
X16871667Y-11028048D01*
X16852619Y-11047095D01*
X16833571Y-11056619D01*
X17119286Y-10999476D02*
X17081190Y-10999476D01*
X17062143Y-11009000D01*
X17052619Y-11018524D01*
X17033571Y-11047095D01*
X17024048Y-11085190D01*
X17024048Y-11161381D01*
X17033571Y-11180429D01*
X17043095Y-11189952D01*
X17062143Y-11199476D01*
X17100238Y-11199476D01*
X17119286Y-11189952D01*
X17128810Y-11180429D01*
X17138333Y-11161381D01*
X17138333Y-11113762D01*
X17128810Y-11094714D01*
X17119286Y-11085190D01*
X17100238Y-11075667D01*
X17062143Y-11075667D01*
X17043095Y-11085190D01*
X17033571Y-11094714D01*
X17024048Y-11113762D01*
X17376429Y-11199476D02*
X17376429Y-10999476D01*
X17462143Y-11199476D02*
X17462143Y-11094714D01*
X17452619Y-11075667D01*
X17433571Y-11066143D01*
X17405000Y-11066143D01*
X17385952Y-11075667D01*
X17376429Y-11085190D01*
X17585952Y-11199476D02*
X17566905Y-11189952D01*
X17557381Y-11180429D01*
X17547857Y-11161381D01*
X17547857Y-11104238D01*
X17557381Y-11085190D01*
X17566905Y-11075667D01*
X17585952Y-11066143D01*
X17614524Y-11066143D01*
X17633571Y-11075667D01*
X17643095Y-11085190D01*
X17652619Y-11104238D01*
X17652619Y-11161381D01*
X17643095Y-11180429D01*
X17633571Y-11189952D01*
X17614524Y-11199476D01*
X17585952Y-11199476D01*
X17766905Y-11199476D02*
X17747857Y-11189952D01*
X17738333Y-11170905D01*
X17738333Y-10999476D01*
X17919286Y-11189952D02*
X17900238Y-11199476D01*
X17862143Y-11199476D01*
X17843095Y-11189952D01*
X17833571Y-11170905D01*
X17833571Y-11094714D01*
X17843095Y-11075667D01*
X17862143Y-11066143D01*
X17900238Y-11066143D01*
X17919286Y-11075667D01*
X17928810Y-11094714D01*
X17928810Y-11113762D01*
X17833571Y-11132810D01*
X18005000Y-11189952D02*
X18024048Y-11199476D01*
X18062143Y-11199476D01*
X18081190Y-11189952D01*
X18090714Y-11170905D01*
X18090714Y-11161381D01*
X18081190Y-11142333D01*
X18062143Y-11132810D01*
X18033571Y-11132810D01*
X18014524Y-11123286D01*
X18005000Y-11104238D01*
X18005000Y-11094714D01*
X18014524Y-11075667D01*
X18033571Y-11066143D01*
X18062143Y-11066143D01*
X18081190Y-11075667D01*
X18157381Y-11275667D02*
X18166905Y-11266143D01*
X18185952Y-11237571D01*
X18195476Y-11218524D01*
X18205000Y-11189952D01*
X18214524Y-11142333D01*
X18214524Y-11104238D01*
X18205000Y-11056619D01*
X18195476Y-11028048D01*
X18185952Y-11009000D01*
X18166905Y-10980429D01*
X18157381Y-10970905D01*
D14*
X13100000Y-11299000D02*
X13100000Y-11489000D01*
X13005000Y-11394000D02*
X13195000Y-11394000D01*
D11*
X13557381Y-11484476D02*
X13443095Y-11484476D01*
X13500238Y-11484476D02*
X13500238Y-11284476D01*
X13481190Y-11313048D01*
X13462143Y-11332095D01*
X13443095Y-11341619D01*
X13643095Y-11465428D02*
X13652619Y-11474952D01*
X13643095Y-11484476D01*
X13633571Y-11474952D01*
X13643095Y-11465428D01*
X13643095Y-11484476D01*
X13747857Y-11484476D02*
X13785952Y-11484476D01*
X13805000Y-11474952D01*
X13814524Y-11465428D01*
X13833571Y-11436857D01*
X13843095Y-11398762D01*
X13843095Y-11322571D01*
X13833571Y-11303524D01*
X13824048Y-11294000D01*
X13805000Y-11284476D01*
X13766905Y-11284476D01*
X13747857Y-11294000D01*
X13738333Y-11303524D01*
X13728809Y-11322571D01*
X13728809Y-11370190D01*
X13738333Y-11389238D01*
X13747857Y-11398762D01*
X13766905Y-11408286D01*
X13805000Y-11408286D01*
X13824048Y-11398762D01*
X13833571Y-11389238D01*
X13843095Y-11370190D01*
X13966905Y-11284476D02*
X13985952Y-11284476D01*
X14005000Y-11294000D01*
X14014524Y-11303524D01*
X14024048Y-11322571D01*
X14033571Y-11360667D01*
X14033571Y-11408286D01*
X14024048Y-11446381D01*
X14014524Y-11465428D01*
X14005000Y-11474952D01*
X13985952Y-11484476D01*
X13966905Y-11484476D01*
X13947857Y-11474952D01*
X13938333Y-11465428D01*
X13928809Y-11446381D01*
X13919286Y-11408286D01*
X13919286Y-11360667D01*
X13928809Y-11322571D01*
X13938333Y-11303524D01*
X13947857Y-11294000D01*
X13966905Y-11284476D01*
X14157381Y-11284476D02*
X14176428Y-11284476D01*
X14195476Y-11294000D01*
X14205000Y-11303524D01*
X14214524Y-11322571D01*
X14224048Y-11360667D01*
X14224048Y-11408286D01*
X14214524Y-11446381D01*
X14205000Y-11465428D01*
X14195476Y-11474952D01*
X14176428Y-11484476D01*
X14157381Y-11484476D01*
X14138333Y-11474952D01*
X14128809Y-11465428D01*
X14119286Y-11446381D01*
X14109762Y-11408286D01*
X14109762Y-11360667D01*
X14119286Y-11322571D01*
X14128809Y-11303524D01*
X14138333Y-11294000D01*
X14157381Y-11284476D01*
X14309762Y-11484476D02*
X14309762Y-11351143D01*
X14309762Y-11370190D02*
X14319286Y-11360667D01*
X14338333Y-11351143D01*
X14366905Y-11351143D01*
X14385952Y-11360667D01*
X14395476Y-11379714D01*
X14395476Y-11484476D01*
X14395476Y-11379714D02*
X14405000Y-11360667D01*
X14424048Y-11351143D01*
X14452619Y-11351143D01*
X14471667Y-11360667D01*
X14481190Y-11379714D01*
X14481190Y-11484476D01*
X14576428Y-11484476D02*
X14576428Y-11351143D01*
X14576428Y-11370190D02*
X14585952Y-11360667D01*
X14605000Y-11351143D01*
X14633571Y-11351143D01*
X14652619Y-11360667D01*
X14662143Y-11379714D01*
X14662143Y-11484476D01*
X14662143Y-11379714D02*
X14671667Y-11360667D01*
X14690714Y-11351143D01*
X14719286Y-11351143D01*
X14738333Y-11360667D01*
X14747857Y-11379714D01*
X14747857Y-11484476D01*
X15138333Y-11274952D02*
X14966905Y-11532095D01*
X15395476Y-11284476D02*
X15414524Y-11284476D01*
X15433571Y-11294000D01*
X15443095Y-11303524D01*
X15452619Y-11322571D01*
X15462143Y-11360667D01*
X15462143Y-11408286D01*
X15452619Y-11446381D01*
X15443095Y-11465428D01*
X15433571Y-11474952D01*
X15414524Y-11484476D01*
X15395476Y-11484476D01*
X15376428Y-11474952D01*
X15366905Y-11465428D01*
X15357381Y-11446381D01*
X15347857Y-11408286D01*
X15347857Y-11360667D01*
X15357381Y-11322571D01*
X15366905Y-11303524D01*
X15376428Y-11294000D01*
X15395476Y-11284476D01*
X15547857Y-11465428D02*
X15557381Y-11474952D01*
X15547857Y-11484476D01*
X15538333Y-11474952D01*
X15547857Y-11465428D01*
X15547857Y-11484476D01*
X15681190Y-11284476D02*
X15700238Y-11284476D01*
X15719286Y-11294000D01*
X15728809Y-11303524D01*
X15738333Y-11322571D01*
X15747857Y-11360667D01*
X15747857Y-11408286D01*
X15738333Y-11446381D01*
X15728809Y-11465428D01*
X15719286Y-11474952D01*
X15700238Y-11484476D01*
X15681190Y-11484476D01*
X15662143Y-11474952D01*
X15652619Y-11465428D01*
X15643095Y-11446381D01*
X15633571Y-11408286D01*
X15633571Y-11360667D01*
X15643095Y-11322571D01*
X15652619Y-11303524D01*
X15662143Y-11294000D01*
X15681190Y-11284476D01*
X15814524Y-11284476D02*
X15947857Y-11284476D01*
X15862143Y-11484476D01*
X16109762Y-11351143D02*
X16109762Y-11484476D01*
X16062143Y-11274952D02*
X16014524Y-11417809D01*
X16138333Y-11417809D01*
X16243095Y-11370190D02*
X16224048Y-11360667D01*
X16214524Y-11351143D01*
X16205000Y-11332095D01*
X16205000Y-11322571D01*
X16214524Y-11303524D01*
X16224048Y-11294000D01*
X16243095Y-11284476D01*
X16281190Y-11284476D01*
X16300238Y-11294000D01*
X16309762Y-11303524D01*
X16319286Y-11322571D01*
X16319286Y-11332095D01*
X16309762Y-11351143D01*
X16300238Y-11360667D01*
X16281190Y-11370190D01*
X16243095Y-11370190D01*
X16224048Y-11379714D01*
X16214524Y-11389238D01*
X16205000Y-11408286D01*
X16205000Y-11446381D01*
X16214524Y-11465428D01*
X16224048Y-11474952D01*
X16243095Y-11484476D01*
X16281190Y-11484476D01*
X16300238Y-11474952D01*
X16309762Y-11465428D01*
X16319286Y-11446381D01*
X16319286Y-11408286D01*
X16309762Y-11389238D01*
X16300238Y-11379714D01*
X16281190Y-11370190D01*
X16395476Y-11284476D02*
X16395476Y-11322571D01*
X16471667Y-11284476D02*
X16471667Y-11322571D01*
X16766905Y-11560667D02*
X16757381Y-11551143D01*
X16738333Y-11522571D01*
X16728809Y-11503524D01*
X16719286Y-11474952D01*
X16709762Y-11427333D01*
X16709762Y-11389238D01*
X16719286Y-11341619D01*
X16728809Y-11313048D01*
X16738333Y-11294000D01*
X16757381Y-11265428D01*
X16766905Y-11255905D01*
X16871667Y-11370190D02*
X16852619Y-11360667D01*
X16843095Y-11351143D01*
X16833571Y-11332095D01*
X16833571Y-11322571D01*
X16843095Y-11303524D01*
X16852619Y-11294000D01*
X16871667Y-11284476D01*
X16909762Y-11284476D01*
X16928810Y-11294000D01*
X16938333Y-11303524D01*
X16947857Y-11322571D01*
X16947857Y-11332095D01*
X16938333Y-11351143D01*
X16928810Y-11360667D01*
X16909762Y-11370190D01*
X16871667Y-11370190D01*
X16852619Y-11379714D01*
X16843095Y-11389238D01*
X16833571Y-11408286D01*
X16833571Y-11446381D01*
X16843095Y-11465428D01*
X16852619Y-11474952D01*
X16871667Y-11484476D01*
X16909762Y-11484476D01*
X16928810Y-11474952D01*
X16938333Y-11465428D01*
X16947857Y-11446381D01*
X16947857Y-11408286D01*
X16938333Y-11389238D01*
X16928810Y-11379714D01*
X16909762Y-11370190D01*
X17185952Y-11484476D02*
X17185952Y-11284476D01*
X17271667Y-11484476D02*
X17271667Y-11379714D01*
X17262143Y-11360667D01*
X17243095Y-11351143D01*
X17214524Y-11351143D01*
X17195476Y-11360667D01*
X17185952Y-11370190D01*
X17395476Y-11484476D02*
X17376429Y-11474952D01*
X17366905Y-11465428D01*
X17357381Y-11446381D01*
X17357381Y-11389238D01*
X17366905Y-11370190D01*
X17376429Y-11360667D01*
X17395476Y-11351143D01*
X17424048Y-11351143D01*
X17443095Y-11360667D01*
X17452619Y-11370190D01*
X17462143Y-11389238D01*
X17462143Y-11446381D01*
X17452619Y-11465428D01*
X17443095Y-11474952D01*
X17424048Y-11484476D01*
X17395476Y-11484476D01*
X17576429Y-11484476D02*
X17557381Y-11474952D01*
X17547857Y-11455905D01*
X17547857Y-11284476D01*
X17728810Y-11474952D02*
X17709762Y-11484476D01*
X17671667Y-11484476D01*
X17652619Y-11474952D01*
X17643095Y-11455905D01*
X17643095Y-11379714D01*
X17652619Y-11360667D01*
X17671667Y-11351143D01*
X17709762Y-11351143D01*
X17728810Y-11360667D01*
X17738333Y-11379714D01*
X17738333Y-11398762D01*
X17643095Y-11417809D01*
X17814524Y-11474952D02*
X17833571Y-11484476D01*
X17871667Y-11484476D01*
X17890714Y-11474952D01*
X17900238Y-11455905D01*
X17900238Y-11446381D01*
X17890714Y-11427333D01*
X17871667Y-11417809D01*
X17843095Y-11417809D01*
X17824048Y-11408286D01*
X17814524Y-11389238D01*
X17814524Y-11379714D01*
X17824048Y-11360667D01*
X17843095Y-11351143D01*
X17871667Y-11351143D01*
X17890714Y-11360667D01*
X17966905Y-11560667D02*
X17976429Y-11551143D01*
X17995476Y-11522571D01*
X18005000Y-11503524D01*
X18014524Y-11474952D01*
X18024048Y-11427333D01*
X18024048Y-11389238D01*
X18014524Y-11341619D01*
X18005000Y-11313048D01*
X17995476Y-11294000D01*
X17976429Y-11265428D01*
X17966905Y-11255905D01*
M02*
