%TF.GenerationSoftware,KiCad,Pcbnew,(6.0.0)*%
%TF.CreationDate,2022-03-16T00:12:01-04:00*%
%TF.ProjectId,OBD2PowerBreakOut_rev1,4f424432-506f-4776-9572-427265616b4f,rev?*%
%TF.SameCoordinates,Original*%
%TF.FileFunction,Copper,L1,Top*%
%TF.FilePolarity,Positive*%
%FSLAX46Y46*%
G04 Gerber Fmt 4.6, Leading zero omitted, Abs format (unit mm)*
G04 Created by KiCad (PCBNEW (6.0.0)) date 2022-03-16 00:12:01*
%MOMM*%
%LPD*%
G01*
G04 APERTURE LIST*
G04 Aperture macros list*
%AMRoundRect*
0 Rectangle with rounded corners*
0 $1 Rounding radius*
0 $2 $3 $4 $5 $6 $7 $8 $9 X,Y pos of 4 corners*
0 Add a 4 corners polygon primitive as box body*
4,1,4,$2,$3,$4,$5,$6,$7,$8,$9,$2,$3,0*
0 Add four circle primitives for the rounded corners*
1,1,$1+$1,$2,$3*
1,1,$1+$1,$4,$5*
1,1,$1+$1,$6,$7*
1,1,$1+$1,$8,$9*
0 Add four rect primitives between the rounded corners*
20,1,$1+$1,$2,$3,$4,$5,0*
20,1,$1+$1,$4,$5,$6,$7,0*
20,1,$1+$1,$6,$7,$8,$9,0*
20,1,$1+$1,$8,$9,$2,$3,0*%
G04 Aperture macros list end*
%TA.AperFunction,ComponentPad*%
%ADD10R,1.700000X1.700000*%
%TD*%
%TA.AperFunction,ComponentPad*%
%ADD11O,1.700000X1.700000*%
%TD*%
%TA.AperFunction,ComponentPad*%
%ADD12C,1.400000*%
%TD*%
%TA.AperFunction,ComponentPad*%
%ADD13R,3.500000X3.500000*%
%TD*%
%TA.AperFunction,ComponentPad*%
%ADD14C,3.500000*%
%TD*%
%TA.AperFunction,ComponentPad*%
%ADD15C,2.650000*%
%TD*%
%TA.AperFunction,SMDPad,CuDef*%
%ADD16RoundRect,0.250000X0.450000X-0.350000X0.450000X0.350000X-0.450000X0.350000X-0.450000X-0.350000X0*%
%TD*%
%TA.AperFunction,SMDPad,CuDef*%
%ADD17RoundRect,0.250000X0.450000X-0.325000X0.450000X0.325000X-0.450000X0.325000X-0.450000X-0.325000X0*%
%TD*%
%TA.AperFunction,Conductor*%
%ADD18C,0.300000*%
%TD*%
%TA.AperFunction,Conductor*%
%ADD19C,2.000000*%
%TD*%
%TA.AperFunction,Conductor*%
%ADD20C,1.000000*%
%TD*%
%TA.AperFunction,Conductor*%
%ADD21C,0.250000*%
%TD*%
G04 APERTURE END LIST*
D10*
%TO.P,J5,1,Pin_1*%
%TO.N,/1_vendor*%
X137922000Y-72405000D03*
D11*
%TO.P,J5,2,Pin_2*%
%TO.N,/2_SAEJ1850_Bus+*%
X140462000Y-72405000D03*
%TO.P,J5,3,Pin_3*%
%TO.N,/3_vendor*%
X137922000Y-74945000D03*
%TO.P,J5,4,Pin_4*%
%TO.N,Earth*%
X140462000Y-74945000D03*
%TO.P,J5,5,Pin_5*%
%TO.N,GND*%
X137922000Y-77485000D03*
%TO.P,J5,6,Pin_6*%
%TO.N,/6_ISO15765-4_CAN_HIGH*%
X140462000Y-77485000D03*
%TO.P,J5,7,Pin_7*%
%TO.N,/7_ISO9141_K-Line*%
X137922000Y-80025000D03*
%TO.P,J5,8,Pin_8*%
%TO.N,/8_vendor*%
X140462000Y-80025000D03*
%TO.P,J5,9,Pin_9*%
%TO.N,/9_vendor*%
X137922000Y-82565000D03*
%TO.P,J5,10,Pin_10*%
%TO.N,/10_SAEJ1850_Bus-*%
X140462000Y-82565000D03*
%TO.P,J5,11,Pin_11*%
%TO.N,/11_vendor*%
X137922000Y-85105000D03*
%TO.P,J5,12,Pin_12*%
%TO.N,/12_vendor*%
X140462000Y-85105000D03*
%TO.P,J5,13,Pin_13*%
%TO.N,/13_vendor*%
X137922000Y-87645000D03*
%TO.P,J5,14,Pin_14*%
%TO.N,/14_ISO15765-4_CAN_LOW*%
X140462000Y-87645000D03*
%TO.P,J5,15,Pin_15*%
%TO.N,/15_ISO9141_L-Line*%
X137922000Y-90185000D03*
%TO.P,J5,16,Pin_16*%
%TO.N,/16_12V*%
X140462000Y-90185000D03*
%TD*%
D12*
%TO.P,J1,*%
%TO.N,*%
X177800000Y-44300000D03*
X177800000Y-33300000D03*
D13*
%TO.P,J1,1,Pin_1*%
%TO.N,Earth*%
X167800000Y-41300000D03*
D14*
%TO.P,J1,2,Pin_2*%
%TO.N,Net-(F1-Pad1)*%
X167800000Y-36300000D03*
%TD*%
D12*
%TO.P,J3,*%
%TO.N,*%
X177800000Y-75200000D03*
X177800000Y-64200000D03*
D13*
%TO.P,J3,1,Pin_1*%
%TO.N,Earth*%
X167800000Y-72200000D03*
D14*
%TO.P,J3,2,Pin_2*%
%TO.N,Net-(F3-Pad1)*%
X167800000Y-67200000D03*
%TD*%
D12*
%TO.P,J2,*%
%TO.N,*%
X177800000Y-59800000D03*
X177800000Y-48800000D03*
D13*
%TO.P,J2,1,Pin_1*%
%TO.N,Earth*%
X167800000Y-56800000D03*
D14*
%TO.P,J2,2,Pin_2*%
%TO.N,Net-(F2-Pad1)*%
X167800000Y-51800000D03*
%TD*%
D12*
%TO.P,J4,*%
%TO.N,*%
X177800000Y-90800000D03*
X177800000Y-79800000D03*
D13*
%TO.P,J4,1,Pin_1*%
%TO.N,Earth*%
X167800000Y-87800000D03*
D14*
%TO.P,J4,2,Pin_2*%
%TO.N,Net-(F4-Pad1)*%
X167800000Y-82800000D03*
%TD*%
D11*
%TO.P,J6,14,Pin_14*%
%TO.N,/ACC*%
X140965000Y-49779000D03*
%TO.P,J6,13,Pin_13*%
%TO.N,/13_vendor*%
X138425000Y-49779000D03*
%TO.P,J6,12,Pin_12*%
%TO.N,/ACC*%
X140965000Y-47239000D03*
%TO.P,J6,11,Pin_11*%
%TO.N,/12_vendor*%
X138425000Y-47239000D03*
%TO.P,J6,10,Pin_10*%
%TO.N,/ACC*%
X140965000Y-44699000D03*
%TO.P,J6,9,Pin_9*%
%TO.N,/11_vendor*%
X138425000Y-44699000D03*
%TO.P,J6,8,Pin_8*%
%TO.N,/ACC*%
X140965000Y-42159000D03*
%TO.P,J6,7,Pin_7*%
%TO.N,/9_vendor*%
X138425000Y-42159000D03*
%TO.P,J6,6,Pin_6*%
%TO.N,/ACC*%
X140965000Y-39619000D03*
%TO.P,J6,5,Pin_5*%
%TO.N,/8_vendor*%
X138425000Y-39619000D03*
%TO.P,J6,4,Pin_4*%
%TO.N,/ACC*%
X140965000Y-37079000D03*
%TO.P,J6,3,Pin_3*%
%TO.N,/3_vendor*%
X138425000Y-37079000D03*
%TO.P,J6,2,Pin_2*%
%TO.N,/ACC*%
X140965000Y-34539000D03*
D10*
%TO.P,J6,1,Pin_1*%
%TO.N,/1_vendor*%
X138425000Y-34539000D03*
%TD*%
D15*
%TO.P,F1,1*%
%TO.N,Net-(F1-Pad1)*%
X161435000Y-37400000D03*
X161435000Y-34000000D03*
%TO.P,F1,2*%
%TO.N,Net-(F1-Pad2)*%
X147965000Y-34000000D03*
X147965000Y-37400000D03*
%TD*%
%TO.P,F4,1*%
%TO.N,Net-(F4-Pad1)*%
X161421000Y-83900000D03*
X161421000Y-80500000D03*
%TO.P,F4,2*%
%TO.N,Net-(F4-Pad2)*%
X147951000Y-80500000D03*
X147951000Y-83900000D03*
%TD*%
%TO.P,F3,1*%
%TO.N,Net-(F3-Pad1)*%
X161435000Y-68300000D03*
X161435000Y-64900000D03*
%TO.P,F3,2*%
%TO.N,Net-(F3-Pad2)*%
X147965000Y-64900000D03*
X147965000Y-68300000D03*
%TD*%
%TO.P,F2,1*%
%TO.N,Net-(F2-Pad1)*%
X161435000Y-52900000D03*
X161435000Y-49500000D03*
%TO.P,F2,2*%
%TO.N,Net-(F2-Pad2)*%
X147965000Y-49500000D03*
X147965000Y-52900000D03*
%TD*%
D10*
%TO.P,JP2,1,A*%
%TO.N,/16_12V*%
X148400000Y-59100000D03*
D11*
%TO.P,JP2,2,C*%
%TO.N,Net-(F2-Pad2)*%
X150940000Y-59100000D03*
%TO.P,JP2,3,B*%
%TO.N,/ACC*%
X153480000Y-59100000D03*
%TD*%
D16*
%TO.P,R2,1*%
%TO.N,Net-(F2-Pad1)*%
X162800000Y-59800000D03*
%TO.P,R2,2*%
%TO.N,Net-(D2-Pad2)*%
X162800000Y-57800000D03*
%TD*%
D10*
%TO.P,JP1,1,A*%
%TO.N,/16_12V*%
X148400000Y-43600000D03*
D11*
%TO.P,JP1,2,C*%
%TO.N,Net-(F1-Pad2)*%
X150940000Y-43600000D03*
%TO.P,JP1,3,B*%
%TO.N,/ACC*%
X153480000Y-43600000D03*
%TD*%
D10*
%TO.P,JP3,1,A*%
%TO.N,/16_12V*%
X148400000Y-74500000D03*
D11*
%TO.P,JP3,2,C*%
%TO.N,Net-(F3-Pad2)*%
X150940000Y-74500000D03*
%TO.P,JP3,3,B*%
%TO.N,/ACC*%
X153480000Y-74500000D03*
%TD*%
D17*
%TO.P,D3,1,K*%
%TO.N,Earth*%
X158200000Y-75225000D03*
%TO.P,D3,2,A*%
%TO.N,Net-(D3-Pad2)*%
X158200000Y-73175000D03*
%TD*%
D16*
%TO.P,R3,1*%
%TO.N,Net-(F3-Pad1)*%
X162800000Y-75200000D03*
%TO.P,R3,2*%
%TO.N,Net-(D3-Pad2)*%
X162800000Y-73200000D03*
%TD*%
D17*
%TO.P,D1,1,K*%
%TO.N,Earth*%
X158200000Y-44325000D03*
%TO.P,D1,2,A*%
%TO.N,Net-(D1-Pad2)*%
X158200000Y-42275000D03*
%TD*%
%TO.P,D2,1,K*%
%TO.N,Earth*%
X158200000Y-59825000D03*
%TO.P,D2,2,A*%
%TO.N,Net-(D2-Pad2)*%
X158200000Y-57775000D03*
%TD*%
D16*
%TO.P,R4,1*%
%TO.N,Net-(F4-Pad1)*%
X162800000Y-90800000D03*
%TO.P,R4,2*%
%TO.N,Net-(D4-Pad2)*%
X162800000Y-88800000D03*
%TD*%
%TO.P,R1,1*%
%TO.N,Net-(F1-Pad1)*%
X162800000Y-44300000D03*
%TO.P,R1,2*%
%TO.N,Net-(D1-Pad2)*%
X162800000Y-42300000D03*
%TD*%
D10*
%TO.P,JP4,1,A*%
%TO.N,/16_12V*%
X148400000Y-90100000D03*
D11*
%TO.P,JP4,2,C*%
%TO.N,Net-(F4-Pad2)*%
X150940000Y-90100000D03*
%TO.P,JP4,3,B*%
%TO.N,/ACC*%
X153480000Y-90100000D03*
%TD*%
D17*
%TO.P,D4,1,K*%
%TO.N,Earth*%
X158200000Y-90825000D03*
%TO.P,D4,2,A*%
%TO.N,Net-(D4-Pad2)*%
X158200000Y-88775000D03*
%TD*%
D18*
%TO.N,/3_vendor*%
X136144000Y-73914000D02*
X137170000Y-74940000D01*
X136144000Y-70104000D02*
X136144000Y-73914000D01*
X139299511Y-66948489D02*
X136144000Y-70104000D01*
X139299511Y-59035511D02*
X139299511Y-66948489D01*
X137200489Y-49243145D02*
X137200489Y-56936489D01*
X138896855Y-48540489D02*
X137903145Y-48540489D01*
X139700000Y-47737344D02*
X138896855Y-48540489D01*
X137200489Y-56936489D02*
X139299511Y-59035511D01*
X139700000Y-38340000D02*
X139700000Y-47737344D01*
X137170000Y-74940000D02*
X138100000Y-74940000D01*
X137903145Y-48540489D02*
X137200489Y-49243145D01*
X138400000Y-37040000D02*
X139700000Y-38340000D01*
%TO.N,/1_vendor*%
X138400000Y-35336000D02*
X138400000Y-34500000D01*
X133002479Y-40733521D02*
X138400000Y-35336000D01*
X133002479Y-80424479D02*
X133002479Y-40733521D01*
X139262489Y-74448145D02*
X139262489Y-83495511D01*
X136398000Y-83820000D02*
X133002479Y-80424479D01*
X139440489Y-74270145D02*
X139262489Y-74448145D01*
X138938000Y-83820000D02*
X136398000Y-83820000D01*
X138100000Y-72400000D02*
X139440489Y-73740489D01*
X139440489Y-73740489D02*
X139440489Y-74270145D01*
X139262489Y-83495511D02*
X138938000Y-83820000D01*
D19*
%TO.N,/16_12V*%
X146724000Y-43600000D02*
X148400000Y-43600000D01*
X144780000Y-41656000D02*
X146724000Y-43600000D01*
X144780000Y-32004000D02*
X144780000Y-41656000D01*
X146050000Y-30734000D02*
X144780000Y-32004000D01*
X173228000Y-34798000D02*
X169164000Y-30734000D01*
X173228000Y-91186000D02*
X173228000Y-34798000D01*
X170942000Y-93472000D02*
X173228000Y-91186000D01*
X145034000Y-93472000D02*
X170942000Y-93472000D01*
X169164000Y-30734000D02*
X146050000Y-30734000D01*
X144526000Y-90190000D02*
X144526000Y-92964000D01*
X144526000Y-92964000D02*
X145034000Y-93472000D01*
X144536000Y-90180000D02*
X144526000Y-90190000D01*
%TO.N,Net-(F4-Pad2)*%
X150940000Y-86875000D02*
X150940000Y-90100000D01*
X147965000Y-83900000D02*
X150940000Y-86875000D01*
X147965000Y-80500000D02*
X147965000Y-83900000D01*
%TO.N,Net-(F4-Pad1)*%
X165500000Y-80500000D02*
X167800000Y-82800000D01*
X161435000Y-80500000D02*
X165500000Y-80500000D01*
X161435000Y-80500000D02*
X161435000Y-83900000D01*
%TO.N,Net-(F3-Pad1)*%
X165500000Y-64900000D02*
X167800000Y-67200000D01*
X161435000Y-64900000D02*
X165500000Y-64900000D01*
X161435000Y-64900000D02*
X161435000Y-68300000D01*
%TO.N,Net-(F3-Pad2)*%
X150940000Y-71275000D02*
X150940000Y-74500000D01*
X147965000Y-68300000D02*
X150940000Y-71275000D01*
X147965000Y-64900000D02*
X147965000Y-68300000D01*
%TO.N,Net-(F2-Pad2)*%
X150940000Y-55875000D02*
X150940000Y-59100000D01*
X147965000Y-52900000D02*
X150940000Y-55875000D01*
%TO.N,Net-(F2-Pad1)*%
X161435000Y-49500000D02*
X165500000Y-49500000D01*
X161435000Y-49500000D02*
X161435000Y-52900000D01*
%TO.N,Net-(F2-Pad2)*%
X147965000Y-49500000D02*
X147965000Y-52900000D01*
%TO.N,Net-(F1-Pad2)*%
X150940000Y-40375000D02*
X150940000Y-43600000D01*
X147965000Y-37400000D02*
X150940000Y-40375000D01*
%TO.N,Net-(F1-Pad1)*%
X161435000Y-34000000D02*
X165500000Y-34000000D01*
X161435000Y-34000000D02*
X161435000Y-37400000D01*
%TO.N,Net-(F1-Pad2)*%
X147965000Y-34000000D02*
X147965000Y-37400000D01*
%TO.N,/16_12V*%
X147910000Y-59100000D02*
X144536000Y-62474000D01*
X148400000Y-59100000D02*
X147910000Y-59100000D01*
X144536000Y-62474000D02*
X144536000Y-78222000D01*
D18*
%TO.N,/9_vendor*%
X136070000Y-58092000D02*
X136070000Y-44450000D01*
X137922000Y-66040000D02*
X137922000Y-59944000D01*
X137922000Y-59944000D02*
X136070000Y-58092000D01*
X134874000Y-69088000D02*
X137922000Y-66040000D01*
X138100000Y-82560000D02*
X134874000Y-79334000D01*
X134874000Y-79334000D02*
X134874000Y-69088000D01*
X136070000Y-44450000D02*
X138400000Y-42120000D01*
D19*
%TO.N,/16_12V*%
X144536000Y-76190000D02*
X144536000Y-78222000D01*
X144536000Y-78222000D02*
X144536000Y-90180000D01*
X146226000Y-74500000D02*
X144536000Y-76190000D01*
X148400000Y-74500000D02*
X146226000Y-74500000D01*
D20*
%TO.N,Earth*%
X158132176Y-59825000D02*
X156800480Y-58493304D01*
X158200000Y-59825000D02*
X158132176Y-59825000D01*
X157629176Y-71628000D02*
X167228000Y-71628000D01*
X157355520Y-87500480D02*
X167500480Y-87500480D01*
X158132176Y-44325000D02*
X156800480Y-42993304D01*
X156800480Y-42993304D02*
X156800480Y-41319520D01*
X158200000Y-44325000D02*
X158132176Y-44325000D01*
X167500480Y-56500480D02*
X167800000Y-56800000D01*
X156800480Y-57056696D02*
X157356696Y-56500480D01*
X156800480Y-89493304D02*
X156800480Y-88055520D01*
X157356696Y-56500480D02*
X167500480Y-56500480D01*
X167500480Y-41000480D02*
X167800000Y-41300000D01*
X156800480Y-72456696D02*
X157629176Y-71628000D01*
X167500480Y-87500480D02*
X167800000Y-87800000D01*
X158132176Y-75225000D02*
X156800480Y-73893304D01*
X158200000Y-75225000D02*
X158132176Y-75225000D01*
X157119520Y-41000480D02*
X167500480Y-41000480D01*
X167228000Y-71628000D02*
X167800000Y-72200000D01*
X156800480Y-88055520D02*
X157355520Y-87500480D01*
X156800480Y-58493304D02*
X156800480Y-57056696D01*
X158132176Y-90825000D02*
X156800480Y-89493304D01*
X156800480Y-41319520D02*
X157119520Y-41000480D01*
X156800480Y-73893304D02*
X156800480Y-72456696D01*
X158200000Y-90825000D02*
X158132176Y-90825000D01*
%TO.N,Net-(D1-Pad2)*%
X158225000Y-42300000D02*
X158200000Y-42275000D01*
X162800000Y-42300000D02*
X158225000Y-42300000D01*
%TO.N,Net-(D2-Pad2)*%
X162775000Y-57775000D02*
X162800000Y-57800000D01*
X158200000Y-57775000D02*
X162775000Y-57775000D01*
%TO.N,Net-(D3-Pad2)*%
X158200000Y-73175000D02*
X162775000Y-73175000D01*
X162775000Y-73175000D02*
X162800000Y-73200000D01*
%TO.N,Net-(D4-Pad2)*%
X158200000Y-88775000D02*
X162775000Y-88775000D01*
X162775000Y-88775000D02*
X162800000Y-88800000D01*
%TO.N,Net-(F1-Pad1)*%
X169699022Y-44300000D02*
X170249511Y-43749511D01*
D19*
X165500000Y-34000000D02*
X167800000Y-36300000D01*
D20*
X162800000Y-44300000D02*
X169699022Y-44300000D01*
X170249511Y-43749511D02*
X170249511Y-38749511D01*
X170249511Y-38749511D02*
X167800000Y-36300000D01*
%TO.N,Net-(F2-Pad1)*%
X169699022Y-59800000D02*
X170249511Y-59249511D01*
X170249511Y-54249511D02*
X167800000Y-51800000D01*
X162800000Y-59800000D02*
X169699022Y-59800000D01*
D19*
X165500000Y-49500000D02*
X167800000Y-51800000D01*
D20*
X170249511Y-59249511D02*
X170249511Y-54249511D01*
%TO.N,Net-(F3-Pad1)*%
X162800000Y-75200000D02*
X169699022Y-75200000D01*
X170249511Y-74649511D02*
X170249511Y-69649511D01*
X170249511Y-69649511D02*
X167800000Y-67200000D01*
X169699022Y-75200000D02*
X170249511Y-74649511D01*
%TO.N,Net-(F4-Pad1)*%
X170249511Y-90249511D02*
X170249511Y-85249511D01*
X170249511Y-85249511D02*
X167800000Y-82800000D01*
X169699022Y-90800000D02*
X170249511Y-90249511D01*
X162800000Y-90800000D02*
X169699022Y-90800000D01*
D19*
%TO.N,/16_12V*%
X148320000Y-90180000D02*
X148400000Y-90100000D01*
X144536000Y-90180000D02*
X148320000Y-90180000D01*
X140640000Y-90180000D02*
X144536000Y-90180000D01*
%TO.N,/ACC*%
X153480000Y-43600000D02*
X153480000Y-46292000D01*
D21*
X140940000Y-44660000D02*
X140940000Y-46258000D01*
D19*
X142430000Y-46292000D02*
X142430000Y-48250000D01*
D21*
X140940000Y-40864000D02*
X140940000Y-42120000D01*
D19*
X153480000Y-46292000D02*
X142430000Y-46292000D01*
X153480000Y-59100000D02*
X153480000Y-74500000D01*
D21*
X140940000Y-42120000D02*
X140940000Y-44660000D01*
D19*
X142430000Y-48250000D02*
X140940000Y-49740000D01*
D21*
X140940000Y-47200000D02*
X140940000Y-49740000D01*
D19*
X153480000Y-46292000D02*
X153480000Y-59100000D01*
X153480000Y-74500000D02*
X153480000Y-90100000D01*
D21*
X140940000Y-34500000D02*
X140940000Y-37040000D01*
X140940000Y-37040000D02*
X140940000Y-39580000D01*
D19*
X142430000Y-35990000D02*
X140940000Y-34500000D01*
D21*
X140940000Y-39580000D02*
X140940000Y-40864000D01*
D19*
X142430000Y-46292000D02*
X142430000Y-35990000D01*
D21*
X140940000Y-46258000D02*
X140940000Y-47200000D01*
%TD*%
%TA.AperFunction,Conductor*%
%TO.N,Earth*%
G36*
X160415786Y-32262502D02*
G01*
X160462279Y-32316158D01*
X160472383Y-32386432D01*
X160442889Y-32451012D01*
X160420923Y-32471015D01*
X160263298Y-32583656D01*
X160075423Y-32762880D01*
X159914675Y-32966788D01*
X159912443Y-32970630D01*
X159912440Y-32970635D01*
X159786499Y-33187457D01*
X159786496Y-33187464D01*
X159784261Y-33191311D01*
X159761406Y-33247738D01*
X159688457Y-33427838D01*
X159688454Y-33427846D01*
X159686784Y-33431970D01*
X159624189Y-33683963D01*
X159597724Y-33942261D01*
X159597899Y-33946713D01*
X159606876Y-34175182D01*
X159607918Y-34201712D01*
X159654567Y-34457138D01*
X159736740Y-34703442D01*
X159738730Y-34707425D01*
X159738731Y-34707427D01*
X159815039Y-34860141D01*
X159852799Y-34935711D01*
X159855326Y-34939367D01*
X159855327Y-34939369D01*
X159904153Y-35010014D01*
X159926500Y-35081653D01*
X159926500Y-36312491D01*
X159909454Y-36375776D01*
X159875147Y-36434840D01*
X159786499Y-36587457D01*
X159786496Y-36587464D01*
X159784261Y-36591311D01*
X159764685Y-36639643D01*
X159688457Y-36827838D01*
X159688454Y-36827846D01*
X159686784Y-36831970D01*
X159624189Y-37083963D01*
X159597724Y-37342261D01*
X159597899Y-37346713D01*
X159604653Y-37518602D01*
X159607918Y-37601712D01*
X159654567Y-37857138D01*
X159736740Y-38103442D01*
X159738730Y-38107425D01*
X159738731Y-38107427D01*
X159825587Y-38281251D01*
X159852799Y-38335711D01*
X159855326Y-38339367D01*
X159855327Y-38339369D01*
X159971852Y-38507967D01*
X160000426Y-38549310D01*
X160176677Y-38739978D01*
X160180131Y-38742790D01*
X160374578Y-38901095D01*
X160374582Y-38901098D01*
X160378035Y-38903909D01*
X160600482Y-39037833D01*
X160604577Y-39039567D01*
X160604579Y-39039568D01*
X160835480Y-39137342D01*
X160835487Y-39137344D01*
X160839581Y-39139078D01*
X161090559Y-39205624D01*
X161094983Y-39206148D01*
X161094985Y-39206148D01*
X161198416Y-39218389D01*
X161348410Y-39236142D01*
X161607988Y-39230025D01*
X161612384Y-39229293D01*
X161612387Y-39229293D01*
X161859713Y-39188127D01*
X161859717Y-39188126D01*
X161864115Y-39187394D01*
X162111680Y-39109099D01*
X162345744Y-38996704D01*
X162379914Y-38973872D01*
X162557927Y-38854928D01*
X162557931Y-38854925D01*
X162561635Y-38852450D01*
X162564952Y-38849479D01*
X162564956Y-38849476D01*
X162751730Y-38682187D01*
X162751731Y-38682186D01*
X162755048Y-38679215D01*
X162922121Y-38480457D01*
X163059523Y-38260141D01*
X163086617Y-38198857D01*
X163162713Y-38026729D01*
X163164511Y-38022662D01*
X163234991Y-37772760D01*
X163245621Y-37693616D01*
X163269129Y-37518602D01*
X163269130Y-37518594D01*
X163269556Y-37515420D01*
X163273183Y-37400000D01*
X163254845Y-37140998D01*
X163243521Y-37088397D01*
X163201132Y-36891510D01*
X163201132Y-36891508D01*
X163200196Y-36887163D01*
X163110326Y-36643561D01*
X162987029Y-36415052D01*
X162968149Y-36389491D01*
X162943766Y-36322813D01*
X162943500Y-36314631D01*
X162943500Y-35634500D01*
X162963502Y-35566379D01*
X163017158Y-35519886D01*
X163069500Y-35508500D01*
X164822969Y-35508500D01*
X164891090Y-35528502D01*
X164912064Y-35545405D01*
X165504282Y-36137623D01*
X165538308Y-36199935D01*
X165540917Y-36234959D01*
X165540110Y-36247277D01*
X165536654Y-36300000D01*
X165536924Y-36304119D01*
X165555495Y-36587457D01*
X165556017Y-36595426D01*
X165556819Y-36599459D01*
X165556820Y-36599465D01*
X165602247Y-36827838D01*
X165613776Y-36885797D01*
X165615103Y-36889706D01*
X165615104Y-36889710D01*
X165698925Y-37136640D01*
X165708941Y-37166145D01*
X165710765Y-37169843D01*
X165825855Y-37403222D01*
X165839885Y-37431673D01*
X165842179Y-37435106D01*
X165970047Y-37626474D01*
X166004367Y-37677838D01*
X166007081Y-37680932D01*
X166007085Y-37680938D01*
X166157768Y-37852758D01*
X166199573Y-37900427D01*
X166202662Y-37903136D01*
X166419062Y-38092915D01*
X166419068Y-38092919D01*
X166422162Y-38095633D01*
X166425588Y-38097922D01*
X166425593Y-38097926D01*
X166568514Y-38193422D01*
X166668327Y-38260115D01*
X166672026Y-38261939D01*
X166672031Y-38261942D01*
X166808313Y-38329148D01*
X166933855Y-38391059D01*
X166937760Y-38392384D01*
X166937761Y-38392385D01*
X167210290Y-38484896D01*
X167210294Y-38484897D01*
X167214203Y-38486224D01*
X167218247Y-38487028D01*
X167218253Y-38487030D01*
X167500535Y-38543180D01*
X167500541Y-38543181D01*
X167504574Y-38543983D01*
X167508679Y-38544252D01*
X167508686Y-38544253D01*
X167795881Y-38563076D01*
X167800000Y-38563346D01*
X167804119Y-38563076D01*
X168091314Y-38544253D01*
X168091321Y-38544252D01*
X168095426Y-38543983D01*
X168099459Y-38543181D01*
X168099465Y-38543180D01*
X168381747Y-38487030D01*
X168381753Y-38487028D01*
X168385797Y-38486224D01*
X168389702Y-38484898D01*
X168389711Y-38484896D01*
X168441652Y-38467264D01*
X168512587Y-38464308D01*
X168571248Y-38497482D01*
X168900671Y-38826905D01*
X168934697Y-38889217D01*
X168929632Y-38960032D01*
X168887085Y-39016868D01*
X168820565Y-39041679D01*
X168811576Y-39042000D01*
X168072115Y-39042000D01*
X168056876Y-39046475D01*
X168055671Y-39047865D01*
X168054000Y-39055548D01*
X168054000Y-41428000D01*
X168033998Y-41496121D01*
X167980342Y-41542614D01*
X167928000Y-41554000D01*
X165560116Y-41554000D01*
X165544877Y-41558475D01*
X165543672Y-41559865D01*
X165542001Y-41567548D01*
X165542001Y-43094669D01*
X165542371Y-43101491D01*
X165547845Y-43151895D01*
X165535316Y-43221777D01*
X165486994Y-43273792D01*
X165422582Y-43291500D01*
X163971309Y-43291500D01*
X163903188Y-43271498D01*
X163856695Y-43217842D01*
X163846591Y-43147568D01*
X163864049Y-43099384D01*
X163938275Y-42978968D01*
X163938276Y-42978966D01*
X163942115Y-42972738D01*
X163997797Y-42804861D01*
X164008500Y-42700400D01*
X164008500Y-41899600D01*
X163997526Y-41793834D01*
X163941550Y-41626054D01*
X163848478Y-41475652D01*
X163723303Y-41350695D01*
X163636845Y-41297401D01*
X163578968Y-41261725D01*
X163578966Y-41261724D01*
X163572738Y-41257885D01*
X163412254Y-41204655D01*
X163411389Y-41204368D01*
X163411387Y-41204368D01*
X163404861Y-41202203D01*
X163398025Y-41201503D01*
X163398022Y-41201502D01*
X163354969Y-41197091D01*
X163300400Y-41191500D01*
X162299600Y-41191500D01*
X162296354Y-41191837D01*
X162296350Y-41191837D01*
X162200692Y-41201762D01*
X162200688Y-41201763D01*
X162193834Y-41202474D01*
X162187298Y-41204655D01*
X162187296Y-41204655D01*
X162055194Y-41248728D01*
X162026054Y-41258450D01*
X162019826Y-41262304D01*
X162019824Y-41262305D01*
X162003117Y-41272644D01*
X161936814Y-41291500D01*
X159062985Y-41291500D01*
X158996868Y-41272759D01*
X158978970Y-41261726D01*
X158978967Y-41261724D01*
X158972738Y-41257885D01*
X158812254Y-41204655D01*
X158811389Y-41204368D01*
X158811387Y-41204368D01*
X158804861Y-41202203D01*
X158798025Y-41201503D01*
X158798022Y-41201502D01*
X158754969Y-41197091D01*
X158700400Y-41191500D01*
X157699600Y-41191500D01*
X157696354Y-41191837D01*
X157696350Y-41191837D01*
X157600692Y-41201762D01*
X157600688Y-41201763D01*
X157593834Y-41202474D01*
X157587298Y-41204655D01*
X157587296Y-41204655D01*
X157455194Y-41248728D01*
X157426054Y-41258450D01*
X157275652Y-41351522D01*
X157150695Y-41476697D01*
X157146855Y-41482927D01*
X157146854Y-41482928D01*
X157103045Y-41554000D01*
X157057885Y-41627262D01*
X157002203Y-41795139D01*
X156991500Y-41899600D01*
X156991500Y-42650400D01*
X156991837Y-42653646D01*
X156991837Y-42653650D01*
X156997020Y-42703598D01*
X157002474Y-42756166D01*
X157058450Y-42923946D01*
X157151522Y-43074348D01*
X157156704Y-43079521D01*
X157194888Y-43117638D01*
X157276697Y-43199305D01*
X157281235Y-43202102D01*
X157321824Y-43259353D01*
X157325054Y-43330276D01*
X157289428Y-43391687D01*
X157280932Y-43399062D01*
X157270793Y-43407098D01*
X157156261Y-43521829D01*
X157147249Y-43533240D01*
X157062184Y-43671243D01*
X157056037Y-43684424D01*
X157004862Y-43838710D01*
X157001995Y-43852086D01*
X156992328Y-43946438D01*
X156992000Y-43952855D01*
X156992000Y-44052885D01*
X156996475Y-44068124D01*
X156997865Y-44069329D01*
X157005548Y-44071000D01*
X159389884Y-44071000D01*
X159405123Y-44066525D01*
X159406328Y-44065135D01*
X159407999Y-44057452D01*
X159407999Y-43952905D01*
X159407662Y-43946386D01*
X159397743Y-43850794D01*
X159394851Y-43837400D01*
X159343412Y-43683216D01*
X159337239Y-43670038D01*
X159251937Y-43532193D01*
X159238354Y-43515055D01*
X159240249Y-43513553D01*
X159211708Y-43461391D01*
X159216711Y-43390570D01*
X159259208Y-43333698D01*
X159325707Y-43308829D01*
X159334805Y-43308500D01*
X161628691Y-43308500D01*
X161696812Y-43328502D01*
X161743305Y-43382158D01*
X161753409Y-43452432D01*
X161735951Y-43500616D01*
X161710739Y-43541518D01*
X161657885Y-43627262D01*
X161655581Y-43634209D01*
X161616164Y-43753049D01*
X161602203Y-43795139D01*
X161591500Y-43899600D01*
X161591500Y-44700400D01*
X161591837Y-44703646D01*
X161591837Y-44703650D01*
X161601752Y-44799206D01*
X161602474Y-44806166D01*
X161604655Y-44812702D01*
X161604655Y-44812704D01*
X161648728Y-44944806D01*
X161658450Y-44973946D01*
X161751522Y-45124348D01*
X161756704Y-45129521D01*
X161818451Y-45191161D01*
X161876697Y-45249305D01*
X161882927Y-45253145D01*
X161882928Y-45253146D01*
X162020288Y-45337816D01*
X162027262Y-45342115D01*
X162107005Y-45368564D01*
X162188611Y-45395632D01*
X162188613Y-45395632D01*
X162195139Y-45397797D01*
X162201975Y-45398497D01*
X162201978Y-45398498D01*
X162245031Y-45402909D01*
X162299600Y-45408500D01*
X163300400Y-45408500D01*
X163303646Y-45408163D01*
X163303650Y-45408163D01*
X163399308Y-45398238D01*
X163399312Y-45398237D01*
X163406166Y-45397526D01*
X163412702Y-45395345D01*
X163412704Y-45395345D01*
X163546853Y-45350589D01*
X163573946Y-45341550D01*
X163580913Y-45337239D01*
X163596883Y-45327356D01*
X163663186Y-45308500D01*
X169637179Y-45308500D01*
X169650786Y-45309237D01*
X169682284Y-45312659D01*
X169682289Y-45312659D01*
X169688410Y-45313324D01*
X169714660Y-45311027D01*
X169738410Y-45308950D01*
X169743236Y-45308621D01*
X169745708Y-45308500D01*
X169748791Y-45308500D01*
X169760760Y-45307326D01*
X169791528Y-45304310D01*
X169792841Y-45304188D01*
X169837106Y-45300315D01*
X169885435Y-45296087D01*
X169890554Y-45294600D01*
X169895855Y-45294080D01*
X169984856Y-45267209D01*
X169985989Y-45266874D01*
X170069436Y-45242630D01*
X170069440Y-45242628D01*
X170075358Y-45240909D01*
X170080090Y-45238456D01*
X170085191Y-45236916D01*
X170106839Y-45225406D01*
X170167282Y-45193269D01*
X170168448Y-45192657D01*
X170245475Y-45152729D01*
X170250948Y-45149892D01*
X170255111Y-45146569D01*
X170259818Y-45144066D01*
X170331940Y-45085245D01*
X170332796Y-45084554D01*
X170371995Y-45053262D01*
X170374499Y-45050758D01*
X170375217Y-45050116D01*
X170379550Y-45046415D01*
X170413084Y-45019065D01*
X170442310Y-44983736D01*
X170450301Y-44974955D01*
X170918890Y-44506366D01*
X170929033Y-44497264D01*
X170953729Y-44477408D01*
X170958536Y-44473543D01*
X170990803Y-44435089D01*
X170993983Y-44431442D01*
X170995626Y-44429630D01*
X170997820Y-44427436D01*
X171025153Y-44394162D01*
X171025859Y-44393311D01*
X171030099Y-44388259D01*
X171085665Y-44322037D01*
X171088233Y-44317367D01*
X171091614Y-44313250D01*
X171122651Y-44255366D01*
X171135488Y-44231425D01*
X171136117Y-44230266D01*
X171177973Y-44154130D01*
X171177976Y-44154122D01*
X171180944Y-44148724D01*
X171182556Y-44143642D01*
X171185073Y-44138948D01*
X171212273Y-44049980D01*
X171212619Y-44048869D01*
X171221186Y-44021866D01*
X171240746Y-43960205D01*
X171241340Y-43954909D01*
X171242898Y-43949813D01*
X171252301Y-43857254D01*
X171252422Y-43856118D01*
X171258011Y-43806284D01*
X171258011Y-43802757D01*
X171258066Y-43801772D01*
X171258513Y-43796092D01*
X171262885Y-43753049D01*
X171258570Y-43707402D01*
X171258011Y-43695544D01*
X171258011Y-38811361D01*
X171258748Y-38797753D01*
X171262170Y-38766250D01*
X171262836Y-38760123D01*
X171258458Y-38710081D01*
X171258132Y-38705299D01*
X171258011Y-38702821D01*
X171258011Y-38699742D01*
X171257712Y-38696688D01*
X171257711Y-38696677D01*
X171253824Y-38657040D01*
X171253702Y-38655726D01*
X171250594Y-38620199D01*
X171245598Y-38563098D01*
X171244111Y-38557979D01*
X171243591Y-38552678D01*
X171216720Y-38463677D01*
X171216385Y-38462544D01*
X171192141Y-38379097D01*
X171192139Y-38379093D01*
X171190420Y-38373175D01*
X171187967Y-38368443D01*
X171186427Y-38363342D01*
X171171736Y-38335711D01*
X171142780Y-38281251D01*
X171142168Y-38280085D01*
X171102240Y-38203058D01*
X171099403Y-38197585D01*
X171096080Y-38193422D01*
X171093577Y-38188715D01*
X171034772Y-38116613D01*
X171033944Y-38115586D01*
X171004980Y-38079303D01*
X171004975Y-38079298D01*
X171002773Y-38076539D01*
X171000272Y-38074038D01*
X170999630Y-38073320D01*
X170995917Y-38068972D01*
X170979653Y-38049031D01*
X170968576Y-38035449D01*
X170963834Y-38031526D01*
X170963832Y-38031524D01*
X170933238Y-38006214D01*
X170924458Y-37998224D01*
X169997482Y-37071248D01*
X169963456Y-37008936D01*
X169967264Y-36941652D01*
X169984896Y-36889711D01*
X169984898Y-36889702D01*
X169986224Y-36885797D01*
X169997753Y-36827838D01*
X170043180Y-36599465D01*
X170043181Y-36599459D01*
X170043983Y-36595426D01*
X170044506Y-36587457D01*
X170063076Y-36304119D01*
X170063346Y-36300000D01*
X170057932Y-36217401D01*
X170044253Y-36008686D01*
X170044252Y-36008679D01*
X170043983Y-36004574D01*
X170022685Y-35897500D01*
X169987030Y-35718253D01*
X169987028Y-35718247D01*
X169986224Y-35714203D01*
X169968853Y-35663028D01*
X169892385Y-35437761D01*
X169892384Y-35437760D01*
X169891059Y-35433855D01*
X169760115Y-35168327D01*
X169654334Y-35010014D01*
X169597926Y-34925593D01*
X169597922Y-34925588D01*
X169595633Y-34922162D01*
X169592919Y-34919068D01*
X169592915Y-34919062D01*
X169403136Y-34702662D01*
X169400427Y-34699573D01*
X169397338Y-34696864D01*
X169180938Y-34507085D01*
X169180932Y-34507081D01*
X169177838Y-34504367D01*
X169174412Y-34502078D01*
X169174407Y-34502074D01*
X168935106Y-34342179D01*
X168931673Y-34339885D01*
X168927974Y-34338061D01*
X168927969Y-34338058D01*
X168740871Y-34245792D01*
X168666145Y-34208941D01*
X168566694Y-34175182D01*
X168389710Y-34115104D01*
X168389706Y-34115103D01*
X168385797Y-34113776D01*
X168381753Y-34112972D01*
X168381747Y-34112970D01*
X168099465Y-34056820D01*
X168099459Y-34056819D01*
X168095426Y-34056017D01*
X168091321Y-34055748D01*
X168091314Y-34055747D01*
X167804119Y-34036924D01*
X167800000Y-34036654D01*
X167795881Y-34036924D01*
X167734959Y-34040917D01*
X167665676Y-34025413D01*
X167637623Y-34004282D01*
X166583675Y-32950334D01*
X166581221Y-32947812D01*
X166516138Y-32878988D01*
X166516135Y-32878986D01*
X166512668Y-32875319D01*
X166450239Y-32827589D01*
X166445108Y-32823448D01*
X166389133Y-32775809D01*
X166389132Y-32775808D01*
X166385280Y-32772530D01*
X166380955Y-32769911D01*
X166380950Y-32769907D01*
X166357176Y-32755509D01*
X166345929Y-32747837D01*
X166319826Y-32727880D01*
X166250592Y-32690757D01*
X166244868Y-32687493D01*
X166181966Y-32649398D01*
X166177642Y-32646779D01*
X166147181Y-32634472D01*
X166134841Y-32628692D01*
X166110350Y-32615560D01*
X166110351Y-32615560D01*
X166105891Y-32613169D01*
X166101110Y-32611523D01*
X166101106Y-32611521D01*
X166031599Y-32587588D01*
X166025421Y-32585278D01*
X165957266Y-32557742D01*
X165957267Y-32557742D01*
X165952571Y-32555845D01*
X165920539Y-32548568D01*
X165907441Y-32544837D01*
X165876369Y-32534138D01*
X165798900Y-32520757D01*
X165792496Y-32519477D01*
X165715856Y-32502065D01*
X165683047Y-32500001D01*
X165669547Y-32498415D01*
X165637164Y-32492821D01*
X165637162Y-32492821D01*
X165637437Y-32491230D01*
X165577969Y-32466522D01*
X165537542Y-32408159D01*
X165535086Y-32337205D01*
X165571381Y-32276187D01*
X165634902Y-32244478D01*
X165657138Y-32242500D01*
X168486969Y-32242500D01*
X168555090Y-32262502D01*
X168576064Y-32279405D01*
X171682595Y-35385936D01*
X171716621Y-35448248D01*
X171719500Y-35475031D01*
X171719500Y-90508969D01*
X171699498Y-90577090D01*
X171682595Y-90598064D01*
X171184862Y-91095797D01*
X171122550Y-91129823D01*
X171051735Y-91124758D01*
X170994899Y-91082211D01*
X170970088Y-91015691D01*
X170985179Y-90946317D01*
X170998398Y-90926732D01*
X171025153Y-90894162D01*
X171025859Y-90893311D01*
X171026965Y-90891994D01*
X171085665Y-90822037D01*
X171088233Y-90817367D01*
X171091614Y-90813250D01*
X171135488Y-90731425D01*
X171136117Y-90730266D01*
X171177973Y-90654130D01*
X171177976Y-90654122D01*
X171180944Y-90648724D01*
X171182556Y-90643642D01*
X171185073Y-90638948D01*
X171212273Y-90549980D01*
X171212619Y-90548869D01*
X171225277Y-90508969D01*
X171240746Y-90460205D01*
X171241340Y-90454909D01*
X171242898Y-90449813D01*
X171252301Y-90357254D01*
X171252422Y-90356118D01*
X171258011Y-90306284D01*
X171258011Y-90302757D01*
X171258066Y-90301772D01*
X171258513Y-90296092D01*
X171262885Y-90253049D01*
X171258570Y-90207402D01*
X171258011Y-90195544D01*
X171258011Y-85311361D01*
X171258748Y-85297753D01*
X171262170Y-85266250D01*
X171262836Y-85260123D01*
X171258458Y-85210081D01*
X171258132Y-85205299D01*
X171258011Y-85202821D01*
X171258011Y-85199742D01*
X171257712Y-85196688D01*
X171257711Y-85196677D01*
X171253824Y-85157040D01*
X171253702Y-85155726D01*
X171246134Y-85069229D01*
X171245598Y-85063098D01*
X171244111Y-85057979D01*
X171243591Y-85052678D01*
X171216720Y-84963677D01*
X171216385Y-84962544D01*
X171192141Y-84879097D01*
X171192139Y-84879093D01*
X171190420Y-84873175D01*
X171187967Y-84868443D01*
X171186427Y-84863342D01*
X171181836Y-84854707D01*
X171142780Y-84781251D01*
X171142168Y-84780085D01*
X171102240Y-84703058D01*
X171099403Y-84697585D01*
X171096080Y-84693422D01*
X171093577Y-84688715D01*
X171073768Y-84664426D01*
X171034772Y-84616613D01*
X171033944Y-84615586D01*
X171004980Y-84579303D01*
X171004975Y-84579298D01*
X171002773Y-84576539D01*
X171000272Y-84574038D01*
X170999630Y-84573320D01*
X170995917Y-84568972D01*
X170988153Y-84559452D01*
X170968576Y-84535449D01*
X170963834Y-84531526D01*
X170963832Y-84531524D01*
X170933238Y-84506214D01*
X170924458Y-84498224D01*
X169997482Y-83571248D01*
X169963456Y-83508936D01*
X169967264Y-83441652D01*
X169984896Y-83389711D01*
X169984898Y-83389702D01*
X169986224Y-83385797D01*
X170009004Y-83271277D01*
X170043180Y-83099465D01*
X170043181Y-83099459D01*
X170043983Y-83095426D01*
X170044506Y-83087457D01*
X170063076Y-82804119D01*
X170063346Y-82800000D01*
X170059083Y-82734959D01*
X170044253Y-82508686D01*
X170044252Y-82508679D01*
X170043983Y-82504574D01*
X170011717Y-82342361D01*
X169987030Y-82218253D01*
X169987028Y-82218247D01*
X169986224Y-82214203D01*
X169957886Y-82130720D01*
X169892385Y-81937761D01*
X169892384Y-81937760D01*
X169891059Y-81933855D01*
X169760115Y-81668327D01*
X169607135Y-81439376D01*
X169597926Y-81425593D01*
X169597922Y-81425588D01*
X169595633Y-81422162D01*
X169592919Y-81419068D01*
X169592915Y-81419062D01*
X169403136Y-81202662D01*
X169400427Y-81199573D01*
X169312727Y-81122662D01*
X169180938Y-81007085D01*
X169180932Y-81007081D01*
X169177838Y-81004367D01*
X169174412Y-81002078D01*
X169174407Y-81002074D01*
X168935106Y-80842179D01*
X168931673Y-80839885D01*
X168927974Y-80838061D01*
X168927969Y-80838058D01*
X168791687Y-80770852D01*
X168666145Y-80708941D01*
X168631743Y-80697263D01*
X168389710Y-80615104D01*
X168389706Y-80615103D01*
X168385797Y-80613776D01*
X168381753Y-80612972D01*
X168381747Y-80612970D01*
X168099465Y-80556820D01*
X168099459Y-80556819D01*
X168095426Y-80556017D01*
X168091321Y-80555748D01*
X168091314Y-80555747D01*
X167804119Y-80536924D01*
X167800000Y-80536654D01*
X167795881Y-80536924D01*
X167734959Y-80540917D01*
X167665676Y-80525413D01*
X167637623Y-80504282D01*
X166583675Y-79450334D01*
X166581221Y-79447812D01*
X166516138Y-79378988D01*
X166516135Y-79378986D01*
X166512668Y-79375319D01*
X166450239Y-79327589D01*
X166445108Y-79323448D01*
X166389133Y-79275809D01*
X166389132Y-79275808D01*
X166385280Y-79272530D01*
X166380955Y-79269911D01*
X166380950Y-79269907D01*
X166357176Y-79255509D01*
X166345929Y-79247837D01*
X166319826Y-79227880D01*
X166250592Y-79190757D01*
X166244868Y-79187493D01*
X166181966Y-79149398D01*
X166177642Y-79146779D01*
X166147181Y-79134472D01*
X166134841Y-79128692D01*
X166110350Y-79115560D01*
X166110351Y-79115560D01*
X166105891Y-79113169D01*
X166101110Y-79111523D01*
X166101106Y-79111521D01*
X166031599Y-79087588D01*
X166025421Y-79085278D01*
X165957266Y-79057742D01*
X165957267Y-79057742D01*
X165952571Y-79055845D01*
X165920539Y-79048568D01*
X165907441Y-79044837D01*
X165876369Y-79034138D01*
X165798900Y-79020757D01*
X165792496Y-79019477D01*
X165715856Y-79002065D01*
X165683047Y-79000001D01*
X165669547Y-78998415D01*
X165637164Y-78992821D01*
X165633207Y-78992641D01*
X165633204Y-78992641D01*
X165609494Y-78991564D01*
X165609475Y-78991564D01*
X165608075Y-78991500D01*
X165551892Y-78991500D01*
X165543980Y-78991251D01*
X165538386Y-78990899D01*
X165473587Y-78986822D01*
X165434545Y-78990650D01*
X165432008Y-78990899D01*
X165419712Y-78991500D01*
X162509306Y-78991500D01*
X162441185Y-78971498D01*
X162434985Y-78967151D01*
X162433754Y-78966342D01*
X162430204Y-78963633D01*
X162379573Y-78935278D01*
X162207546Y-78838938D01*
X162207543Y-78838937D01*
X162203660Y-78836762D01*
X162199521Y-78835161D01*
X162199513Y-78835157D01*
X162020484Y-78765897D01*
X161961500Y-78743078D01*
X161957175Y-78742075D01*
X161957170Y-78742074D01*
X161837508Y-78714338D01*
X161708555Y-78684448D01*
X161449873Y-78662044D01*
X161445438Y-78662288D01*
X161445434Y-78662288D01*
X161195058Y-78676067D01*
X161195051Y-78676068D01*
X161190615Y-78676312D01*
X161091063Y-78696114D01*
X160940325Y-78726097D01*
X160940320Y-78726098D01*
X160935953Y-78726967D01*
X160931750Y-78728443D01*
X160695177Y-78811521D01*
X160695174Y-78811522D01*
X160690969Y-78812999D01*
X160687016Y-78815052D01*
X160687010Y-78815055D01*
X160572359Y-78874612D01*
X160460552Y-78932691D01*
X160456937Y-78935274D01*
X160456931Y-78935278D01*
X160338093Y-79020202D01*
X160249298Y-79083656D01*
X160061423Y-79262880D01*
X159900675Y-79466788D01*
X159898443Y-79470630D01*
X159898440Y-79470635D01*
X159772499Y-79687457D01*
X159772496Y-79687464D01*
X159770261Y-79691311D01*
X159747406Y-79747738D01*
X159674457Y-79927838D01*
X159674454Y-79927846D01*
X159672784Y-79931970D01*
X159610189Y-80183963D01*
X159583724Y-80442261D01*
X159583899Y-80446713D01*
X159590653Y-80618602D01*
X159593918Y-80701712D01*
X159640567Y-80957138D01*
X159722740Y-81203442D01*
X159724730Y-81207425D01*
X159724731Y-81207427D01*
X159801039Y-81360141D01*
X159838799Y-81435711D01*
X159841332Y-81439376D01*
X159904153Y-81530272D01*
X159926500Y-81601910D01*
X159926500Y-82790584D01*
X159904712Y-82861406D01*
X159903425Y-82863299D01*
X159900675Y-82866788D01*
X159898446Y-82870626D01*
X159898443Y-82870630D01*
X159772499Y-83087457D01*
X159772496Y-83087464D01*
X159770261Y-83091311D01*
X159757284Y-83123350D01*
X159674457Y-83327838D01*
X159674454Y-83327846D01*
X159672784Y-83331970D01*
X159610189Y-83583963D01*
X159583724Y-83842261D01*
X159583899Y-83846713D01*
X159590653Y-84018602D01*
X159593918Y-84101712D01*
X159594718Y-84106092D01*
X159633302Y-84317356D01*
X159640567Y-84357138D01*
X159722740Y-84603442D01*
X159724730Y-84607425D01*
X159724731Y-84607427D01*
X159811587Y-84781251D01*
X159838799Y-84835711D01*
X159841326Y-84839367D01*
X159841327Y-84839369D01*
X159982189Y-85043180D01*
X159986426Y-85049310D01*
X160162677Y-85239978D01*
X160166131Y-85242790D01*
X160360578Y-85401095D01*
X160360582Y-85401098D01*
X160364035Y-85403909D01*
X160367857Y-85406210D01*
X160536259Y-85507596D01*
X160586482Y-85537833D01*
X160590577Y-85539567D01*
X160590579Y-85539568D01*
X160821480Y-85637342D01*
X160821487Y-85637344D01*
X160825581Y-85639078D01*
X161076559Y-85705624D01*
X161080983Y-85706148D01*
X161080985Y-85706148D01*
X161154333Y-85714829D01*
X161334410Y-85736142D01*
X161593988Y-85730025D01*
X161598384Y-85729293D01*
X161598387Y-85729293D01*
X161845713Y-85688127D01*
X161845717Y-85688126D01*
X161850115Y-85687394D01*
X162097680Y-85609099D01*
X162331744Y-85496704D01*
X162373252Y-85468969D01*
X162543927Y-85354928D01*
X162543931Y-85354925D01*
X162547635Y-85352450D01*
X162550952Y-85349479D01*
X162550956Y-85349476D01*
X162737730Y-85182187D01*
X162737731Y-85182186D01*
X162741048Y-85179215D01*
X162908121Y-84980457D01*
X163045523Y-84760141D01*
X163062940Y-84720746D01*
X163148713Y-84526729D01*
X163150511Y-84522662D01*
X163220991Y-84272760D01*
X163233741Y-84177838D01*
X163255129Y-84018602D01*
X163255130Y-84018594D01*
X163255556Y-84015420D01*
X163257638Y-83949177D01*
X163259082Y-83903222D01*
X163259082Y-83903217D01*
X163259183Y-83900000D01*
X163240845Y-83640998D01*
X163233348Y-83606173D01*
X163187132Y-83391510D01*
X163187132Y-83391508D01*
X163186196Y-83387163D01*
X163096326Y-83143561D01*
X162973029Y-82915052D01*
X162968149Y-82908445D01*
X162943766Y-82841767D01*
X162943500Y-82833586D01*
X162943500Y-82134500D01*
X162963502Y-82066379D01*
X163017158Y-82019886D01*
X163069500Y-82008500D01*
X164822969Y-82008500D01*
X164891090Y-82028502D01*
X164912064Y-82045405D01*
X165504282Y-82637623D01*
X165538308Y-82699935D01*
X165540917Y-82734959D01*
X165536654Y-82800000D01*
X165536924Y-82804119D01*
X165555495Y-83087457D01*
X165556017Y-83095426D01*
X165556819Y-83099459D01*
X165556820Y-83099465D01*
X165590996Y-83271277D01*
X165613776Y-83385797D01*
X165615103Y-83389706D01*
X165615104Y-83389710D01*
X165615715Y-83391510D01*
X165708941Y-83666145D01*
X165755480Y-83760516D01*
X165825855Y-83903222D01*
X165839885Y-83931673D01*
X165842179Y-83935106D01*
X165960289Y-84111870D01*
X166004367Y-84177838D01*
X166007081Y-84180932D01*
X166007085Y-84180938D01*
X166157768Y-84352758D01*
X166199573Y-84400427D01*
X166202662Y-84403136D01*
X166419062Y-84592915D01*
X166419068Y-84592919D01*
X166422162Y-84595633D01*
X166425588Y-84597922D01*
X166425593Y-84597926D01*
X166568514Y-84693422D01*
X166668327Y-84760115D01*
X166672026Y-84761939D01*
X166672031Y-84761942D01*
X166808313Y-84829148D01*
X166933855Y-84891059D01*
X166937760Y-84892384D01*
X166937761Y-84892385D01*
X167210290Y-84984896D01*
X167210294Y-84984897D01*
X167214203Y-84986224D01*
X167218247Y-84987028D01*
X167218253Y-84987030D01*
X167500535Y-85043180D01*
X167500541Y-85043181D01*
X167504574Y-85043983D01*
X167508679Y-85044252D01*
X167508686Y-85044253D01*
X167795881Y-85063076D01*
X167800000Y-85063346D01*
X167804119Y-85063076D01*
X168091314Y-85044253D01*
X168091321Y-85044252D01*
X168095426Y-85043983D01*
X168099459Y-85043181D01*
X168099465Y-85043180D01*
X168381747Y-84987030D01*
X168381753Y-84987028D01*
X168385797Y-84986224D01*
X168389702Y-84984898D01*
X168389711Y-84984896D01*
X168441652Y-84967264D01*
X168512587Y-84964308D01*
X168571248Y-84997482D01*
X168900671Y-85326905D01*
X168934697Y-85389217D01*
X168929632Y-85460032D01*
X168887085Y-85516868D01*
X168820565Y-85541679D01*
X168811576Y-85542000D01*
X168072115Y-85542000D01*
X168056876Y-85546475D01*
X168055671Y-85547865D01*
X168054000Y-85555548D01*
X168054000Y-87928000D01*
X168033998Y-87996121D01*
X167980342Y-88042614D01*
X167928000Y-88054000D01*
X165560116Y-88054000D01*
X165544877Y-88058475D01*
X165543672Y-88059865D01*
X165542001Y-88067548D01*
X165542001Y-89594669D01*
X165542371Y-89601491D01*
X165547845Y-89651895D01*
X165535316Y-89721777D01*
X165486994Y-89773792D01*
X165422582Y-89791500D01*
X163971309Y-89791500D01*
X163903188Y-89771498D01*
X163856695Y-89717842D01*
X163846591Y-89647568D01*
X163864049Y-89599384D01*
X163938275Y-89478968D01*
X163938276Y-89478966D01*
X163942115Y-89472738D01*
X163991648Y-89323401D01*
X163995632Y-89311389D01*
X163995632Y-89311387D01*
X163997797Y-89304861D01*
X164008500Y-89200400D01*
X164008500Y-88399600D01*
X164003149Y-88348028D01*
X163998238Y-88300692D01*
X163998237Y-88300688D01*
X163997526Y-88293834D01*
X163941550Y-88126054D01*
X163848478Y-87975652D01*
X163723303Y-87850695D01*
X163586714Y-87766500D01*
X163578968Y-87761725D01*
X163578966Y-87761724D01*
X163572738Y-87757885D01*
X163443166Y-87714908D01*
X163411389Y-87704368D01*
X163411387Y-87704368D01*
X163404861Y-87702203D01*
X163398025Y-87701503D01*
X163398022Y-87701502D01*
X163354969Y-87697091D01*
X163300400Y-87691500D01*
X162299600Y-87691500D01*
X162296354Y-87691837D01*
X162296350Y-87691837D01*
X162200692Y-87701762D01*
X162200688Y-87701763D01*
X162193834Y-87702474D01*
X162187298Y-87704655D01*
X162187296Y-87704655D01*
X162026054Y-87758450D01*
X162025565Y-87756984D01*
X161982818Y-87766500D01*
X159017140Y-87766500D01*
X158973118Y-87756740D01*
X158972738Y-87757885D01*
X158811389Y-87704368D01*
X158811387Y-87704368D01*
X158804861Y-87702203D01*
X158798025Y-87701503D01*
X158798022Y-87701502D01*
X158754969Y-87697091D01*
X158700400Y-87691500D01*
X157699600Y-87691500D01*
X157696354Y-87691837D01*
X157696350Y-87691837D01*
X157600692Y-87701762D01*
X157600688Y-87701763D01*
X157593834Y-87702474D01*
X157587298Y-87704655D01*
X157587296Y-87704655D01*
X157455194Y-87748728D01*
X157426054Y-87758450D01*
X157275652Y-87851522D01*
X157150695Y-87976697D01*
X157146855Y-87982927D01*
X157146854Y-87982928D01*
X157103045Y-88054000D01*
X157057885Y-88127262D01*
X157055581Y-88134209D01*
X157012525Y-88264020D01*
X157002203Y-88295139D01*
X156991500Y-88399600D01*
X156991500Y-89150400D01*
X156991837Y-89153646D01*
X156991837Y-89153650D01*
X156997020Y-89203598D01*
X157002474Y-89256166D01*
X157058450Y-89423946D01*
X157151522Y-89574348D01*
X157156704Y-89579521D01*
X157200562Y-89623303D01*
X157276697Y-89699305D01*
X157281235Y-89702102D01*
X157321824Y-89759353D01*
X157325054Y-89830276D01*
X157289428Y-89891687D01*
X157280932Y-89899062D01*
X157270793Y-89907098D01*
X157156261Y-90021829D01*
X157147249Y-90033240D01*
X157062184Y-90171243D01*
X157056037Y-90184424D01*
X157004862Y-90338710D01*
X157001995Y-90352086D01*
X156992328Y-90446438D01*
X156992000Y-90452855D01*
X156992000Y-90552885D01*
X156996475Y-90568124D01*
X156997865Y-90569329D01*
X157005548Y-90571000D01*
X159389884Y-90571000D01*
X159405123Y-90566525D01*
X159406328Y-90565135D01*
X159407999Y-90557452D01*
X159407999Y-90452905D01*
X159407662Y-90446386D01*
X159397743Y-90350794D01*
X159394851Y-90337400D01*
X159343412Y-90183216D01*
X159337239Y-90170038D01*
X159251937Y-90032193D01*
X159242900Y-90020791D01*
X159220743Y-89998672D01*
X159186665Y-89936389D01*
X159191668Y-89865569D01*
X159234166Y-89808697D01*
X159300665Y-89783829D01*
X159309762Y-89783500D01*
X161644289Y-89783500D01*
X161712410Y-89803502D01*
X161758903Y-89857158D01*
X161769007Y-89927432D01*
X161748442Y-89975308D01*
X161750695Y-89976697D01*
X161657885Y-90127262D01*
X161655581Y-90134209D01*
X161616164Y-90253049D01*
X161602203Y-90295139D01*
X161591500Y-90399600D01*
X161591500Y-91200400D01*
X161591837Y-91203646D01*
X161591837Y-91203650D01*
X161601752Y-91299206D01*
X161602474Y-91306166D01*
X161604655Y-91312702D01*
X161604655Y-91312704D01*
X161637693Y-91411731D01*
X161658450Y-91473946D01*
X161751522Y-91624348D01*
X161756704Y-91629521D01*
X161875717Y-91748327D01*
X161909796Y-91810610D01*
X161904793Y-91881430D01*
X161862296Y-91938302D01*
X161795797Y-91963171D01*
X161786699Y-91963500D01*
X159212705Y-91963500D01*
X159144584Y-91943498D01*
X159098091Y-91889842D01*
X159087987Y-91819568D01*
X159117481Y-91754988D01*
X159124357Y-91748404D01*
X159124035Y-91748083D01*
X159243739Y-91628171D01*
X159252751Y-91616760D01*
X159337816Y-91478757D01*
X159343963Y-91465576D01*
X159395138Y-91311290D01*
X159398005Y-91297914D01*
X159407672Y-91203562D01*
X159408000Y-91197146D01*
X159408000Y-91097115D01*
X159403525Y-91081876D01*
X159402135Y-91080671D01*
X159394452Y-91079000D01*
X157010116Y-91079000D01*
X156994877Y-91083475D01*
X156993672Y-91084865D01*
X156992001Y-91092548D01*
X156992001Y-91197095D01*
X156992338Y-91203614D01*
X157002257Y-91299206D01*
X157005149Y-91312600D01*
X157056588Y-91466784D01*
X157062761Y-91479962D01*
X157148063Y-91617807D01*
X157157099Y-91629208D01*
X157276425Y-91748327D01*
X157310504Y-91810610D01*
X157305501Y-91881430D01*
X157263004Y-91938303D01*
X157196505Y-91963171D01*
X157187407Y-91963500D01*
X146160500Y-91963500D01*
X146092379Y-91943498D01*
X146045886Y-91889842D01*
X146034500Y-91837500D01*
X146034500Y-91814500D01*
X146054502Y-91746379D01*
X146108158Y-91699886D01*
X146160500Y-91688500D01*
X148295984Y-91688500D01*
X148299502Y-91688549D01*
X148394150Y-91691193D01*
X148394153Y-91691193D01*
X148399205Y-91691334D01*
X148477098Y-91680941D01*
X148483639Y-91680242D01*
X148512332Y-91677933D01*
X148556923Y-91674346D01*
X148556927Y-91674345D01*
X148561965Y-91673940D01*
X148593878Y-91666101D01*
X148607258Y-91663574D01*
X148639820Y-91659229D01*
X148644661Y-91657768D01*
X148644663Y-91657767D01*
X148715029Y-91636522D01*
X148721392Y-91634781D01*
X148726070Y-91633632D01*
X148797706Y-91616037D01*
X148827952Y-91603199D01*
X148840763Y-91598561D01*
X148872208Y-91589067D01*
X148876756Y-91586849D01*
X148876763Y-91586846D01*
X148942818Y-91554629D01*
X148948820Y-91551893D01*
X148993504Y-91532925D01*
X149021156Y-91521188D01*
X149048956Y-91503681D01*
X149060860Y-91497055D01*
X149090388Y-91482654D01*
X149094526Y-91479735D01*
X149098880Y-91477160D01*
X149099970Y-91479003D01*
X149164598Y-91458500D01*
X149298134Y-91458500D01*
X149360316Y-91451745D01*
X149496705Y-91400615D01*
X149613261Y-91313261D01*
X149697695Y-91200601D01*
X149754553Y-91158087D01*
X149825372Y-91153061D01*
X149885854Y-91185429D01*
X149888698Y-91188655D01*
X149943828Y-91233939D01*
X150046948Y-91318642D01*
X150076278Y-91342734D01*
X150121531Y-91369072D01*
X150265043Y-91452598D01*
X150286078Y-91464841D01*
X150290801Y-91466654D01*
X150507978Y-91550020D01*
X150507982Y-91550021D01*
X150512702Y-91551833D01*
X150517652Y-91552867D01*
X150517655Y-91552868D01*
X150745369Y-91600440D01*
X150745373Y-91600440D01*
X150750320Y-91601474D01*
X150992817Y-91612486D01*
X150997837Y-91611905D01*
X150997841Y-91611905D01*
X151228929Y-91585167D01*
X151228933Y-91585166D01*
X151233956Y-91584585D01*
X151238820Y-91583209D01*
X151238823Y-91583208D01*
X151462669Y-91519866D01*
X151462668Y-91519866D01*
X151467532Y-91518490D01*
X151472108Y-91516356D01*
X151472114Y-91516354D01*
X151682954Y-91418038D01*
X151682958Y-91418036D01*
X151687536Y-91415901D01*
X151705391Y-91403767D01*
X151775830Y-91355896D01*
X151888307Y-91279456D01*
X152064681Y-91112668D01*
X152109465Y-91054093D01*
X152166730Y-91012125D01*
X152237593Y-91007780D01*
X152304075Y-91047297D01*
X152425350Y-91184858D01*
X152425353Y-91184861D01*
X152428698Y-91188655D01*
X152432606Y-91191865D01*
X152432607Y-91191866D01*
X152597201Y-91327064D01*
X152616278Y-91342734D01*
X152661531Y-91369072D01*
X152805043Y-91452598D01*
X152826078Y-91464841D01*
X152830801Y-91466654D01*
X153047978Y-91550020D01*
X153047982Y-91550021D01*
X153052702Y-91551833D01*
X153057652Y-91552867D01*
X153057655Y-91552868D01*
X153285369Y-91600440D01*
X153285373Y-91600440D01*
X153290320Y-91601474D01*
X153532817Y-91612486D01*
X153537837Y-91611905D01*
X153537841Y-91611905D01*
X153768929Y-91585167D01*
X153768933Y-91585166D01*
X153773956Y-91584585D01*
X153778820Y-91583209D01*
X153778823Y-91583208D01*
X154002669Y-91519866D01*
X154002668Y-91519866D01*
X154007532Y-91518490D01*
X154012108Y-91516356D01*
X154012114Y-91516354D01*
X154222954Y-91418038D01*
X154222958Y-91418036D01*
X154227536Y-91415901D01*
X154245391Y-91403767D01*
X154315830Y-91355896D01*
X154428307Y-91279456D01*
X154604681Y-91112668D01*
X154630422Y-91079000D01*
X154749047Y-90923846D01*
X154749050Y-90923842D01*
X154752120Y-90919826D01*
X154804243Y-90822618D01*
X154864439Y-90710352D01*
X154866831Y-90705891D01*
X154945862Y-90476369D01*
X154975984Y-90301978D01*
X154986504Y-90241074D01*
X154986505Y-90241068D01*
X154987179Y-90237164D01*
X154988500Y-90208075D01*
X154988500Y-87527885D01*
X165542000Y-87527885D01*
X165546475Y-87543124D01*
X165547865Y-87544329D01*
X165555548Y-87546000D01*
X167527885Y-87546000D01*
X167543124Y-87541525D01*
X167544329Y-87540135D01*
X167546000Y-87532452D01*
X167546000Y-85560116D01*
X167541525Y-85544877D01*
X167540135Y-85543672D01*
X167532452Y-85542001D01*
X166005331Y-85542001D01*
X165998510Y-85542371D01*
X165947648Y-85547895D01*
X165932396Y-85551521D01*
X165811946Y-85596676D01*
X165796351Y-85605214D01*
X165694276Y-85681715D01*
X165681715Y-85694276D01*
X165605214Y-85796351D01*
X165596676Y-85811946D01*
X165551522Y-85932394D01*
X165547895Y-85947649D01*
X165542369Y-85998514D01*
X165542000Y-86005328D01*
X165542000Y-87527885D01*
X154988500Y-87527885D01*
X154988500Y-75597095D01*
X156992001Y-75597095D01*
X156992338Y-75603614D01*
X157002257Y-75699206D01*
X157005149Y-75712600D01*
X157056588Y-75866784D01*
X157062761Y-75879962D01*
X157148063Y-76017807D01*
X157157099Y-76029208D01*
X157271829Y-76143739D01*
X157283240Y-76152751D01*
X157421243Y-76237816D01*
X157434424Y-76243963D01*
X157588710Y-76295138D01*
X157602086Y-76298005D01*
X157696438Y-76307672D01*
X157702854Y-76308000D01*
X157927885Y-76308000D01*
X157943124Y-76303525D01*
X157944329Y-76302135D01*
X157946000Y-76294452D01*
X157946000Y-76289884D01*
X158454000Y-76289884D01*
X158458475Y-76305123D01*
X158459865Y-76306328D01*
X158467548Y-76307999D01*
X158697095Y-76307999D01*
X158703614Y-76307662D01*
X158799206Y-76297743D01*
X158812600Y-76294851D01*
X158966784Y-76243412D01*
X158979962Y-76237239D01*
X159117807Y-76151937D01*
X159129208Y-76142901D01*
X159243739Y-76028171D01*
X159252751Y-76016760D01*
X159337816Y-75878757D01*
X159343963Y-75865576D01*
X159395138Y-75711290D01*
X159398005Y-75697914D01*
X159407672Y-75603562D01*
X159408000Y-75597146D01*
X159408000Y-75497115D01*
X159403525Y-75481876D01*
X159402135Y-75480671D01*
X159394452Y-75479000D01*
X158472115Y-75479000D01*
X158456876Y-75483475D01*
X158455671Y-75484865D01*
X158454000Y-75492548D01*
X158454000Y-76289884D01*
X157946000Y-76289884D01*
X157946000Y-75497115D01*
X157941525Y-75481876D01*
X157940135Y-75480671D01*
X157932452Y-75479000D01*
X157010116Y-75479000D01*
X156994877Y-75483475D01*
X156993672Y-75484865D01*
X156992001Y-75492548D01*
X156992001Y-75597095D01*
X154988500Y-75597095D01*
X154988500Y-73550400D01*
X156991500Y-73550400D01*
X156991837Y-73553646D01*
X156991837Y-73553650D01*
X156997020Y-73603598D01*
X157002474Y-73656166D01*
X157004655Y-73662702D01*
X157004655Y-73662704D01*
X157039369Y-73766753D01*
X157058450Y-73823946D01*
X157151522Y-73974348D01*
X157156704Y-73979521D01*
X157200562Y-74023303D01*
X157276697Y-74099305D01*
X157281235Y-74102102D01*
X157321824Y-74159353D01*
X157325054Y-74230276D01*
X157289428Y-74291687D01*
X157280932Y-74299062D01*
X157270793Y-74307098D01*
X157156261Y-74421829D01*
X157147249Y-74433240D01*
X157062184Y-74571243D01*
X157056037Y-74584424D01*
X157004862Y-74738710D01*
X157001995Y-74752086D01*
X156992328Y-74846438D01*
X156992000Y-74852855D01*
X156992000Y-74952885D01*
X156996475Y-74968124D01*
X156997865Y-74969329D01*
X157005548Y-74971000D01*
X159389884Y-74971000D01*
X159405123Y-74966525D01*
X159406328Y-74965135D01*
X159407999Y-74957452D01*
X159407999Y-74852905D01*
X159407662Y-74846386D01*
X159397743Y-74750794D01*
X159394851Y-74737400D01*
X159343412Y-74583216D01*
X159337239Y-74570038D01*
X159251937Y-74432193D01*
X159242900Y-74420791D01*
X159220743Y-74398672D01*
X159186665Y-74336389D01*
X159191668Y-74265569D01*
X159234166Y-74208697D01*
X159300665Y-74183829D01*
X159309762Y-74183500D01*
X161644289Y-74183500D01*
X161712410Y-74203502D01*
X161758903Y-74257158D01*
X161769007Y-74327432D01*
X161748442Y-74375308D01*
X161750695Y-74376697D01*
X161684486Y-74484108D01*
X161657885Y-74527262D01*
X161655581Y-74534209D01*
X161604894Y-74687027D01*
X161602203Y-74695139D01*
X161591500Y-74799600D01*
X161591500Y-75600400D01*
X161591837Y-75603646D01*
X161591837Y-75603650D01*
X161601752Y-75699206D01*
X161602474Y-75706166D01*
X161604655Y-75712702D01*
X161604655Y-75712704D01*
X161638136Y-75813059D01*
X161658450Y-75873946D01*
X161751522Y-76024348D01*
X161756704Y-76029521D01*
X161785560Y-76058327D01*
X161876697Y-76149305D01*
X161882927Y-76153145D01*
X161882928Y-76153146D01*
X162020288Y-76237816D01*
X162027262Y-76242115D01*
X162107005Y-76268564D01*
X162188611Y-76295632D01*
X162188613Y-76295632D01*
X162195139Y-76297797D01*
X162201975Y-76298497D01*
X162201978Y-76298498D01*
X162245031Y-76302909D01*
X162299600Y-76308500D01*
X163300400Y-76308500D01*
X163303646Y-76308163D01*
X163303650Y-76308163D01*
X163399308Y-76298238D01*
X163399312Y-76298237D01*
X163406166Y-76297526D01*
X163412702Y-76295345D01*
X163412704Y-76295345D01*
X163546853Y-76250589D01*
X163573946Y-76241550D01*
X163580913Y-76237239D01*
X163592212Y-76230247D01*
X163596883Y-76227356D01*
X163663186Y-76208500D01*
X169637179Y-76208500D01*
X169650786Y-76209237D01*
X169682284Y-76212659D01*
X169682289Y-76212659D01*
X169688410Y-76213324D01*
X169714660Y-76211027D01*
X169738410Y-76208950D01*
X169743236Y-76208621D01*
X169745708Y-76208500D01*
X169748791Y-76208500D01*
X169760760Y-76207326D01*
X169791528Y-76204310D01*
X169792841Y-76204188D01*
X169837106Y-76200315D01*
X169885435Y-76196087D01*
X169890554Y-76194600D01*
X169895855Y-76194080D01*
X169984856Y-76167209D01*
X169985989Y-76166874D01*
X170069436Y-76142630D01*
X170069440Y-76142628D01*
X170075358Y-76140909D01*
X170080090Y-76138456D01*
X170085191Y-76136916D01*
X170099513Y-76129301D01*
X170167282Y-76093269D01*
X170168448Y-76092657D01*
X170245475Y-76052729D01*
X170250948Y-76049892D01*
X170255111Y-76046569D01*
X170259818Y-76044066D01*
X170331940Y-75985245D01*
X170332796Y-75984554D01*
X170371995Y-75953262D01*
X170374499Y-75950758D01*
X170375217Y-75950116D01*
X170379550Y-75946415D01*
X170413084Y-75919065D01*
X170442310Y-75883736D01*
X170450301Y-75874955D01*
X170918890Y-75406366D01*
X170929033Y-75397264D01*
X170953729Y-75377408D01*
X170958536Y-75373543D01*
X170990803Y-75335089D01*
X170993983Y-75331442D01*
X170995626Y-75329630D01*
X170997820Y-75327436D01*
X171025153Y-75294162D01*
X171025859Y-75293311D01*
X171030394Y-75287907D01*
X171085665Y-75222037D01*
X171088233Y-75217367D01*
X171091614Y-75213250D01*
X171135488Y-75131425D01*
X171136117Y-75130266D01*
X171177973Y-75054130D01*
X171177976Y-75054122D01*
X171180944Y-75048724D01*
X171182556Y-75043642D01*
X171185073Y-75038948D01*
X171212273Y-74949980D01*
X171212619Y-74948869D01*
X171238884Y-74866074D01*
X171240746Y-74860205D01*
X171241340Y-74854909D01*
X171242898Y-74849813D01*
X171252301Y-74757254D01*
X171252422Y-74756118D01*
X171258011Y-74706284D01*
X171258011Y-74702757D01*
X171258066Y-74701772D01*
X171258513Y-74696092D01*
X171262885Y-74653049D01*
X171258570Y-74607402D01*
X171258011Y-74595544D01*
X171258011Y-69711361D01*
X171258748Y-69697753D01*
X171258811Y-69697173D01*
X171262836Y-69660123D01*
X171258458Y-69610081D01*
X171258132Y-69605299D01*
X171258011Y-69602821D01*
X171258011Y-69599742D01*
X171257712Y-69596688D01*
X171257711Y-69596677D01*
X171253824Y-69557040D01*
X171253702Y-69555726D01*
X171246134Y-69469229D01*
X171245598Y-69463098D01*
X171244111Y-69457979D01*
X171243591Y-69452678D01*
X171216720Y-69363677D01*
X171216385Y-69362544D01*
X171192141Y-69279097D01*
X171192139Y-69279093D01*
X171190420Y-69273175D01*
X171187967Y-69268443D01*
X171186427Y-69263342D01*
X171171736Y-69235711D01*
X171142780Y-69181251D01*
X171142168Y-69180085D01*
X171102240Y-69103058D01*
X171099403Y-69097585D01*
X171096080Y-69093422D01*
X171093577Y-69088715D01*
X171082427Y-69075043D01*
X171034772Y-69016613D01*
X171033944Y-69015586D01*
X171004980Y-68979303D01*
X171004975Y-68979298D01*
X171002773Y-68976539D01*
X171000272Y-68974038D01*
X170999630Y-68973320D01*
X170995917Y-68968972D01*
X170983967Y-68954320D01*
X170968576Y-68935449D01*
X170963834Y-68931526D01*
X170963832Y-68931524D01*
X170933238Y-68906214D01*
X170924458Y-68898224D01*
X169997482Y-67971248D01*
X169963456Y-67908936D01*
X169967264Y-67841652D01*
X169984896Y-67789711D01*
X169984898Y-67789702D01*
X169986224Y-67785797D01*
X170029568Y-67567895D01*
X170043180Y-67499465D01*
X170043181Y-67499459D01*
X170043983Y-67495426D01*
X170044506Y-67487457D01*
X170063076Y-67204119D01*
X170063346Y-67200000D01*
X170058485Y-67125837D01*
X170044253Y-66908686D01*
X170044252Y-66908679D01*
X170043983Y-66904574D01*
X169988082Y-66623540D01*
X169987030Y-66618253D01*
X169987028Y-66618247D01*
X169986224Y-66614203D01*
X169969066Y-66563655D01*
X169892385Y-66337761D01*
X169892384Y-66337760D01*
X169891059Y-66333855D01*
X169812069Y-66173680D01*
X169761942Y-66072031D01*
X169761939Y-66072026D01*
X169760115Y-66068327D01*
X169654334Y-65910014D01*
X169597926Y-65825593D01*
X169597922Y-65825588D01*
X169595633Y-65822162D01*
X169592919Y-65819068D01*
X169592915Y-65819062D01*
X169403136Y-65602662D01*
X169400427Y-65599573D01*
X169312727Y-65522662D01*
X169180938Y-65407085D01*
X169180932Y-65407081D01*
X169177838Y-65404367D01*
X169174412Y-65402078D01*
X169174407Y-65402074D01*
X168935106Y-65242179D01*
X168931673Y-65239885D01*
X168927974Y-65238061D01*
X168927969Y-65238058D01*
X168791687Y-65170852D01*
X168666145Y-65108941D01*
X168631743Y-65097263D01*
X168389710Y-65015104D01*
X168389706Y-65015103D01*
X168385797Y-65013776D01*
X168381753Y-65012972D01*
X168381747Y-65012970D01*
X168099465Y-64956820D01*
X168099459Y-64956819D01*
X168095426Y-64956017D01*
X168091321Y-64955748D01*
X168091314Y-64955747D01*
X167804119Y-64936924D01*
X167800000Y-64936654D01*
X167795881Y-64936924D01*
X167734959Y-64940917D01*
X167665676Y-64925413D01*
X167637623Y-64904282D01*
X166583675Y-63850334D01*
X166581221Y-63847812D01*
X166516138Y-63778988D01*
X166516135Y-63778986D01*
X166512668Y-63775319D01*
X166450239Y-63727589D01*
X166445108Y-63723448D01*
X166389133Y-63675809D01*
X166389132Y-63675808D01*
X166385280Y-63672530D01*
X166380955Y-63669911D01*
X166380950Y-63669907D01*
X166357176Y-63655509D01*
X166345929Y-63647837D01*
X166319826Y-63627880D01*
X166250592Y-63590757D01*
X166244868Y-63587493D01*
X166181966Y-63549398D01*
X166177642Y-63546779D01*
X166147181Y-63534472D01*
X166134841Y-63528692D01*
X166110350Y-63515560D01*
X166110351Y-63515560D01*
X166105891Y-63513169D01*
X166101110Y-63511523D01*
X166101106Y-63511521D01*
X166031599Y-63487588D01*
X166025421Y-63485278D01*
X165957266Y-63457742D01*
X165957267Y-63457742D01*
X165952571Y-63455845D01*
X165920539Y-63448568D01*
X165907441Y-63444837D01*
X165876369Y-63434138D01*
X165798900Y-63420757D01*
X165792496Y-63419477D01*
X165715856Y-63402065D01*
X165683047Y-63400001D01*
X165669547Y-63398415D01*
X165637164Y-63392821D01*
X165633207Y-63392641D01*
X165633204Y-63392641D01*
X165609494Y-63391564D01*
X165609475Y-63391564D01*
X165608075Y-63391500D01*
X165551892Y-63391500D01*
X165543980Y-63391251D01*
X165538386Y-63390899D01*
X165473587Y-63386822D01*
X165434545Y-63390650D01*
X165432008Y-63390899D01*
X165419712Y-63391500D01*
X162523306Y-63391500D01*
X162455185Y-63371498D01*
X162448985Y-63367151D01*
X162447754Y-63366342D01*
X162444204Y-63363633D01*
X162393573Y-63335278D01*
X162221546Y-63238938D01*
X162221543Y-63238937D01*
X162217660Y-63236762D01*
X162213521Y-63235161D01*
X162213513Y-63235157D01*
X161985865Y-63147088D01*
X161975500Y-63143078D01*
X161971175Y-63142075D01*
X161971170Y-63142074D01*
X161870004Y-63118625D01*
X161722555Y-63084448D01*
X161463873Y-63062044D01*
X161459438Y-63062288D01*
X161459434Y-63062288D01*
X161209058Y-63076067D01*
X161209051Y-63076068D01*
X161204615Y-63076312D01*
X161091353Y-63098841D01*
X160954325Y-63126097D01*
X160954320Y-63126098D01*
X160949953Y-63126967D01*
X160945750Y-63128443D01*
X160709177Y-63211521D01*
X160709174Y-63211522D01*
X160704969Y-63212999D01*
X160701016Y-63215052D01*
X160701010Y-63215055D01*
X160570816Y-63282686D01*
X160474552Y-63332691D01*
X160470937Y-63335274D01*
X160470931Y-63335278D01*
X160352093Y-63420202D01*
X160263298Y-63483656D01*
X160223985Y-63521159D01*
X160111876Y-63628106D01*
X160075423Y-63662880D01*
X159914675Y-63866788D01*
X159912443Y-63870630D01*
X159912440Y-63870635D01*
X159786499Y-64087457D01*
X159786496Y-64087464D01*
X159784261Y-64091311D01*
X159764685Y-64139643D01*
X159688457Y-64327838D01*
X159688454Y-64327846D01*
X159686784Y-64331970D01*
X159624189Y-64583963D01*
X159597724Y-64842261D01*
X159597899Y-64846713D01*
X159604653Y-65018602D01*
X159607918Y-65101712D01*
X159654567Y-65357138D01*
X159736740Y-65603442D01*
X159738730Y-65607425D01*
X159738731Y-65607427D01*
X159818586Y-65767240D01*
X159852799Y-65835711D01*
X159855326Y-65839367D01*
X159855327Y-65839369D01*
X159904153Y-65910014D01*
X159926500Y-65981653D01*
X159926500Y-67212491D01*
X159909454Y-67275776D01*
X159883863Y-67319834D01*
X159786499Y-67487457D01*
X159786496Y-67487464D01*
X159784261Y-67491311D01*
X159764685Y-67539643D01*
X159688457Y-67727838D01*
X159688454Y-67727846D01*
X159686784Y-67731970D01*
X159624189Y-67983963D01*
X159597724Y-68242261D01*
X159597899Y-68246713D01*
X159604653Y-68418602D01*
X159607918Y-68501712D01*
X159654567Y-68757138D01*
X159736740Y-69003442D01*
X159738730Y-69007425D01*
X159738731Y-69007427D01*
X159825587Y-69181251D01*
X159852799Y-69235711D01*
X159855326Y-69239367D01*
X159855327Y-69239369D01*
X159975296Y-69412950D01*
X160000426Y-69449310D01*
X160013401Y-69463346D01*
X160127672Y-69586964D01*
X160176677Y-69639978D01*
X160180131Y-69642790D01*
X160374578Y-69801095D01*
X160374582Y-69801098D01*
X160378035Y-69803909D01*
X160600482Y-69937833D01*
X160604577Y-69939567D01*
X160604579Y-69939568D01*
X160835480Y-70037342D01*
X160835487Y-70037344D01*
X160839581Y-70039078D01*
X161090559Y-70105624D01*
X161094983Y-70106148D01*
X161094985Y-70106148D01*
X161198416Y-70118389D01*
X161348410Y-70136142D01*
X161607988Y-70130025D01*
X161612384Y-70129293D01*
X161612387Y-70129293D01*
X161859713Y-70088127D01*
X161859717Y-70088126D01*
X161864115Y-70087394D01*
X162111680Y-70009099D01*
X162345744Y-69896704D01*
X162387252Y-69868969D01*
X162557927Y-69754928D01*
X162557931Y-69754925D01*
X162561635Y-69752450D01*
X162564952Y-69749479D01*
X162564956Y-69749476D01*
X162751730Y-69582187D01*
X162751731Y-69582186D01*
X162755048Y-69579215D01*
X162922121Y-69380457D01*
X163059523Y-69160141D01*
X163075061Y-69124996D01*
X163162713Y-68926729D01*
X163164511Y-68922662D01*
X163234991Y-68672760D01*
X163247909Y-68576584D01*
X163269129Y-68418602D01*
X163269130Y-68418594D01*
X163269556Y-68415420D01*
X163273183Y-68300000D01*
X163254845Y-68040998D01*
X163243521Y-67988397D01*
X163201132Y-67791510D01*
X163201132Y-67791508D01*
X163200196Y-67787163D01*
X163110326Y-67543561D01*
X162987029Y-67315052D01*
X162968149Y-67289491D01*
X162943766Y-67222813D01*
X162943500Y-67214631D01*
X162943500Y-66534500D01*
X162963502Y-66466379D01*
X163017158Y-66419886D01*
X163069500Y-66408500D01*
X164822969Y-66408500D01*
X164891090Y-66428502D01*
X164912064Y-66445405D01*
X165504282Y-67037623D01*
X165538308Y-67099935D01*
X165540917Y-67134959D01*
X165536654Y-67200000D01*
X165536924Y-67204119D01*
X165555495Y-67487457D01*
X165556017Y-67495426D01*
X165556819Y-67499459D01*
X165556820Y-67499465D01*
X165570432Y-67567895D01*
X165613776Y-67785797D01*
X165615103Y-67789706D01*
X165615104Y-67789710D01*
X165698925Y-68036640D01*
X165708941Y-68066145D01*
X165710765Y-68069843D01*
X165825855Y-68303222D01*
X165839885Y-68331673D01*
X165842179Y-68335106D01*
X165999774Y-68570964D01*
X166004367Y-68577838D01*
X166007081Y-68580932D01*
X166007085Y-68580938D01*
X166149972Y-68743868D01*
X166199573Y-68800427D01*
X166202662Y-68803136D01*
X166419062Y-68992915D01*
X166419068Y-68992919D01*
X166422162Y-68995633D01*
X166425588Y-68997922D01*
X166425593Y-68997926D01*
X166568514Y-69093422D01*
X166668327Y-69160115D01*
X166672026Y-69161939D01*
X166672031Y-69161942D01*
X166808313Y-69229148D01*
X166933855Y-69291059D01*
X166937760Y-69292384D01*
X166937761Y-69292385D01*
X167210290Y-69384896D01*
X167210294Y-69384897D01*
X167214203Y-69386224D01*
X167218247Y-69387028D01*
X167218253Y-69387030D01*
X167500535Y-69443180D01*
X167500541Y-69443181D01*
X167504574Y-69443983D01*
X167508679Y-69444252D01*
X167508686Y-69444253D01*
X167795881Y-69463076D01*
X167800000Y-69463346D01*
X167804119Y-69463076D01*
X168091314Y-69444253D01*
X168091321Y-69444252D01*
X168095426Y-69443983D01*
X168099459Y-69443181D01*
X168099465Y-69443180D01*
X168381747Y-69387030D01*
X168381753Y-69387028D01*
X168385797Y-69386224D01*
X168389702Y-69384898D01*
X168389711Y-69384896D01*
X168441652Y-69367264D01*
X168512587Y-69364308D01*
X168571248Y-69397482D01*
X168900671Y-69726905D01*
X168934697Y-69789217D01*
X168929632Y-69860032D01*
X168887085Y-69916868D01*
X168820565Y-69941679D01*
X168811576Y-69942000D01*
X168072115Y-69942000D01*
X168056876Y-69946475D01*
X168055671Y-69947865D01*
X168054000Y-69955548D01*
X168054000Y-72328000D01*
X168033998Y-72396121D01*
X167980342Y-72442614D01*
X167928000Y-72454000D01*
X165560116Y-72454000D01*
X165544877Y-72458475D01*
X165543672Y-72459865D01*
X165542001Y-72467548D01*
X165542001Y-73994669D01*
X165542371Y-74001491D01*
X165547845Y-74051895D01*
X165535316Y-74121777D01*
X165486994Y-74173792D01*
X165422582Y-74191500D01*
X163971309Y-74191500D01*
X163903188Y-74171498D01*
X163856695Y-74117842D01*
X163846591Y-74047568D01*
X163864049Y-73999384D01*
X163938275Y-73878968D01*
X163938276Y-73878966D01*
X163942115Y-73872738D01*
X163970513Y-73787120D01*
X163995632Y-73711389D01*
X163995632Y-73711387D01*
X163997797Y-73704861D01*
X164008500Y-73600400D01*
X164008500Y-72799600D01*
X163997526Y-72693834D01*
X163941550Y-72526054D01*
X163848478Y-72375652D01*
X163723303Y-72250695D01*
X163620818Y-72187522D01*
X163578968Y-72161725D01*
X163578966Y-72161724D01*
X163572738Y-72157885D01*
X163412254Y-72104655D01*
X163411389Y-72104368D01*
X163411387Y-72104368D01*
X163404861Y-72102203D01*
X163398025Y-72101503D01*
X163398022Y-72101502D01*
X163354969Y-72097091D01*
X163300400Y-72091500D01*
X162299600Y-72091500D01*
X162296354Y-72091837D01*
X162296350Y-72091837D01*
X162200692Y-72101762D01*
X162200688Y-72101763D01*
X162193834Y-72102474D01*
X162187298Y-72104655D01*
X162187296Y-72104655D01*
X162026054Y-72158450D01*
X162025565Y-72156984D01*
X161982818Y-72166500D01*
X159017140Y-72166500D01*
X158973118Y-72156740D01*
X158972738Y-72157885D01*
X158811389Y-72104368D01*
X158811387Y-72104368D01*
X158804861Y-72102203D01*
X158798025Y-72101503D01*
X158798022Y-72101502D01*
X158754969Y-72097091D01*
X158700400Y-72091500D01*
X157699600Y-72091500D01*
X157696354Y-72091837D01*
X157696350Y-72091837D01*
X157600692Y-72101762D01*
X157600688Y-72101763D01*
X157593834Y-72102474D01*
X157587298Y-72104655D01*
X157587296Y-72104655D01*
X157455194Y-72148728D01*
X157426054Y-72158450D01*
X157275652Y-72251522D01*
X157150695Y-72376697D01*
X157146855Y-72382927D01*
X157146854Y-72382928D01*
X157090157Y-72474908D01*
X157057885Y-72527262D01*
X157002203Y-72695139D01*
X156991500Y-72799600D01*
X156991500Y-73550400D01*
X154988500Y-73550400D01*
X154988500Y-71927885D01*
X165542000Y-71927885D01*
X165546475Y-71943124D01*
X165547865Y-71944329D01*
X165555548Y-71946000D01*
X167527885Y-71946000D01*
X167543124Y-71941525D01*
X167544329Y-71940135D01*
X167546000Y-71932452D01*
X167546000Y-69960116D01*
X167541525Y-69944877D01*
X167540135Y-69943672D01*
X167532452Y-69942001D01*
X166005331Y-69942001D01*
X165998510Y-69942371D01*
X165947648Y-69947895D01*
X165932396Y-69951521D01*
X165811946Y-69996676D01*
X165796351Y-70005214D01*
X165694276Y-70081715D01*
X165681715Y-70094276D01*
X165605214Y-70196351D01*
X165596676Y-70211946D01*
X165551522Y-70332394D01*
X165547895Y-70347649D01*
X165542369Y-70398514D01*
X165542000Y-70405328D01*
X165542000Y-71927885D01*
X154988500Y-71927885D01*
X154988500Y-60197095D01*
X156992001Y-60197095D01*
X156992338Y-60203614D01*
X157002257Y-60299206D01*
X157005149Y-60312600D01*
X157056588Y-60466784D01*
X157062761Y-60479962D01*
X157148063Y-60617807D01*
X157157099Y-60629208D01*
X157271829Y-60743739D01*
X157283240Y-60752751D01*
X157421243Y-60837816D01*
X157434424Y-60843963D01*
X157588710Y-60895138D01*
X157602086Y-60898005D01*
X157696438Y-60907672D01*
X157702854Y-60908000D01*
X157927885Y-60908000D01*
X157943124Y-60903525D01*
X157944329Y-60902135D01*
X157946000Y-60894452D01*
X157946000Y-60889884D01*
X158454000Y-60889884D01*
X158458475Y-60905123D01*
X158459865Y-60906328D01*
X158467548Y-60907999D01*
X158697095Y-60907999D01*
X158703614Y-60907662D01*
X158799206Y-60897743D01*
X158812600Y-60894851D01*
X158966784Y-60843412D01*
X158979962Y-60837239D01*
X159117807Y-60751937D01*
X159129208Y-60742901D01*
X159243739Y-60628171D01*
X159252751Y-60616760D01*
X159337816Y-60478757D01*
X159343963Y-60465576D01*
X159395138Y-60311290D01*
X159398005Y-60297914D01*
X159407672Y-60203562D01*
X159408000Y-60197146D01*
X159408000Y-60097115D01*
X159403525Y-60081876D01*
X159402135Y-60080671D01*
X159394452Y-60079000D01*
X158472115Y-60079000D01*
X158456876Y-60083475D01*
X158455671Y-60084865D01*
X158454000Y-60092548D01*
X158454000Y-60889884D01*
X157946000Y-60889884D01*
X157946000Y-60097115D01*
X157941525Y-60081876D01*
X157940135Y-60080671D01*
X157932452Y-60079000D01*
X157010116Y-60079000D01*
X156994877Y-60083475D01*
X156993672Y-60084865D01*
X156992001Y-60092548D01*
X156992001Y-60197095D01*
X154988500Y-60197095D01*
X154988500Y-58150400D01*
X156991500Y-58150400D01*
X156991837Y-58153646D01*
X156991837Y-58153650D01*
X157001752Y-58249204D01*
X157002474Y-58256166D01*
X157004655Y-58262702D01*
X157004655Y-58262704D01*
X157047731Y-58391817D01*
X157058450Y-58423946D01*
X157151522Y-58574348D01*
X157156704Y-58579521D01*
X157190785Y-58613543D01*
X157276697Y-58699305D01*
X157281235Y-58702102D01*
X157321824Y-58759353D01*
X157325054Y-58830276D01*
X157289428Y-58891687D01*
X157280932Y-58899062D01*
X157270793Y-58907098D01*
X157156261Y-59021829D01*
X157147249Y-59033240D01*
X157062184Y-59171243D01*
X157056037Y-59184424D01*
X157004862Y-59338710D01*
X157001995Y-59352086D01*
X156992328Y-59446438D01*
X156992000Y-59452855D01*
X156992000Y-59552885D01*
X156996475Y-59568124D01*
X156997865Y-59569329D01*
X157005548Y-59571000D01*
X159389884Y-59571000D01*
X159405123Y-59566525D01*
X159406328Y-59565135D01*
X159407999Y-59557452D01*
X159407999Y-59452905D01*
X159407662Y-59446386D01*
X159397743Y-59350794D01*
X159394851Y-59337400D01*
X159343412Y-59183216D01*
X159337239Y-59170038D01*
X159251937Y-59032193D01*
X159242900Y-59020791D01*
X159220743Y-58998672D01*
X159186665Y-58936389D01*
X159191668Y-58865569D01*
X159234166Y-58808697D01*
X159300665Y-58783829D01*
X159309762Y-58783500D01*
X161644289Y-58783500D01*
X161712410Y-58803502D01*
X161758903Y-58857158D01*
X161769007Y-58927432D01*
X161748442Y-58975308D01*
X161750695Y-58976697D01*
X161680822Y-59090052D01*
X161657885Y-59127262D01*
X161655581Y-59134209D01*
X161616164Y-59253049D01*
X161602203Y-59295139D01*
X161601503Y-59301975D01*
X161601502Y-59301978D01*
X161600703Y-59309781D01*
X161591500Y-59399600D01*
X161591500Y-60200400D01*
X161591837Y-60203646D01*
X161591837Y-60203650D01*
X161601752Y-60299206D01*
X161602474Y-60306166D01*
X161604655Y-60312702D01*
X161604655Y-60312704D01*
X161638136Y-60413059D01*
X161658450Y-60473946D01*
X161751522Y-60624348D01*
X161756704Y-60629521D01*
X161818451Y-60691161D01*
X161876697Y-60749305D01*
X161882927Y-60753145D01*
X161882928Y-60753146D01*
X162020288Y-60837816D01*
X162027262Y-60842115D01*
X162107005Y-60868564D01*
X162188611Y-60895632D01*
X162188613Y-60895632D01*
X162195139Y-60897797D01*
X162201975Y-60898497D01*
X162201978Y-60898498D01*
X162245031Y-60902909D01*
X162299600Y-60908500D01*
X163300400Y-60908500D01*
X163303646Y-60908163D01*
X163303650Y-60908163D01*
X163399308Y-60898238D01*
X163399312Y-60898237D01*
X163406166Y-60897526D01*
X163412702Y-60895345D01*
X163412704Y-60895345D01*
X163546853Y-60850589D01*
X163573946Y-60841550D01*
X163580913Y-60837239D01*
X163596883Y-60827356D01*
X163663186Y-60808500D01*
X169637179Y-60808500D01*
X169650786Y-60809237D01*
X169682284Y-60812659D01*
X169682289Y-60812659D01*
X169688410Y-60813324D01*
X169714660Y-60811027D01*
X169738410Y-60808950D01*
X169743236Y-60808621D01*
X169745708Y-60808500D01*
X169748791Y-60808500D01*
X169760760Y-60807326D01*
X169791528Y-60804310D01*
X169792841Y-60804188D01*
X169837106Y-60800315D01*
X169885435Y-60796087D01*
X169890554Y-60794600D01*
X169895855Y-60794080D01*
X169984856Y-60767209D01*
X169985989Y-60766874D01*
X170069436Y-60742630D01*
X170069440Y-60742628D01*
X170075358Y-60740909D01*
X170080090Y-60738456D01*
X170085191Y-60736916D01*
X170106839Y-60725406D01*
X170167282Y-60693269D01*
X170168448Y-60692657D01*
X170245475Y-60652729D01*
X170250948Y-60649892D01*
X170255111Y-60646569D01*
X170259818Y-60644066D01*
X170331940Y-60585245D01*
X170332796Y-60584554D01*
X170371995Y-60553262D01*
X170374499Y-60550758D01*
X170375217Y-60550116D01*
X170379550Y-60546415D01*
X170413084Y-60519065D01*
X170442310Y-60483736D01*
X170450301Y-60474955D01*
X170918890Y-60006366D01*
X170929033Y-59997264D01*
X170953729Y-59977408D01*
X170958536Y-59973543D01*
X170990803Y-59935089D01*
X170993983Y-59931442D01*
X170995626Y-59929630D01*
X170997820Y-59927436D01*
X171025153Y-59894162D01*
X171025859Y-59893311D01*
X171070451Y-59840169D01*
X171085665Y-59822037D01*
X171088233Y-59817367D01*
X171091614Y-59813250D01*
X171135488Y-59731425D01*
X171136117Y-59730266D01*
X171177973Y-59654130D01*
X171177976Y-59654122D01*
X171180944Y-59648724D01*
X171182556Y-59643642D01*
X171185073Y-59638948D01*
X171212273Y-59549980D01*
X171212619Y-59548869D01*
X171223359Y-59515015D01*
X171240746Y-59460205D01*
X171241340Y-59454909D01*
X171242898Y-59449813D01*
X171252301Y-59357254D01*
X171252422Y-59356118D01*
X171258011Y-59306284D01*
X171258011Y-59302757D01*
X171258066Y-59301772D01*
X171258513Y-59296092D01*
X171262885Y-59253049D01*
X171258570Y-59207402D01*
X171258011Y-59195544D01*
X171258011Y-54311361D01*
X171258748Y-54297753D01*
X171262170Y-54266250D01*
X171262836Y-54260123D01*
X171258458Y-54210081D01*
X171258132Y-54205299D01*
X171258011Y-54202821D01*
X171258011Y-54199742D01*
X171257712Y-54196688D01*
X171257711Y-54196677D01*
X171253824Y-54157040D01*
X171253702Y-54155726D01*
X171246134Y-54069229D01*
X171245598Y-54063098D01*
X171244111Y-54057979D01*
X171243591Y-54052678D01*
X171216720Y-53963677D01*
X171216385Y-53962544D01*
X171192141Y-53879097D01*
X171192139Y-53879093D01*
X171190420Y-53873175D01*
X171187967Y-53868443D01*
X171186427Y-53863342D01*
X171171736Y-53835711D01*
X171142780Y-53781251D01*
X171142168Y-53780085D01*
X171102240Y-53703058D01*
X171099403Y-53697585D01*
X171096080Y-53693422D01*
X171093577Y-53688715D01*
X171034772Y-53616613D01*
X171033944Y-53615586D01*
X171004980Y-53579303D01*
X171004975Y-53579298D01*
X171002773Y-53576539D01*
X171000272Y-53574038D01*
X170999630Y-53573320D01*
X170995917Y-53568972D01*
X170988153Y-53559452D01*
X170968576Y-53535449D01*
X170963834Y-53531526D01*
X170963832Y-53531524D01*
X170933238Y-53506214D01*
X170924458Y-53498224D01*
X169997482Y-52571248D01*
X169963456Y-52508936D01*
X169967264Y-52441652D01*
X169984896Y-52389711D01*
X169984898Y-52389702D01*
X169986224Y-52385797D01*
X169997753Y-52327838D01*
X170043180Y-52099465D01*
X170043181Y-52099459D01*
X170043983Y-52095426D01*
X170044506Y-52087457D01*
X170063076Y-51804119D01*
X170063346Y-51800000D01*
X170059083Y-51734959D01*
X170044253Y-51508686D01*
X170044252Y-51508679D01*
X170043983Y-51504574D01*
X169986224Y-51214203D01*
X169980500Y-51197339D01*
X169892385Y-50937761D01*
X169892384Y-50937760D01*
X169891059Y-50933855D01*
X169760115Y-50668327D01*
X169617075Y-50454252D01*
X169597926Y-50425593D01*
X169597922Y-50425588D01*
X169595633Y-50422162D01*
X169592919Y-50419068D01*
X169592915Y-50419062D01*
X169403136Y-50202662D01*
X169400427Y-50199573D01*
X169312727Y-50122662D01*
X169180938Y-50007085D01*
X169180932Y-50007081D01*
X169177838Y-50004367D01*
X169174412Y-50002078D01*
X169174407Y-50002074D01*
X168935106Y-49842179D01*
X168931673Y-49839885D01*
X168927974Y-49838061D01*
X168927969Y-49838058D01*
X168791687Y-49770852D01*
X168666145Y-49708941D01*
X168631743Y-49697263D01*
X168389710Y-49615104D01*
X168389706Y-49615103D01*
X168385797Y-49613776D01*
X168381753Y-49612972D01*
X168381747Y-49612970D01*
X168099465Y-49556820D01*
X168099459Y-49556819D01*
X168095426Y-49556017D01*
X168091321Y-49555748D01*
X168091314Y-49555747D01*
X167804119Y-49536924D01*
X167800000Y-49536654D01*
X167795881Y-49536924D01*
X167734959Y-49540917D01*
X167665676Y-49525413D01*
X167637623Y-49504282D01*
X166583675Y-48450334D01*
X166581221Y-48447812D01*
X166516138Y-48378988D01*
X166516135Y-48378986D01*
X166512668Y-48375319D01*
X166450239Y-48327589D01*
X166445108Y-48323448D01*
X166389133Y-48275809D01*
X166389132Y-48275808D01*
X166385280Y-48272530D01*
X166380955Y-48269911D01*
X166380950Y-48269907D01*
X166357176Y-48255509D01*
X166345929Y-48247837D01*
X166319826Y-48227880D01*
X166311822Y-48223588D01*
X166250599Y-48190761D01*
X166244868Y-48187493D01*
X166225693Y-48175880D01*
X166177642Y-48146779D01*
X166147181Y-48134472D01*
X166134841Y-48128692D01*
X166110350Y-48115560D01*
X166110351Y-48115560D01*
X166105891Y-48113169D01*
X166101110Y-48111523D01*
X166101106Y-48111521D01*
X166031599Y-48087588D01*
X166025421Y-48085278D01*
X165957266Y-48057742D01*
X165957267Y-48057742D01*
X165952571Y-48055845D01*
X165920539Y-48048568D01*
X165907441Y-48044837D01*
X165876369Y-48034138D01*
X165798900Y-48020757D01*
X165792496Y-48019477D01*
X165715856Y-48002065D01*
X165683047Y-48000001D01*
X165669547Y-47998415D01*
X165637164Y-47992821D01*
X165633207Y-47992641D01*
X165633204Y-47992641D01*
X165609494Y-47991564D01*
X165609475Y-47991564D01*
X165608075Y-47991500D01*
X165551892Y-47991500D01*
X165543980Y-47991251D01*
X165538386Y-47990899D01*
X165473587Y-47986822D01*
X165434545Y-47990650D01*
X165432008Y-47990899D01*
X165419712Y-47991500D01*
X162523306Y-47991500D01*
X162455185Y-47971498D01*
X162448985Y-47967151D01*
X162447754Y-47966342D01*
X162444204Y-47963633D01*
X162440310Y-47961452D01*
X162221546Y-47838938D01*
X162221543Y-47838937D01*
X162217660Y-47836762D01*
X162213521Y-47835161D01*
X162213513Y-47835157D01*
X161985865Y-47747088D01*
X161975500Y-47743078D01*
X161971175Y-47742075D01*
X161971170Y-47742074D01*
X161870004Y-47718625D01*
X161722555Y-47684448D01*
X161463873Y-47662044D01*
X161459438Y-47662288D01*
X161459434Y-47662288D01*
X161209058Y-47676067D01*
X161209051Y-47676068D01*
X161204615Y-47676312D01*
X161078218Y-47701454D01*
X160954325Y-47726097D01*
X160954320Y-47726098D01*
X160949953Y-47726967D01*
X160945750Y-47728443D01*
X160709177Y-47811521D01*
X160709174Y-47811522D01*
X160704969Y-47812999D01*
X160701016Y-47815052D01*
X160701010Y-47815055D01*
X160570816Y-47882686D01*
X160474552Y-47932691D01*
X160470937Y-47935274D01*
X160470931Y-47935278D01*
X160352093Y-48020202D01*
X160263298Y-48083656D01*
X160224285Y-48120873D01*
X160111314Y-48228642D01*
X160075423Y-48262880D01*
X159974371Y-48391064D01*
X159919381Y-48460819D01*
X159914675Y-48466788D01*
X159912443Y-48470630D01*
X159912440Y-48470635D01*
X159786499Y-48687457D01*
X159786496Y-48687464D01*
X159784261Y-48691311D01*
X159767890Y-48731729D01*
X159688457Y-48927838D01*
X159688454Y-48927846D01*
X159686784Y-48931970D01*
X159624189Y-49183963D01*
X159597724Y-49442261D01*
X159597899Y-49446713D01*
X159604653Y-49618602D01*
X159607918Y-49701712D01*
X159654567Y-49957138D01*
X159736740Y-50203442D01*
X159738730Y-50207425D01*
X159738731Y-50207427D01*
X159815039Y-50360141D01*
X159852799Y-50435711D01*
X159855326Y-50439367D01*
X159855327Y-50439369D01*
X159904153Y-50510014D01*
X159926500Y-50581653D01*
X159926500Y-51812491D01*
X159909454Y-51875776D01*
X159872646Y-51939147D01*
X159786499Y-52087457D01*
X159786496Y-52087464D01*
X159784261Y-52091311D01*
X159764685Y-52139643D01*
X159688457Y-52327838D01*
X159688454Y-52327846D01*
X159686784Y-52331970D01*
X159624189Y-52583963D01*
X159597724Y-52842261D01*
X159597899Y-52846713D01*
X159604653Y-53018602D01*
X159607918Y-53101712D01*
X159654567Y-53357138D01*
X159736740Y-53603442D01*
X159738730Y-53607425D01*
X159738731Y-53607427D01*
X159825587Y-53781251D01*
X159852799Y-53835711D01*
X159855326Y-53839367D01*
X159855327Y-53839369D01*
X159996189Y-54043180D01*
X160000426Y-54049310D01*
X160176677Y-54239978D01*
X160180131Y-54242790D01*
X160374578Y-54401095D01*
X160374582Y-54401098D01*
X160378035Y-54403909D01*
X160600482Y-54537833D01*
X160604577Y-54539567D01*
X160604579Y-54539568D01*
X160835480Y-54637342D01*
X160835487Y-54637344D01*
X160839581Y-54639078D01*
X161090559Y-54705624D01*
X161094983Y-54706148D01*
X161094985Y-54706148D01*
X161198416Y-54718389D01*
X161348410Y-54736142D01*
X161607988Y-54730025D01*
X161612384Y-54729293D01*
X161612387Y-54729293D01*
X161859713Y-54688127D01*
X161859717Y-54688126D01*
X161864115Y-54687394D01*
X162111680Y-54609099D01*
X162345744Y-54496704D01*
X162387252Y-54468969D01*
X162557927Y-54354928D01*
X162557931Y-54354925D01*
X162561635Y-54352450D01*
X162564952Y-54349479D01*
X162564956Y-54349476D01*
X162751730Y-54182187D01*
X162751731Y-54182186D01*
X162755048Y-54179215D01*
X162922121Y-53980457D01*
X163059523Y-53760141D01*
X163086617Y-53698857D01*
X163162713Y-53526729D01*
X163164511Y-53522662D01*
X163234991Y-53272760D01*
X163247741Y-53177838D01*
X163269129Y-53018602D01*
X163269130Y-53018594D01*
X163269556Y-53015420D01*
X163273183Y-52900000D01*
X163254845Y-52640998D01*
X163243521Y-52588397D01*
X163201132Y-52391510D01*
X163201132Y-52391508D01*
X163200196Y-52387163D01*
X163110326Y-52143561D01*
X162987029Y-51915052D01*
X162968149Y-51889491D01*
X162943766Y-51822813D01*
X162943500Y-51814631D01*
X162943500Y-51134500D01*
X162963502Y-51066379D01*
X163017158Y-51019886D01*
X163069500Y-51008500D01*
X164822969Y-51008500D01*
X164891090Y-51028502D01*
X164912064Y-51045405D01*
X165504282Y-51637623D01*
X165538308Y-51699935D01*
X165540917Y-51734959D01*
X165536654Y-51800000D01*
X165536924Y-51804119D01*
X165555495Y-52087457D01*
X165556017Y-52095426D01*
X165556819Y-52099459D01*
X165556820Y-52099465D01*
X165602247Y-52327838D01*
X165613776Y-52385797D01*
X165615103Y-52389706D01*
X165615104Y-52389710D01*
X165698925Y-52636640D01*
X165708941Y-52666145D01*
X165710765Y-52669843D01*
X165825855Y-52903222D01*
X165839885Y-52931673D01*
X165842179Y-52935106D01*
X165950529Y-53097263D01*
X166004367Y-53177838D01*
X166007081Y-53180932D01*
X166007085Y-53180938D01*
X166157768Y-53352758D01*
X166199573Y-53400427D01*
X166202662Y-53403136D01*
X166419062Y-53592915D01*
X166419068Y-53592919D01*
X166422162Y-53595633D01*
X166425588Y-53597922D01*
X166425593Y-53597926D01*
X166568514Y-53693422D01*
X166668327Y-53760115D01*
X166672026Y-53761939D01*
X166672031Y-53761942D01*
X166808313Y-53829148D01*
X166933855Y-53891059D01*
X166937760Y-53892384D01*
X166937761Y-53892385D01*
X167210290Y-53984896D01*
X167210294Y-53984897D01*
X167214203Y-53986224D01*
X167218247Y-53987028D01*
X167218253Y-53987030D01*
X167500535Y-54043180D01*
X167500541Y-54043181D01*
X167504574Y-54043983D01*
X167508679Y-54044252D01*
X167508686Y-54044253D01*
X167795881Y-54063076D01*
X167800000Y-54063346D01*
X167804119Y-54063076D01*
X168091314Y-54044253D01*
X168091321Y-54044252D01*
X168095426Y-54043983D01*
X168099459Y-54043181D01*
X168099465Y-54043180D01*
X168381747Y-53987030D01*
X168381753Y-53987028D01*
X168385797Y-53986224D01*
X168389702Y-53984898D01*
X168389711Y-53984896D01*
X168441652Y-53967264D01*
X168512587Y-53964308D01*
X168571248Y-53997482D01*
X168900671Y-54326905D01*
X168934697Y-54389217D01*
X168929632Y-54460032D01*
X168887085Y-54516868D01*
X168820565Y-54541679D01*
X168811576Y-54542000D01*
X168072115Y-54542000D01*
X168056876Y-54546475D01*
X168055671Y-54547865D01*
X168054000Y-54555548D01*
X168054000Y-56928000D01*
X168033998Y-56996121D01*
X167980342Y-57042614D01*
X167928000Y-57054000D01*
X165560116Y-57054000D01*
X165544877Y-57058475D01*
X165543672Y-57059865D01*
X165542001Y-57067548D01*
X165542001Y-58594669D01*
X165542371Y-58601491D01*
X165547845Y-58651895D01*
X165535316Y-58721777D01*
X165486994Y-58773792D01*
X165422582Y-58791500D01*
X163971309Y-58791500D01*
X163903188Y-58771498D01*
X163856695Y-58717842D01*
X163846591Y-58647568D01*
X163864049Y-58599384D01*
X163938275Y-58478968D01*
X163938276Y-58478966D01*
X163942115Y-58472738D01*
X163997797Y-58304861D01*
X164008500Y-58200400D01*
X164008500Y-57399600D01*
X163997526Y-57293834D01*
X163941550Y-57126054D01*
X163848478Y-56975652D01*
X163723303Y-56850695D01*
X163586714Y-56766500D01*
X163578968Y-56761725D01*
X163578966Y-56761724D01*
X163572738Y-56757885D01*
X163412254Y-56704655D01*
X163411389Y-56704368D01*
X163411387Y-56704368D01*
X163404861Y-56702203D01*
X163398025Y-56701503D01*
X163398022Y-56701502D01*
X163354969Y-56697091D01*
X163300400Y-56691500D01*
X162299600Y-56691500D01*
X162296354Y-56691837D01*
X162296350Y-56691837D01*
X162200692Y-56701762D01*
X162200688Y-56701763D01*
X162193834Y-56702474D01*
X162187298Y-56704655D01*
X162187296Y-56704655D01*
X162026054Y-56758450D01*
X162025565Y-56756984D01*
X161982818Y-56766500D01*
X159017140Y-56766500D01*
X158973118Y-56756740D01*
X158972738Y-56757885D01*
X158811389Y-56704368D01*
X158811387Y-56704368D01*
X158804861Y-56702203D01*
X158798025Y-56701503D01*
X158798022Y-56701502D01*
X158754969Y-56697091D01*
X158700400Y-56691500D01*
X157699600Y-56691500D01*
X157696354Y-56691837D01*
X157696350Y-56691837D01*
X157600692Y-56701762D01*
X157600688Y-56701763D01*
X157593834Y-56702474D01*
X157587298Y-56704655D01*
X157587296Y-56704655D01*
X157455194Y-56748728D01*
X157426054Y-56758450D01*
X157275652Y-56851522D01*
X157150695Y-56976697D01*
X157146855Y-56982927D01*
X157146854Y-56982928D01*
X157103045Y-57054000D01*
X157057885Y-57127262D01*
X157002203Y-57295139D01*
X156991500Y-57399600D01*
X156991500Y-58150400D01*
X154988500Y-58150400D01*
X154988500Y-56527885D01*
X165542000Y-56527885D01*
X165546475Y-56543124D01*
X165547865Y-56544329D01*
X165555548Y-56546000D01*
X167527885Y-56546000D01*
X167543124Y-56541525D01*
X167544329Y-56540135D01*
X167546000Y-56532452D01*
X167546000Y-54560116D01*
X167541525Y-54544877D01*
X167540135Y-54543672D01*
X167532452Y-54542001D01*
X166005331Y-54542001D01*
X165998510Y-54542371D01*
X165947648Y-54547895D01*
X165932396Y-54551521D01*
X165811946Y-54596676D01*
X165796351Y-54605214D01*
X165694276Y-54681715D01*
X165681715Y-54694276D01*
X165605214Y-54796351D01*
X165596676Y-54811946D01*
X165551522Y-54932394D01*
X165547895Y-54947649D01*
X165542369Y-54998514D01*
X165542000Y-55005328D01*
X165542000Y-56527885D01*
X154988500Y-56527885D01*
X154988500Y-46329812D01*
X154988630Y-46324096D01*
X154992256Y-46244237D01*
X154992486Y-46239183D01*
X154989335Y-46211949D01*
X154988500Y-46197468D01*
X154988500Y-44697095D01*
X156992001Y-44697095D01*
X156992338Y-44703614D01*
X157002257Y-44799206D01*
X157005149Y-44812600D01*
X157056588Y-44966784D01*
X157062761Y-44979962D01*
X157148063Y-45117807D01*
X157157099Y-45129208D01*
X157271829Y-45243739D01*
X157283240Y-45252751D01*
X157421243Y-45337816D01*
X157434424Y-45343963D01*
X157588710Y-45395138D01*
X157602086Y-45398005D01*
X157696438Y-45407672D01*
X157702854Y-45408000D01*
X157927885Y-45408000D01*
X157943124Y-45403525D01*
X157944329Y-45402135D01*
X157946000Y-45394452D01*
X157946000Y-45389884D01*
X158454000Y-45389884D01*
X158458475Y-45405123D01*
X158459865Y-45406328D01*
X158467548Y-45407999D01*
X158697095Y-45407999D01*
X158703614Y-45407662D01*
X158799206Y-45397743D01*
X158812600Y-45394851D01*
X158966784Y-45343412D01*
X158979962Y-45337239D01*
X159117807Y-45251937D01*
X159129208Y-45242901D01*
X159243739Y-45128171D01*
X159252751Y-45116760D01*
X159337816Y-44978757D01*
X159343963Y-44965576D01*
X159395138Y-44811290D01*
X159398005Y-44797914D01*
X159407672Y-44703562D01*
X159408000Y-44697146D01*
X159408000Y-44597115D01*
X159403525Y-44581876D01*
X159402135Y-44580671D01*
X159394452Y-44579000D01*
X158472115Y-44579000D01*
X158456876Y-44583475D01*
X158455671Y-44584865D01*
X158454000Y-44592548D01*
X158454000Y-45389884D01*
X157946000Y-45389884D01*
X157946000Y-44597115D01*
X157941525Y-44581876D01*
X157940135Y-44580671D01*
X157932452Y-44579000D01*
X157010116Y-44579000D01*
X156994877Y-44583475D01*
X156993672Y-44584865D01*
X156992001Y-44592548D01*
X156992001Y-44697095D01*
X154988500Y-44697095D01*
X154988500Y-43538999D01*
X154988037Y-43533240D01*
X154974346Y-43363076D01*
X154974345Y-43363071D01*
X154973940Y-43358035D01*
X154972341Y-43351522D01*
X154917244Y-43127208D01*
X154916037Y-43122294D01*
X154908830Y-43105314D01*
X154823165Y-42903502D01*
X154821188Y-42898844D01*
X154735456Y-42762704D01*
X154694528Y-42697712D01*
X154694526Y-42697709D01*
X154691833Y-42693433D01*
X154651015Y-42647134D01*
X154534650Y-42515142D01*
X154534647Y-42515139D01*
X154531302Y-42511345D01*
X154497159Y-42483300D01*
X154347628Y-42360474D01*
X154347625Y-42360472D01*
X154343722Y-42357266D01*
X154156423Y-42248255D01*
X154138290Y-42237701D01*
X154138288Y-42237700D01*
X154133922Y-42235159D01*
X154072345Y-42211522D01*
X153912022Y-42149980D01*
X153912018Y-42149979D01*
X153907298Y-42148167D01*
X153902348Y-42147133D01*
X153902345Y-42147132D01*
X153674631Y-42099560D01*
X153674627Y-42099560D01*
X153669680Y-42098526D01*
X153427183Y-42087514D01*
X153422163Y-42088095D01*
X153422159Y-42088095D01*
X153191071Y-42114833D01*
X153191067Y-42114834D01*
X153186044Y-42115415D01*
X153181180Y-42116791D01*
X153181177Y-42116792D01*
X153073958Y-42147132D01*
X152952468Y-42181510D01*
X152947892Y-42183644D01*
X152947886Y-42183646D01*
X152737046Y-42281962D01*
X152737042Y-42281964D01*
X152732464Y-42284099D01*
X152728288Y-42286937D01*
X152728281Y-42286941D01*
X152645323Y-42343320D01*
X152577738Y-42365066D01*
X152509126Y-42346822D01*
X152461269Y-42294379D01*
X152448500Y-42239108D01*
X152448500Y-41027885D01*
X165542000Y-41027885D01*
X165546475Y-41043124D01*
X165547865Y-41044329D01*
X165555548Y-41046000D01*
X167527885Y-41046000D01*
X167543124Y-41041525D01*
X167544329Y-41040135D01*
X167546000Y-41032452D01*
X167546000Y-39060116D01*
X167541525Y-39044877D01*
X167540135Y-39043672D01*
X167532452Y-39042001D01*
X166005331Y-39042001D01*
X165998510Y-39042371D01*
X165947648Y-39047895D01*
X165932396Y-39051521D01*
X165811946Y-39096676D01*
X165796351Y-39105214D01*
X165694276Y-39181715D01*
X165681715Y-39194276D01*
X165605214Y-39296351D01*
X165596676Y-39311946D01*
X165551522Y-39432394D01*
X165547895Y-39447649D01*
X165542369Y-39498514D01*
X165542000Y-39505328D01*
X165542000Y-41027885D01*
X152448500Y-41027885D01*
X152448500Y-40399002D01*
X152448549Y-40395483D01*
X152451193Y-40300850D01*
X152451193Y-40300847D01*
X152451334Y-40295795D01*
X152440941Y-40217902D01*
X152440241Y-40211353D01*
X152434346Y-40138077D01*
X152434345Y-40138073D01*
X152433940Y-40133035D01*
X152426101Y-40101122D01*
X152423573Y-40087738D01*
X152419898Y-40060194D01*
X152419229Y-40055180D01*
X152396522Y-39979971D01*
X152394781Y-39973608D01*
X152377244Y-39902209D01*
X152376037Y-39897294D01*
X152363199Y-39867048D01*
X152358561Y-39854237D01*
X152350530Y-39827638D01*
X152349067Y-39822792D01*
X152346849Y-39818244D01*
X152346846Y-39818237D01*
X152314629Y-39752182D01*
X152311893Y-39746180D01*
X152283162Y-39678495D01*
X152281188Y-39673844D01*
X152263681Y-39646044D01*
X152257052Y-39634134D01*
X152242654Y-39604612D01*
X152197357Y-39540400D01*
X152193699Y-39534914D01*
X152154529Y-39472714D01*
X152154528Y-39472713D01*
X152151833Y-39468433D01*
X152148492Y-39464644D01*
X152148488Y-39464638D01*
X152130102Y-39443783D01*
X152121656Y-39433088D01*
X152119574Y-39430137D01*
X152102726Y-39406253D01*
X152083091Y-39384750D01*
X152043375Y-39345034D01*
X152037956Y-39339264D01*
X151994650Y-39290142D01*
X151994647Y-39290139D01*
X151991302Y-39286345D01*
X151959011Y-39259821D01*
X151949892Y-39251551D01*
X149796160Y-37097819D01*
X149762077Y-37035244D01*
X149741927Y-36941652D01*
X149730196Y-36887163D01*
X149640326Y-36643561D01*
X149517029Y-36415052D01*
X149498149Y-36389491D01*
X149473766Y-36322813D01*
X149473500Y-36314631D01*
X149473500Y-35082248D01*
X149492588Y-35015571D01*
X149542393Y-34935711D01*
X149589523Y-34860141D01*
X149639547Y-34746990D01*
X149692713Y-34626729D01*
X149694511Y-34622662D01*
X149764991Y-34372760D01*
X149772664Y-34315634D01*
X149799129Y-34118602D01*
X149799130Y-34118594D01*
X149799556Y-34115420D01*
X149801388Y-34057134D01*
X149803082Y-34003222D01*
X149803082Y-34003217D01*
X149803183Y-34000000D01*
X149784845Y-33740998D01*
X149779229Y-33714910D01*
X149731132Y-33491510D01*
X149731132Y-33491508D01*
X149730196Y-33487163D01*
X149640326Y-33243561D01*
X149517029Y-33015052D01*
X149362765Y-32806196D01*
X149180612Y-32621159D01*
X149177073Y-32618458D01*
X149177066Y-32618452D01*
X148980795Y-32468663D01*
X148938778Y-32411435D01*
X148934370Y-32340575D01*
X148968972Y-32278581D01*
X149031598Y-32245136D01*
X149057237Y-32242500D01*
X160347665Y-32242500D01*
X160415786Y-32262502D01*
G37*
%TD.AperFunction*%
%TA.AperFunction,Conductor*%
G36*
X146253012Y-84625522D02*
G01*
X146283212Y-84664426D01*
X146341587Y-84781251D01*
X146368799Y-84835711D01*
X146371326Y-84839367D01*
X146371327Y-84839369D01*
X146512189Y-85043180D01*
X146516426Y-85049310D01*
X146692677Y-85239978D01*
X146696131Y-85242790D01*
X146890578Y-85401095D01*
X146890582Y-85401098D01*
X146894035Y-85403909D01*
X146897857Y-85406210D01*
X147066259Y-85507596D01*
X147116482Y-85537833D01*
X147120577Y-85539567D01*
X147120579Y-85539568D01*
X147351480Y-85637342D01*
X147351487Y-85637344D01*
X147355581Y-85639078D01*
X147461813Y-85667245D01*
X147602255Y-85704483D01*
X147602258Y-85704483D01*
X147606559Y-85705624D01*
X147606920Y-85705667D01*
X147671540Y-85739881D01*
X149394595Y-87462937D01*
X149428621Y-87525249D01*
X149431500Y-87552032D01*
X149431500Y-88615899D01*
X149411498Y-88684020D01*
X149357842Y-88730513D01*
X149299206Y-88741616D01*
X149298134Y-88741500D01*
X149094215Y-88741500D01*
X149039595Y-88727272D01*
X149039019Y-88728530D01*
X149034423Y-88726426D01*
X149030002Y-88723955D01*
X148871109Y-88666122D01*
X148806652Y-88642661D01*
X148806647Y-88642660D01*
X148801895Y-88640930D01*
X148796926Y-88639982D01*
X148796922Y-88639981D01*
X148568422Y-88596393D01*
X148563447Y-88595444D01*
X148407949Y-88591100D01*
X148325850Y-88588807D01*
X148325847Y-88588807D01*
X148320795Y-88588666D01*
X148315782Y-88589335D01*
X148315780Y-88589335D01*
X148123199Y-88615031D01*
X148080180Y-88620771D01*
X148075339Y-88622233D01*
X148075337Y-88622233D01*
X147929970Y-88666122D01*
X147893552Y-88671500D01*
X146170500Y-88671500D01*
X146102379Y-88651498D01*
X146055886Y-88597842D01*
X146044500Y-88545500D01*
X146044500Y-84720746D01*
X146064502Y-84652625D01*
X146118158Y-84606132D01*
X146188432Y-84596028D01*
X146253012Y-84625522D01*
G37*
%TD.AperFunction*%
%TA.AperFunction,Conductor*%
G36*
X146864623Y-47820502D02*
G01*
X146911116Y-47874158D01*
X146921220Y-47944432D01*
X146891726Y-48009012D01*
X146869760Y-48029014D01*
X146796929Y-48081061D01*
X146793298Y-48083656D01*
X146754285Y-48120873D01*
X146641314Y-48228642D01*
X146605423Y-48262880D01*
X146504371Y-48391064D01*
X146449381Y-48460819D01*
X146444675Y-48466788D01*
X146442443Y-48470630D01*
X146442440Y-48470635D01*
X146316499Y-48687457D01*
X146316496Y-48687464D01*
X146314261Y-48691311D01*
X146297890Y-48731729D01*
X146218457Y-48927838D01*
X146218454Y-48927846D01*
X146216784Y-48931970D01*
X146154189Y-49183963D01*
X146127724Y-49442261D01*
X146127899Y-49446713D01*
X146134653Y-49618602D01*
X146137918Y-49701712D01*
X146184567Y-49957138D01*
X146266740Y-50203442D01*
X146268730Y-50207425D01*
X146268731Y-50207427D01*
X146345039Y-50360141D01*
X146382799Y-50435711D01*
X146385326Y-50439367D01*
X146385327Y-50439369D01*
X146434153Y-50510014D01*
X146456500Y-50581653D01*
X146456500Y-51812491D01*
X146439454Y-51875776D01*
X146402646Y-51939147D01*
X146316499Y-52087457D01*
X146316496Y-52087464D01*
X146314261Y-52091311D01*
X146294685Y-52139643D01*
X146218457Y-52327838D01*
X146218454Y-52327846D01*
X146216784Y-52331970D01*
X146154189Y-52583963D01*
X146127724Y-52842261D01*
X146127899Y-52846713D01*
X146134653Y-53018602D01*
X146137918Y-53101712D01*
X146184567Y-53357138D01*
X146266740Y-53603442D01*
X146268730Y-53607425D01*
X146268731Y-53607427D01*
X146355587Y-53781251D01*
X146382799Y-53835711D01*
X146385326Y-53839367D01*
X146385327Y-53839369D01*
X146526189Y-54043180D01*
X146530426Y-54049310D01*
X146706677Y-54239978D01*
X146710131Y-54242790D01*
X146904578Y-54401095D01*
X146904582Y-54401098D01*
X146908035Y-54403909D01*
X147130482Y-54537833D01*
X147134577Y-54539567D01*
X147134579Y-54539568D01*
X147365480Y-54637342D01*
X147365487Y-54637344D01*
X147369581Y-54639078D01*
X147475813Y-54667245D01*
X147610515Y-54702961D01*
X147667317Y-54735658D01*
X149394595Y-56462937D01*
X149428621Y-56525249D01*
X149431500Y-56552032D01*
X149431500Y-57615899D01*
X149411498Y-57684020D01*
X149357842Y-57730513D01*
X149299206Y-57741616D01*
X149298134Y-57741500D01*
X149090376Y-57741500D01*
X149030836Y-57726545D01*
X149005891Y-57713169D01*
X148776369Y-57634138D01*
X148668592Y-57615522D01*
X148541074Y-57593496D01*
X148541068Y-57593495D01*
X148537164Y-57592821D01*
X148533203Y-57592641D01*
X148533202Y-57592641D01*
X148509494Y-57591564D01*
X148509475Y-57591564D01*
X148508075Y-57591500D01*
X147934016Y-57591500D01*
X147930498Y-57591451D01*
X147835851Y-57588807D01*
X147835848Y-57588807D01*
X147830795Y-57588666D01*
X147825782Y-57589335D01*
X147825779Y-57589335D01*
X147752911Y-57599057D01*
X147746354Y-57599758D01*
X147673080Y-57605654D01*
X147673079Y-57605654D01*
X147668035Y-57606060D01*
X147663124Y-57607266D01*
X147663119Y-57607267D01*
X147636139Y-57613894D01*
X147622750Y-57616424D01*
X147610315Y-57618083D01*
X147590180Y-57620770D01*
X147514949Y-57643484D01*
X147508604Y-57645220D01*
X147432294Y-57663963D01*
X147427642Y-57665938D01*
X147427638Y-57665939D01*
X147402052Y-57676800D01*
X147389239Y-57681438D01*
X147357792Y-57690932D01*
X147287138Y-57725392D01*
X147281204Y-57728097D01*
X147208844Y-57758812D01*
X147204564Y-57761507D01*
X147204553Y-57761513D01*
X147181047Y-57776316D01*
X147169140Y-57782944D01*
X147157087Y-57788823D01*
X147139612Y-57797346D01*
X147135483Y-57800259D01*
X147075403Y-57842641D01*
X147069914Y-57846301D01*
X147007714Y-57885471D01*
X147003433Y-57888167D01*
X146999644Y-57891508D01*
X146999638Y-57891512D01*
X146978783Y-57909898D01*
X146968088Y-57918344D01*
X146941253Y-57937274D01*
X146919750Y-57956909D01*
X146880034Y-57996625D01*
X146874264Y-58002044D01*
X146825142Y-58045350D01*
X146825139Y-58045353D01*
X146821345Y-58048698D01*
X146818135Y-58052606D01*
X146818134Y-58052607D01*
X146794821Y-58080989D01*
X146786551Y-58090108D01*
X143486334Y-61390325D01*
X143483812Y-61392779D01*
X143411319Y-61461332D01*
X143411014Y-61461009D01*
X143353130Y-61496668D01*
X143282146Y-61495314D01*
X143224132Y-61456948D01*
X143130106Y-61346858D01*
X143126898Y-61343102D01*
X142934376Y-61178672D01*
X142718502Y-61046384D01*
X142713932Y-61044491D01*
X142713928Y-61044489D01*
X142489164Y-60951389D01*
X142489162Y-60951388D01*
X142484591Y-60949495D01*
X142399968Y-60929179D01*
X142243216Y-60891546D01*
X142243210Y-60891545D01*
X142238403Y-60890391D01*
X142138584Y-60882535D01*
X142051655Y-60875693D01*
X142051648Y-60875693D01*
X142049199Y-60875500D01*
X141922801Y-60875500D01*
X141920352Y-60875693D01*
X141920345Y-60875693D01*
X141833416Y-60882535D01*
X141733597Y-60890391D01*
X141728790Y-60891545D01*
X141728784Y-60891546D01*
X141572032Y-60929179D01*
X141487409Y-60949495D01*
X141482838Y-60951388D01*
X141482836Y-60951389D01*
X141258072Y-61044489D01*
X141258068Y-61044491D01*
X141253498Y-61046384D01*
X141037624Y-61178672D01*
X140845102Y-61343102D01*
X140680672Y-61535624D01*
X140548384Y-61751498D01*
X140451495Y-61985409D01*
X140392391Y-62231597D01*
X140372526Y-62484000D01*
X140392391Y-62736403D01*
X140451495Y-62982591D01*
X140453388Y-62987162D01*
X140453389Y-62987164D01*
X140546321Y-63211521D01*
X140548384Y-63216502D01*
X140680672Y-63432376D01*
X140845102Y-63624898D01*
X141037624Y-63789328D01*
X141253498Y-63921616D01*
X141258068Y-63923509D01*
X141258072Y-63923511D01*
X141482836Y-64016611D01*
X141487409Y-64018505D01*
X141572032Y-64038821D01*
X141728784Y-64076454D01*
X141728790Y-64076455D01*
X141733597Y-64077609D01*
X141833416Y-64085465D01*
X141920345Y-64092307D01*
X141920352Y-64092307D01*
X141922801Y-64092500D01*
X142049199Y-64092500D01*
X142051648Y-64092307D01*
X142051655Y-64092307D01*
X142138584Y-64085465D01*
X142238403Y-64077609D01*
X142243210Y-64076455D01*
X142243216Y-64076454D01*
X142399968Y-64038821D01*
X142484591Y-64018505D01*
X142489164Y-64016611D01*
X142713928Y-63923511D01*
X142713932Y-63923509D01*
X142718502Y-63921616D01*
X142722722Y-63919030D01*
X142722732Y-63919025D01*
X142835665Y-63849819D01*
X142904198Y-63831280D01*
X142971875Y-63852736D01*
X143017208Y-63907375D01*
X143027500Y-63957251D01*
X143027500Y-76138108D01*
X143027251Y-76146019D01*
X143022822Y-76216413D01*
X143025568Y-76244419D01*
X143026899Y-76257992D01*
X143027500Y-76270288D01*
X143027500Y-88545500D01*
X143007498Y-88613621D01*
X142953842Y-88660114D01*
X142901500Y-88671500D01*
X141643029Y-88671500D01*
X141574908Y-88651498D01*
X141528415Y-88597842D01*
X141518311Y-88527568D01*
X141540706Y-88471974D01*
X141627435Y-88351277D01*
X141630453Y-88347077D01*
X141651320Y-88304857D01*
X141727136Y-88151453D01*
X141727137Y-88151451D01*
X141729430Y-88146811D01*
X141794370Y-87933069D01*
X141823529Y-87711590D01*
X141823611Y-87708240D01*
X141825074Y-87648365D01*
X141825074Y-87648361D01*
X141825156Y-87645000D01*
X141806852Y-87422361D01*
X141752431Y-87205702D01*
X141663354Y-87000840D01*
X141542014Y-86813277D01*
X141391670Y-86648051D01*
X141387619Y-86644852D01*
X141387615Y-86644848D01*
X141220414Y-86512800D01*
X141220410Y-86512798D01*
X141216359Y-86509598D01*
X141175053Y-86486796D01*
X141125084Y-86436364D01*
X141110312Y-86366921D01*
X141135428Y-86300516D01*
X141162780Y-86273909D01*
X141206603Y-86242650D01*
X141341860Y-86146173D01*
X141500096Y-85988489D01*
X141559594Y-85905689D01*
X141627435Y-85811277D01*
X141630453Y-85807077D01*
X141651320Y-85764857D01*
X141727136Y-85611453D01*
X141727137Y-85611451D01*
X141729430Y-85606811D01*
X141774025Y-85460032D01*
X141792865Y-85398023D01*
X141792865Y-85398021D01*
X141794370Y-85393069D01*
X141823529Y-85171590D01*
X141825156Y-85105000D01*
X141806852Y-84882361D01*
X141752431Y-84665702D01*
X141663354Y-84460840D01*
X141592647Y-84351544D01*
X141544822Y-84277617D01*
X141544820Y-84277614D01*
X141542014Y-84273277D01*
X141391670Y-84108051D01*
X141387619Y-84104852D01*
X141387615Y-84104848D01*
X141220414Y-83972800D01*
X141220410Y-83972798D01*
X141216359Y-83969598D01*
X141175053Y-83946796D01*
X141125084Y-83896364D01*
X141110312Y-83826921D01*
X141135428Y-83760516D01*
X141162780Y-83733909D01*
X141286795Y-83645450D01*
X141341860Y-83606173D01*
X141500096Y-83448489D01*
X141630453Y-83267077D01*
X141662652Y-83201928D01*
X141727136Y-83071453D01*
X141727137Y-83071451D01*
X141729430Y-83066811D01*
X141776626Y-82911470D01*
X141792865Y-82858023D01*
X141792865Y-82858021D01*
X141794370Y-82853069D01*
X141823529Y-82631590D01*
X141825156Y-82565000D01*
X141806852Y-82342361D01*
X141752431Y-82125702D01*
X141663354Y-81920840D01*
X141542014Y-81733277D01*
X141391670Y-81568051D01*
X141387619Y-81564852D01*
X141387615Y-81564848D01*
X141220414Y-81432800D01*
X141220410Y-81432798D01*
X141216359Y-81429598D01*
X141175053Y-81406796D01*
X141125084Y-81356364D01*
X141110312Y-81286921D01*
X141135428Y-81220516D01*
X141162780Y-81193909D01*
X141256963Y-81126729D01*
X141341860Y-81066173D01*
X141500096Y-80908489D01*
X141630453Y-80727077D01*
X141639417Y-80708941D01*
X141727136Y-80531453D01*
X141727137Y-80531451D01*
X141729430Y-80526811D01*
X141794370Y-80313069D01*
X141823529Y-80091590D01*
X141825156Y-80025000D01*
X141823527Y-80005175D01*
X141808778Y-79825792D01*
X141806852Y-79802361D01*
X141752431Y-79585702D01*
X141663354Y-79380840D01*
X141589305Y-79266377D01*
X141544822Y-79197617D01*
X141544820Y-79197614D01*
X141542014Y-79193277D01*
X141391670Y-79028051D01*
X141387619Y-79024852D01*
X141387615Y-79024848D01*
X141220414Y-78892800D01*
X141220410Y-78892798D01*
X141216359Y-78889598D01*
X141175053Y-78866796D01*
X141125084Y-78816364D01*
X141110312Y-78746921D01*
X141135428Y-78680516D01*
X141162780Y-78653909D01*
X141231579Y-78604835D01*
X141341860Y-78526173D01*
X141500096Y-78368489D01*
X141559594Y-78285689D01*
X141627435Y-78191277D01*
X141630453Y-78187077D01*
X141729430Y-77986811D01*
X141794370Y-77773069D01*
X141823529Y-77551590D01*
X141825156Y-77485000D01*
X141806852Y-77262361D01*
X141752431Y-77045702D01*
X141663354Y-76840840D01*
X141542014Y-76653277D01*
X141391670Y-76488051D01*
X141387619Y-76484852D01*
X141387615Y-76484848D01*
X141220414Y-76352800D01*
X141220410Y-76352798D01*
X141216359Y-76349598D01*
X141198893Y-76339956D01*
X141174569Y-76326529D01*
X141124598Y-76276097D01*
X141109826Y-76206654D01*
X141134942Y-76140248D01*
X141162294Y-76113641D01*
X141337328Y-75988792D01*
X141345200Y-75982139D01*
X141496052Y-75831812D01*
X141502730Y-75823965D01*
X141627003Y-75651020D01*
X141632313Y-75642183D01*
X141726670Y-75451267D01*
X141730469Y-75441672D01*
X141792377Y-75237910D01*
X141794555Y-75227837D01*
X141795986Y-75216962D01*
X141793775Y-75202778D01*
X141780617Y-75199000D01*
X140334000Y-75199000D01*
X140265879Y-75178998D01*
X140219386Y-75125342D01*
X140208000Y-75073000D01*
X140208000Y-74817000D01*
X140228002Y-74748879D01*
X140281658Y-74702386D01*
X140334000Y-74691000D01*
X141780344Y-74691000D01*
X141793875Y-74687027D01*
X141795180Y-74677947D01*
X141753214Y-74510875D01*
X141749894Y-74501124D01*
X141664972Y-74305814D01*
X141660105Y-74296739D01*
X141544426Y-74117926D01*
X141538136Y-74109757D01*
X141394806Y-73952240D01*
X141387273Y-73945215D01*
X141220139Y-73813222D01*
X141211556Y-73807520D01*
X141174602Y-73787120D01*
X141124631Y-73736687D01*
X141109859Y-73667245D01*
X141134975Y-73600839D01*
X141162327Y-73574232D01*
X141200317Y-73547134D01*
X141341860Y-73446173D01*
X141500096Y-73288489D01*
X141630453Y-73107077D01*
X141641849Y-73084020D01*
X141727136Y-72911453D01*
X141727137Y-72911451D01*
X141729430Y-72906811D01*
X141794370Y-72693069D01*
X141823529Y-72471590D01*
X141823628Y-72467548D01*
X141825074Y-72408365D01*
X141825074Y-72408361D01*
X141825156Y-72405000D01*
X141806852Y-72182361D01*
X141752431Y-71965702D01*
X141663354Y-71760840D01*
X141542014Y-71573277D01*
X141391670Y-71408051D01*
X141387619Y-71404852D01*
X141387615Y-71404848D01*
X141220414Y-71272800D01*
X141220410Y-71272798D01*
X141216359Y-71269598D01*
X141020789Y-71161638D01*
X141015920Y-71159914D01*
X141015916Y-71159912D01*
X140815087Y-71088795D01*
X140815083Y-71088794D01*
X140810212Y-71087069D01*
X140805119Y-71086162D01*
X140805116Y-71086161D01*
X140595373Y-71048800D01*
X140595367Y-71048799D01*
X140590284Y-71047894D01*
X140516452Y-71046992D01*
X140372081Y-71045228D01*
X140372079Y-71045228D01*
X140366911Y-71045165D01*
X140146091Y-71078955D01*
X139933756Y-71148357D01*
X139735607Y-71251507D01*
X139731474Y-71254610D01*
X139731471Y-71254612D01*
X139561100Y-71382530D01*
X139556965Y-71385635D01*
X139500537Y-71444684D01*
X139476283Y-71470064D01*
X139414759Y-71505494D01*
X139343846Y-71502037D01*
X139286060Y-71460791D01*
X139267207Y-71427243D01*
X139225767Y-71316703D01*
X139222615Y-71308295D01*
X139135261Y-71191739D01*
X139018705Y-71104385D01*
X138882316Y-71053255D01*
X138820134Y-71046500D01*
X137023866Y-71046500D01*
X136961684Y-71053255D01*
X136956569Y-71055173D01*
X136886749Y-71051529D01*
X136829104Y-71010084D01*
X136803017Y-70944054D01*
X136802500Y-70932647D01*
X136802500Y-70428950D01*
X136822502Y-70360829D01*
X136839405Y-70339855D01*
X139707111Y-67472148D01*
X139715892Y-67464158D01*
X139715901Y-67464150D01*
X139722591Y-67459905D01*
X139771132Y-67408214D01*
X139773886Y-67405373D01*
X139794437Y-67384822D01*
X139797149Y-67381326D01*
X139804860Y-67372297D01*
X139831055Y-67344402D01*
X139836483Y-67338622D01*
X139846812Y-67319834D01*
X139857669Y-67303305D01*
X139865958Y-67292620D01*
X139865959Y-67292618D01*
X139870815Y-67286358D01*
X139889168Y-67243945D01*
X139894379Y-67233308D01*
X139916635Y-67192826D01*
X139921968Y-67172055D01*
X139928370Y-67153353D01*
X139936890Y-67133666D01*
X139944116Y-67088041D01*
X139946524Y-67076415D01*
X139956040Y-67039354D01*
X139956040Y-67039353D01*
X139958011Y-67031677D01*
X139958011Y-67010231D01*
X139959562Y-66990520D01*
X139961677Y-66977167D01*
X139962917Y-66969338D01*
X139958570Y-66923353D01*
X139958011Y-66911495D01*
X139958011Y-59117567D01*
X139958570Y-59105711D01*
X139958570Y-59105708D01*
X139960299Y-59097974D01*
X139958073Y-59027142D01*
X139958011Y-59023184D01*
X139958011Y-58994079D01*
X139957455Y-58989679D01*
X139956523Y-58977841D01*
X139956444Y-58975308D01*
X139955073Y-58931680D01*
X139949091Y-58911090D01*
X139945081Y-58891727D01*
X139943386Y-58878307D01*
X139943386Y-58878306D01*
X139942393Y-58870447D01*
X139939477Y-58863082D01*
X139939476Y-58863078D01*
X139925385Y-58827490D01*
X139921546Y-58816280D01*
X139908656Y-58771911D01*
X139897740Y-58753454D01*
X139889045Y-58735704D01*
X139881146Y-58715755D01*
X139870742Y-58701435D01*
X139853988Y-58678375D01*
X139847471Y-58668454D01*
X139843871Y-58662367D01*
X139823963Y-58628704D01*
X139808802Y-58613543D01*
X139795960Y-58598508D01*
X139793171Y-58594669D01*
X139783352Y-58581154D01*
X139747752Y-58551703D01*
X139738973Y-58543714D01*
X137895894Y-56700634D01*
X137861868Y-56638322D01*
X137858989Y-56611539D01*
X137858989Y-51200106D01*
X137878991Y-51131985D01*
X137932647Y-51085492D01*
X138002921Y-51075388D01*
X138029938Y-51082396D01*
X138044692Y-51088030D01*
X138049760Y-51089061D01*
X138049763Y-51089062D01*
X138157017Y-51110883D01*
X138263597Y-51132567D01*
X138268772Y-51132757D01*
X138268774Y-51132757D01*
X138481673Y-51140564D01*
X138481677Y-51140564D01*
X138486837Y-51140753D01*
X138491957Y-51140097D01*
X138491959Y-51140097D01*
X138703288Y-51113025D01*
X138703289Y-51113025D01*
X138708416Y-51112368D01*
X138713366Y-51110883D01*
X138917429Y-51049661D01*
X138917434Y-51049659D01*
X138922384Y-51048174D01*
X139122994Y-50949896D01*
X139304860Y-50820173D01*
X139463096Y-50662489D01*
X139466110Y-50658295D01*
X139466119Y-50658284D01*
X139501282Y-50609349D01*
X139557276Y-50565701D01*
X139627980Y-50559255D01*
X139690944Y-50592058D01*
X139709036Y-50613882D01*
X139744174Y-50667578D01*
X139907858Y-50846836D01*
X139952310Y-50882068D01*
X140094129Y-50994473D01*
X140094135Y-50994477D01*
X140098098Y-50997618D01*
X140188557Y-51048174D01*
X140303419Y-51112368D01*
X140309998Y-51116045D01*
X140404749Y-51150532D01*
X140533348Y-51197339D01*
X140533353Y-51197340D01*
X140538105Y-51199070D01*
X140543074Y-51200018D01*
X140543078Y-51200019D01*
X140771578Y-51243607D01*
X140776553Y-51244556D01*
X140932051Y-51248900D01*
X141014150Y-51251193D01*
X141014153Y-51251193D01*
X141019205Y-51251334D01*
X141024218Y-51250665D01*
X141024220Y-51250665D01*
X141254806Y-51219898D01*
X141259820Y-51219229D01*
X141264661Y-51217767D01*
X141264663Y-51217767D01*
X141487357Y-51150532D01*
X141487361Y-51150530D01*
X141492208Y-51149067D01*
X141710388Y-51042654D01*
X141864619Y-50933855D01*
X141905514Y-50905007D01*
X141905518Y-50905004D01*
X141908747Y-50902726D01*
X141930250Y-50883091D01*
X143479684Y-49333658D01*
X143482206Y-49331204D01*
X143551005Y-49266144D01*
X143554681Y-49262668D01*
X143567846Y-49245450D01*
X143602412Y-49200239D01*
X143606554Y-49195107D01*
X143654187Y-49139138D01*
X143654189Y-49139135D01*
X143657470Y-49135280D01*
X143660090Y-49130954D01*
X143660095Y-49130947D01*
X143674491Y-49107176D01*
X143682163Y-49095929D01*
X143702120Y-49069826D01*
X143739243Y-49000592D01*
X143742507Y-48994868D01*
X143744541Y-48991510D01*
X143783221Y-48927642D01*
X143795528Y-48897181D01*
X143801308Y-48884841D01*
X143814440Y-48860350D01*
X143816831Y-48855891D01*
X143842412Y-48781599D01*
X143844722Y-48775421D01*
X143872258Y-48707266D01*
X143874155Y-48702571D01*
X143881432Y-48670539D01*
X143885163Y-48657441D01*
X143895862Y-48626369D01*
X143909243Y-48548900D01*
X143910526Y-48542482D01*
X143915869Y-48518968D01*
X143927935Y-48465856D01*
X143929999Y-48433047D01*
X143931585Y-48419547D01*
X143937179Y-48387164D01*
X143937359Y-48383204D01*
X143938436Y-48359494D01*
X143938436Y-48359475D01*
X143938500Y-48358075D01*
X143938500Y-48301893D01*
X143938749Y-48293981D01*
X143942860Y-48228642D01*
X143943178Y-48223588D01*
X143939101Y-48182009D01*
X143938500Y-48169713D01*
X143938500Y-47926500D01*
X143958502Y-47858379D01*
X144012158Y-47811886D01*
X144064500Y-47800500D01*
X146796502Y-47800500D01*
X146864623Y-47820502D01*
G37*
%TD.AperFunction*%
%TA.AperFunction,Conductor*%
G36*
X137139886Y-37631539D02*
G01*
X137196722Y-37674086D01*
X137207186Y-37690955D01*
X137208266Y-37693616D01*
X137324987Y-37884088D01*
X137471250Y-38052938D01*
X137643126Y-38195632D01*
X137713595Y-38236811D01*
X137716445Y-38238476D01*
X137765169Y-38290114D01*
X137778240Y-38359897D01*
X137751509Y-38425669D01*
X137711055Y-38459027D01*
X137703233Y-38463099D01*
X137698607Y-38465507D01*
X137694474Y-38468610D01*
X137694471Y-38468612D01*
X137560462Y-38569229D01*
X137519965Y-38599635D01*
X137516393Y-38603373D01*
X137443917Y-38679215D01*
X137365629Y-38761138D01*
X137239743Y-38945680D01*
X137216059Y-38996704D01*
X137164782Y-39107171D01*
X137145688Y-39148305D01*
X137085989Y-39363570D01*
X137062251Y-39585695D01*
X137062548Y-39590848D01*
X137062548Y-39590851D01*
X137067602Y-39678495D01*
X137075110Y-39808715D01*
X137076247Y-39813761D01*
X137076248Y-39813767D01*
X137085369Y-39854237D01*
X137124222Y-40026639D01*
X137208266Y-40233616D01*
X137324987Y-40424088D01*
X137471250Y-40592938D01*
X137643126Y-40735632D01*
X137713595Y-40776811D01*
X137716445Y-40778476D01*
X137765169Y-40830114D01*
X137778240Y-40899897D01*
X137751509Y-40965669D01*
X137711055Y-40999027D01*
X137698607Y-41005507D01*
X137694474Y-41008610D01*
X137694471Y-41008612D01*
X137524100Y-41136530D01*
X137519965Y-41139635D01*
X137516393Y-41143373D01*
X137392859Y-41272644D01*
X137365629Y-41301138D01*
X137362715Y-41305410D01*
X137362714Y-41305411D01*
X137331259Y-41351522D01*
X137239743Y-41485680D01*
X137145688Y-41688305D01*
X137085989Y-41903570D01*
X137062251Y-42125695D01*
X137062548Y-42130848D01*
X137062548Y-42130851D01*
X137070856Y-42274941D01*
X137075110Y-42348715D01*
X137076247Y-42353761D01*
X137076248Y-42353767D01*
X137090180Y-42415586D01*
X137085644Y-42486438D01*
X137056358Y-42532382D01*
X135662395Y-43926345D01*
X135653615Y-43934335D01*
X135653613Y-43934337D01*
X135646920Y-43938584D01*
X135641494Y-43944362D01*
X135641493Y-43944363D01*
X135598396Y-43990257D01*
X135595641Y-43993099D01*
X135575073Y-44013667D01*
X135572356Y-44017170D01*
X135564648Y-44026195D01*
X135533028Y-44059867D01*
X135529207Y-44066818D01*
X135529206Y-44066819D01*
X135522697Y-44078658D01*
X135511843Y-44095182D01*
X135504018Y-44105271D01*
X135498696Y-44112132D01*
X135495549Y-44119404D01*
X135495548Y-44119406D01*
X135480346Y-44154535D01*
X135475124Y-44165195D01*
X135452876Y-44205663D01*
X135447541Y-44226441D01*
X135441142Y-44245131D01*
X135432620Y-44264824D01*
X135431380Y-44272655D01*
X135425394Y-44310448D01*
X135422987Y-44322071D01*
X135415798Y-44350072D01*
X135411500Y-44366812D01*
X135411500Y-44388259D01*
X135409949Y-44407969D01*
X135406594Y-44429152D01*
X135407340Y-44437043D01*
X135410941Y-44475138D01*
X135411500Y-44486996D01*
X135411500Y-58009944D01*
X135410941Y-58021800D01*
X135409212Y-58029537D01*
X135409461Y-58037459D01*
X135411438Y-58100369D01*
X135411500Y-58104327D01*
X135411500Y-58133432D01*
X135412056Y-58137832D01*
X135412988Y-58149664D01*
X135414438Y-58195831D01*
X135416650Y-58203444D01*
X135416650Y-58203445D01*
X135420419Y-58216416D01*
X135424430Y-58235782D01*
X135427118Y-58257064D01*
X135430034Y-58264429D01*
X135430035Y-58264433D01*
X135444126Y-58300021D01*
X135447965Y-58311231D01*
X135460855Y-58355600D01*
X135471775Y-58374065D01*
X135480466Y-58391805D01*
X135488365Y-58411756D01*
X135497222Y-58423946D01*
X135515516Y-58449126D01*
X135522033Y-58459048D01*
X135541507Y-58491977D01*
X135541510Y-58491981D01*
X135545547Y-58498807D01*
X135560711Y-58513971D01*
X135573551Y-58529004D01*
X135586159Y-58546357D01*
X135612466Y-58568120D01*
X135621752Y-58575802D01*
X135630532Y-58583792D01*
X137226595Y-60179855D01*
X137260621Y-60242167D01*
X137263500Y-60268950D01*
X137263500Y-65715050D01*
X137243498Y-65783171D01*
X137226595Y-65804145D01*
X134466395Y-68564345D01*
X134457615Y-68572335D01*
X134457613Y-68572337D01*
X134450920Y-68576584D01*
X134445494Y-68582362D01*
X134445493Y-68582363D01*
X134402396Y-68628257D01*
X134399641Y-68631099D01*
X134379073Y-68651667D01*
X134376356Y-68655170D01*
X134368648Y-68664195D01*
X134337028Y-68697867D01*
X134333207Y-68704818D01*
X134333206Y-68704819D01*
X134326697Y-68716658D01*
X134315843Y-68733182D01*
X134308018Y-68743271D01*
X134302696Y-68750132D01*
X134299549Y-68757404D01*
X134299548Y-68757406D01*
X134284346Y-68792535D01*
X134279124Y-68803195D01*
X134256876Y-68843663D01*
X134251541Y-68864441D01*
X134245142Y-68883131D01*
X134236620Y-68902824D01*
X134229687Y-68946596D01*
X134229394Y-68948448D01*
X134226987Y-68960071D01*
X134219798Y-68988072D01*
X134215500Y-69004812D01*
X134215500Y-69026259D01*
X134213949Y-69045969D01*
X134210594Y-69067152D01*
X134213489Y-69097773D01*
X134214941Y-69113138D01*
X134215500Y-69124996D01*
X134215500Y-79251944D01*
X134214941Y-79263800D01*
X134213212Y-79271537D01*
X134213461Y-79279459D01*
X134215438Y-79342369D01*
X134215500Y-79346327D01*
X134215500Y-79375432D01*
X134216056Y-79379832D01*
X134216988Y-79391664D01*
X134218438Y-79437831D01*
X134222071Y-79450334D01*
X134224419Y-79458416D01*
X134228430Y-79477782D01*
X134231118Y-79499064D01*
X134234034Y-79506429D01*
X134234035Y-79506433D01*
X134248126Y-79542021D01*
X134251965Y-79553231D01*
X134264855Y-79597600D01*
X134275775Y-79616065D01*
X134284466Y-79633805D01*
X134292365Y-79653756D01*
X134308561Y-79676048D01*
X134319516Y-79691126D01*
X134326033Y-79701048D01*
X134345507Y-79733977D01*
X134345510Y-79733981D01*
X134349547Y-79740807D01*
X134364711Y-79755971D01*
X134377551Y-79771004D01*
X134390159Y-79788357D01*
X134413326Y-79807522D01*
X134425752Y-79817802D01*
X134434532Y-79825792D01*
X136603833Y-81995093D01*
X136637859Y-82057405D01*
X136636155Y-82117860D01*
X136610522Y-82210290D01*
X136582989Y-82309570D01*
X136559251Y-82531695D01*
X136559548Y-82536848D01*
X136559548Y-82536851D01*
X136571920Y-82751426D01*
X136555872Y-82820585D01*
X136504982Y-82870090D01*
X136435406Y-82884222D01*
X136369235Y-82858495D01*
X136357034Y-82847774D01*
X133697884Y-80188624D01*
X133663858Y-80126312D01*
X133660979Y-80099529D01*
X133660979Y-64007795D01*
X133680981Y-63939674D01*
X133734637Y-63893181D01*
X133804911Y-63883077D01*
X133852813Y-63900362D01*
X133883271Y-63919027D01*
X133883284Y-63919033D01*
X133887498Y-63921616D01*
X133892068Y-63923509D01*
X133892072Y-63923511D01*
X134116836Y-64016611D01*
X134121409Y-64018505D01*
X134206032Y-64038821D01*
X134362784Y-64076454D01*
X134362790Y-64076455D01*
X134367597Y-64077609D01*
X134467416Y-64085465D01*
X134554345Y-64092307D01*
X134554352Y-64092307D01*
X134556801Y-64092500D01*
X134683199Y-64092500D01*
X134685648Y-64092307D01*
X134685655Y-64092307D01*
X134772584Y-64085465D01*
X134872403Y-64077609D01*
X134877210Y-64076455D01*
X134877216Y-64076454D01*
X135033968Y-64038821D01*
X135118591Y-64018505D01*
X135123164Y-64016611D01*
X135347928Y-63923511D01*
X135347932Y-63923509D01*
X135352502Y-63921616D01*
X135568376Y-63789328D01*
X135760898Y-63624898D01*
X135925328Y-63432376D01*
X136057616Y-63216502D01*
X136059680Y-63211521D01*
X136152611Y-62987164D01*
X136152612Y-62987162D01*
X136154505Y-62982591D01*
X136213609Y-62736403D01*
X136233474Y-62484000D01*
X136213609Y-62231597D01*
X136154505Y-61985409D01*
X136057616Y-61751498D01*
X135925328Y-61535624D01*
X135760898Y-61343102D01*
X135568376Y-61178672D01*
X135352502Y-61046384D01*
X135347932Y-61044491D01*
X135347928Y-61044489D01*
X135123164Y-60951389D01*
X135123162Y-60951388D01*
X135118591Y-60949495D01*
X135033968Y-60929179D01*
X134877216Y-60891546D01*
X134877210Y-60891545D01*
X134872403Y-60890391D01*
X134772584Y-60882535D01*
X134685655Y-60875693D01*
X134685648Y-60875693D01*
X134683199Y-60875500D01*
X134556801Y-60875500D01*
X134554352Y-60875693D01*
X134554345Y-60875693D01*
X134467416Y-60882535D01*
X134367597Y-60890391D01*
X134362790Y-60891545D01*
X134362784Y-60891546D01*
X134206032Y-60929179D01*
X134121409Y-60949495D01*
X134116838Y-60951388D01*
X134116836Y-60951389D01*
X133892072Y-61044489D01*
X133892068Y-61044491D01*
X133887498Y-61046384D01*
X133883284Y-61048967D01*
X133883271Y-61048973D01*
X133852813Y-61067638D01*
X133784279Y-61086176D01*
X133716603Y-61064719D01*
X133671270Y-61010080D01*
X133660979Y-60960205D01*
X133660979Y-41058471D01*
X133680981Y-40990350D01*
X133697884Y-40969376D01*
X135327996Y-39339264D01*
X137006759Y-37660500D01*
X137069071Y-37626474D01*
X137139886Y-37631539D01*
G37*
%TD.AperFunction*%
%TA.AperFunction,Conductor*%
G36*
X135741012Y-74442726D02*
G01*
X135747595Y-74448855D01*
X136586647Y-75287907D01*
X136617065Y-75343121D01*
X136618538Y-75342659D01*
X136620086Y-75347599D01*
X136621222Y-75352639D01*
X136705266Y-75559616D01*
X136730382Y-75600602D01*
X136815515Y-75739526D01*
X136821987Y-75750088D01*
X136968250Y-75918938D01*
X137095217Y-76024348D01*
X137121983Y-76046569D01*
X137140126Y-76061632D01*
X137210595Y-76102811D01*
X137213445Y-76104476D01*
X137262169Y-76156114D01*
X137275240Y-76225897D01*
X137248509Y-76291669D01*
X137208055Y-76325027D01*
X137195607Y-76331507D01*
X137191474Y-76334610D01*
X137191471Y-76334612D01*
X137021100Y-76462530D01*
X137016965Y-76465635D01*
X136862629Y-76627138D01*
X136736743Y-76811680D01*
X136642688Y-77014305D01*
X136582989Y-77229570D01*
X136559251Y-77451695D01*
X136559548Y-77456848D01*
X136559548Y-77456851D01*
X136565011Y-77551590D01*
X136572110Y-77674715D01*
X136573247Y-77679761D01*
X136573248Y-77679767D01*
X136593119Y-77767939D01*
X136621222Y-77892639D01*
X136705266Y-78099616D01*
X136821987Y-78290088D01*
X136968250Y-78458938D01*
X137140126Y-78601632D01*
X137148864Y-78606738D01*
X137213445Y-78644476D01*
X137262169Y-78696114D01*
X137275240Y-78765897D01*
X137248509Y-78831669D01*
X137208055Y-78865027D01*
X137203228Y-78867540D01*
X137195607Y-78871507D01*
X137191474Y-78874610D01*
X137191471Y-78874612D01*
X137021100Y-79002530D01*
X137016965Y-79005635D01*
X137002505Y-79020767D01*
X136882085Y-79146779D01*
X136862629Y-79167138D01*
X136736743Y-79351680D01*
X136700432Y-79429906D01*
X136660909Y-79515052D01*
X136642688Y-79554305D01*
X136582989Y-79769570D01*
X136581350Y-79784912D01*
X136577962Y-79816613D01*
X136550835Y-79882223D01*
X136492543Y-79922751D01*
X136421593Y-79925331D01*
X136363580Y-79892320D01*
X135569405Y-79098145D01*
X135535379Y-79035833D01*
X135532500Y-79009050D01*
X135532500Y-74537950D01*
X135552502Y-74469829D01*
X135606158Y-74423336D01*
X135676432Y-74413232D01*
X135741012Y-74442726D01*
G37*
%TD.AperFunction*%
%TA.AperFunction,Conductor*%
G36*
X149885854Y-60185429D02*
G01*
X149888698Y-60188655D01*
X149920662Y-60214910D01*
X150046948Y-60318642D01*
X150076278Y-60342734D01*
X150080646Y-60345276D01*
X150265043Y-60452598D01*
X150286078Y-60464841D01*
X150290801Y-60466654D01*
X150507978Y-60550020D01*
X150507982Y-60550021D01*
X150512702Y-60551833D01*
X150517652Y-60552867D01*
X150517655Y-60552868D01*
X150745369Y-60600440D01*
X150745373Y-60600440D01*
X150750320Y-60601474D01*
X150992817Y-60612486D01*
X150997837Y-60611905D01*
X150997841Y-60611905D01*
X151228929Y-60585167D01*
X151228933Y-60585166D01*
X151233956Y-60584585D01*
X151238820Y-60583209D01*
X151238823Y-60583208D01*
X151462669Y-60519866D01*
X151462668Y-60519866D01*
X151467532Y-60518490D01*
X151472108Y-60516356D01*
X151472114Y-60516354D01*
X151682954Y-60418038D01*
X151682958Y-60418036D01*
X151687536Y-60415901D01*
X151691712Y-60413063D01*
X151691719Y-60413059D01*
X151774677Y-60356680D01*
X151842262Y-60334934D01*
X151910874Y-60353178D01*
X151958731Y-60405621D01*
X151971500Y-60460892D01*
X151971500Y-69868969D01*
X151951498Y-69937090D01*
X151897842Y-69983583D01*
X151827568Y-69993687D01*
X151762988Y-69964193D01*
X151756405Y-69958064D01*
X149796160Y-67997819D01*
X149762077Y-67935244D01*
X149741927Y-67841652D01*
X149730196Y-67787163D01*
X149640326Y-67543561D01*
X149517029Y-67315052D01*
X149498149Y-67289491D01*
X149473766Y-67222813D01*
X149473500Y-67214631D01*
X149473500Y-65982248D01*
X149492588Y-65915571D01*
X149544870Y-65831740D01*
X149589523Y-65760141D01*
X149609458Y-65715050D01*
X149692713Y-65526729D01*
X149694511Y-65522662D01*
X149764991Y-65272760D01*
X149799556Y-65015420D01*
X149800818Y-64975264D01*
X149803082Y-64903222D01*
X149803082Y-64903217D01*
X149803183Y-64900000D01*
X149784845Y-64640998D01*
X149779229Y-64614910D01*
X149731132Y-64391510D01*
X149731132Y-64391508D01*
X149730196Y-64387163D01*
X149640326Y-64143561D01*
X149517029Y-63915052D01*
X149362765Y-63706196D01*
X149180612Y-63521159D01*
X149177073Y-63518458D01*
X149177066Y-63518452D01*
X149021298Y-63399574D01*
X148974204Y-63363633D01*
X148747660Y-63236762D01*
X148743521Y-63235161D01*
X148743513Y-63235157D01*
X148515865Y-63147088D01*
X148505500Y-63143078D01*
X148501175Y-63142075D01*
X148501170Y-63142074D01*
X148400004Y-63118625D01*
X148252555Y-63084448D01*
X147993873Y-63062044D01*
X147989438Y-63062288D01*
X147989434Y-63062288D01*
X147739058Y-63076067D01*
X147739051Y-63076068D01*
X147734615Y-63076312D01*
X147621353Y-63098841D01*
X147484325Y-63126097D01*
X147484320Y-63126098D01*
X147479953Y-63126967D01*
X147475750Y-63128443D01*
X147239177Y-63211521D01*
X147239174Y-63211522D01*
X147234969Y-63212999D01*
X147231016Y-63215052D01*
X147231010Y-63215055D01*
X147100816Y-63282686D01*
X147004552Y-63332691D01*
X147000937Y-63335274D01*
X147000931Y-63335278D01*
X146882093Y-63420202D01*
X146793298Y-63483656D01*
X146753985Y-63521159D01*
X146641876Y-63628106D01*
X146605423Y-63662880D01*
X146444675Y-63866788D01*
X146442443Y-63870630D01*
X146442440Y-63870635D01*
X146316499Y-64087457D01*
X146316496Y-64087464D01*
X146314261Y-64091311D01*
X146294685Y-64139643D01*
X146287284Y-64157914D01*
X146243171Y-64213543D01*
X146175986Y-64236493D01*
X146107059Y-64219475D01*
X146058274Y-64167895D01*
X146044500Y-64110612D01*
X146044500Y-63151031D01*
X146064502Y-63082910D01*
X146081405Y-63061936D01*
X148508521Y-60634820D01*
X148570833Y-60600794D01*
X148587510Y-60598321D01*
X148598947Y-60597401D01*
X148636923Y-60594346D01*
X148636927Y-60594345D01*
X148641965Y-60593940D01*
X148646873Y-60592734D01*
X148646876Y-60592734D01*
X148872792Y-60537244D01*
X148877706Y-60536037D01*
X148882358Y-60534062D01*
X148882362Y-60534061D01*
X149036776Y-60468516D01*
X149086008Y-60458500D01*
X149298134Y-60458500D01*
X149360316Y-60451745D01*
X149496705Y-60400615D01*
X149613261Y-60313261D01*
X149697695Y-60200601D01*
X149754553Y-60158087D01*
X149825372Y-60153061D01*
X149885854Y-60185429D01*
G37*
%TD.AperFunction*%
%TD*%
%TA.AperFunction,NonConductor*%
G36*
X146497012Y-38507967D02*
G01*
X146518151Y-38531550D01*
X146530426Y-38549310D01*
X146706677Y-38739978D01*
X146710131Y-38742790D01*
X146904578Y-38901095D01*
X146904582Y-38901098D01*
X146908035Y-38903909D01*
X147130482Y-39037833D01*
X147134577Y-39039567D01*
X147134579Y-39039568D01*
X147365480Y-39137342D01*
X147365487Y-39137344D01*
X147369581Y-39139078D01*
X147404381Y-39148305D01*
X147610515Y-39202961D01*
X147667317Y-39235658D01*
X149394595Y-40962937D01*
X149428621Y-41025249D01*
X149431500Y-41052032D01*
X149431500Y-42115899D01*
X149411498Y-42184020D01*
X149357842Y-42230513D01*
X149299206Y-42241616D01*
X149298134Y-42241500D01*
X149090376Y-42241500D01*
X149030836Y-42226545D01*
X149005891Y-42213169D01*
X148776369Y-42134138D01*
X148664603Y-42114833D01*
X148541074Y-42093496D01*
X148541068Y-42093495D01*
X148537164Y-42092821D01*
X148533203Y-42092641D01*
X148533202Y-42092641D01*
X148509494Y-42091564D01*
X148509475Y-42091564D01*
X148508075Y-42091500D01*
X147401031Y-42091500D01*
X147332910Y-42071498D01*
X147311936Y-42054595D01*
X146325405Y-41068064D01*
X146291379Y-41005752D01*
X146288500Y-40978969D01*
X146288500Y-38603191D01*
X146308502Y-38535070D01*
X146362158Y-38488577D01*
X146432432Y-38478473D01*
X146497012Y-38507967D01*
G37*
%TD.AperFunction*%
%TA.AperFunction,NonConductor*%
G36*
X151913621Y-47820502D02*
G01*
X151960114Y-47874158D01*
X151971500Y-47926500D01*
X151971500Y-54468969D01*
X151951498Y-54537090D01*
X151897842Y-54583583D01*
X151827568Y-54593687D01*
X151762988Y-54564193D01*
X151756405Y-54558064D01*
X149796160Y-52597819D01*
X149762077Y-52535244D01*
X149741927Y-52441652D01*
X149730196Y-52387163D01*
X149640326Y-52143561D01*
X149517029Y-51915052D01*
X149498149Y-51889491D01*
X149473766Y-51822813D01*
X149473500Y-51814631D01*
X149473500Y-50582248D01*
X149492588Y-50515571D01*
X149542393Y-50435711D01*
X149589523Y-50360141D01*
X149659144Y-50202662D01*
X149692713Y-50126729D01*
X149694511Y-50122662D01*
X149764991Y-49872760D01*
X149799556Y-49615420D01*
X149800818Y-49575264D01*
X149803082Y-49503222D01*
X149803082Y-49503217D01*
X149803183Y-49500000D01*
X149784845Y-49240998D01*
X149779229Y-49214910D01*
X149731132Y-48991510D01*
X149731132Y-48991508D01*
X149730196Y-48987163D01*
X149640326Y-48743561D01*
X149517029Y-48515052D01*
X149362765Y-48306196D01*
X149350741Y-48293981D01*
X149249129Y-48190761D01*
X149180612Y-48121159D01*
X149177073Y-48118458D01*
X149177066Y-48118452D01*
X149056793Y-48026663D01*
X149014776Y-47969435D01*
X149010368Y-47898575D01*
X149044971Y-47836581D01*
X149107596Y-47803136D01*
X149133235Y-47800500D01*
X151845500Y-47800500D01*
X151913621Y-47820502D01*
G37*
%TD.AperFunction*%
%TA.AperFunction,NonConductor*%
G36*
X146253012Y-68997503D02*
G01*
X146283210Y-69036403D01*
X146382799Y-69235711D01*
X146385326Y-69239367D01*
X146385327Y-69239369D01*
X146505296Y-69412950D01*
X146530426Y-69449310D01*
X146543401Y-69463346D01*
X146657672Y-69586964D01*
X146706677Y-69639978D01*
X146710131Y-69642790D01*
X146904578Y-69801095D01*
X146904582Y-69801098D01*
X146908035Y-69803909D01*
X147130482Y-69937833D01*
X147134577Y-69939567D01*
X147134579Y-69939568D01*
X147365480Y-70037342D01*
X147365487Y-70037344D01*
X147369581Y-70039078D01*
X147475813Y-70067245D01*
X147610515Y-70102961D01*
X147667317Y-70135658D01*
X149394595Y-71862937D01*
X149428621Y-71925249D01*
X149431500Y-71952032D01*
X149431500Y-73015899D01*
X149411498Y-73084020D01*
X149357842Y-73130513D01*
X149299206Y-73141616D01*
X149298134Y-73141500D01*
X149090376Y-73141500D01*
X149030836Y-73126545D01*
X149005891Y-73113169D01*
X148776369Y-73034138D01*
X148670774Y-73015899D01*
X148541074Y-72993496D01*
X148541068Y-72993495D01*
X148537164Y-72992821D01*
X148533203Y-72992641D01*
X148533202Y-72992641D01*
X148509494Y-72991564D01*
X148509475Y-72991564D01*
X148508075Y-72991500D01*
X146250016Y-72991500D01*
X146246498Y-72991451D01*
X146242911Y-72991351D01*
X146166982Y-72989230D01*
X146099446Y-72967334D01*
X146054470Y-72912401D01*
X146044500Y-72863279D01*
X146044500Y-69092727D01*
X146064502Y-69024606D01*
X146118158Y-68978113D01*
X146188432Y-68968009D01*
X146253012Y-68997503D01*
G37*
%TD.AperFunction*%
%TA.AperFunction,NonConductor*%
G36*
X149885854Y-75585429D02*
G01*
X149888698Y-75588655D01*
X149964623Y-75651020D01*
X150046948Y-75718642D01*
X150076278Y-75742734D01*
X150094223Y-75753178D01*
X150265043Y-75852598D01*
X150286078Y-75864841D01*
X150290801Y-75866654D01*
X150507978Y-75950020D01*
X150507982Y-75950021D01*
X150512702Y-75951833D01*
X150517652Y-75952867D01*
X150517655Y-75952868D01*
X150745369Y-76000440D01*
X150745373Y-76000440D01*
X150750320Y-76001474D01*
X150992817Y-76012486D01*
X150997837Y-76011905D01*
X150997841Y-76011905D01*
X151228929Y-75985167D01*
X151228933Y-75985166D01*
X151233956Y-75984585D01*
X151238820Y-75983209D01*
X151238823Y-75983208D01*
X151451742Y-75922958D01*
X151467532Y-75918490D01*
X151472108Y-75916356D01*
X151472114Y-75916354D01*
X151682954Y-75818038D01*
X151682958Y-75818036D01*
X151687536Y-75815901D01*
X151691712Y-75813063D01*
X151691719Y-75813059D01*
X151774677Y-75756680D01*
X151842262Y-75734934D01*
X151910874Y-75753178D01*
X151958731Y-75805621D01*
X151971500Y-75860892D01*
X151971500Y-85468969D01*
X151951498Y-85537090D01*
X151897842Y-85583583D01*
X151827568Y-85593687D01*
X151762988Y-85564193D01*
X151756405Y-85558064D01*
X149778319Y-83579978D01*
X149744236Y-83517403D01*
X149738944Y-83492824D01*
X149716196Y-83387163D01*
X149626326Y-83143561D01*
X149503029Y-82915052D01*
X149498149Y-82908445D01*
X149473766Y-82841767D01*
X149473500Y-82833586D01*
X149473500Y-81559799D01*
X149492588Y-81493122D01*
X149528393Y-81435711D01*
X149575523Y-81360141D01*
X149592940Y-81320746D01*
X149678713Y-81126729D01*
X149680511Y-81122662D01*
X149750991Y-80872760D01*
X149769836Y-80732460D01*
X149785129Y-80618602D01*
X149785130Y-80618594D01*
X149785556Y-80615420D01*
X149786818Y-80575264D01*
X149789082Y-80503222D01*
X149789082Y-80503217D01*
X149789183Y-80500000D01*
X149770845Y-80240998D01*
X149765229Y-80214910D01*
X149717132Y-79991510D01*
X149717132Y-79991508D01*
X149716196Y-79987163D01*
X149626326Y-79743561D01*
X149503029Y-79515052D01*
X149348765Y-79306196D01*
X149166612Y-79121159D01*
X149163073Y-79118458D01*
X149163066Y-79118452D01*
X149007298Y-78999574D01*
X148960204Y-78963633D01*
X148833723Y-78892800D01*
X148737546Y-78838938D01*
X148737543Y-78838937D01*
X148733660Y-78836762D01*
X148729521Y-78835161D01*
X148729513Y-78835157D01*
X148550484Y-78765897D01*
X148491500Y-78743078D01*
X148487175Y-78742075D01*
X148487170Y-78742074D01*
X148367508Y-78714338D01*
X148238555Y-78684448D01*
X147979873Y-78662044D01*
X147975438Y-78662288D01*
X147975434Y-78662288D01*
X147725058Y-78676067D01*
X147725051Y-78676068D01*
X147720615Y-78676312D01*
X147621063Y-78696114D01*
X147470325Y-78726097D01*
X147470320Y-78726098D01*
X147465953Y-78726967D01*
X147461750Y-78728443D01*
X147225177Y-78811521D01*
X147225174Y-78811522D01*
X147220969Y-78812999D01*
X147217016Y-78815052D01*
X147217010Y-78815055D01*
X147102359Y-78874612D01*
X146990552Y-78932691D01*
X146986937Y-78935274D01*
X146986931Y-78935278D01*
X146868093Y-79020202D01*
X146779298Y-79083656D01*
X146591423Y-79262880D01*
X146430675Y-79466788D01*
X146428443Y-79470630D01*
X146428440Y-79470635D01*
X146302499Y-79687457D01*
X146302496Y-79687464D01*
X146300261Y-79691311D01*
X146298389Y-79695934D01*
X146287284Y-79723350D01*
X146243172Y-79778979D01*
X146175986Y-79801928D01*
X146107059Y-79784912D01*
X146058274Y-79733331D01*
X146044500Y-79676048D01*
X146044500Y-76867031D01*
X146064502Y-76798910D01*
X146081405Y-76777936D01*
X146813936Y-76045405D01*
X146876248Y-76011379D01*
X146903031Y-76008500D01*
X148461001Y-76008500D01*
X148463509Y-76008298D01*
X148463514Y-76008298D01*
X148636924Y-75994346D01*
X148636929Y-75994345D01*
X148641965Y-75993940D01*
X148646873Y-75992734D01*
X148646876Y-75992734D01*
X148872792Y-75937244D01*
X148877706Y-75936037D01*
X148882358Y-75934062D01*
X148882362Y-75934061D01*
X149036776Y-75868516D01*
X149086008Y-75858500D01*
X149298134Y-75858500D01*
X149360316Y-75851745D01*
X149496705Y-75800615D01*
X149613261Y-75713261D01*
X149697695Y-75600601D01*
X149754553Y-75558087D01*
X149825372Y-75553061D01*
X149885854Y-75585429D01*
G37*
%TD.AperFunction*%
%TA.AperFunction,NonConductor*%
G36*
X180282121Y-23134002D02*
G01*
X180328614Y-23187658D01*
X180340000Y-23240000D01*
X180340000Y-100966000D01*
X180319998Y-101034121D01*
X180266342Y-101080614D01*
X180214001Y-101092000D01*
X156719889Y-101091971D01*
X133227453Y-101091942D01*
X133159332Y-101071940D01*
X133112839Y-101018284D01*
X133101453Y-100965951D01*
X133101318Y-99034144D01*
X133101185Y-97132703D01*
X134890743Y-97132703D01*
X134928268Y-97417734D01*
X135004129Y-97695036D01*
X135116923Y-97959476D01*
X135264561Y-98206161D01*
X135444313Y-98430528D01*
X135652851Y-98628423D01*
X135886317Y-98796186D01*
X135890112Y-98798195D01*
X135890113Y-98798196D01*
X135911869Y-98809715D01*
X136140392Y-98930712D01*
X136410373Y-99029511D01*
X136691264Y-99090755D01*
X136719841Y-99093004D01*
X136914282Y-99108307D01*
X136914291Y-99108307D01*
X136916739Y-99108500D01*
X137072271Y-99108500D01*
X137074407Y-99108354D01*
X137074418Y-99108354D01*
X137282548Y-99094165D01*
X137282554Y-99094164D01*
X137286825Y-99093873D01*
X137291020Y-99093004D01*
X137291022Y-99093004D01*
X137427583Y-99064724D01*
X137568342Y-99035574D01*
X137839343Y-98939607D01*
X138094812Y-98807750D01*
X138098313Y-98805289D01*
X138098317Y-98805287D01*
X138212417Y-98725096D01*
X138330023Y-98642441D01*
X138540622Y-98446740D01*
X138722713Y-98224268D01*
X138872927Y-97979142D01*
X138988483Y-97715898D01*
X139067244Y-97439406D01*
X139107751Y-97154784D01*
X139107845Y-97136951D01*
X139107867Y-97132703D01*
X174890743Y-97132703D01*
X174928268Y-97417734D01*
X175004129Y-97695036D01*
X175116923Y-97959476D01*
X175264561Y-98206161D01*
X175444313Y-98430528D01*
X175652851Y-98628423D01*
X175886317Y-98796186D01*
X175890112Y-98798195D01*
X175890113Y-98798196D01*
X175911869Y-98809715D01*
X176140392Y-98930712D01*
X176410373Y-99029511D01*
X176691264Y-99090755D01*
X176719841Y-99093004D01*
X176914282Y-99108307D01*
X176914291Y-99108307D01*
X176916739Y-99108500D01*
X177072271Y-99108500D01*
X177074407Y-99108354D01*
X177074418Y-99108354D01*
X177282548Y-99094165D01*
X177282554Y-99094164D01*
X177286825Y-99093873D01*
X177291020Y-99093004D01*
X177291022Y-99093004D01*
X177427583Y-99064724D01*
X177568342Y-99035574D01*
X177839343Y-98939607D01*
X178094812Y-98807750D01*
X178098313Y-98805289D01*
X178098317Y-98805287D01*
X178212417Y-98725096D01*
X178330023Y-98642441D01*
X178540622Y-98446740D01*
X178722713Y-98224268D01*
X178872927Y-97979142D01*
X178988483Y-97715898D01*
X179067244Y-97439406D01*
X179107751Y-97154784D01*
X179107845Y-97136951D01*
X179109235Y-96871583D01*
X179109235Y-96871576D01*
X179109257Y-96867297D01*
X179071732Y-96582266D01*
X178995871Y-96304964D01*
X178883077Y-96040524D01*
X178735439Y-95793839D01*
X178555687Y-95569472D01*
X178347149Y-95371577D01*
X178113683Y-95203814D01*
X178091843Y-95192250D01*
X178068654Y-95179972D01*
X177859608Y-95069288D01*
X177624728Y-94983334D01*
X177593658Y-94971964D01*
X177593656Y-94971963D01*
X177589627Y-94970489D01*
X177308736Y-94909245D01*
X177277685Y-94906801D01*
X177085718Y-94891693D01*
X177085709Y-94891693D01*
X177083261Y-94891500D01*
X176927729Y-94891500D01*
X176925593Y-94891646D01*
X176925582Y-94891646D01*
X176717452Y-94905835D01*
X176717446Y-94905836D01*
X176713175Y-94906127D01*
X176708980Y-94906996D01*
X176708978Y-94906996D01*
X176605033Y-94928522D01*
X176431658Y-94964426D01*
X176160657Y-95060393D01*
X175905188Y-95192250D01*
X175901687Y-95194711D01*
X175901683Y-95194713D01*
X175891594Y-95201804D01*
X175669977Y-95357559D01*
X175459378Y-95553260D01*
X175277287Y-95775732D01*
X175127073Y-96020858D01*
X175011517Y-96284102D01*
X174932756Y-96560594D01*
X174892249Y-96845216D01*
X174892227Y-96849505D01*
X174892226Y-96849512D01*
X174890765Y-97128417D01*
X174890743Y-97132703D01*
X139107867Y-97132703D01*
X139109235Y-96871583D01*
X139109235Y-96871576D01*
X139109257Y-96867297D01*
X139071732Y-96582266D01*
X138995871Y-96304964D01*
X138883077Y-96040524D01*
X138735439Y-95793839D01*
X138555687Y-95569472D01*
X138347149Y-95371577D01*
X138113683Y-95203814D01*
X138091843Y-95192250D01*
X138068654Y-95179972D01*
X137859608Y-95069288D01*
X137624728Y-94983334D01*
X137593658Y-94971964D01*
X137593656Y-94971963D01*
X137589627Y-94970489D01*
X137308736Y-94909245D01*
X137277685Y-94906801D01*
X137085718Y-94891693D01*
X137085709Y-94891693D01*
X137083261Y-94891500D01*
X136927729Y-94891500D01*
X136925593Y-94891646D01*
X136925582Y-94891646D01*
X136717452Y-94905835D01*
X136717446Y-94905836D01*
X136713175Y-94906127D01*
X136708980Y-94906996D01*
X136708978Y-94906996D01*
X136605033Y-94928522D01*
X136431658Y-94964426D01*
X136160657Y-95060393D01*
X135905188Y-95192250D01*
X135901687Y-95194711D01*
X135901683Y-95194713D01*
X135891594Y-95201804D01*
X135669977Y-95357559D01*
X135459378Y-95553260D01*
X135277287Y-95775732D01*
X135127073Y-96020858D01*
X135011517Y-96284102D01*
X134932756Y-96560594D01*
X134892249Y-96845216D01*
X134892227Y-96849505D01*
X134892226Y-96849512D01*
X134890765Y-97128417D01*
X134890743Y-97132703D01*
X133101185Y-97132703D01*
X133100108Y-81757564D01*
X133120104Y-81689444D01*
X133173757Y-81642947D01*
X133244030Y-81632838D01*
X133308613Y-81662327D01*
X133315202Y-81668462D01*
X135874345Y-84227605D01*
X135882335Y-84236385D01*
X135886584Y-84243080D01*
X135892362Y-84248506D01*
X135892363Y-84248507D01*
X135938257Y-84291604D01*
X135941099Y-84294359D01*
X135961667Y-84314927D01*
X135965170Y-84317644D01*
X135974195Y-84325352D01*
X136007867Y-84356972D01*
X136014818Y-84360793D01*
X136014819Y-84360794D01*
X136026658Y-84367303D01*
X136043182Y-84378157D01*
X136053271Y-84385982D01*
X136060132Y-84391304D01*
X136067404Y-84394451D01*
X136067406Y-84394452D01*
X136102535Y-84409654D01*
X136113195Y-84414876D01*
X136143761Y-84431680D01*
X136153663Y-84437124D01*
X136174441Y-84442459D01*
X136193131Y-84448858D01*
X136212824Y-84457380D01*
X136256596Y-84464313D01*
X136258448Y-84464606D01*
X136270071Y-84467013D01*
X136298072Y-84474202D01*
X136314812Y-84478500D01*
X136336259Y-84478500D01*
X136355969Y-84480051D01*
X136377152Y-84483406D01*
X136423141Y-84479059D01*
X136434996Y-84478500D01*
X136520199Y-84478500D01*
X136588320Y-84498502D01*
X136634813Y-84552158D01*
X136644917Y-84622432D01*
X136641618Y-84638163D01*
X136582989Y-84849570D01*
X136559251Y-85071695D01*
X136559548Y-85076848D01*
X136559548Y-85076851D01*
X136565011Y-85171590D01*
X136572110Y-85294715D01*
X136573247Y-85299761D01*
X136573248Y-85299767D01*
X136575861Y-85311361D01*
X136621222Y-85512639D01*
X136682673Y-85663976D01*
X136694977Y-85694276D01*
X136705266Y-85719616D01*
X136752289Y-85796351D01*
X136819291Y-85905688D01*
X136821987Y-85910088D01*
X136968250Y-86078938D01*
X137140126Y-86221632D01*
X137210595Y-86262811D01*
X137213445Y-86264476D01*
X137262169Y-86316114D01*
X137275240Y-86385897D01*
X137248509Y-86451669D01*
X137208055Y-86485027D01*
X137195607Y-86491507D01*
X137191474Y-86494610D01*
X137191471Y-86494612D01*
X137167247Y-86512800D01*
X137016965Y-86625635D01*
X136862629Y-86787138D01*
X136736743Y-86971680D01*
X136642688Y-87174305D01*
X136582989Y-87389570D01*
X136559251Y-87611695D01*
X136559548Y-87616848D01*
X136559548Y-87616851D01*
X136567935Y-87762306D01*
X136572110Y-87834715D01*
X136573247Y-87839761D01*
X136573248Y-87839767D01*
X136593119Y-87927939D01*
X136621222Y-88052639D01*
X136705266Y-88259616D01*
X136756019Y-88342438D01*
X136819291Y-88445688D01*
X136821987Y-88450088D01*
X136968250Y-88618938D01*
X137140126Y-88761632D01*
X137162512Y-88774713D01*
X137213445Y-88804476D01*
X137262169Y-88856114D01*
X137275240Y-88925897D01*
X137248509Y-88991669D01*
X137208055Y-89025027D01*
X137195607Y-89031507D01*
X137191474Y-89034610D01*
X137191471Y-89034612D01*
X137021100Y-89162530D01*
X137016965Y-89165635D01*
X136862629Y-89327138D01*
X136736743Y-89511680D01*
X136701835Y-89586884D01*
X136649651Y-89699305D01*
X136642688Y-89714305D01*
X136582989Y-89929570D01*
X136559251Y-90151695D01*
X136559548Y-90156848D01*
X136559548Y-90156851D01*
X136567904Y-90301772D01*
X136572110Y-90374715D01*
X136573247Y-90379761D01*
X136573248Y-90379767D01*
X136576997Y-90396402D01*
X136621222Y-90592639D01*
X136705266Y-90799616D01*
X136756942Y-90883944D01*
X136778931Y-90919826D01*
X136821987Y-90990088D01*
X136968250Y-91158938D01*
X137063352Y-91237893D01*
X137131024Y-91294075D01*
X137140126Y-91301632D01*
X137333000Y-91414338D01*
X137541692Y-91494030D01*
X137546760Y-91495061D01*
X137546763Y-91495062D01*
X137651417Y-91516354D01*
X137760597Y-91538567D01*
X137765772Y-91538757D01*
X137765774Y-91538757D01*
X137978673Y-91546564D01*
X137978677Y-91546564D01*
X137983837Y-91546753D01*
X137988957Y-91546097D01*
X137988959Y-91546097D01*
X138200288Y-91519025D01*
X138200289Y-91519025D01*
X138205416Y-91518368D01*
X138266486Y-91500046D01*
X138414429Y-91455661D01*
X138414434Y-91455659D01*
X138419384Y-91454174D01*
X138619994Y-91355896D01*
X138801860Y-91226173D01*
X138813163Y-91214910D01*
X138935953Y-91092548D01*
X138960096Y-91068489D01*
X139000598Y-91012125D01*
X139090453Y-90887077D01*
X139091776Y-90888028D01*
X139138645Y-90844857D01*
X139208580Y-90832625D01*
X139274026Y-90860144D01*
X139301875Y-90891994D01*
X139318931Y-90919826D01*
X139361987Y-90990088D01*
X139378618Y-91009287D01*
X139387585Y-91020953D01*
X139405489Y-91047297D01*
X139460544Y-91128307D01*
X139627332Y-91304681D01*
X139631358Y-91307759D01*
X139631359Y-91307760D01*
X139816154Y-91449047D01*
X139816158Y-91449050D01*
X139820174Y-91452120D01*
X139824632Y-91454510D01*
X139824633Y-91454511D01*
X139916335Y-91503681D01*
X140034109Y-91566831D01*
X140263631Y-91645862D01*
X140362978Y-91663022D01*
X140498926Y-91686504D01*
X140498932Y-91686505D01*
X140502836Y-91687179D01*
X140506797Y-91687359D01*
X140506798Y-91687359D01*
X140530506Y-91688436D01*
X140530525Y-91688436D01*
X140531925Y-91688500D01*
X142891500Y-91688500D01*
X142959621Y-91708502D01*
X143006114Y-91762158D01*
X143017500Y-91814500D01*
X143017500Y-92939984D01*
X143017451Y-92943502D01*
X143014666Y-93043205D01*
X143015335Y-93048219D01*
X143025058Y-93121086D01*
X143025758Y-93127639D01*
X143032060Y-93205965D01*
X143039897Y-93237870D01*
X143042426Y-93251258D01*
X143046771Y-93283820D01*
X143048232Y-93288661D01*
X143048233Y-93288663D01*
X143069478Y-93359029D01*
X143071219Y-93365390D01*
X143089963Y-93441706D01*
X143091941Y-93446366D01*
X143102801Y-93471951D01*
X143107438Y-93484761D01*
X143116933Y-93516208D01*
X143119151Y-93520756D01*
X143119154Y-93520763D01*
X143151371Y-93586818D01*
X143154107Y-93592820D01*
X143184812Y-93665156D01*
X143187504Y-93669430D01*
X143202319Y-93692956D01*
X143208945Y-93704860D01*
X143223346Y-93734388D01*
X143226265Y-93738525D01*
X143226265Y-93738526D01*
X143268641Y-93798597D01*
X143272301Y-93804086D01*
X143314167Y-93870567D01*
X143317508Y-93874356D01*
X143317512Y-93874362D01*
X143335898Y-93895217D01*
X143344344Y-93905912D01*
X143363274Y-93932747D01*
X143382909Y-93954250D01*
X143422625Y-93993966D01*
X143428044Y-93999736D01*
X143471350Y-94048858D01*
X143471353Y-94048861D01*
X143474698Y-94052655D01*
X143478606Y-94055865D01*
X143478607Y-94055866D01*
X143506989Y-94079179D01*
X143516108Y-94087449D01*
X143950325Y-94521666D01*
X143952779Y-94524188D01*
X144021332Y-94596681D01*
X144083769Y-94644418D01*
X144088868Y-94648531D01*
X144148720Y-94699470D01*
X144153045Y-94702089D01*
X144153050Y-94702093D01*
X144176824Y-94716491D01*
X144188071Y-94724163D01*
X144214174Y-94744120D01*
X144283416Y-94781247D01*
X144289137Y-94784510D01*
X144332045Y-94810496D01*
X144356357Y-94825220D01*
X144386834Y-94837534D01*
X144399150Y-94843303D01*
X144428109Y-94858831D01*
X144502433Y-94884423D01*
X144508561Y-94886714D01*
X144540906Y-94899782D01*
X144576733Y-94914258D01*
X144576737Y-94914259D01*
X144581429Y-94916155D01*
X144586368Y-94917277D01*
X144586371Y-94917278D01*
X144613460Y-94923432D01*
X144626559Y-94927163D01*
X144657631Y-94937862D01*
X144735100Y-94951243D01*
X144741504Y-94952523D01*
X144818144Y-94969935D01*
X144850953Y-94971999D01*
X144864453Y-94973585D01*
X144896836Y-94979179D01*
X144900793Y-94979359D01*
X144900796Y-94979359D01*
X144924506Y-94980436D01*
X144924525Y-94980436D01*
X144925925Y-94980500D01*
X144982107Y-94980500D01*
X144990018Y-94980749D01*
X145060412Y-94985178D01*
X145101991Y-94981101D01*
X145114287Y-94980500D01*
X170917984Y-94980500D01*
X170921502Y-94980549D01*
X171016150Y-94983193D01*
X171016153Y-94983193D01*
X171021205Y-94983334D01*
X171099098Y-94972941D01*
X171105639Y-94972242D01*
X171134332Y-94969933D01*
X171178923Y-94966346D01*
X171178927Y-94966345D01*
X171183965Y-94965940D01*
X171215878Y-94958101D01*
X171229258Y-94955574D01*
X171261820Y-94951229D01*
X171266661Y-94949768D01*
X171266663Y-94949767D01*
X171337029Y-94928522D01*
X171343392Y-94926781D01*
X171382082Y-94917278D01*
X171419706Y-94908037D01*
X171449952Y-94895199D01*
X171462763Y-94890561D01*
X171494208Y-94881067D01*
X171498756Y-94878849D01*
X171498763Y-94878846D01*
X171564818Y-94846629D01*
X171570820Y-94843893D01*
X171620978Y-94822602D01*
X171643156Y-94813188D01*
X171670956Y-94795681D01*
X171682860Y-94789055D01*
X171712388Y-94774654D01*
X171776600Y-94729357D01*
X171782086Y-94725699D01*
X171844286Y-94686529D01*
X171844287Y-94686528D01*
X171848567Y-94683833D01*
X171852356Y-94680492D01*
X171852362Y-94680488D01*
X171873217Y-94662102D01*
X171883912Y-94653656D01*
X171894184Y-94646410D01*
X171910747Y-94634726D01*
X171932250Y-94615091D01*
X171971966Y-94575375D01*
X171977736Y-94569956D01*
X172026858Y-94526650D01*
X172026861Y-94526647D01*
X172030655Y-94523302D01*
X172033871Y-94519387D01*
X172057178Y-94491013D01*
X172065448Y-94481893D01*
X174277684Y-92269658D01*
X174280206Y-92267204D01*
X174349005Y-92202144D01*
X174352681Y-92198668D01*
X174400412Y-92136239D01*
X174404554Y-92131107D01*
X174452187Y-92075138D01*
X174452189Y-92075135D01*
X174455470Y-92071280D01*
X174458090Y-92066954D01*
X174458095Y-92066947D01*
X174472491Y-92043176D01*
X174480163Y-92031929D01*
X174500120Y-92005826D01*
X174537243Y-91936592D01*
X174540507Y-91930868D01*
X174560700Y-91897526D01*
X174581221Y-91863642D01*
X174593528Y-91833181D01*
X174599308Y-91820841D01*
X174612440Y-91796350D01*
X174614831Y-91791891D01*
X174629832Y-91748327D01*
X174640412Y-91717599D01*
X174642722Y-91711421D01*
X174670258Y-91643266D01*
X174672155Y-91638571D01*
X174679432Y-91606539D01*
X174683163Y-91593441D01*
X174693862Y-91562369D01*
X174707243Y-91484900D01*
X174708526Y-91478482D01*
X174708827Y-91477160D01*
X174725935Y-91401856D01*
X174727999Y-91369047D01*
X174729585Y-91355547D01*
X174735179Y-91323164D01*
X174735359Y-91319204D01*
X174736436Y-91295494D01*
X174736436Y-91295475D01*
X174736500Y-91294075D01*
X174736500Y-91237893D01*
X174736749Y-91229981D01*
X174740860Y-91164642D01*
X174741178Y-91159588D01*
X174737101Y-91118009D01*
X174736500Y-91105713D01*
X174736500Y-90800000D01*
X176586884Y-90800000D01*
X176605314Y-91010655D01*
X176606738Y-91015968D01*
X176606738Y-91015970D01*
X176651992Y-91184858D01*
X176660044Y-91214910D01*
X176662366Y-91219891D01*
X176662367Y-91219892D01*
X176746640Y-91400615D01*
X176749411Y-91406558D01*
X176870699Y-91579776D01*
X177020224Y-91729301D01*
X177193442Y-91850589D01*
X177198420Y-91852910D01*
X177198423Y-91852912D01*
X177377891Y-91936599D01*
X177385090Y-91939956D01*
X177390398Y-91941378D01*
X177390400Y-91941379D01*
X177584030Y-91993262D01*
X177584032Y-91993262D01*
X177589345Y-91994686D01*
X177800000Y-92013116D01*
X178010655Y-91994686D01*
X178015968Y-91993262D01*
X178015970Y-91993262D01*
X178209600Y-91941379D01*
X178209602Y-91941378D01*
X178214910Y-91939956D01*
X178222109Y-91936599D01*
X178401577Y-91852912D01*
X178401580Y-91852910D01*
X178406558Y-91850589D01*
X178579776Y-91729301D01*
X178729301Y-91579776D01*
X178850589Y-91406558D01*
X178853361Y-91400615D01*
X178937633Y-91219892D01*
X178937634Y-91219891D01*
X178939956Y-91214910D01*
X178948009Y-91184858D01*
X178993262Y-91015970D01*
X178993262Y-91015968D01*
X178994686Y-91010655D01*
X179013116Y-90800000D01*
X178994686Y-90589345D01*
X178991402Y-90577090D01*
X178941379Y-90390400D01*
X178941378Y-90390398D01*
X178939956Y-90385090D01*
X178932708Y-90369547D01*
X178852912Y-90198423D01*
X178852910Y-90198420D01*
X178850589Y-90193442D01*
X178729301Y-90020224D01*
X178579776Y-89870699D01*
X178406558Y-89749411D01*
X178401580Y-89747090D01*
X178401577Y-89747088D01*
X178219892Y-89662367D01*
X178219891Y-89662366D01*
X178214910Y-89660044D01*
X178209602Y-89658622D01*
X178209600Y-89658621D01*
X178015970Y-89606738D01*
X178015968Y-89606738D01*
X178010655Y-89605314D01*
X177800000Y-89586884D01*
X177589345Y-89605314D01*
X177584032Y-89606738D01*
X177584030Y-89606738D01*
X177390400Y-89658621D01*
X177390398Y-89658622D01*
X177385090Y-89660044D01*
X177380109Y-89662366D01*
X177380108Y-89662367D01*
X177198423Y-89747088D01*
X177198420Y-89747090D01*
X177193442Y-89749411D01*
X177020224Y-89870699D01*
X176870699Y-90020224D01*
X176749411Y-90193442D01*
X176747090Y-90198420D01*
X176747088Y-90198423D01*
X176667292Y-90369547D01*
X176660044Y-90385090D01*
X176658622Y-90390398D01*
X176658621Y-90390400D01*
X176608598Y-90577090D01*
X176605314Y-90589345D01*
X176586884Y-90800000D01*
X174736500Y-90800000D01*
X174736500Y-79800000D01*
X176586884Y-79800000D01*
X176605314Y-80010655D01*
X176606738Y-80015968D01*
X176606738Y-80015970D01*
X176653001Y-80188624D01*
X176660044Y-80214910D01*
X176749411Y-80406558D01*
X176870699Y-80579776D01*
X177020224Y-80729301D01*
X177193442Y-80850589D01*
X177198420Y-80852910D01*
X177198423Y-80852912D01*
X177325432Y-80912137D01*
X177385090Y-80939956D01*
X177390398Y-80941378D01*
X177390400Y-80941379D01*
X177584030Y-80993262D01*
X177584032Y-80993262D01*
X177589345Y-80994686D01*
X177800000Y-81013116D01*
X178010655Y-80994686D01*
X178015968Y-80993262D01*
X178015970Y-80993262D01*
X178209600Y-80941379D01*
X178209602Y-80941378D01*
X178214910Y-80939956D01*
X178274568Y-80912137D01*
X178401577Y-80852912D01*
X178401580Y-80852910D01*
X178406558Y-80850589D01*
X178579776Y-80729301D01*
X178729301Y-80579776D01*
X178850589Y-80406558D01*
X178939956Y-80214910D01*
X178947000Y-80188624D01*
X178993262Y-80015970D01*
X178993262Y-80015968D01*
X178994686Y-80010655D01*
X179013116Y-79800000D01*
X178994686Y-79589345D01*
X178974779Y-79515052D01*
X178941379Y-79390400D01*
X178941378Y-79390398D01*
X178939956Y-79385090D01*
X178935947Y-79376492D01*
X178852912Y-79198423D01*
X178852910Y-79198420D01*
X178850589Y-79193442D01*
X178729301Y-79020224D01*
X178579776Y-78870699D01*
X178406558Y-78749411D01*
X178401580Y-78747090D01*
X178401577Y-78747088D01*
X178219892Y-78662367D01*
X178219891Y-78662366D01*
X178214910Y-78660044D01*
X178209602Y-78658622D01*
X178209600Y-78658621D01*
X178015970Y-78606738D01*
X178015968Y-78606738D01*
X178010655Y-78605314D01*
X177800000Y-78586884D01*
X177589345Y-78605314D01*
X177584032Y-78606738D01*
X177584030Y-78606738D01*
X177390400Y-78658621D01*
X177390398Y-78658622D01*
X177385090Y-78660044D01*
X177380109Y-78662366D01*
X177380108Y-78662367D01*
X177198423Y-78747088D01*
X177198420Y-78747090D01*
X177193442Y-78749411D01*
X177020224Y-78870699D01*
X176870699Y-79020224D01*
X176749411Y-79193442D01*
X176747090Y-79198420D01*
X176747088Y-79198423D01*
X176664053Y-79376492D01*
X176660044Y-79385090D01*
X176658622Y-79390398D01*
X176658621Y-79390400D01*
X176625221Y-79515052D01*
X176605314Y-79589345D01*
X176586884Y-79800000D01*
X174736500Y-79800000D01*
X174736500Y-75200000D01*
X176586884Y-75200000D01*
X176605314Y-75410655D01*
X176606738Y-75415968D01*
X176606738Y-75415970D01*
X176643472Y-75553061D01*
X176660044Y-75614910D01*
X176662366Y-75619891D01*
X176662367Y-75619892D01*
X176746640Y-75800615D01*
X176749411Y-75806558D01*
X176870699Y-75979776D01*
X177020224Y-76129301D01*
X177193442Y-76250589D01*
X177198420Y-76252910D01*
X177198423Y-76252912D01*
X177380108Y-76337633D01*
X177385090Y-76339956D01*
X177390398Y-76341378D01*
X177390400Y-76341379D01*
X177584030Y-76393262D01*
X177584032Y-76393262D01*
X177589345Y-76394686D01*
X177800000Y-76413116D01*
X178010655Y-76394686D01*
X178015968Y-76393262D01*
X178015970Y-76393262D01*
X178209600Y-76341379D01*
X178209602Y-76341378D01*
X178214910Y-76339956D01*
X178219892Y-76337633D01*
X178401577Y-76252912D01*
X178401580Y-76252910D01*
X178406558Y-76250589D01*
X178579776Y-76129301D01*
X178729301Y-75979776D01*
X178850589Y-75806558D01*
X178853361Y-75800615D01*
X178937633Y-75619892D01*
X178937634Y-75619891D01*
X178939956Y-75614910D01*
X178956529Y-75553061D01*
X178993262Y-75415970D01*
X178993262Y-75415968D01*
X178994686Y-75410655D01*
X179013116Y-75200000D01*
X178994686Y-74989345D01*
X178993262Y-74984030D01*
X178941379Y-74790400D01*
X178941378Y-74790398D01*
X178939956Y-74785090D01*
X178937633Y-74780108D01*
X178852912Y-74598423D01*
X178852910Y-74598420D01*
X178850589Y-74593442D01*
X178729301Y-74420224D01*
X178579776Y-74270699D01*
X178406558Y-74149411D01*
X178401580Y-74147090D01*
X178401577Y-74147088D01*
X178219892Y-74062367D01*
X178219891Y-74062366D01*
X178214910Y-74060044D01*
X178209602Y-74058622D01*
X178209600Y-74058621D01*
X178015970Y-74006738D01*
X178015968Y-74006738D01*
X178010655Y-74005314D01*
X177800000Y-73986884D01*
X177589345Y-74005314D01*
X177584032Y-74006738D01*
X177584030Y-74006738D01*
X177390400Y-74058621D01*
X177390398Y-74058622D01*
X177385090Y-74060044D01*
X177380109Y-74062366D01*
X177380108Y-74062367D01*
X177198423Y-74147088D01*
X177198420Y-74147090D01*
X177193442Y-74149411D01*
X177020224Y-74270699D01*
X176870699Y-74420224D01*
X176749411Y-74593442D01*
X176747090Y-74598420D01*
X176747088Y-74598423D01*
X176662367Y-74780108D01*
X176660044Y-74785090D01*
X176658622Y-74790398D01*
X176658621Y-74790400D01*
X176606738Y-74984030D01*
X176605314Y-74989345D01*
X176586884Y-75200000D01*
X174736500Y-75200000D01*
X174736500Y-64200000D01*
X176586884Y-64200000D01*
X176605314Y-64410655D01*
X176660044Y-64614910D01*
X176749411Y-64806558D01*
X176870699Y-64979776D01*
X177020224Y-65129301D01*
X177193442Y-65250589D01*
X177198420Y-65252910D01*
X177198423Y-65252912D01*
X177380108Y-65337633D01*
X177385090Y-65339956D01*
X177390398Y-65341378D01*
X177390400Y-65341379D01*
X177584030Y-65393262D01*
X177584032Y-65393262D01*
X177589345Y-65394686D01*
X177800000Y-65413116D01*
X178010655Y-65394686D01*
X178015968Y-65393262D01*
X178015970Y-65393262D01*
X178209600Y-65341379D01*
X178209602Y-65341378D01*
X178214910Y-65339956D01*
X178219892Y-65337633D01*
X178401577Y-65252912D01*
X178401580Y-65252910D01*
X178406558Y-65250589D01*
X178579776Y-65129301D01*
X178729301Y-64979776D01*
X178850589Y-64806558D01*
X178939956Y-64614910D01*
X178994686Y-64410655D01*
X179013116Y-64200000D01*
X178994686Y-63989345D01*
X178993262Y-63984030D01*
X178941379Y-63790400D01*
X178941378Y-63790398D01*
X178939956Y-63785090D01*
X178903167Y-63706196D01*
X178852912Y-63598423D01*
X178852910Y-63598420D01*
X178850589Y-63593442D01*
X178729301Y-63420224D01*
X178579776Y-63270699D01*
X178406558Y-63149411D01*
X178401580Y-63147090D01*
X178401577Y-63147088D01*
X178219892Y-63062367D01*
X178219891Y-63062366D01*
X178214910Y-63060044D01*
X178209602Y-63058622D01*
X178209600Y-63058621D01*
X178015970Y-63006738D01*
X178015968Y-63006738D01*
X178010655Y-63005314D01*
X177800000Y-62986884D01*
X177589345Y-63005314D01*
X177584032Y-63006738D01*
X177584030Y-63006738D01*
X177390400Y-63058621D01*
X177390398Y-63058622D01*
X177385090Y-63060044D01*
X177380109Y-63062366D01*
X177380108Y-63062367D01*
X177198423Y-63147088D01*
X177198420Y-63147090D01*
X177193442Y-63149411D01*
X177020224Y-63270699D01*
X176870699Y-63420224D01*
X176749411Y-63593442D01*
X176747090Y-63598420D01*
X176747088Y-63598423D01*
X176696833Y-63706196D01*
X176660044Y-63785090D01*
X176658622Y-63790398D01*
X176658621Y-63790400D01*
X176606738Y-63984030D01*
X176605314Y-63989345D01*
X176586884Y-64200000D01*
X174736500Y-64200000D01*
X174736500Y-59800000D01*
X176586884Y-59800000D01*
X176605314Y-60010655D01*
X176606738Y-60015968D01*
X176606738Y-60015970D01*
X176643472Y-60153061D01*
X176660044Y-60214910D01*
X176662366Y-60219891D01*
X176662367Y-60219892D01*
X176746640Y-60400615D01*
X176749411Y-60406558D01*
X176870699Y-60579776D01*
X177020224Y-60729301D01*
X177193442Y-60850589D01*
X177198420Y-60852910D01*
X177198423Y-60852912D01*
X177316929Y-60908172D01*
X177385090Y-60939956D01*
X177390398Y-60941378D01*
X177390400Y-60941379D01*
X177584030Y-60993262D01*
X177584032Y-60993262D01*
X177589345Y-60994686D01*
X177800000Y-61013116D01*
X178010655Y-60994686D01*
X178015968Y-60993262D01*
X178015970Y-60993262D01*
X178209600Y-60941379D01*
X178209602Y-60941378D01*
X178214910Y-60939956D01*
X178283071Y-60908172D01*
X178401577Y-60852912D01*
X178401580Y-60852910D01*
X178406558Y-60850589D01*
X178579776Y-60729301D01*
X178729301Y-60579776D01*
X178850589Y-60406558D01*
X178853361Y-60400615D01*
X178937633Y-60219892D01*
X178937634Y-60219891D01*
X178939956Y-60214910D01*
X178956529Y-60153061D01*
X178993262Y-60015970D01*
X178993262Y-60015968D01*
X178994686Y-60010655D01*
X179013116Y-59800000D01*
X178994686Y-59589345D01*
X178992736Y-59582066D01*
X178941379Y-59390400D01*
X178941378Y-59390398D01*
X178939956Y-59385090D01*
X178928471Y-59360460D01*
X178852912Y-59198423D01*
X178852910Y-59198420D01*
X178850589Y-59193442D01*
X178729301Y-59020224D01*
X178579776Y-58870699D01*
X178406558Y-58749411D01*
X178401580Y-58747090D01*
X178401577Y-58747088D01*
X178219892Y-58662367D01*
X178219891Y-58662366D01*
X178214910Y-58660044D01*
X178209602Y-58658622D01*
X178209600Y-58658621D01*
X178015970Y-58606738D01*
X178015968Y-58606738D01*
X178010655Y-58605314D01*
X177800000Y-58586884D01*
X177589345Y-58605314D01*
X177584032Y-58606738D01*
X177584030Y-58606738D01*
X177390400Y-58658621D01*
X177390398Y-58658622D01*
X177385090Y-58660044D01*
X177380109Y-58662366D01*
X177380108Y-58662367D01*
X177198423Y-58747088D01*
X177198420Y-58747090D01*
X177193442Y-58749411D01*
X177020224Y-58870699D01*
X176870699Y-59020224D01*
X176749411Y-59193442D01*
X176747090Y-59198420D01*
X176747088Y-59198423D01*
X176671529Y-59360460D01*
X176660044Y-59385090D01*
X176658622Y-59390398D01*
X176658621Y-59390400D01*
X176607264Y-59582066D01*
X176605314Y-59589345D01*
X176586884Y-59800000D01*
X174736500Y-59800000D01*
X174736500Y-48800000D01*
X176586884Y-48800000D01*
X176605314Y-49010655D01*
X176660044Y-49214910D01*
X176749411Y-49406558D01*
X176870699Y-49579776D01*
X177020224Y-49729301D01*
X177193442Y-49850589D01*
X177198420Y-49852910D01*
X177198423Y-49852912D01*
X177380108Y-49937633D01*
X177385090Y-49939956D01*
X177390398Y-49941378D01*
X177390400Y-49941379D01*
X177584030Y-49993262D01*
X177584032Y-49993262D01*
X177589345Y-49994686D01*
X177800000Y-50013116D01*
X178010655Y-49994686D01*
X178015968Y-49993262D01*
X178015970Y-49993262D01*
X178209600Y-49941379D01*
X178209602Y-49941378D01*
X178214910Y-49939956D01*
X178219892Y-49937633D01*
X178401577Y-49852912D01*
X178401580Y-49852910D01*
X178406558Y-49850589D01*
X178579776Y-49729301D01*
X178729301Y-49579776D01*
X178850589Y-49406558D01*
X178939956Y-49214910D01*
X178994686Y-49010655D01*
X179013116Y-48800000D01*
X178994686Y-48589345D01*
X178993262Y-48584030D01*
X178941379Y-48390400D01*
X178941378Y-48390398D01*
X178939956Y-48385090D01*
X178933970Y-48372252D01*
X178852912Y-48198423D01*
X178852910Y-48198420D01*
X178850589Y-48193442D01*
X178729301Y-48020224D01*
X178579776Y-47870699D01*
X178406558Y-47749411D01*
X178401580Y-47747090D01*
X178401577Y-47747088D01*
X178219892Y-47662367D01*
X178219891Y-47662366D01*
X178214910Y-47660044D01*
X178209602Y-47658622D01*
X178209600Y-47658621D01*
X178015970Y-47606738D01*
X178015968Y-47606738D01*
X178010655Y-47605314D01*
X177800000Y-47586884D01*
X177589345Y-47605314D01*
X177584032Y-47606738D01*
X177584030Y-47606738D01*
X177390400Y-47658621D01*
X177390398Y-47658622D01*
X177385090Y-47660044D01*
X177380109Y-47662366D01*
X177380108Y-47662367D01*
X177198423Y-47747088D01*
X177198420Y-47747090D01*
X177193442Y-47749411D01*
X177020224Y-47870699D01*
X176870699Y-48020224D01*
X176749411Y-48193442D01*
X176747090Y-48198420D01*
X176747088Y-48198423D01*
X176666030Y-48372252D01*
X176660044Y-48385090D01*
X176658622Y-48390398D01*
X176658621Y-48390400D01*
X176606738Y-48584030D01*
X176605314Y-48589345D01*
X176586884Y-48800000D01*
X174736500Y-48800000D01*
X174736500Y-44300000D01*
X176586884Y-44300000D01*
X176605314Y-44510655D01*
X176606738Y-44515968D01*
X176606738Y-44515970D01*
X176637485Y-44630717D01*
X176660044Y-44714910D01*
X176662366Y-44719891D01*
X176662367Y-44719892D01*
X176741091Y-44888715D01*
X176749411Y-44906558D01*
X176870699Y-45079776D01*
X177020224Y-45229301D01*
X177193442Y-45350589D01*
X177198420Y-45352910D01*
X177198423Y-45352912D01*
X177316929Y-45408172D01*
X177385090Y-45439956D01*
X177390398Y-45441378D01*
X177390400Y-45441379D01*
X177584030Y-45493262D01*
X177584032Y-45493262D01*
X177589345Y-45494686D01*
X177800000Y-45513116D01*
X178010655Y-45494686D01*
X178015968Y-45493262D01*
X178015970Y-45493262D01*
X178209600Y-45441379D01*
X178209602Y-45441378D01*
X178214910Y-45439956D01*
X178283071Y-45408172D01*
X178401577Y-45352912D01*
X178401580Y-45352910D01*
X178406558Y-45350589D01*
X178579776Y-45229301D01*
X178729301Y-45079776D01*
X178850589Y-44906558D01*
X178858910Y-44888715D01*
X178937633Y-44719892D01*
X178937634Y-44719891D01*
X178939956Y-44714910D01*
X178962516Y-44630717D01*
X178993262Y-44515970D01*
X178993262Y-44515968D01*
X178994686Y-44510655D01*
X179013116Y-44300000D01*
X178994686Y-44089345D01*
X178993262Y-44084030D01*
X178941379Y-43890400D01*
X178941378Y-43890398D01*
X178939956Y-43885090D01*
X178937633Y-43880108D01*
X178852912Y-43698423D01*
X178852910Y-43698420D01*
X178850589Y-43693442D01*
X178729301Y-43520224D01*
X178579776Y-43370699D01*
X178406558Y-43249411D01*
X178401580Y-43247090D01*
X178401577Y-43247088D01*
X178219892Y-43162367D01*
X178219891Y-43162366D01*
X178214910Y-43160044D01*
X178209602Y-43158622D01*
X178209600Y-43158621D01*
X178015970Y-43106738D01*
X178015968Y-43106738D01*
X178010655Y-43105314D01*
X177800000Y-43086884D01*
X177589345Y-43105314D01*
X177584032Y-43106738D01*
X177584030Y-43106738D01*
X177390400Y-43158621D01*
X177390398Y-43158622D01*
X177385090Y-43160044D01*
X177380109Y-43162366D01*
X177380108Y-43162367D01*
X177198423Y-43247088D01*
X177198420Y-43247090D01*
X177193442Y-43249411D01*
X177020224Y-43370699D01*
X176870699Y-43520224D01*
X176749411Y-43693442D01*
X176747090Y-43698420D01*
X176747088Y-43698423D01*
X176662367Y-43880108D01*
X176660044Y-43885090D01*
X176658622Y-43890398D01*
X176658621Y-43890400D01*
X176606738Y-44084030D01*
X176605314Y-44089345D01*
X176586884Y-44300000D01*
X174736500Y-44300000D01*
X174736500Y-34822016D01*
X174736549Y-34818498D01*
X174739193Y-34723850D01*
X174739193Y-34723847D01*
X174739334Y-34718795D01*
X174728941Y-34640902D01*
X174728241Y-34634353D01*
X174727301Y-34622662D01*
X174721940Y-34556035D01*
X174714101Y-34524122D01*
X174711573Y-34510738D01*
X174711286Y-34508583D01*
X174707229Y-34478180D01*
X174696118Y-34441379D01*
X174684522Y-34402971D01*
X174682781Y-34396608D01*
X174677976Y-34377045D01*
X174664037Y-34320294D01*
X174651199Y-34290048D01*
X174646561Y-34277237D01*
X174638530Y-34250638D01*
X174637067Y-34245792D01*
X174634849Y-34241244D01*
X174634846Y-34241237D01*
X174602629Y-34175182D01*
X174599893Y-34169180D01*
X174571162Y-34101495D01*
X174569188Y-34096844D01*
X174551681Y-34069044D01*
X174545052Y-34057134D01*
X174544899Y-34056820D01*
X174530654Y-34027612D01*
X174485357Y-33963400D01*
X174481699Y-33957914D01*
X174442529Y-33895714D01*
X174442528Y-33895713D01*
X174439833Y-33891433D01*
X174436492Y-33887644D01*
X174436488Y-33887638D01*
X174418102Y-33866783D01*
X174409656Y-33856088D01*
X174393009Y-33832490D01*
X174390726Y-33829253D01*
X174371091Y-33807750D01*
X174331375Y-33768034D01*
X174325956Y-33762264D01*
X174282650Y-33713142D01*
X174282647Y-33713139D01*
X174279302Y-33709345D01*
X174247011Y-33682821D01*
X174237892Y-33674551D01*
X173863341Y-33300000D01*
X176586884Y-33300000D01*
X176605314Y-33510655D01*
X176606738Y-33515968D01*
X176606738Y-33515970D01*
X176641120Y-33644283D01*
X176660044Y-33714910D01*
X176662366Y-33719891D01*
X176662367Y-33719892D01*
X176730864Y-33866783D01*
X176749411Y-33906558D01*
X176870699Y-34079776D01*
X177020224Y-34229301D01*
X177193442Y-34350589D01*
X177198420Y-34352910D01*
X177198423Y-34352912D01*
X177299001Y-34399812D01*
X177385090Y-34439956D01*
X177390398Y-34441378D01*
X177390400Y-34441379D01*
X177584030Y-34493262D01*
X177584032Y-34493262D01*
X177589345Y-34494686D01*
X177800000Y-34513116D01*
X178010655Y-34494686D01*
X178015968Y-34493262D01*
X178015970Y-34493262D01*
X178209600Y-34441379D01*
X178209602Y-34441378D01*
X178214910Y-34439956D01*
X178300999Y-34399812D01*
X178401577Y-34352912D01*
X178401580Y-34352910D01*
X178406558Y-34350589D01*
X178579776Y-34229301D01*
X178729301Y-34079776D01*
X178850589Y-33906558D01*
X178869137Y-33866783D01*
X178937633Y-33719892D01*
X178937634Y-33719891D01*
X178939956Y-33714910D01*
X178958881Y-33644283D01*
X178993262Y-33515970D01*
X178993262Y-33515968D01*
X178994686Y-33510655D01*
X179013116Y-33300000D01*
X178994686Y-33089345D01*
X178993262Y-33084030D01*
X178941379Y-32890400D01*
X178941378Y-32890398D01*
X178939956Y-32885090D01*
X178903167Y-32806196D01*
X178852912Y-32698423D01*
X178852910Y-32698420D01*
X178850589Y-32693442D01*
X178729301Y-32520224D01*
X178579776Y-32370699D01*
X178406558Y-32249411D01*
X178401580Y-32247090D01*
X178401577Y-32247088D01*
X178219892Y-32162367D01*
X178219891Y-32162366D01*
X178214910Y-32160044D01*
X178209602Y-32158622D01*
X178209600Y-32158621D01*
X178015970Y-32106738D01*
X178015968Y-32106738D01*
X178010655Y-32105314D01*
X177800000Y-32086884D01*
X177589345Y-32105314D01*
X177584032Y-32106738D01*
X177584030Y-32106738D01*
X177390400Y-32158621D01*
X177390398Y-32158622D01*
X177385090Y-32160044D01*
X177380109Y-32162366D01*
X177380108Y-32162367D01*
X177198423Y-32247088D01*
X177198420Y-32247090D01*
X177193442Y-32249411D01*
X177020224Y-32370699D01*
X176870699Y-32520224D01*
X176749411Y-32693442D01*
X176747090Y-32698420D01*
X176747088Y-32698423D01*
X176696833Y-32806196D01*
X176660044Y-32885090D01*
X176658622Y-32890398D01*
X176658621Y-32890400D01*
X176606738Y-33084030D01*
X176605314Y-33089345D01*
X176586884Y-33300000D01*
X173863341Y-33300000D01*
X170247675Y-29684334D01*
X170245221Y-29681812D01*
X170180138Y-29612988D01*
X170180135Y-29612986D01*
X170176668Y-29609319D01*
X170114239Y-29561589D01*
X170109108Y-29557448D01*
X170053133Y-29509809D01*
X170053132Y-29509808D01*
X170049280Y-29506530D01*
X170044955Y-29503911D01*
X170044950Y-29503907D01*
X170021176Y-29489509D01*
X170009929Y-29481837D01*
X169983826Y-29461880D01*
X169914592Y-29424757D01*
X169908868Y-29421493D01*
X169841642Y-29380779D01*
X169811181Y-29368472D01*
X169798841Y-29362692D01*
X169795350Y-29360820D01*
X169769891Y-29347169D01*
X169765110Y-29345523D01*
X169765106Y-29345521D01*
X169695599Y-29321588D01*
X169689421Y-29319278D01*
X169621266Y-29291742D01*
X169621267Y-29291742D01*
X169616571Y-29289845D01*
X169584539Y-29282568D01*
X169571441Y-29278837D01*
X169540369Y-29268138D01*
X169462900Y-29254757D01*
X169456496Y-29253477D01*
X169379856Y-29236065D01*
X169347047Y-29234001D01*
X169333547Y-29232415D01*
X169301164Y-29226821D01*
X169297207Y-29226641D01*
X169297204Y-29226641D01*
X169273494Y-29225564D01*
X169273475Y-29225564D01*
X169272075Y-29225500D01*
X169215892Y-29225500D01*
X169207980Y-29225251D01*
X169202386Y-29224899D01*
X169137587Y-29220822D01*
X169098545Y-29224650D01*
X169096008Y-29224899D01*
X169083712Y-29225500D01*
X146074002Y-29225500D01*
X146070483Y-29225451D01*
X145975850Y-29222807D01*
X145975847Y-29222807D01*
X145970795Y-29222666D01*
X145892902Y-29233059D01*
X145886361Y-29233758D01*
X145861617Y-29235749D01*
X145813077Y-29239654D01*
X145813073Y-29239655D01*
X145808035Y-29240060D01*
X145776122Y-29247899D01*
X145762742Y-29250426D01*
X145730180Y-29254771D01*
X145725339Y-29256232D01*
X145725337Y-29256233D01*
X145654971Y-29277478D01*
X145648610Y-29279219D01*
X145572294Y-29297963D01*
X145567634Y-29299941D01*
X145542049Y-29310801D01*
X145529239Y-29315438D01*
X145497792Y-29324933D01*
X145493244Y-29327151D01*
X145493237Y-29327154D01*
X145427182Y-29359371D01*
X145421180Y-29362107D01*
X145377192Y-29380779D01*
X145348844Y-29392812D01*
X145324532Y-29408123D01*
X145321044Y-29410319D01*
X145309140Y-29416945D01*
X145279612Y-29431346D01*
X145275475Y-29434265D01*
X145275474Y-29434265D01*
X145215403Y-29476641D01*
X145209914Y-29480301D01*
X145172429Y-29503907D01*
X145143433Y-29522167D01*
X145139644Y-29525508D01*
X145139638Y-29525512D01*
X145118783Y-29543898D01*
X145108088Y-29552344D01*
X145081253Y-29571274D01*
X145059750Y-29590909D01*
X145020034Y-29630625D01*
X145014264Y-29636044D01*
X144965142Y-29679350D01*
X144965139Y-29679353D01*
X144961345Y-29682698D01*
X144958135Y-29686606D01*
X144958134Y-29686607D01*
X144934821Y-29714989D01*
X144926551Y-29724108D01*
X143730334Y-30920325D01*
X143727812Y-30922779D01*
X143655319Y-30991332D01*
X143652252Y-30995344D01*
X143607592Y-31053757D01*
X143603448Y-31058892D01*
X143552530Y-31118720D01*
X143549911Y-31123045D01*
X143549907Y-31123050D01*
X143535509Y-31146824D01*
X143527837Y-31158071D01*
X143507880Y-31184174D01*
X143505490Y-31188632D01*
X143505489Y-31188633D01*
X143470761Y-31253401D01*
X143467496Y-31259126D01*
X143426779Y-31326358D01*
X143424884Y-31331049D01*
X143414473Y-31356817D01*
X143408693Y-31369158D01*
X143393169Y-31398109D01*
X143391523Y-31402890D01*
X143391521Y-31402894D01*
X143367588Y-31472401D01*
X143365278Y-31478579D01*
X143335845Y-31551429D01*
X143334723Y-31556368D01*
X143328568Y-31583460D01*
X143324837Y-31596559D01*
X143314138Y-31627631D01*
X143300757Y-31705100D01*
X143299477Y-31711504D01*
X143282065Y-31788144D01*
X143280001Y-31820953D01*
X143278415Y-31834453D01*
X143272821Y-31866836D01*
X143271500Y-31895925D01*
X143271500Y-31952108D01*
X143271251Y-31960019D01*
X143266822Y-32030413D01*
X143267316Y-32035448D01*
X143270899Y-32071992D01*
X143271500Y-32084288D01*
X143271500Y-34393969D01*
X143251498Y-34462090D01*
X143197842Y-34508583D01*
X143127568Y-34518687D01*
X143062988Y-34489193D01*
X143056405Y-34483064D01*
X141963536Y-33390195D01*
X141961626Y-33388569D01*
X141961619Y-33388563D01*
X141829132Y-33275808D01*
X141829130Y-33275806D01*
X141825280Y-33272530D01*
X141617642Y-33146779D01*
X141392571Y-33055845D01*
X141347727Y-33045657D01*
X141160787Y-33003185D01*
X141160784Y-33003184D01*
X141155856Y-33002065D01*
X141150809Y-33001747D01*
X141150806Y-33001747D01*
X140930350Y-32987877D01*
X140913587Y-32986822D01*
X140725524Y-33005263D01*
X140677025Y-33010018D01*
X140677024Y-33010018D01*
X140671998Y-33010511D01*
X140437304Y-33072519D01*
X140432687Y-33074575D01*
X140432686Y-33074575D01*
X140387204Y-33094825D01*
X140215544Y-33171254D01*
X140012422Y-33304174D01*
X139980942Y-33332919D01*
X139883211Y-33422159D01*
X139819419Y-33453322D01*
X139748906Y-33445050D01*
X139697423Y-33404678D01*
X139643643Y-33332920D01*
X139643642Y-33332919D01*
X139638261Y-33325739D01*
X139521705Y-33238385D01*
X139385316Y-33187255D01*
X139323134Y-33180500D01*
X137526866Y-33180500D01*
X137464684Y-33187255D01*
X137328295Y-33238385D01*
X137211739Y-33325739D01*
X137124385Y-33442295D01*
X137073255Y-33578684D01*
X137066500Y-33640866D01*
X137066500Y-35437134D01*
X137073255Y-35499316D01*
X137076027Y-35506712D01*
X137076029Y-35506718D01*
X137108083Y-35592221D01*
X137113266Y-35663028D01*
X137079196Y-35725545D01*
X133312236Y-39492504D01*
X133249924Y-39526530D01*
X133179108Y-39521465D01*
X133122273Y-39478918D01*
X133097462Y-39412398D01*
X133097141Y-39403418D01*
X133096282Y-27132703D01*
X134890743Y-27132703D01*
X134928268Y-27417734D01*
X135004129Y-27695036D01*
X135116923Y-27959476D01*
X135264561Y-28206161D01*
X135444313Y-28430528D01*
X135652851Y-28628423D01*
X135886317Y-28796186D01*
X135890112Y-28798195D01*
X135890113Y-28798196D01*
X135911869Y-28809715D01*
X136140392Y-28930712D01*
X136410373Y-29029511D01*
X136691264Y-29090755D01*
X136719841Y-29093004D01*
X136914282Y-29108307D01*
X136914291Y-29108307D01*
X136916739Y-29108500D01*
X137072271Y-29108500D01*
X137074407Y-29108354D01*
X137074418Y-29108354D01*
X137282548Y-29094165D01*
X137282554Y-29094164D01*
X137286825Y-29093873D01*
X137291020Y-29093004D01*
X137291022Y-29093004D01*
X137427584Y-29064723D01*
X137568342Y-29035574D01*
X137839343Y-28939607D01*
X138094812Y-28807750D01*
X138098313Y-28805289D01*
X138098317Y-28805287D01*
X138212418Y-28725095D01*
X138330023Y-28642441D01*
X138540622Y-28446740D01*
X138722713Y-28224268D01*
X138872927Y-27979142D01*
X138988483Y-27715898D01*
X139067244Y-27439406D01*
X139107751Y-27154784D01*
X139107845Y-27136951D01*
X139107867Y-27132703D01*
X174890743Y-27132703D01*
X174928268Y-27417734D01*
X175004129Y-27695036D01*
X175116923Y-27959476D01*
X175264561Y-28206161D01*
X175444313Y-28430528D01*
X175652851Y-28628423D01*
X175886317Y-28796186D01*
X175890112Y-28798195D01*
X175890113Y-28798196D01*
X175911869Y-28809715D01*
X176140392Y-28930712D01*
X176410373Y-29029511D01*
X176691264Y-29090755D01*
X176719841Y-29093004D01*
X176914282Y-29108307D01*
X176914291Y-29108307D01*
X176916739Y-29108500D01*
X177072271Y-29108500D01*
X177074407Y-29108354D01*
X177074418Y-29108354D01*
X177282548Y-29094165D01*
X177282554Y-29094164D01*
X177286825Y-29093873D01*
X177291020Y-29093004D01*
X177291022Y-29093004D01*
X177427584Y-29064723D01*
X177568342Y-29035574D01*
X177839343Y-28939607D01*
X178094812Y-28807750D01*
X178098313Y-28805289D01*
X178098317Y-28805287D01*
X178212418Y-28725095D01*
X178330023Y-28642441D01*
X178540622Y-28446740D01*
X178722713Y-28224268D01*
X178872927Y-27979142D01*
X178988483Y-27715898D01*
X179067244Y-27439406D01*
X179107751Y-27154784D01*
X179107845Y-27136951D01*
X179109235Y-26871583D01*
X179109235Y-26871576D01*
X179109257Y-26867297D01*
X179071732Y-26582266D01*
X178995871Y-26304964D01*
X178883077Y-26040524D01*
X178735439Y-25793839D01*
X178555687Y-25569472D01*
X178347149Y-25371577D01*
X178113683Y-25203814D01*
X178091843Y-25192250D01*
X178068654Y-25179972D01*
X177859608Y-25069288D01*
X177589627Y-24970489D01*
X177308736Y-24909245D01*
X177277685Y-24906801D01*
X177085718Y-24891693D01*
X177085709Y-24891693D01*
X177083261Y-24891500D01*
X176927729Y-24891500D01*
X176925593Y-24891646D01*
X176925582Y-24891646D01*
X176717452Y-24905835D01*
X176717446Y-24905836D01*
X176713175Y-24906127D01*
X176708980Y-24906996D01*
X176708978Y-24906996D01*
X176572417Y-24935276D01*
X176431658Y-24964426D01*
X176160657Y-25060393D01*
X175905188Y-25192250D01*
X175901687Y-25194711D01*
X175901683Y-25194713D01*
X175891594Y-25201804D01*
X175669977Y-25357559D01*
X175459378Y-25553260D01*
X175277287Y-25775732D01*
X175127073Y-26020858D01*
X175011517Y-26284102D01*
X174932756Y-26560594D01*
X174892249Y-26845216D01*
X174892227Y-26849505D01*
X174892226Y-26849512D01*
X174890765Y-27128417D01*
X174890743Y-27132703D01*
X139107867Y-27132703D01*
X139109235Y-26871583D01*
X139109235Y-26871576D01*
X139109257Y-26867297D01*
X139071732Y-26582266D01*
X138995871Y-26304964D01*
X138883077Y-26040524D01*
X138735439Y-25793839D01*
X138555687Y-25569472D01*
X138347149Y-25371577D01*
X138113683Y-25203814D01*
X138091843Y-25192250D01*
X138068654Y-25179972D01*
X137859608Y-25069288D01*
X137589627Y-24970489D01*
X137308736Y-24909245D01*
X137277685Y-24906801D01*
X137085718Y-24891693D01*
X137085709Y-24891693D01*
X137083261Y-24891500D01*
X136927729Y-24891500D01*
X136925593Y-24891646D01*
X136925582Y-24891646D01*
X136717452Y-24905835D01*
X136717446Y-24905836D01*
X136713175Y-24906127D01*
X136708980Y-24906996D01*
X136708978Y-24906996D01*
X136572416Y-24935277D01*
X136431658Y-24964426D01*
X136160657Y-25060393D01*
X135905188Y-25192250D01*
X135901687Y-25194711D01*
X135901683Y-25194713D01*
X135891594Y-25201804D01*
X135669977Y-25357559D01*
X135459378Y-25553260D01*
X135277287Y-25775732D01*
X135127073Y-26020858D01*
X135011517Y-26284102D01*
X134932756Y-26560594D01*
X134892249Y-26845216D01*
X134892227Y-26849505D01*
X134892226Y-26849512D01*
X134890765Y-27128417D01*
X134890743Y-27132703D01*
X133096282Y-27132703D01*
X133096009Y-23240009D01*
X133116006Y-23171887D01*
X133169659Y-23125390D01*
X133222009Y-23114000D01*
X180214000Y-23114000D01*
X180282121Y-23134002D01*
G37*
%TD.AperFunction*%
M02*
